<?xml version="1.0" standalone="no"?>
<!DOCTYPE svg PUBLIC "-//W3C//DTD SVG 20010904//EN"
 "http://www.w3.org/TR/2001/REC-SVG-20010904/DTD/svg10.dtd">
<svg version="1.0" xmlns="http://www.w3.org/2000/svg"
 width="736.000000pt" height="736.000000pt" viewBox="0 0 736.000000 736.000000"
 preserveAspectRatio="xMidYMid meet">

<g transform="translate(0.000000,736.000000) scale(0.100000,-0.100000)"
fill="#000000" stroke="none">
<path d="M0 3680 l0 -3680 3680 0 3680 0 0 3680 0 3680 -3680 0 -3680 0 0
-3680z m3081 3010 c25 -14 24 -42 -1 -65 -19 -17 -20 -31 -20 -321 l0 -304
-50 -37 c-46 -34 -50 -40 -50 -80 0 -23 -4 -45 -10 -48 -6 -4 -10 15 -10 48 0
50 3 57 34 81 71 54 66 28 66 353 0 280 -1 296 -20 320 -19 24 -19 27 -4 45
19 20 37 23 65 8z m1219 -10 c0 -11 -4 -20 -9 -20 -14 0 -23 18 -16 30 10 17
25 11 25 -10z m-615 -240 c17 -18 17 -21 1 -45 -15 -22 -18 -57 -19 -219 l-2
-193 58 -52 57 -53 0 -98 c0 -107 10 -141 105 -347 l37 -82 24 22 c20 20 23
32 25 120 l3 98 -50 52 c-27 28 -52 53 -56 55 -5 2 -8 106 -8 231 0 215 -1
229 -20 246 -25 23 -25 41 -1 55 28 15 57 12 72 -6 11 -14 10 -21 -4 -46 -15
-25 -17 -61 -17 -252 l0 -222 55 -54 c53 -52 55 -57 55 -106 0 -117 22 -176
53 -145 6 6 11 136 14 316 3 301 3 306 -18 335 -18 24 -20 32 -9 45 7 8 25 15
40 15 15 0 33 -7 40 -15 11 -13 9 -21 -10 -47 l-23 -31 5 -307 4 -308 27 -32
c32 -38 33 -49 7 -100 -11 -22 -20 -49 -20 -60 0 -31 -49 -72 -77 -65 -13 3
-23 3 -23 1 0 -10 89 -235 105 -266 9 -18 15 -34 12 -36 -2 -2 -45 79 -95 181
-51 102 -94 185 -97 185 -3 0 2 -17 11 -37 9 -21 29 -69 44 -108 31 -80 88
-209 120 -275 13 -24 47 -100 77 -168 29 -68 65 -145 78 -170 14 -26 25 -53
25 -59 0 -7 4 -13 9 -13 15 0 -62 216 -119 333 -29 59 -50 110 -47 113 7 7 96
-178 146 -303 14 -36 22 -39 52 -23 17 10 19 23 19 163 0 137 -2 156 -22 193
l-22 41 22 28 c16 20 22 42 22 76 0 53 -6 57 -51 34 -53 -28 -97 21 -64 71 9
14 14 33 10 42 -3 9 -6 281 -5 605 0 574 0 589 -20 614 -24 30 -14 58 24 65
51 10 75 -35 40 -73 -15 -17 -16 -75 -15 -596 l1 -578 60 -53 60 -54 0 -64 c0
-52 3 -65 19 -73 10 -6 21 -8 24 -5 3 3 19 6 36 6 58 2 89 -52 56 -96 -21 -27
-19 -60 5 -81 27 -25 25 -41 -9 -76 -37 -36 -67 -37 -103 -2 -36 35 -41 22
-36 -99 2 -79 7 -98 27 -125 29 -39 23 -76 -18 -101 l-29 -18 39 -104 c22 -57
38 -109 36 -114 -2 -5 -9 6 -17 25 -36 90 -90 199 -99 199 -13 0 16 -77 104
-280 75 -173 170 -405 277 -675 39 -99 91 -229 115 -289 24 -60 42 -110 40
-113 -4 -4 -45 93 -107 252 -51 130 -172 429 -217 535 -101 239 -256 590 -259
587 -2 -2 25 -71 60 -153 191 -450 236 -558 361 -874 76 -190 160 -397 187
-460 110 -254 65 -395 -140 -439 -173 -36 -357 26 -454 154 -22 30 -57 102
-89 186 -29 76 -56 136 -61 133 -7 -5 -12 13 -11 43 1 7 -4 10 -10 6 -6 -4 -8
0 -4 10 3 10 3 17 -2 17 -5 0 -8 6 -7 13 3 33 -61 165 -100 204 -88 87 -33 82
-793 84 l-672 2 -13 31 c-12 30 -12 31 16 34 17 2 28 8 25 15 -2 8 -33 13 -80
15 -104 4 -140 -13 -163 -76 -10 -26 -28 -73 -41 -104 -12 -32 -23 -65 -22
-75 0 -10 9 5 19 32 40 110 78 183 100 190 34 11 124 14 108 4 -10 -7 -8 -13
9 -27 l23 -17 -55 -29 c-92 -48 -109 -74 -226 -336 -28 -63 -62 -146 -76 -184
-48 -131 -131 -244 -159 -216 -6 6 -20 4 -36 -4 -15 -8 -39 -16 -55 -19 -15
-2 -22 -2 -15 0 28 10 9 21 -28 16 -67 -9 -80 11 -80 121 l0 91 35 28 c19 15
45 47 56 70 12 23 35 57 52 75 17 17 26 32 20 32 -14 0 -78 -71 -97 -108 -8
-16 -30 -40 -48 -54 -24 -18 -39 -42 -51 -80 -17 -56 -51 -103 -68 -93 -5 4
-9 -2 -10 -12 0 -15 -2 -14 -9 4 -12 30 -47 39 -71 17 -10 -9 -19 -24 -19 -32
0 -21 29 -52 49 -53 11 0 12 -2 3 -6 -17 -7 4 -33 27 -33 13 0 13 2 2 9 -9 6
-4 8 15 8 16 0 23 -2 15 -5 -9 -3 3 -12 30 -24 l44 -19 -45 6 c-108 14 -178
77 -201 179 -14 65 -8 86 73 251 33 66 93 192 134 280 40 88 91 194 112 235
21 41 48 99 60 128 13 28 27 52 32 52 6 0 10 5 10 11 0 6 37 86 81 177 45 92
94 197 109 235 15 37 29 65 32 62 3 -3 16 20 28 52 13 32 60 132 105 223 45
91 85 178 89 193 4 15 10 26 15 23 4 -3 15 11 25 31 13 28 14 38 5 47 -9 8
-10 8 -5 -1 3 -6 2 -13 -3 -15 -9 -3 -301 -585 -391 -778 -29 -63 -142 -296
-251 -518 -110 -222 -199 -408 -199 -413 0 -6 -7 -17 -16 -26 -8 -9 -13 -22
-10 -30 3 -8 2 -12 -3 -9 -15 10 -61 -109 -61 -157 0 -63 33 -146 72 -185 58
-55 120 -76 228 -75 75 0 107 4 153 22 68 27 133 74 163 119 12 17 25 28 29
24 5 -4 5 -1 1 6 -5 8 -2 18 7 25 14 11 67 129 107 239 9 26 21 53 27 60 6 7
24 45 39 83 46 115 87 177 136 205 l43 25 610 3 c724 4 758 2 822 -41 30 -20
55 -49 70 -77 33 -65 28 -74 -7 -13 -20 34 -44 60 -72 77 l-43 24 -677 5
c-625 4 -680 3 -715 -13 -21 -10 -48 -28 -60 -41 -18 -20 -131 -268 -221 -484
-59 -141 -104 -187 -234 -240 -64 -26 -86 -29 -178 -30 -95 0 -111 3 -165 28
-120 56 -172 139 -163 260 4 52 16 85 78 207 42 84 74 160 75 181 2 30 47 132
100 229 7 14 44 88 81 165 172 360 232 483 315 651 49 99 89 186 89 193 0 7
16 46 35 88 42 91 39 110 -4 27 -16 -33 -30 -55 -31 -50 0 16 63 127 69 119
14 -19 31 -10 42 25 6 20 25 61 41 89 26 47 35 68 37 96 1 5 5 5 11 2 6 -4 7
1 3 11 -4 12 -3 15 5 10 8 -5 10 -2 6 8 -3 9 -1 16 5 16 6 0 10 3 9 8 -1 4 13
39 31 77 18 39 43 97 56 130 38 98 115 271 115 259 0 -7 -18 -54 -39 -105 -41
-99 -84 -229 -77 -236 4 -4 9 10 45 119 12 37 52 134 88 215 36 81 72 170 79
197 16 58 27 74 18 25 -4 -20 24 27 67 111 53 104 87 158 122 192 27 27 52 46
57 43 5 -3 24 4 42 15 94 58 270 77 393 44 33 -9 68 -17 77 -18 9 0 14 -5 11
-10 -4 -5 1 -7 11 -3 9 4 15 3 12 -2 -6 -10 22 -25 40 -22 6 0 35 -24 63 -54
51 -53 79 -105 201 -372 54 -116 28 -14 -39 157 -23 58 -46 113 -51 122 -5 9
-6 19 -2 22 5 3 9 39 11 82 l2 77 -61 56 -60 56 0 195 c0 178 -2 197 -20 220
-26 33 -25 49 3 60 33 13 42 12 62 -10z m1963 -32 c16 -16 15 -43 -3 -58 -13
-10 -15 -50 -15 -241 0 -146 -4 -229 -10 -229 -9 0 -13 128 -12 366 1 69 -2
85 -18 99 -25 22 -26 51 -2 64 23 14 45 14 60 -1z m-2906 -45 c25 -22 23 -62
-4 -91 -23 -23 -23 -28 -29 -385 -3 -199 -7 -364 -9 -367 -3 -3 -7 162 -10
365 -5 367 -5 370 -27 393 -27 26 -29 49 -7 80 18 26 60 29 86 5z m-395 -59
c25 -27 22 -44 -12 -85 -20 -25 -22 -41 -28 -230 -4 -112 -7 -362 -7 -555 l0
-351 -85 -88 -85 -87 0 -158 c0 -142 2 -159 18 -164 9 -3 30 -17 45 -30 l29
-25 -25 -48 c-33 -62 -114 -235 -134 -285 -8 -21 -17 -37 -19 -35 -5 5 35 102
80 196 37 78 38 92 6 84 -11 -3 -38 6 -63 21 l-44 25 -7 -46 c-3 -25 -6 -96
-7 -157 -1 -196 -17 -165 -20 39 -2 105 -3 209 -4 233 -1 39 -7 48 -70 112
-38 38 -66 72 -62 76 7 7 145 -117 162 -146 9 -16 37 -18 71 -6 8 3 14 61 19
169 l7 165 84 83 84 84 0 547 c0 527 -1 549 -19 567 -22 22 -41 55 -41 71 0 6
11 22 26 36 30 31 67 27 101 -12z m971 -70 c2 -11 -4 -27 -13 -34 -12 -10 -15
-37 -15 -141 0 -108 -2 -129 -15 -129 -13 0 -15 21 -15 129 0 102 -3 131 -15
141 -16 13 -20 42 -8 54 4 4 23 6 43 4 27 -2 36 -8 38 -24z m1336 0 c21 -20
20 -33 -4 -59 -19 -20 -20 -37 -20 -595 0 -381 3 -577 10 -584 6 -6 10 -103
10 -266 l0 -256 -55 -54 -55 -54 0 -177 0 -176 49 -46 c32 -30 51 -57 55 -79
14 -68 13 -73 -17 -76 -35 -4 -44 18 -22 52 19 29 20 28 -47 103 l-38 43 0
183 0 183 55 54 55 54 0 241 0 240 -113 115 -113 115 0 157 0 157 -27 21 c-31
24 -34 46 -11 78 30 43 114 19 114 -33 0 -12 -10 -32 -22 -45 -21 -23 -23 -35
-26 -175 l-3 -150 87 -87 c48 -49 88 -88 90 -88 2 0 4 254 4 563 0 550 -1 565
-20 587 -25 28 -25 46 -2 59 25 15 48 13 66 -5z m508 -31 c23 -21 23 -44 -2
-76 -21 -26 -28 -101 -11 -112 16 -9 72 -96 67 -103 -2 -4 57 -7 132 -7 133 0
139 -1 212 -34 152 -67 200 -155 200 -360 0 -71 -3 -79 -36 -124 -20 -27 -38
-46 -41 -43 -4 3 3 16 15 29 33 36 42 72 40 170 l-1 92 -6 -95 c-5 -81 -10
-102 -36 -145 -16 -27 -28 -54 -26 -60 1 -5 -1 -7 -4 -3 -4 4 -27 -6 -51 -23
-57 -39 -96 -55 -168 -68 -158 -29 -349 57 -426 192 -18 31 -30 44 -34 35 -3
-7 -4 37 -3 99 2 98 0 109 -11 87 -7 -14 -17 -53 -22 -87 l-9 -62 3 70 c4 88
36 161 102 234 27 30 41 52 31 48 -14 -5 -17 -3 -13 11 3 9 -1 28 -8 41 -16
28 -7 73 21 103 21 23 24 99 5 106 -26 8 -33 40 -17 72 12 24 22 30 47 30 17
0 40 -7 50 -17z m-1661 -43 c23 -13 25 -33 4 -50 -9 -8 -15 -30 -15 -60 0 -67
-11 -140 -21 -140 -5 0 -9 40 -9 89 0 50 -4 93 -10 96 -23 14 -30 43 -14 59
18 19 38 20 65 6z m-967 -16 c20 -8 21 -38 2 -53 -11 -9 -14 -81 -18 -360 -4
-339 -5 -349 -26 -376 -20 -25 -22 -40 -23 -149 0 -66 -4 -130 -9 -141 -5 -12
-9 37 -9 131 -1 139 1 152 19 169 19 17 20 31 20 365 0 297 -2 349 -15 360
-16 13 -20 42 -8 53 8 9 46 9 67 1z m-426 -47 c2 -10 -5 -28 -15 -39 -17 -18
-18 -42 -18 -297 0 -270 1 -277 23 -308 27 -38 27 -44 2 -85 -16 -27 -20 -51
-20 -125 l0 -91 -187 -180 c-279 -267 -242 -242 -363 -242 -93 0 -102 -2 -107
-20 -5 -18 -6 -19 -28 -2 -16 12 -20 22 -15 36 6 18 16 19 125 17 l118 -3 215
216 215 215 -6 77 c-5 59 -12 82 -27 96 -26 25 -25 66 3 96 22 23 22 29 25
309 3 252 2 287 -12 295 -19 11 -21 44 -3 52 27 11 72 1 75 -17z m3701 -500
c18 -84 16 -275 -2 -327 -23 -63 -12 -62 17 1 31 69 33 39 6 -85 -20 -92 -35
-118 -82 -142 -35 -18 -48 -18 -48 2 0 10 -6 14 -17 10 -10 -2 -34 -7 -53 -11
l-35 -6 35 21 c40 25 71 60 63 73 -3 5 8 23 25 40 68 72 87 162 72 338 -6 64
-15 131 -20 150 l-9 34 19 -23 c10 -12 24 -46 29 -75z m-900 47 c-17 -43 -38
-219 -34 -278 3 -40 3 -45 -4 -21 -12 43 -13 173 -1 220 13 48 42 117 47 111
2 -2 -2 -16 -8 -32z m-3515 10 c21 -8 20 -33 -1 -56 -16 -18 -17 -18 -40 4
-13 12 -23 27 -23 34 0 20 34 29 64 18z m1426 -14 c-6 -11 -13 -20 -16 -20 -2
0 0 9 6 20 6 11 13 20 16 20 2 0 0 -9 -6 -20z m-27 -50 c-5 -19 -23 -39 -23
-25 0 9 20 45 24 45 2 0 2 -9 -1 -20z m3377 -16 c0 -3 -5 -14 -10 -24 -8 -14
-6 -21 6 -28 14 -8 10 -12 -22 -28 l-39 -19 -3 -239 c-2 -230 -2 -240 18 -261
l21 -22 -24 4 c-29 6 -44 -12 -27 -32 13 -16 3 -19 -24 -9 -18 7 -23 64 -6 64
6 0 10 91 10 253 0 241 1 255 20 272 11 10 20 26 20 35 0 9 5 21 12 28 12 12
48 17 48 6z m-4778 -301 c8 -10 49 -13 163 -13 l153 0 52 35 c57 38 81 46 87
28 3 -7 -26 -27 -66 -48 l-71 -35 -154 0 c-195 0 -187 -7 -184 165 l2 120 3
-119 c2 -67 8 -126 15 -133z m418 76 c0 -5 -7 -9 -15 -9 -15 0 -20 12 -9 23 8
8 24 -1 24 -14z m3921 -52 c-23 -60 -180 -131 -316 -144 -55 -5 -212 13 -202
23 2 3 37 0 77 -7 145 -22 294 19 388 106 31 29 58 52 60 50 1 -1 -2 -14 -7
-28z m-4107 -213 c22 -22 20 -50 -5 -68 -19 -13 -25 -13 -58 5 -29 15 -56 19
-143 19 -60 0 -110 -4 -113 -10 -3 -5 -15 -15 -25 -20 -17 -9 -20 -8 -17 12 3
29 -39 39 -46 11 -4 -14 -5 -14 -6 4 -2 36 33 48 95 33 71 -17 230 -9 252 14
21 20 46 20 66 0z m4193 -26 c-3 -8 -6 -5 -6 6 -1 11 2 17 5 13 3 -3 4 -12 1
-19z m-4749 -40 c18 -18 15 -46 -8 -75 -18 -24 -20 -41 -20 -204 l0 -179 45
-21 c25 -12 48 -25 51 -30 3 -5 71 -9 151 -9 l145 0 38 30 c37 29 40 30 151
30 105 0 116 2 149 25 31 21 41 24 64 16 46 -18 31 -91 -20 -91 -12 0 -27 7
-34 15 -10 12 -39 15 -139 15 l-126 0 -40 -32 -39 -33 -138 -3 c-100 -3 -138
-7 -138 -16 0 -33 22 -36 297 -36 267 0 275 1 304 22 32 24 51 20 73 -15 23
-37 -36 -74 -71 -45 -12 10 -83 14 -306 16 l-290 3 -41 29 c-23 15 -56 44 -74
63 l-33 34 1 199 c0 163 -2 203 -14 219 -30 39 -14 85 29 85 12 0 26 -5 33
-12z m5362 -9 c9 -16 8 -26 -7 -47 -15 -23 -18 -51 -20 -197 l-1 -170 -69 -64
c-136 -126 -140 -128 -226 -136 -42 -4 -80 -11 -83 -16 -10 -17 -15 -61 -9
-80 6 -18 19 -19 232 -19 l226 0 49 31 c43 28 51 30 77 19 43 -17 57 -50 37
-87 -25 -50 -68 -57 -114 -18 l-30 25 -238 0 c-222 0 -241 -2 -264 -20 -33
-25 -76 -26 -90 -1 -5 11 -10 37 -11 58 0 30 -2 34 -9 18 -5 -11 -10 -76 -11
-145 l-2 -125 -7 115 c-4 63 -7 183 -7 265 -1 141 0 146 11 88 12 -68 21 -84
30 -55 13 39 54 35 136 -13 14 -8 48 -15 75 -15 49 0 52 1 163 101 l112 101 0
151 c0 115 -4 159 -15 181 -18 34 -19 48 -3 64 19 19 56 14 68 -9z m-1229 -25
c30 -9 106 -20 169 -23 106 -6 111 -7 63 -15 -28 -4 -78 -5 -110 -1 -58 7
-193 42 -193 50 0 8 14 6 71 -11z m-2760 -101 c-11 -21 -20 -35 -21 -31 0 12
33 78 38 74 2 -2 -6 -21 -17 -43z m3110 -25 c30 -15 56 -26 59 -26 28 7 97
-77 119 -142 17 -54 40 -429 44 -745 5 -318 3 -298 -18 190 -20 476 -22 499
-40 537 -8 18 -13 24 -9 13 8 -30 22 -274 34 -605 6 -162 15 -353 20 -425 5
-71 17 -333 27 -582 17 -447 17 -453 -3 -500 -39 -96 -165 -150 -324 -140 -47
3 -106 13 -131 22 -59 21 -124 76 -150 128 -24 47 -29 121 -51 782 -12 381
-13 393 -19 240 -4 -106 -5 -57 -4 145 2 168 1 297 -2 287 -11 -43 -23 3 -23
91 0 53 -6 185 -12 292 -18 279 -17 300 15 348 14 22 41 50 59 63 21 15 28 17
19 6 -18 -23 -12 -22 44 9 66 37 96 43 201 41 74 -2 100 -7 145 -29z m-3143
-43 c-6 -14 -13 -23 -15 -21 -5 5 15 46 22 46 3 0 -1 -11 -7 -25z m2347 -485
l-55 -56 0 -65 c0 -59 3 -68 30 -94 l29 -28 4 -226 c2 -124 5 -235 8 -246 3
-15 -2 -21 -19 -23 -24 -4 -45 29 -24 36 9 3 12 65 12 231 l0 227 -30 29 c-28
27 -30 34 -30 98 l0 70 60 58 60 57 2 219 3 218 2 -225 3 -224 -55 -56z m-433
441 c16 -18 27 -44 12 -28 -3 3 -14 -3 -25 -14 -26 -26 -74 -25 -93 3 -20 28
-20 30 4 55 16 18 25 20 51 13 18 -5 40 -18 51 -29z m-2005 -20 c-15 -22 -31
-58 -35 -79 -17 -76 -31 -82 -25 -12 5 57 10 69 41 102 44 47 53 41 19 -11z
m66 14 c-3 -9 -8 -14 -10 -11 -3 3 -2 9 2 15 9 16 15 13 8 -4z m2605 -67 c-6
-13 -20 -50 -29 -83 -10 -33 -18 -51 -18 -39 -1 28 24 111 39 129 18 22 22 18
8 -7z m803 -32 c28 -65 41 -209 43 -481 1 -137 7 -378 14 -535 7 -157 17 -402
22 -545 6 -143 14 -312 18 -375 12 -189 9 -271 -11 -305 l-18 -30 6 36 c9 61
7 174 -16 644 -11 248 -25 545 -29 660 -5 116 -15 307 -24 425 -9 118 -16 272
-16 341 0 79 -5 143 -14 172 -17 56 -1 52 25 -7z m-760 -17 c-5 -26 -9 -34
-10 -19 -1 27 9 73 15 67 2 -2 0 -23 -5 -48z m-2743 -74 c-6 -14 -13 -23 -15
-21 -5 5 15 46 22 46 3 0 -1 -11 -7 -25z m-634 -241 c23 -23 20 -51 -9 -70
-23 -15 -27 -15 -50 0 -29 19 -32 42 -8 68 20 22 46 23 67 2z m-761 -44 l34
-30 253 0 c242 -1 253 0 274 19 28 26 48 26 71 1 16 -17 17 -23 5 -45 -18 -33
-38 -39 -69 -18 -23 16 -54 18 -287 18 l-260 0 -33 -27 c-40 -34 -55 -35 -86
-3 -30 29 -32 68 -5 95 28 28 64 25 103 -10z m990 -298 c17 -19 17 -21 -2 -58
-12 -21 -21 -50 -21 -64 0 -51 -17 -53 -25 -4 -4 32 -15 56 -31 71 l-24 23
-40 -36 -40 -36 -1 -167 c0 -91 -4 -175 -8 -186 -9 -22 -21 123 -21 252 0 82
-1 85 -31 110 -61 52 -58 112 7 139 36 15 38 14 85 -15 48 -30 49 -30 79 -13
l30 17 0 101 c0 55 3 104 8 108 4 4 9 -44 12 -107 4 -92 9 -120 23 -135z
m-917 96 c26 -21 39 -23 155 -23 122 0 129 1 154 25 24 23 28 24 53 9 36 -20
41 -61 10 -83 -28 -20 -30 -20 -56 3 -38 32 -281 39 -319 9 -7 -5 -22 -8 -35
-6 -39 5 -36 87 3 88 4 0 19 -10 35 -22z m5474 13 c0 -5 -7 -14 -15 -21 -8 -7
-15 -19 -15 -28 0 -13 -2 -13 -18 1 -16 15 -48 17 -245 17 -145 0 -227 4 -227
10 0 6 85 10 234 10 146 0 237 4 241 10 8 12 45 13 45 1z m-4451 -150 c-6 -18
-13 -30 -15 -28 -2 2 1 18 7 36 6 18 13 30 15 28 2 -2 -1 -18 -7 -36z m-42 -3
c-18 -44 -56 -115 -57 -107 0 10 61 139 66 139 2 0 -2 -15 -9 -32z m-602 -63
c31 -30 32 -58 3 -85 -28 -26 -46 -25 -76 2 -19 19 -37 24 -104 27 -48 2 -84
-1 -91 -8 -7 -7 -14 -5 -23 7 -8 9 -14 19 -14 22 0 3 43 4 96 2 l95 -4 31 31
c37 37 51 39 83 6z m4973 -23 c2 -7 -5 -16 -18 -19 -12 -3 -19 -11 -16 -19 3
-8 0 -11 -10 -7 -29 11 -7 67 25 61 8 -2 16 -9 19 -16z m-5288 -31 c0 -6 -4
-13 -10 -16 -5 -3 -10 1 -10 9 0 9 5 16 10 16 6 0 10 -4 10 -9z m891 -24 c-10
-9 -11 -8 -5 6 3 10 9 15 12 12 3 -3 0 -11 -7 -18z m-338 -8 c13 -6 32 -26 42
-46 l20 -36 -34 -28 c-19 -15 -38 -26 -41 -24 -13 8 -20 -37 -20 -136 0 -93 1
-96 30 -124 17 -16 30 -36 30 -44 0 -10 -16 2 -40 29 l-39 45 -1 103 0 103
-35 33 c-41 39 -46 78 -13 113 23 25 62 30 101 12z m288 -11 c-56 -140 -182
-411 -188 -404 -2 2 9 30 25 62 25 50 91 198 148 332 16 36 29 45 15 10z m6
-60 c-3 -8 -6 -5 -6 6 -1 11 2 17 5 13 3 -3 4 -12 1 -19z m4687 -7 c21 -23 18
-49 -6 -65 -13 -8 -25 -6 -47 7 -24 14 -55 17 -183 17 -147 -1 -154 -2 -180
-25 l-28 -24 0 -286 0 -286 49 -52 c102 -109 117 -124 152 -150 30 -22 46 -27
97 -27 l62 0 20 41 c13 25 19 51 16 71 -6 41 0 54 35 68 24 10 33 10 54 -4 45
-29 23 -106 -30 -106 -15 0 -36 -16 -59 -45 -36 -43 -39 -45 -93 -45 -39 0
-62 -5 -80 -20 -33 -26 -63 -12 -63 31 0 24 -17 47 -84 117 -46 48 -88 97 -95
109 -7 15 -11 114 -11 311 l0 290 34 26 c34 26 37 26 195 26 120 0 163 3 173
13 12 13 34 24 49 26 3 1 14 -8 23 -18z m-745 -661 c6 -124 11 -282 11 -351 0
-124 0 -127 -30 -167 -39 -54 -48 -54 -13 0 37 55 39 100 19 528 -9 190 -15
397 -15 460 2 105 3 99 10 -65 4 -99 13 -281 18 -405z m-4708 499 l67 -71 31
23 31 23 26 -26 c23 -23 25 -28 13 -49 -8 -15 -12 -56 -12 -104 1 -44 1 -93 2
-110 1 -134 -16 -615 -21 -621 -5 -4 -8 125 -8 287 0 216 -3 298 -12 307 -7 7
-33 12 -59 12 -44 0 -50 3 -85 45 l-36 45 -111 0 c-89 0 -114 -3 -129 -17 -11
-9 -18 -11 -18 -5 0 7 -9 21 -20 32 l-20 20 24 0 c14 0 28 -4 31 -10 4 -6 58
-10 130 -10 l123 0 32 -40 c27 -35 37 -40 71 -40 71 0 79 10 79 98 0 70 -2 78
-27 99 -14 13 -34 23 -43 23 -10 0 -26 12 -35 28 -35 54 -67 82 -82 71 -10 -9
-13 -7 -13 9 0 12 -5 24 -10 27 -10 6 -4 25 8 25 4 0 37 -32 73 -71z m5224
-169 c21 -23 70 -26 110 -8 34 15 54 -2 30 -26 -9 -9 -13 -20 -10 -26 3 -5 1
-10 -5 -10 -6 0 -13 7 -16 15 -4 10 -20 15 -49 15 -25 0 -50 -6 -59 -15 -42
-42 -111 11 -71 55 23 25 47 25 70 0z m-1575 -35 c0 -5 -5 -3 -10 5 -5 8 -10
20 -10 25 0 6 5 3 10 -5 5 -8 10 -19 10 -25z m-3174 -184 c-53 -105 -98 -191
-101 -191 -3 0 39 88 92 195 54 107 99 192 101 191 2 -2 -40 -90 -92 -195z
m3203 114 c0 -5 -6 1 -14 15 -8 14 -14 30 -14 35 0 6 6 -1 14 -15 8 -14 14
-29 14 -35z m-3325 -37 c14 -23 -3 -52 -32 -56 -28 -4 -55 34 -41 60 13 24 57
21 73 -4z m3350 -28 c5 -17 4 -20 -2 -10 -5 8 -13 26 -16 40 -5 17 -4 20 2 10
5 -8 13 -26 16 -40z m-2261 13 c-7 -2 -19 -2 -25 0 -7 3 -2 5 12 5 14 0 19 -2
13 -5z m405 -80 c-76 -2 -200 -2 -275 0 -76 1 -14 3 137 3 151 0 213 -2 138
-3z m205 0 c-7 -2 -21 -2 -30 0 -10 3 -4 5 12 5 17 0 24 -2 18 -5z m535 0
c-82 -2 -214 -2 -295 0 -82 1 -15 3 147 3 162 0 229 -2 148 -3z m-2122 -97
c-21 -49 -28 -46 -9 4 9 22 18 38 20 36 2 -2 -3 -20 -11 -40z m-558 8 c33 -23
29 -69 -8 -104 l-30 -28 0 -216 0 -216 -42 -46 c-58 -63 -164 -153 -150 -128
6 11 47 55 91 97 l81 77 0 221 0 220 -26 23 c-69 58 9 152 84 100z m3931 -274
c33 -95 24 -239 -17 -264 -6 -3 -3 8 6 26 12 24 17 58 17 123 -1 86 -3 95 -48
193 -26 56 -47 105 -46 110 1 13 67 -128 88 -188z m-3434 137 c-8 -21 -18 -37
-20 -37 -3 0 2 16 10 36 8 20 15 39 15 42 0 3 2 3 5 0 3 -3 -2 -21 -10 -41z
m1990 13 c-26 -11 -897 -12 -950 -1 -23 5 172 9 465 9 290 0 496 -3 485 -8z
m2635 -496 c0 -323 1 -332 21 -358 18 -23 20 -32 10 -52 -13 -28 -46 -32 -73
-7 -23 21 -23 28 3 62 19 26 20 38 17 352 l-3 326 -77 85 c-43 47 -78 89 -78
94 0 5 41 -32 90 -81 l90 -90 0 -331z m-4679 354 c-11 -35 -22 -85 -24 -113
l-3 -50 -2 51 c-2 50 34 192 45 181 3 -3 -4 -34 -16 -69z m-72 -9 c-17 -35
-38 -80 -46 -99 -12 -32 -13 -32 -7 -5 6 35 74 178 81 171 2 -2 -10 -33 -28
-67z m891 -202 c-42 -101 -79 -171 -87 -164 -2 3 5 20 15 38 11 19 39 78 62
132 23 54 44 96 46 94 2 -2 -14 -47 -36 -100z m-510 52 c0 -13 -4 -18 -12 -13
-6 4 -4 -3 5 -17 18 -25 23 -54 8 -45 -5 4 -11 1 -13 -5 -3 -8 -13 -7 -35 4
-17 9 -33 13 -37 10 -3 -4 -6 -3 -6 1 0 6 81 86 88 86 1 0 2 -9 2 -21z m-443
-26 c-3 -10 -5 -4 -5 12 0 17 2 24 5 18 2 -7 2 -21 0 -30z m318 -8 c0 -11 -7
-21 -16 -23 -18 -3 -33 23 -23 39 10 17 39 5 39 -16z m1224 -212 c17 -17 31
-40 31 -50 -1 -40 -64 -89 -100 -78 -25 8 -60 52 -60 76 0 21 48 81 60 74 4
-3 11 30 16 73 l8 77 7 -71 c6 -60 11 -74 38 -101z m-1119 147 c18 -12 2 -12
-25 0 -13 6 -15 9 -5 9 8 0 22 -4 30 -9z m250 2 c0 -15 -93 -52 -145 -58 -47
-5 -59 7 -12 13 52 7 117 26 117 33 0 5 8 11 18 13 9 3 18 5 20 6 1 0 2 -3 2
-7z m1063 -23 c5 -4 0 -10 -13 -14 -12 -4 -27 -2 -33 4 -8 8 -6 11 6 11 9 0
17 8 18 18 0 13 2 14 6 2 3 -8 10 -18 16 -21z m-909 -35 c-21 -31 -84 -75
-142 -97 -65 -26 -64 -20 3 13 33 16 80 47 105 69 54 48 55 49 34 15z m4297 9
c-13 -3 -26 -13 -28 -24 -7 -24 -23 -25 -23 -1 0 26 9 32 44 31 26 -1 27 -3 7
-6z m-651 -58 c-24 -25 -118 -75 -141 -75 -7 0 9 11 37 25 27 13 65 38 84 54
41 34 54 32 20 -4z m-3529 -2 c-12 -20 -14 -14 -5 12 4 9 9 14 11 11 3 -2 0
-13 -6 -23z m2644 -23 c-21 -34 -172 -71 -278 -69 -54 2 -49 3 34 10 88 7 178
30 225 58 24 13 27 13 19 1z m-2299 -313 c22 -19 26 -29 20 -51 -14 -57 -101
-59 -121 -2 -8 25 -6 31 17 51 26 22 27 29 35 157 l8 133 6 -132 c7 -128 8
-133 35 -156z m3284 247 c-15 -39 -66 -91 -113 -115 -63 -33 -205 -51 -352
-46 -71 2 -140 8 -152 13 -14 6 40 8 145 5 216 -4 283 7 365 63 34 22 73 58
86 78 28 43 37 44 21 2z m-3953 20 c-3 -3 -12 -4 -19 -1 -8 3 -5 6 6 6 11 1
17 -2 13 -5z m2550 0 c-3 -3 -12 -4 -19 -1 -8 3 -5 6 6 6 11 1 17 -2 13 -5z
m-2594 -11 c-7 -2 -21 -2 -30 0 -10 3 -4 5 12 5 17 0 24 -2 18 -5z m2650 0
c-7 -2 -21 -2 -30 0 -10 3 -4 5 12 5 17 0 24 -2 18 -5z m804 1 c-3 -3 -12 -4
-19 -1 -8 3 -5 6 6 6 11 1 17 -2 13 -5z m-3539 -11 c-15 -2 -42 -2 -60 0 -18
2 -6 4 27 4 33 0 48 -2 33 -4z m1410 -32 c-18 -21 -63 -72 -100 -113 l-68 -75
0 -131 0 -130 -42 -41 c-24 -22 -46 -41 -50 -41 -5 0 -8 -24 -8 -53 0 -41 5
-58 20 -72 25 -23 25 -37 1 -59 -24 -22 -59 -17 -77 10 -12 18 -11 24 11 54
17 23 25 47 25 75 0 36 6 47 50 90 l50 49 0 128 0 128 103 110 c56 60 106 110
110 110 5 0 -6 -17 -25 -39z m2295 32 c-23 -2 -64 -2 -90 0 -26 2 -7 3 42 3
50 0 71 -1 48 -3z m-3343 -12 c0 -18 -55 -62 -114 -91 -120 -59 -385 -78 -491
-36 -22 9 -29 14 -15 10 57 -13 271 -16 351 -4 88 12 146 37 219 94 50 40 50
39 50 27z m1308 -459 c26 -17 28 -39 7 -69 -21 -30 -51 -34 -80 -11 -32 25
-32 51 1 77 l26 20 6 218 7 218 5 -219 c5 -213 6 -219 28 -234z m152 -427 c23
-24 24 -28 9 -53 -21 -38 -72 -43 -94 -8 -18 26 -11 50 19 76 14 11 16 49 16
270 0 141 3 333 8 426 6 150 8 121 12 -258 l5 -426 25 -27z m-2853 833 c-3 -8
-6 -5 -6 6 -1 11 2 17 5 13 3 -3 4 -12 1 -19z m5113 -45 c-11 -17 -11 -17 -6
0 3 10 6 24 7 30 0 9 2 9 5 0 3 -7 0 -20 -6 -30z m-5096 2 c7 -20 -21 -32 -37
-16 -9 9 -8 14 3 21 21 13 27 12 34 -5z m1635 -375 c1 -158 5 -292 11 -300 6
-10 4 -20 -7 -32 -21 -23 -46 -23 -67 1 -16 18 -16 20 11 41 l28 22 4 321 c3
196 7 304 12 277 4 -25 8 -173 8 -330z m2054 350 c46 -8 132 -11 223 -8 96 3
138 1 123 -5 -48 -19 -269 -21 -354 -3 -44 9 -84 22 -90 28 -7 8 -5 9 6 5 8
-2 50 -10 92 -17z m1467 -40 c-6 -23 -14 -40 -16 -37 -3 3 0 24 7 46 16 54 24
46 9 -9z m-57 12 c-2 -10 -15 -32 -29 -48 l-24 -29 22 47 c23 47 40 64 31 30z
m-2124 -178 c1 -70 5 -95 17 -104 24 -20 13 -63 -19 -78 l-28 -14 3 -261 3
-262 28 -27 c35 -35 35 -70 1 -97 -36 -28 -70 -26 -99 5 -33 36 -31 59 8 97
l32 32 3 264 c3 233 1 265 -13 281 -19 21 -8 52 25 70 18 10 20 22 21 143 1
100 3 121 10 87 4 -25 8 -86 8 -136z m2223 -511 c20 -21 20 -24 4 -48 -21 -32
-59 -33 -80 -3 -21 29 -20 34 7 60 22 23 22 28 26 323 l5 300 9 -305 c8 -288
9 -306 29 -327z m-2741 596 c12 -23 -2 -69 -21 -69 -6 0 -10 -56 -10 -153 0
-150 1 -155 25 -183 33 -38 32 -50 -10 -108 l-35 -50 0 -209 0 -209 25 -20
c29 -23 32 -57 8 -86 -31 -36 -60 -37 -93 -3 -17 16 -30 34 -30 40 0 6 14 26
30 44 l30 35 0 213 -1 214 -29 35 c-17 19 -30 44 -30 57 0 21 33 63 65 80 12
7 17 37 22 140 6 122 4 134 -16 173 -16 31 -19 45 -11 60 15 28 66 27 81 -1z
m676 -531 c13 -15 14 -20 3 -33 -7 -9 -23 -15 -34 -13 -26 4 -33 40 -11 58 13
10 15 51 17 264 l3 251 2 -254 c3 -218 6 -257 20 -273z m-1636 216 c17 -34 2
-59 -37 -59 -24 0 -30 5 -32 26 -2 15 5 32 18 44 17 16 20 31 22 124 l1 106 7
-108 c4 -60 13 -119 21 -133z m1801 -511 c21 -22 21 -26 7 -51 -18 -33 -54
-40 -80 -16 -24 22 -24 49 0 75 24 26 31 108 33 413 l1 241 8 -319 c8 -313 8
-319 31 -343z m-1344 605 c7 -7 12 -19 12 -27 -1 -13 -2 -13 -11 2 -13 22 -35
22 -48 0 -5 -10 -13 -15 -17 -10 -9 8 24 47 41 47 6 0 16 -5 23 -12z m-1456
-206 c15 -28 0 -57 -28 -57 -22 0 -33 43 -13 55 7 5 14 41 18 86 l6 79 3 -70
c1 -38 8 -80 14 -93z m1270 101 c28 -33 28 -41 1 -74 l-28 -33 -5 -270 -5
-271 -5 277 c-5 274 -5 278 -27 293 -27 19 -30 51 -6 77 20 23 55 23 75 1z
m-1079 -261 c20 -21 20 -25 6 -50 -19 -34 -39 -38 -67 -12 -27 25 -27 34 -3
57 14 13 21 40 28 103 l8 85 3 -80 c2 -66 7 -84 25 -103z m4272 48 c37 -30 3
-81 -40 -62 -30 14 -30 19 -5 57 13 19 21 50 22 85 l2 55 3 -62 c3 -38 9 -66
18 -73z m-1520 -60 c19 -16 19 -44 0 -60 -12 -10 -18 -10 -30 0 -17 14 -20 46
-5 55 6 3 11 43 12 88 l2 82 3 -77 c3 -51 9 -80 18 -88z m-2187 -53 c22 -26 6
-59 -26 -55 -32 4 -42 37 -17 58 10 9 15 33 17 79 l1 66 6 -66 c3 -36 12 -73
19 -82z m3283 81 c24 -29 24 -55 0 -67 -13 -7 -24 -6 -37 4 -16 12 -17 17 -6
34 6 12 12 28 12 36 0 21 9 19 31 -7z m-3672 -122 c21 -25 9 -61 -21 -64 -40
-5 -57 32 -29 62 16 16 21 37 22 77 l2 54 7 -57 c4 -32 13 -64 19 -72z m198
82 c11 -13 12 -21 3 -37 -14 -27 -21 -26 -42 3 -15 21 -16 26 -3 36 8 7 15 20
16 29 0 13 1 14 6 1 3 -8 12 -23 20 -32z m2470 -395 c-1 -81 -3 -17 -3 142 0
160 2 226 3 148 2 -78 2 -208 0 -290z m233 332 c16 -10 -8 -45 -30 -45 -31 0
-43 34 -20 55 11 10 20 28 21 39 1 15 4 11 10 -11 5 -18 14 -35 19 -38z m348
-240 c27 -20 28 -49 2 -75 -26 -26 -43 -25 -74 4 -33 30 -33 49 1 74 27 20 28
21 33 164 l5 143 5 -147 c5 -139 6 -149 28 -163z m223 204 l69 -62 0 -58 c0
-35 5 -63 13 -71 8 -7 19 -23 26 -36 10 -19 8 -26 -13 -47 -31 -31 -46 -31
-76 0 -25 26 -25 25 15 95 8 14 15 44 15 66 0 38 -6 49 -65 110 -39 42 -64 77
-63 89 1 17 1 17 5 -2 2 -13 36 -50 74 -84z m-388 -173 c9 -7 17 -22 17 -33 0
-46 -63 -60 -82 -18 -9 21 -8 28 8 46 16 17 20 42 24 138 l5 116 5 -118 c4
-98 8 -121 23 -131z m-383 -359 c0 -2 -15 3 -33 12 -29 14 -31 18 -18 27 12 9
19 7 33 -11 10 -13 18 -25 18 -28z m-1810 -87 c9 -17 7 -18 -22 -9 -18 5 -35
9 -38 9 -3 0 4 7 14 15 21 16 31 13 46 -15z"/>
<path d="M3190 5859 c-68 -13 -164 -64 -204 -109 -20 -22 -60 -89 -89 -148
-28 -59 -55 -109 -58 -112 -4 -3 -10 -16 -14 -30 -4 -14 -35 -77 -69 -140
-119 -220 -247 -483 -243 -499 4 -12 7 -10 12 8 5 13 18 42 31 65 13 22 44 84
70 136 185 376 330 659 351 687 14 18 48 50 75 70 40 29 52 33 59 22 7 -11 9
-11 9 3 0 20 42 33 135 43 80 8 200 -23 264 -68 61 -43 95 -96 165 -255 32
-73 61 -131 63 -128 5 4 -32 92 -92 220 -62 131 -143 202 -267 231 -69 16
-129 17 -198 4z"/>
<path d="M3290 5761 c0 -21 29 -32 50 -21 12 6 20 13 18 14 -10 9 -68 14 -68
7z"/>
<path d="M2910 5730 c-6 -11 -8 -20 -6 -20 3 0 10 9 16 20 6 11 8 20 6 20 -3
0 -10 -9 -16 -20z"/>
<path d="M3126 5735 c3 -8 21 -19 40 -25 19 -6 41 -21 49 -33 8 -12 15 -17 15
-11 0 17 -23 41 -60 63 -41 25 -51 26 -44 6z"/>
<path d="M3270 5686 c8 -8 33 -22 55 -31 34 -14 38 -14 25 -2 -8 9 -33 23 -55
32 -34 13 -38 14 -25 1z"/>
<path d="M3087 5674 c-3 -3 -3 -12 0 -20 7 -19 -26 -30 -49 -15 -17 11 -19 10
-16 -6 4 -21 43 -29 63 -13 8 7 14 23 13 36 -3 27 -2 26 -11 18z"/>
<path d="M3119 5642 c6 -12 16 -24 22 -28 8 -4 8 -1 0 14 -6 12 -16 24 -22 28
-8 4 -8 1 0 -14z"/>
<path d="M3376 5590 c10 -40 24 -50 68 -50 22 0 66 -7 96 -15 55 -14 55 -14
30 5 -28 21 -64 30 -126 30 -37 0 -46 4 -59 28 -15 26 -16 26 -9 2z"/>
<path d="M3456 5599 c7 -13 161 -11 169 1 5 7 -23 10 -84 9 -50 -1 -88 -5 -85
-10z"/>
<path d="M3256 5585 c3 -11 10 -35 16 -52 11 -41 13 -41 183 -92 77 -23 146
-48 155 -54 13 -10 13 -10 2 5 -8 9 -77 38 -155 64 -78 26 -148 51 -155 57 -7
5 -21 28 -32 51 -11 23 -17 32 -14 21z"/>
<path d="M3103 5523 c-25 -9 -12 -23 21 -23 28 0 41 -8 71 -42 33 -38 35 -39
14 -8 -47 73 -69 88 -106 73z"/>
<path d="M3440 5496 c0 -1 30 -11 68 -21 37 -10 83 -25 102 -33 35 -15 86 -23
72 -11 -25 21 -242 80 -242 65z"/>
<path d="M3255 5451 c11 -5 89 -30 172 -57 115 -36 154 -52 159 -67 3 -10 8
-17 10 -14 3 2 0 16 -5 30 -8 20 -22 29 -63 41 -132 35 -255 68 -273 72 l-20
4 20 -9z"/>
<path d="M2714 5373 c-38 -87 -40 -94 -17 -58 23 35 56 116 50 121 -2 2 -17
-26 -33 -63z"/>
<path d="M2893 5406 c-24 -11 -29 -21 -14 -30 8 -5 48 31 40 37 -2 2 -14 -2
-26 -7z"/>
<path d="M3106 5411 c-4 -5 3 -7 14 -4 23 6 26 13 6 13 -8 0 -17 -4 -20 -9z"/>
<path d="M3751 5385 c0 -5 6 -21 14 -35 8 -14 14 -20 14 -15 0 6 -6 21 -14 35
-8 14 -14 21 -14 15z"/>
<path d="M3317 5350 c-13 -19 -21 -20 -95 -14 -81 7 -112 -1 -112 -29 0 -7 4
-7 12 1 16 16 97 15 178 -2 56 -12 67 -12 87 1 15 10 34 13 53 9 42 -8 37 10
-10 34 -51 26 -64 26 -48 0 16 -25 -1 -39 -38 -32 -28 5 -32 27 -6 41 9 6 12
11 5 11 -6 0 -18 -9 -26 -20z m98 -10 c3 -5 1 -10 -4 -10 -6 0 -11 5 -11 10 0
6 2 10 4 10 3 0 8 -4 11 -10z"/>
<path d="M3882 5318 c7 -15 15 -23 17 -17 2 6 -4 18 -13 27 -15 15 -15 15 -4
-10z"/>
<path d="M3604 5290 c2 -8 11 -40 21 -72 17 -54 20 -57 77 -82 72 -30 73 -12
3 24 -48 24 -59 37 -90 110 -8 19 -14 28 -11 20z"/>
<path d="M3695 5260 c14 -48 46 -65 73 -38 19 19 14 25 -17 20 -21 -3 -33 2
-46 20 l-17 23 7 -25z"/>
<path d="M2994 5249 c-19 -22 -19 -22 4 -10 12 6 22 16 22 21 0 15 -5 12 -26
-11z"/>
<path d="M2950 5230 c0 -5 5 -10 11 -10 5 0 7 5 4 10 -3 6 -8 10 -11 10 -2 0
-4 -4 -4 -10z"/>
<path d="M3360 5236 c0 -2 12 -12 28 -21 l27 -18 -19 21 c-17 20 -36 29 -36
18z"/>
<path d="M3066 5203 c-6 -14 -5 -15 5 -6 7 7 10 15 7 18 -3 3 -9 -2 -12 -12z"/>
<path d="M3493 5181 c2 -33 6 -36 60 -57 33 -13 78 -26 102 -30 24 -3 51 -14
59 -23 8 -9 35 -72 59 -141 54 -150 144 -386 156 -409 5 -9 37 -27 71 -41 l62
-25 32 -85 c25 -67 36 -85 51 -85 11 0 20 7 20 15 0 8 -9 15 -19 15 -15 0 -24
16 -41 66 -34 99 -41 109 -109 139 -69 32 -65 25 -135 210 -94 252 -132 345
-144 356 -6 6 -34 17 -62 23 -45 11 -95 30 -135 50 -8 4 -18 19 -22 32 -6 19
-6 18 -5 -10z"/>
<path d="M3534 5191 c20 -22 26 -25 26 -13 0 4 -10 13 -22 21 -23 14 -23 14
-4 -8z"/>
<path d="M2960 5191 c0 -5 8 -12 18 -16 16 -7 15 -8 -3 -15 -19 -8 -19 -9 2
-9 13 -1 27 8 33 19 8 16 8 18 -4 14 -8 -3 -17 -1 -21 5 -8 13 -25 14 -25 2z"/>
<path d="M2625 5169 c-4 -6 -5 -12 -2 -15 2 -3 7 2 10 11 7 17 1 20 -8 4z"/>
<path d="M3423 5136 c3 -10 96 -50 103 -44 1 2 -22 15 -52 29 -30 14 -53 21
-51 15z"/>
<path d="M3205 5121 c-46 -21 -49 -26 -100 -146 -21 -49 -50 -117 -65 -150
-15 -33 -46 -100 -68 -150 -50 -113 -129 -287 -153 -340 -138 -301 -223 -497
-226 -525 -4 -28 1 -40 22 -60 l27 -25 581 -2 c371 -2 593 1 613 7 32 11 54
44 54 83 0 26 -36 121 -114 305 -30 70 -95 228 -146 352 -135 332 -242 582
-246 578 -2 -2 9 -35 25 -74 16 -38 99 -242 185 -454 86 -212 167 -410 181
-440 64 -145 95 -226 95 -250 0 -16 -11 -37 -26 -51 l-26 -24 -536 0 c-295 0
-559 2 -585 4 -60 5 -90 36 -77 79 13 44 22 62 30 62 4 0 10 8 13 18 6 18 117
276 141 327 41 86 195 433 201 455 4 14 15 39 25 55 10 17 35 75 55 130 50
134 85 205 111 222 12 7 41 17 65 22 36 7 38 9 14 10 -16 0 -48 -8 -70 -18z"/>
<path d="M3860 5137 c0 -4 15 -39 34 -79 107 -231 150 -327 192 -429 25 -63
66 -157 91 -209 25 -52 56 -126 70 -163 13 -38 47 -119 75 -180 54 -119 105
-243 219 -527 39 -96 91 -224 116 -285 25 -60 60 -150 78 -200 18 -49 42 -111
54 -137 l20 -47 -27 12 c-50 22 -157 89 -197 125 -52 46 -58 58 -110 218 -34
103 -53 145 -77 173 -35 37 -39 47 -79 171 l-24 74 -66 32 c-36 18 -70 38 -76
46 -5 7 -23 50 -38 96 -34 98 -56 136 -87 153 -22 11 -22 10 3 -17 23 -26 49
-82 77 -169 9 -28 7 -33 -57 -95 -36 -36 -75 -76 -86 -90 l-20 -26 -227 4
c-175 3 -228 7 -228 16 0 17 -33 46 -51 45 -8 0 -4 -4 9 -9 13 -6 22 -18 22
-30 0 -17 -5 -21 -27 -18 -20 2 -28 8 -27 21 2 23 -5 22 -14 -3 -8 -21 -14
-21 -450 -20 -387 0 -443 -2 -448 -15 -5 -12 -27 -15 -118 -16 l-111 0 -45
-57 c-25 -31 -57 -79 -71 -107 -14 -27 -37 -68 -51 -90 -14 -22 -28 -49 -32
-61 -3 -11 -18 -32 -32 -45 l-25 -24 26 50 c14 28 20 41 13 31 -37 -55 -74
-82 -187 -139 l-125 -62 -26 -63 c-15 -35 -44 -83 -64 -108 -21 -25 -35 -48
-32 -51 3 -3 16 7 28 22 12 16 37 43 55 61 18 19 37 51 44 76 l11 43 151 69
c84 39 153 71 155 72 2 1 14 28 28 61 13 32 28 57 34 55 5 -1 10 5 10 13 0 21
34 86 83 163 l41 62 128 0 c103 0 128 3 128 14 0 8 7 17 15 20 9 3 330 5 713
4 383 -1 672 -5 642 -9 l-55 -6 56 -1 c51 -2 59 1 88 30 17 17 31 35 31 38 0
3 24 27 54 53 l55 47 25 -24 c14 -13 47 -31 73 -41 67 -25 71 -29 95 -109 22
-75 53 -139 93 -194 13 -19 43 -93 66 -165 22 -73 48 -140 57 -150 28 -31 143
-110 217 -147 59 -30 74 -43 93 -81 29 -58 44 -150 33 -201 -22 -96 -71 -123
-221 -123 -58 0 -123 6 -145 13 -51 15 -147 73 -153 92 -5 13 -3 13 11 1 11
-9 17 -10 17 -2 0 6 -5 11 -11 11 -6 0 -8 8 -5 18 5 15 5 15 -8 -1 -14 -18
-15 -18 -30 6 -22 33 -128 277 -131 302 -1 11 -3 25 -4 31 0 7 -8 15 -17 18
-13 5 -14 4 -6 -7 7 -8 9 -17 5 -20 -3 -4 -1 -7 6 -7 7 0 10 -4 6 -10 -7 -11
85 -246 120 -305 31 -53 96 -112 150 -136 56 -25 185 -42 249 -34 141 20 219
115 202 246 -6 45 -69 210 -147 382 -21 48 -39 92 -39 98 0 14 -163 424 -196
493 -13 28 -24 56 -24 63 0 7 -4 13 -8 13 -4 0 -8 8 -9 18 -1 10 -20 61 -43
113 -22 52 -55 127 -72 166 -17 40 -34 71 -38 68 -4 -2 -12 7 -19 21 -14 31
-14 37 -1 29 6 -4 7 1 3 11 -5 13 -8 14 -11 5 -2 -7 -13 6 -24 30 -10 23 -16
49 -14 56 7 18 -25 84 -37 76 -6 -4 -8 1 -4 11 6 16 -3 40 -29 76 -6 8 -21 40
-33 70 -27 68 -32 79 -70 163 -17 37 -31 69 -31 72 0 10 -185 392 -196 404 -2
2 -4 1 -4 -2z m584 -1293 c3 -8 2 -12 -4 -9 -6 3 -10 10 -10 16 0 14 7 11 14
-7z m-404 -168 c0 -2 -8 -10 -17 -17 -16 -13 -17 -12 -4 4 13 16 21 21 21 13z"/>
<path d="M3320 5120 c8 -5 20 -10 25 -10 6 0 3 5 -5 10 -8 5 -19 10 -25 10 -5
0 -3 -5 5 -10z"/>
<path d="M2861 5108 c0 -9 -24 -33 -51 -53 -28 -20 -55 -47 -62 -58 -8 -16 0
-12 29 13 21 19 52 44 67 55 20 14 27 26 23 40 -3 15 -5 16 -6 3z"/>
<path d="M3009 5067 c-11 -30 -16 -34 -48 -33 -35 1 -36 0 -33 -34 5 -46 22
-63 56 -54 36 9 49 36 34 68 -8 20 -8 32 1 52 6 15 10 29 7 31 -2 2 -10 -11
-17 -30z m-25 -53 c20 -8 21 -44 2 -44 -39 0 -63 31 -33 43 6 3 13 6 14 6 1 1
8 -2 17 -5z"/>
<path d="M3211 5079 c-23 -25 -87 -187 -84 -212 2 -10 -1 -15 -7 -12 -6 3 -7
-1 -4 -9 3 -9 1 -16 -4 -16 -6 0 -14 -10 -18 -22 -3 -13 -40 -95 -81 -183 -81
-173 -95 -205 -88 -205 2 0 12 12 20 28 24 41 13 11 -60 -153 -36 -82 -73
-168 -82 -190 -9 -22 -20 -44 -25 -50 -11 -12 4 28 42 115 55 125 99 234 96
237 -1 2 -12 -18 -24 -45 -55 -122 -221 -502 -226 -519 -4 -13 1 -29 13 -44
l19 -24 544 3 543 3 24 24 25 24 -18 58 c-16 49 -20 55 -28 38 -7 -16 -7 -15
-3 6 3 18 -8 51 -35 105 -48 94 -73 154 -75 174 -3 22 -15 60 -35 105 -24 54
-103 249 -147 362 -21 54 -40 90 -46 86 -6 -4 -7 -1 -2 6 9 16 -25 92 -38 84
-6 -3 -7 -1 -3 6 11 17 -72 219 -95 231 -30 17 -77 11 -98 -11z m-28 -106
c-30 -75 -53 -120 -53 -102 0 6 68 168 76 180 16 27 8 -1 -23 -78z m-103 -260
c-11 -17 -11 -17 -6 0 3 10 6 24 7 30 0 9 2 9 5 0 3 -7 0 -20 -6 -30z m-44
-90 c-8 -15 -15 -25 -16 -21 0 12 23 58 27 54 3 -2 -2 -17 -11 -33z m-45 -93
c-10 -22 -21 -43 -25 -47 -8 -9 9 38 24 68 19 34 19 20 1 -21z m-262 -594
c-24 -53 -44 -94 -46 -92 -2 2 15 47 38 100 24 53 44 94 46 92 2 -2 -15 -47
-38 -100z m1090 -96 c0 -8 -6 0 -14 19 -8 18 -15 36 -15 40 1 13 29 -45 29
-59z"/>
<path d="M3390 5090 c0 -13 37 -35 83 -50 20 -6 44 -18 52 -27 13 -13 15 -13
15 1 0 22 19 20 49 -6 l25 -23 -16 25 c-11 18 -41 34 -109 57 -52 18 -95 32
-96 33 -2 0 -3 -4 -3 -10z"/>
<path d="M3555 5080 c27 -12 43 -12 25 0 -8 5 -22 9 -30 9 -10 0 -8 -3 5 -9z"/>
<path d="M3652 5043 c9 -10 21 -35 28 -56 18 -57 22 -38 5 21 -11 35 -21 52
-32 52 -14 0 -15 -2 -1 -17z"/>
<path d="M3570 4960 c0 -5 5 -10 11 -10 5 0 7 5 4 10 -3 6 -8 10 -11 10 -2 0
-4 -4 -4 -10z"/>
<path d="M2891 4944 c0 -11 3 -14 6 -6 3 7 2 16 -1 19 -3 4 -6 -2 -5 -13z"/>
<path d="M3701 4930 c0 -8 6 -28 14 -45 17 -39 18 -21 0 25 -7 19 -14 28 -14
20z"/>
<path d="M3580 4919 c0 -5 5 -7 10 -4 6 3 10 8 10 11 0 2 -4 4 -10 4 -5 0 -10
-5 -10 -11z"/>
<path d="M3870 4919 c-12 -8 -10 -9 8 -4 24 7 56 -11 46 -26 -8 -13 -48 -11
-63 4 -11 10 -12 7 -6 -13 15 -55 63 -64 76 -15 13 46 -25 80 -61 54z"/>
<path d="M4020 4925 c0 -5 5 -17 10 -25 5 -8 10 -10 10 -5 0 6 -5 17 -10 25
-5 8 -10 11 -10 5z"/>
<path d="M3003 4908 c-5 -7 -17 -31 -26 -53 -32 -85 -103 -226 -190 -381 l-91
-161 -28 16 c-28 16 -30 15 -54 -12 -31 -36 -30 -39 6 -60 22 -13 35 -15 48
-8 29 15 257 442 315 588 9 23 26 47 37 53 11 6 20 15 20 20 0 14 -26 12 -37
-2z m-336 -613 c3 -9 3 -19 -1 -22 -7 -7 -36 16 -36 28 0 15 30 10 37 -6z"/>
<path d="M2776 4894 c-28 -28 -11 -94 25 -94 5 0 9 4 9 9 0 5 9 11 20 14 24 6
37 52 20 72 -16 20 -54 19 -74 -1z m71 -38 c-5 -15 -47 -20 -59 -8 -6 6 -8 18
-5 26 5 13 12 13 37 5 17 -6 29 -16 27 -23z"/>
<path d="M3560 4886 c0 -35 48 -183 76 -232 22 -39 34 -73 32 -92 -3 -39 18
-64 50 -60 53 6 51 68 -2 68 -17 0 -31 19 -68 93 -26 50 -55 121 -64 157 -14
59 -24 85 -24 66z m170 -336 c12 -8 9 -10 -12 -10 -16 0 -28 5 -28 10 0 13 20
13 40 0z"/>
<path d="M2466 4845 c-9 -26 -7 -32 5 -12 6 10 9 21 6 23 -2 3 -7 -2 -11 -11z"/>
<path d="M3641 4850 c0 -8 4 -24 9 -35 5 -13 9 -14 9 -5 0 8 -4 24 -9 35 -5
13 -9 14 -9 5z"/>
<path d="M3741 4847 c-1 -9 11 -45 25 -80 14 -34 40 -103 59 -153 51 -140 57
-148 120 -174 65 -26 71 -35 119 -182 33 -99 36 -104 75 -123 30 -14 42 -27
50 -55 10 -34 11 -34 6 12 -3 31 0 48 8 51 6 2 -13 15 -44 29 -50 23 -57 30
-73 74 -72 198 -62 181 -129 216 -54 29 -66 40 -89 88 -22 46 -104 248 -121
300 -4 12 -6 11 -6 -3z"/>
<path d="M4402 4828 c-17 -17 -15 -58 2 -58 15 0 29 50 17 63 -4 4 -12 2 -19
-5z"/>
<path d="M3929 4780 c-3 -25 -2 -53 3 -62 11 -22 51 -23 68 -3 17 21 5 32 -29
27 -29 -4 -30 -3 -33 39 l-3 44 -6 -45z"/>
<path d="M4070 4811 c0 -6 4 -13 10 -16 6 -3 7 1 4 9 -7 18 -14 21 -14 7z"/>
<path d="M2555 4789 c-11 -17 1 -21 15 -4 8 9 8 15 2 15 -6 0 -14 -5 -17 -11z"/>
<path d="M2608 4791 c19 -12 11 -45 -12 -49 -10 -2 -22 2 -27 10 -6 8 -9 9 -9
1 0 -6 -3 -19 -6 -28 -5 -13 -1 -15 19 -13 15 2 29 7 33 11 12 12 26 8 18 -5
-4 -8 -3 -9 2 -5 5 5 9 16 9 25 0 10 6 16 15 14 10 -2 6 6 -9 22 -14 14 -29
26 -35 26 -6 0 -5 -4 2 -9z"/>
<path d="M3660 4785 c0 -5 5 -17 10 -25 5 -8 10 -10 10 -5 0 6 -5 17 -10 25
-5 8 -10 11 -10 5z"/>
<path d="M4090 4775 c0 -5 5 -17 10 -25 5 -8 10 -10 10 -5 0 6 -5 17 -10 25
-5 8 -10 11 -10 5z"/>
<path d="M2471 4746 c-12 -14 -33 -76 -26 -76 2 0 12 17 21 38 10 20 19 40 21
45 7 12 -4 8 -16 -7z"/>
<path d="M3722 4726 c-36 -20 -37 -25 -13 -50 20 -22 49 -88 90 -210 11 -33
25 -55 43 -65 16 -9 28 -25 28 -36 0 -16 2 -17 10 -5 7 12 12 12 34 0 26 -14
34 -29 16 -31 -5 -1 -16 -2 -22 -3 -7 -1 -19 2 -27 8 -10 8 -12 6 -10 -9 4
-19 26 -34 85 -55 35 -13 43 -27 96 -179 24 -68 39 -96 55 -104 13 -6 29 -29
39 -56 42 -115 52 -131 78 -131 34 0 34 27 0 42 -29 13 -59 66 -69 120 -4 21
-20 49 -36 65 -38 36 -65 87 -90 169 -16 51 -27 69 -50 82 -20 12 -27 22 -22
32 3 8 7 28 7 44 1 31 -2 34 -89 73 -44 20 -60 46 -119 197 -33 84 -34 88 -16
93 11 3 20 9 20 14 0 12 -9 10 -38 -5z m214 -351 c25 -19 14 -19 -22 0 -16 8
-22 15 -13 15 8 0 24 -7 35 -15z"/>
<path d="M4110 4726 c0 -11 30 -66 36 -66 2 0 -3 15 -12 33 -19 36 -24 44 -24
33z"/>
<path d="M2536 4683 c-6 -14 -5 -15 5 -6 7 7 10 15 7 18 -3 3 -9 -2 -12 -12z"/>
<path d="M2752 4573 c-82 -150 -112 -209 -112 -220 0 -9 79 132 145 260 25 48
43 87 41 87 -2 0 -35 -57 -74 -127z"/>
<path d="M4164 4605 c17 -40 35 -73 36 -64 0 10 -40 99 -46 99 -2 0 2 -16 10
-35z"/>
<path d="M2675 4589 c-4 -6 -5 -12 -2 -15 2 -3 7 2 10 11 7 17 1 20 -8 4z"/>
<path d="M2650 4539 c-7 -11 -10 -23 -7 -25 2 -2 9 7 15 21 14 30 7 33 -8 4z"/>
<path d="M2420 4535 c-7 -9 -8 -15 -2 -15 5 0 12 7 16 15 3 8 4 15 2 15 -2 0
-9 -7 -16 -15z"/>
<path d="M4202 4525 c-1 -13 66 -153 67 -140 0 6 -15 42 -34 80 -18 39 -33 66
-33 60z"/>
<path d="M2596 4427 c-22 -40 -48 -88 -59 -107 -11 -19 -15 -30 -9 -25 14 13
114 196 109 201 -2 2 -20 -29 -41 -69z"/>
<path d="M2460 4469 c-7 -11 -10 -23 -7 -25 2 -2 9 7 15 21 14 30 7 33 -8 4z"/>
<path d="M2540 4470 c-6 -11 -8 -20 -6 -20 3 0 10 9 16 20 6 11 8 20 6 20 -3
0 -10 -9 -16 -20z"/>
<path d="M2511 4413 c-10 -26 -10 -27 4 -9 8 11 15 23 15 28 0 15 -7 8 -19
-19z"/>
<path d="M2196 4295 c-9 -26 -7 -32 5 -12 6 10 9 21 6 23 -2 3 -7 -2 -11 -11z"/>
<path d="M2432 4244 c-18 -35 -32 -68 -32 -72 1 -4 17 24 36 62 19 37 34 70
32 72 -2 2 -18 -26 -36 -62z"/>
<path d="M2495 4249 c-9 -17 -15 -33 -13 -35 3 -2 12 12 21 31 21 43 13 47 -8
4z"/>
<path d="M3766 4264 c-8 -21 -8 -20 10 -38 8 -9 26 -16 40 -16 20 0 24 5 24
29 0 17 -4 32 -8 35 -5 3 -8 -5 -8 -17 1 -13 -6 -23 -18 -25 -27 -6 -42 13
-26 33 7 8 8 15 2 15 -5 0 -13 -7 -16 -16z"/>
<path d="M2521 4243 c-10 -26 -10 -27 4 -9 8 11 15 23 15 28 0 15 -7 8 -19
-19z"/>
<path d="M2175 4249 c-4 -6 -5 -12 -2 -15 2 -3 7 2 10 11 7 17 1 20 -8 4z"/>
<path d="M4271 4255 c0 -5 6 -21 14 -35 8 -14 14 -20 14 -15 0 6 -6 21 -14 35
-8 14 -14 21 -14 15z"/>
<path d="M2570 4235 c0 -8 4 -15 10 -15 5 0 7 7 4 15 -4 8 -8 15 -10 15 -2 0
-4 -7 -4 -15z"/>
<path d="M2252 4228 c-27 -27 -6 -68 35 -68 31 0 44 47 18 67 -23 16 -37 17
-53 1z m38 -19 c0 -5 5 -7 10 -4 6 3 10 -1 10 -9 0 -10 -9 -16 -25 -16 -18 0
-25 5 -25 20 0 11 7 20 15 20 8 0 15 -5 15 -11z"/>
<path d="M2654 4183 c-4 -27 -7 -53 -5 -60 1 -6 -9 -13 -21 -15 -16 -2 -22 -9
-20 -21 5 -29 -79 -177 -100 -177 -47 0 -78 -79 -39 -100 51 -27 97 9 85 67
-8 43 63 194 99 210 26 12 37 33 18 33 -6 0 -7 24 -4 55 7 67 -2 73 -13 8z
m-128 -314 c10 -17 -8 -28 -38 -22 -32 6 -37 19 -10 26 30 8 41 7 48 -4z"/>
<path d="M2526 4199 c-31 -24 -33 -42 -7 -75 19 -24 19 -27 4 -72 -9 -26 -34
-76 -55 -111 -21 -35 -37 -66 -34 -68 10 -10 84 120 100 175 14 50 23 65 51
82 34 21 34 22 20 50 -12 22 -33 40 -49 40 -2 0 -15 -9 -30 -21z m53 -18 c12
-8 12 -12 2 -25 -25 -30 -70 -14 -57 19 6 17 34 19 55 6z"/>
<path d="M2338 4110 c-20 -44 -34 -80 -32 -80 7 0 76 151 72 156 -2 2 -20 -33
-40 -76z"/>
<path d="M2370 4104 c-15 -38 -40 -74 -69 -103 l-46 -43 40 24 c30 19 48 41
73 93 18 37 31 72 29 78 -2 6 -14 -16 -27 -49z"/>
<path d="M2110 4119 c-7 -11 -10 -23 -7 -25 2 -2 9 7 15 21 14 30 7 33 -8 4z"/>
<path d="M2405 4077 c-20 -40 -44 -72 -71 -92 -22 -17 -39 -36 -36 -43 2 -6
-2 -37 -8 -68 -11 -50 -16 -58 -57 -84 -55 -35 -61 -43 -144 -189 -48 -86 -71
-117 -87 -119 -31 -5 -28 14 4 22 29 8 27 33 -2 28 -18 -4 -17 -2 2 20 21 23
84 140 84 155 0 4 -15 -19 -33 -52 -18 -33 -42 -75 -55 -92 -12 -17 -22 -36
-22 -41 0 -6 -6 -12 -12 -15 -20 -7 4 -41 31 -45 25 -4 61 23 61 45 0 8 26 58
57 110 46 77 66 101 105 125 56 34 60 42 81 124 10 39 27 72 46 93 17 18 31
39 31 46 0 8 7 20 15 29 15 14 48 96 42 102 -1 2 -16 -25 -32 -59z"/>
<path d="M2460 4109 c0 -11 -24 -72 -54 -135 -30 -62 -62 -138 -70 -168 -18
-61 -21 -64 -96 -95 -68 -29 -66 -27 -47 -46 19 -19 28 -19 53 0 18 14 17 15
-11 10 -27 -5 -28 -5 -7 5 13 5 28 7 34 4 12 -7 55 32 72 66 7 14 18 46 25 72
6 26 38 101 71 166 33 66 60 122 60 125 0 3 -7 7 -15 11 -10 4 -15 -1 -15 -15z"/>
<path d="M2221 4099 c-26 -28 -26 -31 -1 -54 17 -15 24 -16 46 -7 21 10 25 18
22 45 -4 41 -37 48 -67 16z m57 -21 c-4 -28 -42 -37 -52 -13 -9 24 1 35 30 35
21 0 25 -4 22 -22z"/>
<path d="M3873 4096 c2 -6 14 -10 26 -9 26 3 26 -2 0 -28 -24 -24 -18 -54 17
-84 24 -20 24 -20 3 -33 -14 -9 -19 -21 -17 -40 3 -23 8 -28 38 -30 23 -2 38
2 46 12 9 14 14 9 29 -31 29 -78 36 -73 12 8 -27 86 -27 86 -27 98 0 6 -19 14
-42 19 -24 6 -35 10 -26 11 54 3 77 76 34 105 -27 17 -99 19 -93 2z m102 -52
c0 -27 -32 -29 -46 -3 -9 17 -9 24 0 27 6 2 8 9 4 15 -4 7 4 5 17 -4 14 -9 25
-25 25 -35z m-1 -110 c24 -9 19 -23 -11 -35 -30 -11 -49 1 -40 25 7 17 25 20
51 10z"/>
<path d="M4198 4034 c-30 -16 -33 -25 -18 -55 15 -27 61 -25 88 4 20 21 21 25
6 45 -18 26 -38 27 -76 6z m67 -14 c0 -15 -52 -33 -60 -20 -7 11 36 41 50 37
5 -2 10 -10 10 -17z"/>
<path d="M2020 3934 c-38 -83 -51 -119 -29 -81 20 34 78 167 74 167 -3 0 -23
-39 -45 -86z"/>
<path d="M2240 3975 c-7 -9 -11 -17 -9 -20 3 -2 10 5 17 15 14 24 10 26 -8 5z"/>
<path d="M4266 3941 c-4 -6 -1 -19 6 -30 11 -18 13 -18 26 -3 13 16 13 16 8 0
-6 -20 2 -22 22 -9 25 15 9 46 -25 49 -17 2 -34 -1 -37 -7z"/>
<path d="M2242 3903 c-15 -48 -8 -55 8 -8 7 20 10 38 8 41 -3 2 -10 -13 -16
-33z"/>
<path d="M2159 3833 c-29 -35 -41 -53 -36 -53 2 0 17 16 31 35 28 36 31 49 5
18z"/>
<path d="M2187 3804 c-51 -48 -83 -91 -75 -100 3 -2 17 14 32 36 15 23 43 51
62 62 19 11 34 26 34 34 0 19 1 20 -53 -32z"/>
<path d="M2404 3786 c-12 -36 -26 -60 -33 -58 -7 1 -10 -2 -6 -7 6 -10 -45
-51 -102 -82 -52 -29 -180 -238 -198 -324 -4 -16 9 7 28 52 18 45 40 91 48
101 79 110 108 142 141 156 21 9 53 33 73 53 34 37 79 134 73 158 -2 7 -12
-15 -24 -49z"/>
<path d="M4291 3818 c-1 -34 3 -39 39 -58 56 -28 74 -25 20 4 -36 19 -46 31
-51 57 l-6 34 -2 -37z"/>
<path d="M4063 3809 c5 -16 -19 -45 -105 -128 l-46 -43 -99 -2 -100 -3 -11 29
c-11 31 -42 38 -61 14 -9 -11 -10 -20 -1 -35 10 -19 20 -21 128 -21 64 0 133
-4 151 -10 27 -7 32 -7 23 2 -9 9 6 30 63 89 41 42 75 81 75 85 0 5 -5 16 -11
24 -10 13 -10 13 -6 -1z m-365 -157 c5 -17 -33 -15 -47 1 -6 8 -8 16 -5 20 8
8 47 -8 52 -21z"/>
<path d="M1940 3769 c-12 -23 -20 -43 -18 -45 3 -2 14 17 26 41 27 56 20 60
-8 4z"/>
<path d="M4252 3738 c2 -16 16 -29 45 -42 32 -14 46 -28 58 -58 8 -21 15 -45
15 -53 0 -8 5 -15 11 -15 6 0 1 -13 -10 -29 -12 -16 -18 -36 -15 -45 14 -37
94 -26 94 13 0 10 -11 30 -25 45 -14 15 -34 56 -46 91 -18 56 -26 67 -64 89
-54 32 -67 33 -63 4z m161 -202 c6 -16 -11 -36 -30 -36 -7 0 -13 5 -13 10 0 6
5 10 10 10 6 0 9 3 9 8 -4 24 15 31 24 8z"/>
<path d="M1890 3671 c-15 -30 -32 -77 -24 -68 9 9 44 87 39 87 -2 0 -9 -9 -15
-19z"/>
<path d="M3718 3678 c13 -17 78 -23 87 -8 9 15 25 12 25 -4 0 -9 8 -12 25 -8
54 10 17 27 -65 30 -68 2 -81 0 -72 -10z"/>
<path d="M4023 3587 c-45 -56 -50 -57 -295 -57 -188 0 -229 -3 -242 -15 -8 -8
-33 -15 -56 -15 -43 0 -80 -14 -80 -31 0 -5 11 -7 25 -3 13 3 186 7 385 7
l360 2 16 -47 c14 -43 22 -51 82 -85 37 -20 72 -44 77 -52 17 -26 35 -82 25
-76 -6 4 -10 2 -10 -3 0 -12 -31 -25 -39 -17 -3 3 0 10 8 14 9 6 5 10 -14 13
-26 5 -26 5 -20 -36 20 -125 51 -190 117 -248 33 -28 70 -68 83 -88 13 -21 43
-47 71 -61 98 -51 132 -78 158 -126 15 -26 25 -56 23 -65 -4 -15 -1 -17 19
-12 15 4 24 2 24 -5 0 -6 -7 -11 -15 -11 -9 0 -18 -7 -21 -15 -4 -8 -12 -15
-20 -15 -8 0 -14 -4 -14 -9 0 -5 -8 -11 -17 -13 -15 -3 -14 -5 5 -10 14 -4 20
-2 15 5 -4 6 0 8 10 4 9 -3 19 -2 22 3 4 6 15 10 25 10 22 0 43 32 34 53 -3 8
-16 19 -29 25 -28 13 -59 67 -51 88 3 8 2 13 -3 10 -4 -3 -18 5 -31 19 -12 13
-47 36 -77 51 -30 14 -69 42 -86 62 -18 19 -64 69 -103 111 -39 42 -79 93 -88
115 l-18 39 31 24 c17 13 31 34 32 46 1 28 12 -8 35 -118 15 -75 19 -83 69
-131 37 -37 86 -68 165 -107 63 -31 117 -54 122 -51 18 11 6 32 -24 44 -18 6
-51 19 -73 28 -21 10 -44 17 -50 17 -5 0 -10 5 -10 12 0 6 -4 15 -9 20 -5 5
-6 3 -2 -4 12 -21 0 -15 -65 30 -77 52 -93 78 -119 193 -21 92 -54 190 -71
210 -5 6 -7 13 -4 15 2 3 -25 22 -61 43 -54 31 -69 45 -84 81 l-19 44 -325 -5
c-198 -3 -326 -2 -326 4 0 15 170 23 329 16 l146 -6 48 32 c28 19 47 39 47 51
0 25 -15 24 -37 -4z m297 -418 c0 -5 -11 -9 -25 -9 -28 0 -34 16 -7 23 20 4
32 -1 32 -14z"/>
<path d="M1792 3471 c-29 -59 -52 -112 -51 -117 0 -5 25 42 55 105 30 63 53
116 51 118 -2 2 -27 -46 -55 -106z"/>
<path d="M2200 3510 c-28 -27 -50 -54 -50 -61 0 -6 14 6 31 27 17 22 43 49 57
61 15 12 23 22 19 23 -4 0 -30 -22 -57 -50z"/>
<path d="M3723 3553 c15 -2 39 -2 55 0 15 2 2 4 -28 4 -30 0 -43 -2 -27 -4z"/>
<path d="M2612 3514 c-8 -14 -30 -17 -158 -15 -82 0 -156 -3 -163 -8 -33 -21
-94 -133 -147 -271 -42 -109 -45 -114 -97 -147 -53 -33 -56 -24 -6 16 41 33
83 110 77 140 -2 9 -10 -6 -17 -32 -14 -49 -49 -93 -106 -135 -16 -12 -21 -19
-11 -15 12 4 17 3 13 -4 -4 -6 -19 -14 -34 -18 -48 -12 -91 -44 -117 -90 -18
-29 -42 -53 -75 -71 -48 -25 -50 -28 -60 -86 -12 -68 -33 -108 -58 -108 -13 0
-14 -3 -5 -12 23 -23 72 49 72 106 0 19 14 35 53 64 28 22 54 38 56 36 2 -2
-4 -15 -14 -30 -9 -15 -12 -23 -6 -20 6 4 18 21 27 38 9 16 11 27 5 24 -6 -4
-11 -2 -11 3 0 6 5 11 10 11 6 0 10 7 10 16 0 8 4 13 9 10 11 -7 35 20 27 32
-3 5 0 9 7 9 22 0 160 85 193 118 41 41 52 62 90 180 19 55 34 93 34 85 1 -8
14 11 30 42 42 81 56 88 159 82 56 -3 91 -10 101 -19 12 -13 10 -15 -22 -15
-89 0 -137 -19 -196 -78 -47 -47 -63 -72 -90 -144 -24 -63 -43 -96 -68 -118
-35 -30 -34 -42 2 -15 22 17 38 20 29 5 -4 -6 -29 -22 -57 -36 -52 -26 -137
-84 -124 -84 5 0 20 8 34 19 34 23 189 111 197 111 18 0 -17 -25 -119 -84
-104 -61 -117 -71 -137 -114 -26 -56 -69 -116 -77 -108 -3 3 -11 -2 -18 -12
-16 -20 -19 -112 -4 -112 6 0 10 15 10 34 0 22 11 47 34 77 18 24 42 62 54 84
11 22 33 48 49 57 15 9 45 33 65 51 20 19 61 49 91 66 69 39 72 44 96 121 24
75 21 91 -4 26 -10 -25 -26 -53 -38 -63 -11 -10 -18 -13 -15 -8 2 6 11 26 20
45 9 19 18 46 22 60 l6 25 -12 -25 c-39 -82 -47 -104 -42 -111 6 -10 -19 -12
-29 -3 -3 4 3 18 13 32 11 13 20 28 20 33 0 4 9 28 20 53 11 26 19 49 19 53 0
3 3 9 8 12 4 3 21 23 36 44 16 20 51 49 78 63 44 22 60 24 137 22 l87 -3 23
-42 23 -43 120 0 c112 0 119 1 119 20 0 20 7 20 420 20 388 0 420 -1 429 -17
10 -17 10 -17 11 0 0 22 58 24 66 2 5 -11 22 -15 66 -15 53 0 66 -4 119 -41
69 -46 83 -67 141 -202 22 -53 43 -95 45 -93 5 4 -60 181 -90 244 -15 33 -38
56 -88 90 -48 33 -68 53 -69 68 0 28 -18 42 -55 42 -30 0 -55 -13 -55 -29 0
-5 8 -4 19 2 11 7 26 9 37 4 63 -27 -288 -42 -713 -30 -204 6 -251 10 -246 21
2 7 -18 36 -45 65 -42 44 -54 51 -76 45 -14 -3 -26 -13 -26 -21 0 -27 -20 -25
-46 5 -31 34 -77 41 -92 14z m208 -19 c6 -8 9 -19 5 -24 -8 -13 -45 9 -45 26
0 18 25 16 40 -2z m-145 -35 c0 -18 -33 -26 -47 -12 -6 6 -7 15 -3 22 10 16
50 8 50 -10z m-65 -15 c16 -31 53 -42 86 -26 37 16 52 14 76 -14 12 -14 27
-25 33 -25 6 0 20 -7 31 -15 17 -13 8 -14 -88 -15 l-108 0 -26 39 c-18 29 -35
41 -60 45 -49 10 -46 36 4 36 31 0 41 -5 52 -25z m248 -42 c2 -8 -6 -13 -22
-13 -25 0 -33 10 -19 24 10 10 36 3 41 -11z m1002 -33 c0 -21 -24 -28 -35 -10
-8 14 3 30 21 30 8 0 14 -9 14 -20z m-1638 -272 c-7 -7 -12 -8 -12 -2 0 14 12
26 19 19 2 -3 -1 -11 -7 -17z"/>
<path d="M2110 3480 c-6 -11 -8 -20 -6 -20 3 0 10 9 16 20 6 11 8 20 6 20 -3
0 -10 -9 -16 -20z"/>
<path d="M3076 3467 c-11 -8 -17 -23 -14 -38 2 -20 8 -24 36 -23 17 0 175 1
350 2 263 2 322 5 338 17 17 13 -18 14 -314 12 -255 -1 -332 1 -332 10 0 7 -9
17 -19 23 -25 13 -24 13 -45 -3z m52 -24 c2 -8 -6 -13 -22 -13 -26 0 -40 12
-29 24 11 11 46 2 51 -11z"/>
<path d="M3773 3453 c9 -2 23 -2 30 0 6 3 -1 5 -18 5 -16 0 -22 -2 -12 -5z"/>
<path d="M2075 3419 c-9 -17 -15 -33 -13 -35 3 -2 12 12 21 31 21 43 13 47 -8
4z"/>
<path d="M1981 3424 c0 -11 3 -14 6 -6 3 7 2 16 -1 19 -3 4 -6 -2 -5 -13z"/>
<path d="M2126 3390 c-22 -56 -19 -65 5 -11 11 24 18 46 15 48 -2 2 -11 -14
-20 -37z"/>
<path d="M4207 3419 c6 -6 44 -30 84 -53 l73 -41 24 -80 c13 -44 34 -117 46
-161 13 -45 26 -86 29 -91 19 -30 163 -126 223 -149 38 -14 84 -35 102 -46 18
-11 35 -18 37 -16 11 11 -46 47 -112 72 -77 29 -122 58 -194 127 -41 38 -50
55 -73 134 -15 50 -37 119 -49 154 l-22 63 -90 50 c-49 27 -85 44 -78 37z"/>
<path d="M1961 3404 c0 -11 3 -14 6 -6 3 7 2 16 -1 19 -3 4 -6 -2 -5 -13z"/>
<path d="M4460 3404 c0 -13 95 -252 104 -261 17 -17 3 39 -25 97 -49 103 -59
136 -46 150 9 10 9 11 -2 5 -8 -4 -17 -2 -22 6 -5 8 -9 9 -9 3z"/>
<path d="M2031 3325 c-24 -45 -71 -97 -71 -78 0 6 7 16 15 23 8 7 15 24 15 38
0 25 -1 25 -14 7 -8 -11 -12 -23 -10 -27 2 -4 -1 -10 -7 -14 -8 -5 -9 -3 -4 6
6 10 4 12 -11 6 -10 -5 -34 -12 -51 -18 -18 -5 -33 -12 -33 -16 0 -26 61 -44
75 -22 9 15 27 12 19 -2 -4 -7 2 -5 13 5 11 9 24 17 29 17 10 0 68 109 62 116
-2 1 -14 -17 -27 -41z m-83 -67 c-5 -15 -58 -24 -58 -9 0 9 20 17 48 20 8 0
12 -5 10 -11z"/>
<path d="M1862 3348 c-16 -16 -15 -23 3 -42 12 -12 22 -13 45 -4 34 11 34 12
20 39 -12 21 -50 25 -68 7z"/>
<path d="M2398 3332 c-3 -11 -1 -25 5 -31 16 -16 52 -14 66 3 10 12 8 17 -9
26 -11 6 -25 8 -31 4 -6 -4 -15 -1 -19 6 -5 8 -9 5 -12 -8z"/>
<path d="M2547 3344 c-12 -12 6 -34 29 -34 26 0 30 10 12 28 -13 13 -31 16
-41 6z"/>
<path d="M2291 3322 c-6 -12 -11 -27 -11 -34 1 -7 8 0 16 15 9 16 13 31 11 34
-3 2 -10 -4 -16 -15z"/>
<path d="M1681 3250 c-12 -33 -28 -65 -35 -72 -14 -14 -30 -68 -21 -68 4 0 23
37 44 83 47 103 52 117 42 117 -5 0 -18 -27 -30 -60z"/>
<path d="M4218 3250 c2 -22 6 -40 8 -40 2 0 4 18 4 40 0 22 -3 40 -8 40 -4 0
-6 -18 -4 -40z"/>
<path d="M4126 3247 c-10 -7 -17 -22 -14 -33 2 -14 12 -19 38 -19 32 0 35 2
35 30 0 34 -28 45 -59 22z m47 -11 c7 -18 -1 -26 -25 -26 -18 0 -25 20 -11 33
11 12 31 8 36 -7z"/>
<path d="M4192 3175 c-45 -31 -48 -35 -36 -43 6 -4 21 -41 33 -82 35 -121 39
-126 107 -170 39 -26 74 -59 91 -86 22 -34 45 -53 104 -84 41 -21 81 -50 88
-62 11 -22 11 -21 5 7 -8 43 -19 52 -86 77 -50 18 -66 30 -99 74 -22 30 -64
72 -95 95 -58 43 -95 103 -109 183 -4 20 -11 39 -16 42 -14 8 -11 24 4 24 15
0 53 37 46 44 -2 2 -19 -6 -37 -19z"/>
<path d="M4210 3135 c0 -23 26 -117 40 -145 10 -19 45 -56 79 -82 33 -26 71
-65 84 -85 31 -48 39 -55 110 -83 57 -24 108 -64 139 -110 l17 -25 -9 34 c-5
19 -17 42 -26 53 -20 21 -118 76 -152 85 -13 3 -41 29 -63 58 -21 28 -66 73
-100 99 -64 50 -88 90 -97 164 -2 23 -9 42 -13 42 -5 0 -9 -2 -9 -5z"/>
<path d="M4576 3124 c-24 -23 -20 -53 9 -64 32 -12 50 -5 63 25 20 44 -37 75
-72 39z m52 -26 c2 -13 -3 -18 -17 -18 -12 0 -21 2 -21 4 0 2 -3 12 -6 21 -5
13 -2 16 17 13 13 -1 25 -11 27 -20z"/>
<path d="M4151 3104 c0 -11 3 -14 6 -6 3 7 2 16 -1 19 -3 4 -6 -2 -5 -13z"/>
<path d="M2251 3099 c-2 -22 -35 -51 -108 -93 -71 -42 -87 -70 -53 -98 20 -16
54 -17 83 -1 13 8 7 56 -10 75 -15 17 -15 18 3 18 10 0 36 15 57 33 31 25 38
38 34 57 -2 14 -5 18 -6 9z m-117 -125 c26 -10 20 -44 -8 -44 -30 0 -42 16
-26 35 14 17 13 17 34 9z"/>
<path d="M2120 2961 c0 -5 5 -13 10 -16 6 -3 10 -2 10 4 0 5 -4 13 -10 16 -5
3 -10 2 -10 -4z"/>
<path d="M1922 3039 c-23 -17 -42 -33 -42 -35 0 -3 20 9 45 27 40 29 51 39 42
39 -2 0 -22 -14 -45 -31z"/>
<path d="M4161 3044 c0 -11 3 -14 6 -6 3 7 2 16 -1 19 -3 4 -6 -2 -5 -13z"/>
<path d="M4596 3029 c28 -31 184 -129 184 -115 0 2 -29 22 -64 45 -36 22 -68
46 -73 53 -8 13 -47 38 -59 38 -4 0 1 -10 12 -21z"/>
<path d="M4171 3004 c0 -11 3 -14 6 -6 3 7 2 16 -1 19 -3 4 -6 -2 -5 -13z"/>
<path d="M4510 3013 c0 -25 137 -117 233 -156 60 -25 43 -10 -31 27 -37 19
-92 53 -122 77 -30 23 -61 46 -67 52 -9 6 -13 6 -13 0z"/>
<path d="M1833 2958 c-17 -25 -48 -54 -76 -69 -26 -14 -53 -32 -60 -39 -6 -7
4 -4 23 7 19 11 49 28 66 38 17 10 39 32 49 49 10 17 23 34 29 38 6 4 8 10 4
13 -3 3 -19 -13 -35 -37z"/>
<path d="M4267 2869 c7 -7 15 -10 18 -7 3 3 -2 9 -12 12 -14 6 -15 5 -6 -5z"/>
<path d="M2035 2845 c-29 -28 -31 -47 -9 -69 22 -22 70 -20 94 4 26 26 25 31
-5 64 -30 32 -49 33 -80 1z m49 -24 c3 -5 -1 -15 -10 -22 -13 -10 -17 -10 -25
2 -5 8 -9 17 -9 22 0 10 38 9 44 -2z"/>
<path d="M4340 2825 c0 -32 50 -93 100 -121 30 -18 65 -41 78 -53 14 -13 22
-16 22 -7 0 18 -26 39 -86 69 -36 18 -60 40 -82 74 -18 26 -32 44 -32 38z"/>
<path d="M1600 2795 c-30 -11 -35 -17 -35 -45 0 -41 23 -58 61 -45 40 15 50
36 34 74 -7 17 -15 30 -19 30 -3 -1 -22 -7 -41 -14z m40 -35 c0 -5 -7 -10 -15
-10 -8 0 -15 5 -15 10 0 6 7 10 15 10 8 0 15 -4 15 -10z"/>
<path d="M1945 2753 c-28 -24 -31 -29 -10 -15 22 14 36 17 53 11 23 -9 29 -24
12 -34 -5 -3 -10 -1 -10 4 0 19 -46 12 -66 -10 -17 -19 -17 -23 -3 -47 19 -34
57 -40 87 -12 25 24 27 37 10 77 -6 15 -10 33 -9 39 4 26 -27 19 -64 -13z m49
19 c3 -5 -1 -9 -9 -9 -8 0 -12 4 -9 9 3 4 7 8 9 8 2 0 6 -4 9 -8z m-14 -77 c0
-16 -27 -32 -37 -22 -3 4 -3 13 0 22 8 20 37 20 37 0z"/>
<path d="M4627 2769 c7 -7 15 -10 18 -7 3 3 -2 9 -12 12 -14 6 -15 5 -6 -5z"/>
<path d="M4750 2755 c0 -20 4 -26 15 -22 19 8 32 -13 15 -23 -19 -12 -37 -2
-45 23 l-8 22 -4 -22 c-12 -60 60 -89 93 -37 16 24 16 27 -3 52 -11 15 -30 28
-42 30 -17 3 -21 -2 -21 -23z"/>
<path d="M2067 2738 c-7 -5 0 -6 17 -4 16 3 31 7 33 10 8 8 -37 2 -50 -6z"/>
<path d="M4601 2665 c-1 -21 15 -53 22 -45 2 3 -2 19 -9 35 -10 23 -13 25 -13
10z"/>
<path d="M1860 2630 c0 -13 18 -22 24 -11 3 5 -1 11 -9 15 -8 3 -15 1 -15 -4z"/>
<path d="M1814 2605 c-17 -43 75 -65 97 -24 8 15 8 24 0 32 -7 7 -12 5 -17 -6
-3 -10 -17 -17 -31 -17 -13 0 -22 4 -19 9 3 5 -1 12 -9 15 -9 3 -18 -1 -21 -9z"/>
<path d="M4542 2600 c0 -14 2 -19 5 -12 2 6 2 18 0 25 -3 6 -5 1 -5 -13z"/>
<path d="M2040 2595 c-7 -9 -8 -15 -2 -15 5 0 12 7 16 15 3 8 4 15 2 15 -2 0
-9 -7 -16 -15z"/>
<path d="M4605 2600 c-3 -6 1 -7 9 -4 18 7 21 14 7 14 -6 0 -13 -4 -16 -10z"/>
<path d="M4645 2592 c8 -28 -19 -41 -48 -23 -18 12 -19 11 -14 -8 7 -30 -11
-37 -22 -9 -6 13 -10 17 -10 8 -1 -20 27 -60 41 -60 7 0 6 6 -2 15 -7 8 -9 15
-4 16 5 0 24 1 43 2 48 3 63 30 32 59 l-23 23 7 -23z"/>
<path d="M4390 2575 c0 -8 22 -26 50 -40 35 -18 48 -21 44 -10 -3 8 -9 14 -12
13 -19 -2 -31 4 -56 27 -18 16 -26 20 -26 10z"/>
<path d="M5321 5876 c4 -4 35 -9 70 -12 80 -6 129 -21 129 -40 0 -9 4 -13 9
-10 13 8 89 -55 113 -95 17 -27 22 -55 26 -135 6 -129 -5 -160 -76 -229 -64
-63 -54 -75 12 -15 67 62 89 123 84 234 -5 105 -20 143 -82 208 -59 62 -119
88 -213 95 -43 3 -75 3 -72 -1z"/>
<path d="M5288 5863 c7 -3 16 -2 19 1 4 3 -2 6 -13 5 -11 0 -14 -3 -6 -6z"/>
<path d="M5450 5820 c0 -5 4 -10 9 -10 6 0 13 5 16 10 3 6 -1 10 -9 10 -9 0
-16 -4 -16 -10z"/>
<path d="M5105 5769 c-60 -56 -79 -108 -73 -206 5 -93 24 -137 85 -199 58 -60
138 -95 229 -102 92 -6 174 12 174 39 0 12 -5 16 -15 13 -8 -4 -15 -10 -15
-14 0 -5 -8 -9 -17 -9 -10 0 -51 -2 -91 -5 -68 -5 -74 -4 -82 17 -7 17 -9 18
-9 5 -1 -16 -5 -16 -40 -3 -79 28 -150 86 -183 150 -15 29 -21 60 -22 120 -1
92 17 136 80 198 52 50 34 47 -21 -4z"/>
<path d="M5530 5689 c0 -5 5 -7 10 -4 6 3 10 8 10 11 0 2 -4 4 -10 4 -5 0 -10
-5 -10 -11z"/>
<path d="M5270 5655 c0 -2 18 -14 40 -25 22 -11 40 -18 40 -15 0 2 -18 14 -40
25 -22 11 -40 18 -40 15z"/>
<path d="M5275 5470 c4 -6 11 -8 16 -5 14 9 11 15 -7 15 -8 0 -12 -5 -9 -10z"/>
<path d="M5351 5364 c0 -11 3 -14 6 -6 3 7 2 16 -1 19 -3 4 -6 -2 -5 -13z"/>
<path d="M5407 4863 c-2 -5 -1 -17 3 -27 6 -19 7 -19 12 2 6 21 -6 40 -15 25z"/>
<path d="M5280 4845 c-55 -17 -122 -72 -144 -119 -11 -24 -16 -62 -16 -128 0
-107 34 -1135 54 -1627 l14 -333 29 -56 c49 -97 117 -127 283 -127 89 0 111 4
147 22 89 48 130 136 119 255 -3 35 -13 227 -21 428 -8 201 -19 439 -25 530
-6 91 -17 311 -25 490 -22 492 -22 484 -44 529 -27 52 -102 131 -108 113 -3
-7 15 -32 40 -55 25 -23 50 -53 55 -67 15 -40 21 -139 37 -615 9 -247 18 -457
20 -465 2 -8 7 -78 10 -155 3 -77 10 -198 16 -270 5 -71 9 -235 9 -363 0 -266
-2 -275 -77 -318 -41 -25 -58 -28 -152 -31 -136 -4 -205 16 -207 60 -1 15 -6
33 -13 40 -10 9 -11 8 -5 -7 6 -15 4 -17 -6 -11 -9 5 -11 4 -6 -4 4 -6 12 -8
18 -5 7 5 8 2 4 -5 -6 -9 -13 -8 -28 6 -36 31 -47 77 -53 209 -3 71 -8 147
-10 169 -3 22 -10 186 -15 365 -15 468 -28 852 -40 1112 -8 167 -8 239 0 270
22 83 135 167 210 156 20 -3 30 0 30 9 0 17 -41 16 -100 -2z"/>
<path d="M5452 4843 c4 -23 58 -31 58 -10 0 8 -10 17 -22 21 -35 9 -40 7 -36
-11z"/>
<path d="M5117 4788 c-39 -51 -47 -82 -45 -176 l1 -87 6 95 c7 96 16 126 54
167 11 13 18 25 15 29 -3 3 -17 -10 -31 -28z"/>
<path d="M5620 4812 c0 -4 14 -21 32 -38 l31 -29 -22 32 c-23 35 -41 50 -41
35z"/>
<path d="M5334 4759 c1 -29 -41 -54 -61 -37 -9 7 -13 7 -13 0 0 -6 6 -16 13
-21 84 -68 94 -89 97 -206 1 -27 4 -44 7 -37 3 8 2 51 -2 96 -5 66 -11 88 -29
107 -21 23 -22 26 -8 62 11 26 12 41 5 48 -7 7 -10 3 -9 -12z"/>
<path d="M5265 4759 c-11 -16 -1 -19 13 -3 7 8 8 14 3 14 -5 0 -13 -5 -16 -11z"/>
<path d="M5300 4750 c0 -5 5 -10 11 -10 5 0 7 5 4 10 -3 6 -8 10 -11 10 -2 0
-4 -4 -4 -10z"/>
<path d="M5450 4726 c0 -9 9 -30 21 -45 14 -19 24 -54 29 -102 l9 -74 -4 81
c-3 67 -9 89 -30 119 -15 23 -25 31 -25 21z"/>
<path d="M5380 4719 c0 -8 11 -30 25 -48 13 -19 26 -52 29 -75 9 -76 15 -253
8 -262 -4 -5 -1 -4 6 2 11 9 12 40 4 157 -9 139 -11 148 -41 193 -17 26 -31
41 -31 33z"/>
<path d="M5412 4535 c0 -16 2 -22 5 -12 2 9 2 23 0 30 -3 6 -5 -1 -5 -18z"/>
<path d="M5224 4526 c-23 -19 -25 -26 -16 -43 7 -12 26 -23 46 -27 43 -8 52
-31 29 -74 -18 -33 -18 -34 6 -53 24 -19 51 -18 79 3 14 12 16 64 2 73 -6 3
-7 -1 -4 -9 5 -14 3 -14 -24 -1 -32 16 -47 57 -31 87 13 24 1 45 -32 57 -25 8
-33 6 -55 -13z m64 -19 c2 -11 -3 -17 -17 -17 -23 0 -35 15 -26 31 10 15 39 6
43 -14z m61 -136 c10 -6 10 -10 1 -16 -14 -9 -60 2 -60 15 0 12 40 13 59 1z"/>
<path d="M5513 4430 c0 -30 2 -43 4 -27 2 15 2 39 0 55 -2 15 -4 2 -4 -28z"/>
<path d="M5082 4420 c0 -14 2 -19 5 -12 2 6 2 18 0 25 -3 6 -5 1 -5 -13z"/>
<path d="M5553 4355 c0 -27 2 -38 4 -22 2 15 2 37 0 50 -2 12 -4 0 -4 -28z"/>
<path d="M5641 4334 c0 -11 3 -14 6 -6 3 7 2 16 -1 19 -3 4 -6 -2 -5 -13z"/>
<path d="M5431 4300 c-18 -16 -59 -42 -91 -59 -32 -17 -60 -38 -64 -46 -3 -8
-13 -15 -23 -15 -34 -1 -51 -23 -49 -68 1 -39 4 -44 28 -49 22 -4 29 -12 33
-42 3 -20 8 -48 10 -62 3 -19 -3 -33 -21 -49 -40 -39 -24 -82 31 -82 35 0 55
19 55 53 0 21 -7 32 -24 40 -22 10 -25 20 -31 96 -4 46 -6 85 -4 87 71 56 117
89 142 101 18 8 46 27 62 41 35 30 15 22 -32 -12 -17 -13 -36 -24 -41 -24 -5
0 -41 -26 -82 -57 -57 -45 -76 -54 -89 -46 -28 18 -24 41 9 58 17 9 39 23 48
31 31 28 147 98 158 96 6 -1 17 6 25 15 11 15 11 16 -1 6 -20 -18 -35 -16 -20
2 19 23 9 18 -29 -15z m-111 -423 c0 -6 -7 -19 -16 -28 -20 -22 -54 -9 -54 20
0 28 27 34 35 8 6 -19 8 -20 12 -4 3 10 -1 26 -9 35 -9 13 -7 12 10 -2 12 -11
22 -24 22 -29z"/>
<path d="M5329 4267 c-48 -29 -100 -63 -115 -76 -22 -18 -23 -19 -4 -7 14 9
58 34 98 57 64 36 126 79 112 78 -3 0 -44 -24 -91 -52z"/>
<path d="M5093 4240 c0 -36 2 -50 4 -32 2 17 2 47 0 65 -2 17 -4 3 -4 -33z"/>
<path d="M5476 4285 c-11 -8 -15 -15 -9 -15 6 0 16 7 23 15 16 19 11 19 -14 0z"/>
<path d="M5636 4265 c-3 -9 -21 -22 -40 -30 -19 -8 -37 -19 -41 -25 -3 -5 -15
-10 -26 -10 -12 0 -19 -7 -19 -20 0 -11 5 -20 10 -20 20 0 120 73 126 92 7 24
-1 35 -10 13z"/>
<path d="M5405 4248 c-16 -12 -53 -39 -81 -60 -28 -21 -59 -38 -69 -38 -14 0
-16 -3 -8 -11 13 -13 46 4 83 41 10 10 42 34 72 54 29 20 48 36 43 36 -6 0
-23 -10 -40 -22z"/>
<path d="M5490 4224 c-30 -19 -71 -44 -90 -54 -19 -10 -51 -35 -70 -57 -19
-21 -23 -28 -9 -15 l26 23 6 -44 c4 -25 9 -100 13 -168 4 -68 10 -131 15 -139
5 -9 7 3 4 30 -2 25 -7 86 -9 135 -3 50 -8 110 -12 136 l-6 45 88 64 c49 35
93 67 99 72 20 18 -3 6 -55 -28z"/>
<path d="M5382 4060 c0 -14 2 -19 5 -12 2 6 2 18 0 25 -3 6 -5 1 -5 -13z"/>
<path d="M5507 3890 c3 -69 9 -132 13 -140 5 -9 31 -31 58 -50 42 -28 51 -40
56 -73 9 -54 -9 -78 -75 -101 -30 -10 -62 -26 -71 -34 -19 -16 -25 -3 -7 15 8
8 7 13 -1 18 -6 4 -15 3 -20 -1 -11 -13 19 -215 36 -241 8 -12 41 -40 73 -63
33 -22 62 -44 66 -50 12 -20 18 -137 6 -144 -8 -5 -11 10 -11 51 0 33 -6 66
-12 75 -15 18 -146 118 -155 118 -4 0 -15 7 -25 17 -11 9 -18 11 -18 5 0 -7
42 -43 94 -82 51 -38 96 -76 100 -85 3 -9 6 -39 6 -66 l0 -49 -57 -29 c-90
-46 -106 -65 -24 -27 41 19 87 44 103 57 28 24 28 25 21 99 -6 66 -10 77 -37
102 -17 16 -37 26 -44 23 -7 -3 -11 -1 -8 4 3 4 -8 21 -24 36 -17 16 -30 25
-30 20 0 -5 12 -19 28 -32 15 -12 22 -22 15 -23 -6 0 -23 14 -37 31 -20 23
-26 42 -26 77 -1 26 -3 63 -5 82 -3 19 -2 40 2 45 5 6 36 23 71 40 35 16 68
35 73 42 7 7 8 34 4 68 -7 51 -12 60 -63 110 l-55 54 -13 113 -13 113 6 -125z"/>
<path d="M5402 3820 c0 -14 2 -19 5 -12 2 6 2 18 0 25 -3 6 -5 1 -5 -13z"/>
<path d="M5228 3809 c-10 -5 -18 -15 -18 -22 0 -7 4 -6 10 3 8 12 10 12 10 1
0 -11 5 -10 20 4 11 10 22 16 25 13 3 -3 -4 -13 -15 -23 -11 -10 -20 -27 -20
-37 0 -17 5 -19 33 -13 17 4 35 9 40 12 6 4 11 62 5 63 -52 8 -76 8 -90 -1z"/>
<path d="M5406 3764 c-3 -7 8 -24 25 -37 17 -13 37 -43 45 -66 17 -50 12 -60
-45 -92 l-36 -20 0 -163 0 -163 40 -23 c83 -47 148 -111 131 -127 -3 -4 -15 2
-25 11 -29 26 -61 13 -61 -25 0 -24 -16 -46 -87 -116 -49 -48 -80 -81 -71 -74
9 7 21 10 27 7 5 -4 36 23 68 59 38 44 76 75 111 91 45 22 52 29 52 54 0 36
-41 84 -109 131 -28 19 -52 39 -55 46 -3 7 -6 71 -7 144 -1 140 3 155 50 164
42 8 49 21 40 70 -10 56 -24 82 -60 116 -20 19 -29 22 -33 13z m84 -168 c0 -2
-8 -10 -17 -17 -16 -13 -17 -12 -4 4 13 16 21 21 21 13z m48 -533 c-2 -10 -13
-19 -26 -21 -17 -3 -22 2 -22 17 0 16 6 21 26 21 19 0 25 -5 22 -17z m-158
-157 c0 -2 -8 -10 -17 -17 -16 -13 -17 -12 -4 4 13 16 21 21 21 13z"/>
<path d="M5343 3739 c-29 -11 -32 -63 -5 -77 27 -15 62 3 62 31 0 34 -29 57
-57 46z m43 -24 c8 -20 -13 -45 -37 -45 -19 0 -24 16 -13 44 8 20 43 21 50 1z"/>
<path d="M5256 3712 c-9 -14 4 -44 30 -68 19 -19 22 -32 23 -129 2 -105 25
-342 35 -352 13 -13 126 -61 126 -53 0 5 -27 27 -59 50 -54 36 -60 44 -65 82
-5 40 -26 365 -26 402 0 9 -6 16 -14 16 -7 0 -20 14 -29 31 -8 17 -17 26 -21
21z"/>
<path d="M5211 3689 c-1 -15 9 -39 21 -55 18 -22 24 -46 29 -114 l6 -85 1 86
c2 74 -1 90 -19 113 -11 15 -25 39 -29 54 l-8 27 -1 -26z"/>
<path d="M5569 3618 c0 -18 -2 -41 -4 -50 -5 -26 12 -22 19 5 9 35 7 77 -4 77
-5 0 -10 -15 -11 -32z"/>
<path d="M5518 3554 c-24 -12 -38 -34 -23 -34 14 0 55 25 59 36 7 18 -2 17
-36 -2z"/>
<path d="M5581 3501 c-9 -6 -12 -20 -9 -40 5 -35 -8 -43 -15 -8 -7 36 -8 -66
0 -118 6 -44 11 -51 67 -92 34 -25 62 -46 63 -47 7 -6 13 -75 14 -154 1 -53 5
-95 11 -99 8 -4 9 32 4 118 l-7 124 -59 56 c-33 31 -60 65 -60 75 0 16 -2 16
-10 4 -6 -10 -7 4 -5 39 6 62 9 68 29 52 11 -10 21 -9 44 3 38 20 46 43 27 72
-16 25 -66 33 -94 15z m82 -17 c3 -4 2 -15 -4 -25 -13 -24 -40 -25 -33 -1 5
16 5 16 -6 0 -13 -22 -30 -23 -30 -4 0 8 12 19 28 24 34 13 37 13 45 6z"/>
<path d="M5271 3344 c0 -49 4 -111 9 -139 5 -31 6 1 3 85 -6 154 -13 187 -12
54z"/>
<path d="M5430 3420 c-13 -8 -12 -10 3 -10 9 0 17 5 17 10 0 12 -1 12 -20 0z"/>
<path d="M5312 3230 c0 -14 2 -19 5 -12 2 6 2 18 0 25 -3 6 -5 1 -5 -13z"/>
<path d="M5311 3184 c0 -11 3 -14 6 -6 3 7 2 16 -1 19 -3 4 -6 -2 -5 -13z"/>
<path d="M5316 3068 c-22 -30 -21 -35 13 -52 27 -14 30 -14 52 10 18 20 21 29
13 42 -17 27 -59 27 -78 0z m49 -14 c0 -12 -8 -20 -22 -22 -25 -4 -31 16 -11
36 17 17 33 10 33 -14z"/>
<path d="M5669 2980 c-2 -14 -10 -26 -16 -26 -37 -4 -38 -4 -23 -14 12 -8 12
-10 -5 -10 -11 -1 -36 -10 -55 -21 -19 -11 -26 -17 -15 -14 115 39 129 49 123
87 -4 23 -4 23 -9 -2z"/>
<path d="M5676 2918 c-9 -12 -16 -27 -16 -33 0 -6 -22 -33 -50 -60 -45 -44
-66 -76 -40 -60 6 3 10 1 10 -4 0 -6 -5 -11 -11 -11 -9 0 -10 -26 -5 -94 6
-94 6 -94 -20 -115 -32 -25 -61 -27 -86 -4 -18 16 -18 16 -12 0 4 -11 1 -17
-7 -17 -25 -1 18 -20 53 -24 21 -3 40 2 52 12 11 10 16 11 12 4 -7 -11 -4 -12
13 -3 12 7 27 9 33 5 7 -4 8 -3 4 5 -6 8 0 10 21 6 19 -3 22 -3 10 3 -10 4
-18 11 -18 15 2 19 0 19 -14 1 -8 -10 -15 -14 -15 -9 0 6 -4 4 -9 -4 -6 -9
-11 -10 -15 -2 -6 10 7 16 18 9 2 -2 14 9 25 24 16 19 21 40 21 81 0 31 -5 59
-11 63 -8 5 -10 -10 -7 -53 5 -53 3 -61 -16 -73 -19 -12 -20 -11 -8 2 7 9 9
18 4 20 -5 1 -12 35 -15 73 -7 81 -1 76 13 -10 l9 -60 -5 73 c-5 61 -2 78 13
95 9 12 11 16 3 10 -8 -7 -18 -13 -23 -13 -4 0 19 26 52 58 46 43 61 64 61 85
0 33 -4 34 -24 5z"/>
<path d="M5510 2889 c0 -5 5 -7 10 -4 6 3 10 8 10 11 0 2 -4 4 -10 4 -5 0 -10
-5 -10 -11z"/>
<path d="M5606 2887 c-16 -12 -17 -14 -1 -27 9 -7 15 -9 14 -4 -4 24 2 36 17
30 8 -3 12 -2 9 4 -8 13 -18 13 -39 -3z"/>
<path d="M5639 2803 c-13 -16 -12 -17 4 -4 9 7 17 15 17 17 0 8 -8 3 -21 -13z"/>
<path d="M5638 2723 c6 -2 18 -2 25 0 6 3 1 5 -13 5 -14 0 -19 -2 -12 -5z"/>
<path d="M5342 2698 c-16 -16 -15 -43 3 -58 12 -10 20 -9 40 4 14 9 25 23 25
32 0 8 5 12 10 9 6 -3 10 -1 10 5 0 7 -7 10 -15 7 -8 -4 -17 -2 -20 3 -9 14
-39 12 -53 -2z m47 -12 c9 -11 7 -15 -11 -19 -27 -7 -32 -3 -25 18 8 19 21 19
36 1z"/>
<path d="M5221 2674 c0 -11 3 -14 6 -6 3 7 2 16 -1 19 -3 4 -6 -2 -5 -13z"/>
<path d="M5295 2674 c9 -9 14 -22 12 -29 -3 -6 1 -12 7 -12 10 0 11 7 2 29 -6
15 -16 28 -24 28 -10 0 -9 -4 3 -16z"/>
<path d="M5491 2674 c0 -11 3 -14 6 -6 3 7 2 16 -1 19 -3 4 -6 -2 -5 -13z"/>
<path d="M5521 2644 c0 -11 3 -14 6 -6 3 7 2 16 -1 19 -3 4 -6 -2 -5 -13z"/>
<path d="M5645 2620 c-3 -5 1 -10 10 -10 9 0 13 5 10 10 -3 6 -8 10 -10 10 -2
0 -7 -4 -10 -10z"/>
<path d="M5464 2596 c-3 -8 -4 -23 -2 -33 4 -23 56 -29 82 -10 19 14 19 14 -2
35 -25 25 -70 29 -78 8z m54 -8 c19 -19 14 -28 -12 -28 -27 0 -41 14 -31 30 8
14 28 13 43 -2z"/>
<path d="M5633 2580 c-11 -17 -9 -18 17 -15 36 5 39 -2 8 -15 -23 -9 -23 -9
-2 -9 26 -1 37 21 21 39 -9 10 -7 11 13 5 14 -4 22 -4 18 0 -16 17 -64 14 -75
-5z"/>
<path d="M5345 2569 c-8 -25 8 -39 45 -38 22 1 21 2 -7 10 -18 5 -33 14 -33
20 0 6 4 8 8 5 5 -3 9 1 9 9 0 22 -15 18 -22 -6z"/>
<path d="M5310 2553 c0 -17 5 -35 10 -38 13 -8 13 35 0 55 -7 11 -10 7 -10
-17z"/>
<path d="M5388 2553 c7 -3 16 -2 19 1 4 3 -2 6 -13 5 -11 0 -14 -3 -6 -6z"/>
<path d="M5370 2510 c20 -13 33 -13 25 0 -3 6 -14 10 -23 10 -15 0 -15 -2 -2
-10z"/>
<path d="M1734 2598 c-4 -7 -4 -10 1 -6 4 4 15 2 24 -5 14 -11 14 -10 2 6 -16
20 -18 21 -27 5z"/>
<path d="M1720 2576 c14 -8 27 -12 29 -10 6 6 -1 11 -29 18 l-25 7 25 -15z"/>
</g>
</svg>
