<?xml version="1.0" standalone="no"?>
<!DOCTYPE svg PUBLIC "-//W3C//DTD SVG 20010904//EN"
 "http://www.w3.org/TR/2001/REC-SVG-20010904/DTD/svg10.dtd">
<svg version="1.0" xmlns="http://www.w3.org/2000/svg"
 width="735.000000pt" height="414.000000pt" viewBox="0 0 735.000000 414.000000"
 preserveAspectRatio="xMidYMid meet">

<g transform="translate(0.000000,414.000000) scale(0.100000,-0.100000)"
fill="#000000" stroke="none">
<path d="M0 2070 l0 -2070 3675 0 3675 0 0 2070 0 2070 -3675 0 -3675 0 0
-2070z m3382 1615 c-6 -36 -19 -40 -14 -4 2 16 8 29 12 29 4 0 5 -11 2 -25z
m-2 -105 c0 -5 -5 -10 -11 -10 -5 0 -7 5 -4 10 3 6 8 10 11 10 2 0 4 -4 4 -10z
m-50 -148 c0 -25 -30 -61 -36 -44 -3 6 -10 12 -15 12 -6 0 -7 -4 -4 -10 3 -5
-3 -10 -14 -10 -14 0 -19 5 -15 15 4 8 14 15 24 15 29 0 50 11 50 26 0 8 2 14
5 14 3 0 5 -8 5 -18z m790 -812 c3 0 17 11 32 25 24 22 30 24 48 13 23 -15 27
-58 5 -58 -8 0 -15 7 -15 16 0 9 -6 14 -12 11 -7 -2 -12 -11 -12 -20 1 -9 -3
-14 -9 -10 -6 4 -8 -3 -4 -18 5 -21 2 -26 -28 -35 -25 -8 -39 -7 -57 2 -13 7
-17 13 -10 14 6 0 12 7 12 15 0 8 -6 15 -12 16 -7 0 -5 4 5 8 18 7 18 7 0 21
-10 8 -15 11 -11 6 11 -13 -18 -36 -44 -35 -17 1 -18 3 -5 6 20 5 22 19 5 29
-7 4 -8 3 -4 -4 4 -7 1 -12 -8 -12 -9 0 -16 -4 -16 -10 0 -5 -12 -10 -27 -9
-16 0 -22 3 -15 6 10 4 10 8 0 21 -7 10 -8 14 -4 10 5 -4 21 1 36 12 21 15 39
19 74 16 31 -3 46 -1 47 7 1 7 6 0 12 -15 6 -16 13 -28 17 -28z m33 43 c-7 -2
-19 -2 -25 0 -7 3 -2 5 12 5 14 0 19 -2 13 -5z m84 1 c-3 -3 -12 -4 -19 -1 -8
3 -5 6 6 6 11 1 17 -2 13 -5z m343 -30 c0 -13 -4 -24 -10 -24 -5 0 -10 9 -10
20 0 31 -26 24 -40 -11 -11 -26 -11 -32 1 -39 17 -11 5 -24 -16 -17 -42 17 9
112 54 100 14 -3 21 -13 21 -29z m85 4 c9 -38 -17 -78 -50 -78 -22 0 -25 4
-25 39 0 63 63 95 75 39z m-877 -133 c10 -107 11 -163 3 -196 -5 -25 -7 -55
-4 -67 4 -17 -1 -22 -21 -28 -50 -12 -60 -1 -70 76 l-6 45 -75 -3 c-60 -3 -78
-7 -88 -23 -8 -10 -17 -16 -21 -12 -4 4 -4 -1 0 -11 5 -12 2 -23 -7 -30 -9 -6
-18 -19 -22 -28 -5 -14 -18 -18 -57 -18 l-50 0 20 40 c13 25 25 38 32 34 6 -4
8 -3 5 3 -6 10 168 309 204 351 13 15 29 19 80 18 l64 -1 13 -150z m192 151
c0 -2 -9 -6 -20 -9 -11 -3 -20 -1 -20 4 0 5 9 9 20 9 11 0 20 -2 20 -4z m301
-9 c-1 -4 -1 -16 -1 -27 0 -11 -7 -20 -16 -20 -8 0 -12 5 -8 11 3 6 0 15 -7
20 -12 8 -12 11 1 19 16 10 32 9 31 -3z m-1010 -17 c19 -5 48 -23 64 -40 25
-26 28 -37 28 -88 -1 -79 -30 -141 -96 -206 -45 -44 -66 -56 -128 -74 -88 -26
-259 -32 -259 -9 0 8 11 49 24 93 14 43 41 134 62 201 30 101 40 123 58 126
43 9 212 7 247 -3z m795 -179 c-4 -52 -19 -101 -31 -101 -2 0 -9 10 -16 21 -6
12 -7 19 -2 16 5 -3 9 9 9 27 0 19 8 41 17 50 9 10 17 24 17 32 0 8 2 14 5 14
2 0 3 -26 1 -59z m65 20 c7 11 9 11 9 1 0 -7 -7 -24 -16 -37 -8 -13 -15 -32
-14 -42 4 -39 1 -44 -19 -31 -14 9 -17 17 -11 37 13 43 35 81 39 70 2 -7 7 -6
12 2z m289 -38 c-5 -20 -7 -40 -4 -44 2 -4 -3 -13 -12 -20 -15 -12 -16 -10
-10 28 5 27 4 43 -4 48 -9 6 -9 10 1 16 29 18 37 10 29 -28z m185 -5 c-10 -63
-24 -69 -22 -9 1 35 6 51 15 51 11 0 12 -10 7 -42z m71 26 c-9 -8 -16 -29 -16
-45 0 -19 -4 -28 -11 -23 -14 8 -3 65 14 76 21 13 29 9 13 -8z m-201 -51 c0
-25 18 -26 36 -3 17 22 20 22 17 5 -2 -11 -14 -25 -28 -32 -21 -11 -27 -10
-37 4 -7 9 -13 23 -13 31 0 7 6 12 13 10 6 -3 12 -10 12 -15z m225 -23 c-8 -5
-19 -10 -25 -10 -5 0 -3 5 5 10 8 5 20 10 25 10 6 0 3 -5 -5 -10z m-886 -169
c-9 -11 -23 54 -17 77 6 24 8 21 14 -23 3 -27 5 -52 3 -54z m219 80 c11 -1 9
-69 -3 -76 -6 -4 -10 7 -10 24 0 17 -5 31 -11 31 -5 0 -8 -4 -5 -8 3 -5 -1 -9
-9 -9 -16 0 -18 7 -9 30 3 8 13 14 22 12 9 -2 20 -4 25 -4z m259 -33 c-4 -40
-22 -53 -22 -17 0 20 19 64 24 57 2 -1 1 -20 -2 -40z m84 -9 c-15 -31 -16 -32
-12 -7 1 15 -2 29 -8 32 -7 3 -6 8 4 15 24 17 32 -4 16 -40z m290 29 c-3 -13
-6 -31 -6 -40 0 -10 -4 -18 -8 -18 -7 0 -8 54 -3 78 1 1 6 2 12 2 7 0 9 -9 5
-22z m-566 4 c0 -15 -11 -21 -27 -15 -12 5 -12 7 -1 14 17 11 28 11 28 1z
m622 -37 c-2 -14 -9 -25 -14 -25 -6 0 -7 7 -4 16 3 9 6 20 6 25 0 5 4 9 9 9 4
0 6 -11 3 -25z m-1083 -179 c8 -5 4 -19 -11 -45 -21 -36 -23 -38 -54 -28 -19
6 -31 14 -28 19 3 4 0 8 -5 8 -6 0 -11 -4 -11 -10 0 -5 -16 -10 -35 -10 -20 0
-50 -7 -66 -16 -28 -14 -33 -14 -54 0 -27 18 -42 6 -27 -20 6 -11 11 -13 16
-5 4 6 12 11 19 11 7 0 5 -6 -5 -16 -13 -13 -20 -14 -39 -4 -20 10 -22 10 -11
-1 19 -20 14 -31 -8 -17 -18 11 -23 9 -45 -17 -13 -17 -24 -34 -25 -39 0 -7
19 15 46 53 2 2 10 -4 19 -13 15 -15 9 -49 -8 -47 -21 3 -26 -1 -21 -14 4 -8
1 -22 -6 -30 -8 -9 -8 -15 -2 -15 6 0 13 6 15 13 3 6 6 -1 6 -16 1 -25 -2 -28
-26 -25 -24 3 -28 7 -28 37 0 27 -2 30 -10 16 -5 -9 -18 -26 -27 -37 -26 -30
-22 -45 5 -22 l22 19 -18 -22 c-11 -12 -16 -27 -11 -34 4 -7 3 -10 -4 -5 -5 3
-13 0 -16 -6 -3 -7 -4 13 -2 46 3 36 15 79 32 112 28 55 38 64 48 42 4 -7 4
-3 2 10 -3 18 -1 22 10 18 9 -3 12 -1 9 5 -9 13 14 41 28 32 6 -3 7 -1 3 6 -5
7 15 22 56 41 70 33 103 38 112 15 3 -8 10 -15 16 -15 7 0 7 7 -1 21 -11 22
-10 22 59 17 38 -3 74 -8 81 -12z m201 -8 c0 -5 -4 -7 -8 -4 -5 3 -14 -10 -21
-29 -6 -19 -21 -37 -32 -40 -30 -10 -34 0 -10 24 12 12 21 29 21 39 0 10 3 21
6 24 8 9 44 -3 44 -14z m218 -26 c-13 -48 -28 -64 -28 -30 0 36 18 81 29 74 6
-4 5 -21 -1 -44z m102 34 c0 -7 -7 -19 -15 -26 -12 -10 -15 -9 -15 7 0 11 3
23 7 26 11 12 23 8 23 -7z m144 -16 c-4 -16 -3 -37 1 -47 6 -16 8 -16 26 6 10
13 19 35 19 49 0 19 3 23 11 15 31 -31 -34 -110 -66 -83 -15 12 -13 57 2 83 9
16 12 6 7 -23z m-1698 -13 c13 -15 24 -38 24 -50 0 -29 -37 -90 -50 -82 -6 3
-10 0 -10 -8 0 -8 -11 -18 -25 -21 -24 -6 -35 -26 -14 -26 5 0 7 -4 4 -10 -3
-5 0 -7 8 -4 9 3 19 -6 26 -24 14 -34 5 -86 -15 -78 -7 3 -14 0 -16 -6 -2 -6
-9 -3 -17 6 -11 14 -11 16 2 16 10 0 14 6 11 15 -4 8 -1 15 5 15 6 0 11 -5 11
-11 0 -5 5 -7 10 -4 16 10 11 21 -10 22 -11 1 -31 -9 -45 -23 -17 -16 -20 -24
-10 -24 8 0 15 -4 15 -10 0 -9 -13 -13 -26 -7 -3 1 -10 -6 -15 -16 -11 -19 -3
-57 12 -57 12 0 12 23 -1 36 -7 7 -3 14 14 22 18 8 27 8 32 1 4 -8 9 -7 15 2
4 7 10 11 12 9 9 -9 -52 -73 -71 -75 -11 0 -27 -9 -36 -18 -28 -27 -36 -20
-20 19 14 34 14 35 -6 24 -12 -6 -20 -21 -20 -35 0 -16 -6 -25 -16 -25 -11 0
-14 8 -11 33 2 25 8 33 28 35 25 4 69 39 69 55 0 6 7 18 16 28 14 16 14 19
-11 35 -35 23 -125 32 -126 13 0 -8 -4 -6 -10 6 -8 17 -9 15 -5 -9 5 -36 -2
-56 -19 -56 -20 0 -24 -34 -9 -70 13 -29 13 -31 -2 -20 -8 8 -14 9 -13 4 6
-35 -21 -63 -55 -57 -22 5 -25 10 -23 43 1 21 6 35 11 32 5 -3 6 3 2 14 -4 10
-4 15 0 12 3 -4 19 -1 35 8 36 18 39 28 4 12 -14 -6 -28 -9 -31 -6 -10 11 20
49 44 54 30 8 28 22 -3 16 -29 -5 -30 3 -11 48 9 22 15 28 19 19 4 -8 4 -2 1
12 -3 16 0 32 10 41 8 9 13 18 10 20 -4 5 7 44 28 100 13 35 22 37 146 35 100
-2 105 -3 128 -30z m433 -116 l-3 -149 -24 9 c-17 7 -24 5 -29 -6 -3 -10 -9
-12 -17 -6 -13 10 -56 -4 -56 -18 0 -6 7 -8 15 -5 8 4 15 1 15 -6 0 -6 5 -8
11 -4 8 5 8 9 -1 14 -8 5 -8 10 -2 14 13 8 25 -25 13 -37 -5 -5 -19 -5 -32 -1
-13 4 -39 8 -58 8 -19 1 -35 7 -37 14 -1 7 0 8 3 2 7 -15 23 -12 17 3 -4 12
35 38 77 51 16 4 31 60 20 72 -3 3 -5 33 -3 67 3 62 3 62 -16 40 -11 -12 -22
-19 -26 -16 -3 4 -7 0 -8 -8 0 -8 -2 -18 -3 -24 -2 -5 -3 -16 -4 -24 -1 -11
-4 -11 -18 0 -16 13 -17 12 -5 -3 12 -14 10 -22 -11 -52 -13 -20 -26 -34 -29
-31 -2 3 -5 -2 -5 -10 0 -9 10 -15 25 -15 21 0 23 -2 11 -16 -8 -10 -15 -12
-17 -5 -2 6 -8 11 -13 11 -6 0 -7 -4 -4 -10 3 -5 1 -10 -4 -10 -6 0 -11 4 -11
8 0 5 -6 9 -14 9 -20 0 -8 -27 13 -28 10 0 11 -2 3 -6 -6 -2 -10 -8 -7 -13 3
-5 -4 -11 -15 -15 -11 -3 -20 -14 -20 -23 0 -9 -4 -23 -9 -31 -8 -12 -12 -12
-25 2 -15 14 -14 17 4 30 17 12 18 16 6 26 -10 8 -16 9 -21 1 -3 -5 0 -10 7
-11 9 0 8 -2 -2 -6 -16 -7 -39 -33 -40 -46 0 -5 8 -6 19 -2 12 3 21 0 25 -10
4 -11 2 -14 -6 -8 -27 16 -46 9 -52 -19 -3 -16 -12 -28 -21 -28 -19 0 -19 8 0
43 8 15 9 25 4 21 -13 -8 1 20 25 51 13 16 15 17 10 3 -9 -26 1 -22 21 9 15
22 15 25 2 20 -11 -4 -8 8 12 41 16 26 38 64 51 84 12 21 27 35 33 31 5 -3 7
-1 3 5 -8 13 33 84 45 76 5 -3 7 1 4 8 -3 7 4 28 15 46 19 31 21 32 91 32 l71
0 -3 -149z m830 112 c-5 -21 -9 -41 -9 -45 0 -5 -4 -8 -9 -8 -5 0 -5 16 -1 37
5 20 7 41 4 45 -3 4 1 8 9 8 12 0 13 -7 6 -37z m816 -2 c0 -21 -3 -37 -7 -34
-14 8 -8 73 7 73 0 0 1 -18 0 -39z m258 4 c-3 -9 -8 -14 -10 -11 -3 3 -2 9 2
15 9 16 15 13 8 -4z m-326 -27 c-3 -8 -6 -5 -6 6 -1 11 2 17 5 13 3 -3 4 -12
1 -19z m104 -11 c-10 -9 -11 -8 -5 6 3 10 9 15 12 12 3 -3 0 -11 -7 -18z
m-1356 -17 c3 -5 1 -10 -4 -10 -6 0 -11 5 -11 10 0 6 2 10 4 10 3 0 8 -4 11
-10z m385 -87 c-1 -30 -28 -107 -40 -111 -9 -3 -11 1 -7 11 3 9 9 33 13 54 8
44 12 53 25 53 5 0 9 -3 9 -7z m80 1 c0 -4 -7 -12 -15 -18 -21 -15 -33 -80
-14 -74 8 2 21 18 29 36 18 39 35 42 25 5 -12 -51 -62 -83 -80 -52 -10 16 4
76 21 94 16 15 34 20 34 9z m96 -28 c-7 -45 -27 -94 -33 -79 -2 6 0 28 6 48 8
31 7 36 -5 31 -18 -7 -18 -1 2 18 25 25 36 19 30 -18z m370 -18 c-4 -22 -11
-48 -17 -57 -8 -12 -9 -8 -5 18 3 18 6 44 6 57 0 13 5 24 11 24 8 0 9 -13 5
-42z m67 20 c-4 -7 -10 -31 -14 -53 l-6 -40 -2 37 c-1 41 7 68 21 68 5 0 6 -6
1 -12z m224 -20 c-3 -7 -5 -2 -5 12 0 14 2 19 5 13 2 -7 2 -19 0 -25z m62 11
c-6 -12 -9 -34 -7 -50 3 -15 1 -26 -4 -23 -17 11 -1 94 18 94 2 0 0 -10 -7
-21z m-667 -66 c8 -10 6 -13 -5 -13 -16 0 -27 36 -18 60 4 10 7 6 9 -10 2 -14
9 -31 14 -37z m995 25 c-3 -8 -6 -5 -6 6 -1 11 2 17 5 13 3 -3 4 -12 1 -19z
m-400 -20 c-3 -7 -5 -2 -5 12 0 14 2 19 5 13 2 -7 2 -19 0 -25z m-1544 -65
c-5 -13 -7 -13 -15 1 -5 9 -15 13 -21 9 -7 -4 -6 0 2 10 16 21 43 5 34 -20z
m-33 -7 c0 -3 -4 -8 -10 -11 -5 -3 -10 -1 -10 4 0 6 5 11 10 11 6 0 10 -2 10
-4z m-31 -33 c0 -10 -6 -36 -14 -58 l-13 -40 -1 58 c-1 44 2 57 14 57 8 0 15
-8 14 -17z m62 2 c0 -6 -5 -29 -12 -52 -9 -33 -16 -43 -33 -43 -12 0 -16 3
-10 8 18 12 27 52 14 67 -9 10 -7 16 7 24 20 12 35 10 34 -4z m186 -26 c-1
-19 -2 -19 -14 -3 -19 26 -18 50 1 35 8 -7 14 -21 13 -32z m91 18 c11 -14 11
-25 2 -52 -12 -35 -32 -45 -46 -23 -4 7 -3 8 4 4 7 -4 12 -3 12 2 0 6 -7 12
-15 16 -8 3 -15 1 -15 -5 0 -6 -4 -7 -10 -4 -16 10 -11 37 11 61 25 26 38 27
57 1z m382 -21 c0 -32 -20 -86 -32 -86 -6 0 -7 7 -4 16 3 9 9 33 12 55 7 42
24 54 24 15z m90 19 c0 -3 -9 -14 -20 -25 -22 -22 -27 -66 -7 -73 6 -3 1 -6
-12 -6 -22 -1 -23 2 -18 39 6 44 22 70 43 70 8 0 14 -2 14 -5z m208 -26 c3
-30 -13 -79 -27 -79 -5 0 -3 14 6 30 24 49 3 78 -31 44 -14 -14 -16 -14 -16 0
0 18 29 37 50 33 8 -1 16 -14 18 -28z m-1633 -19 c0 -16 -2 -26 -4 -24 -2 2
-10 -1 -18 -8 -22 -18 -25 -3 -8 37 17 42 30 39 30 -5z m1016 5 c-4 -37 -23
-75 -28 -58 -2 6 0 28 6 47 5 22 6 36 0 36 -5 0 -9 -5 -9 -12 0 -6 -3 -9 -6
-5 -10 10 7 28 24 25 12 -2 16 -12 13 -33z m876 3 c-3 -7 -5 -2 -5 12 0 14 2
19 5 13 2 -7 2 -19 0 -25z m121 20 c7 -7 12 -16 12 -22 0 -5 -6 -3 -12 6 -7 9
-22 18 -33 21 -20 5 -20 5 1 6 11 0 25 -4 32 -11z m-938 -24 c-14 -36 -13 -44
10 -44 14 0 21 9 26 35 3 19 12 35 19 35 22 0 -5 -71 -31 -82 -45 -21 -69 14
-44 63 16 29 31 24 20 -7z m625 -22 c-3 -8 -5 -20 -5 -28 0 -8 -3 -14 -8 -14
-4 0 -7 20 -7 45 0 39 2 43 13 28 7 -10 10 -24 7 -31z m255 7 c-12 -39 -22
-51 -16 -18 2 13 5 30 5 37 1 6 5 12 10 12 6 0 6 -12 1 -31z m252 -21 c-6 -6
-7 0 -4 19 5 21 7 23 10 9 2 -10 0 -22 -6 -28z m-202 -17 c-6 -12 -15 -21 -21
-21 -6 0 -3 7 5 16 9 8 16 23 17 32 0 10 3 12 5 5 3 -7 0 -21 -6 -32z m137 2
c-3 -10 -5 -4 -5 12 0 17 2 24 5 18 2 -7 2 -21 0 -30z m-66 0 c-12 -20 -14
-14 -5 12 4 9 9 14 11 11 3 -2 0 -13 -6 -23z m406 -5 c-3 -8 -6 -5 -6 6 -1 11
2 17 5 13 3 -3 4 -12 1 -19z"/>
<path d="M4094 2585 c-4 -14 -4 -29 0 -32 3 -4 6 3 6 15 0 26 17 29 23 5 3
-11 5 -7 6 10 1 35 -26 37 -35 2z"/>
<path d="M4613 2627 c-13 -28 -1 -52 21 -44 20 8 22 67 3 67 -8 0 -19 -11 -24
-23z"/>
<path d="M3663 2575 c-6 -7 -9 -15 -6 -18 3 -3 -4 -18 -15 -34 -20 -29 -62
-108 -62 -118 0 -3 26 -5 58 -5 l57 0 -3 83 c-5 92 -11 112 -29 92z"/>
<path d="M3782 2380 c0 -19 2 -27 5 -17 2 9 2 25 0 35 -3 9 -5 1 -5 -18z"/>
<path d="M3761 2234 c0 -11 3 -14 6 -6 3 7 2 16 -1 19 -3 4 -6 -2 -5 -13z"/>
<path d="M3094 2572 c-6 -4 -22 -41 -34 -82 -12 -41 -31 -99 -41 -128 -11 -30
-19 -63 -19 -74 0 -19 4 -20 58 -13 83 10 132 42 165 108 43 84 45 118 10 157
-24 27 -38 33 -79 36 -27 2 -54 0 -60 -4z"/>
<path d="M3591 2044 c0 -11 3 -14 6 -6 3 7 2 16 -1 19 -3 4 -6 -2 -5 -13z"/>
<path d="M3611 2043 c0 -13 -5 -23 -11 -23 -5 0 -10 -5 -10 -12 0 -8 6 -7 16
4 9 8 14 24 11 34 -4 16 -5 15 -6 -3z"/>
<path d="M3421 2023 c-7 -8 -11 -16 -8 -19 2 -2 10 2 17 11 17 20 9 27 -9 8z"/>
<path d="M3227 1883 c-4 -3 -7 -11 -7 -17 0 -6 5 -5 12 2 6 6 9 14 7 17 -3 3
-9 2 -12 -2z"/>
<path d="M2418 1997 c-8 -8 -20 -33 -28 -56 -18 -56 -7 -65 56 -50 102 24 115
106 19 116 -19 2 -39 -2 -47 -10z"/>
<path d="M2586 1934 c-5 -14 -4 -15 9 -4 17 14 19 20 6 20 -5 0 -12 -7 -15
-16z"/>
<path d="M2388 1833 c7 -3 16 -2 19 1 4 3 -2 6 -13 5 -11 0 -14 -3 -6 -6z"/>
<path d="M2317 1783 c-4 -3 -7 -11 -7 -17 0 -6 5 -5 12 2 6 6 9 14 7 17 -3 3
-9 2 -12 -2z"/>
<path d="M2270 1760 c-20 -12 -5 -24 16 -12 9 5 12 12 7 15 -5 3 -15 2 -23 -3z"/>
<path d="M2265 1680 c3 -5 8 -10 11 -10 2 0 4 5 4 10 0 6 -5 10 -11 10 -5 0
-7 -4 -4 -10z"/>
<path d="M2249 1668 c-1 -5 -2 -11 -3 -15 -1 -5 -5 -14 -9 -20 -11 -17 7 -17
21 0 7 8 7 18 2 27 -6 8 -10 12 -11 8z"/>
<path d="M2992 1860 c0 -14 2 -19 5 -12 2 6 2 18 0 25 -3 6 -5 1 -5 -13z"/>
<path d="M2827 1856 c-4 -10 -1 -13 8 -9 8 3 12 9 9 14 -7 12 -11 11 -17 -5z"/>
<path d="M2772 1830 c0 -14 2 -19 5 -12 2 6 2 18 0 25 -3 6 -5 1 -5 -13z"/>
<path d="M2890 1780 c-13 -8 -12 -10 3 -10 9 0 17 5 17 10 0 12 -1 12 -20 0z"/>
<path d="M2760 1766 c0 -15 -3 -16 -15 -6 -10 8 -15 9 -15 2 0 -6 10 -16 21
-23 15 -8 19 -8 15 0 -4 6 -2 11 3 11 6 0 11 -5 11 -12 0 -6 3 -9 6 -5 3 3 -1
16 -10 29 -14 20 -16 20 -16 4z"/>
<path d="M3270 1670 c-12 -7 -12 -12 -3 -21 15 -15 26 -7 21 15 -2 11 -7 13
-18 6z"/>
</g>
</svg>
