<?xml version="1.0" standalone="no"?>
<!DOCTYPE svg PUBLIC "-//W3C//DTD SVG 20010904//EN"
 "http://www.w3.org/TR/2001/REC-SVG-20010904/DTD/svg10.dtd">
<svg version="1.0" xmlns="http://www.w3.org/2000/svg"
 width="735.000000pt" height="441.000000pt" viewBox="0 0 735.000000 441.000000"
 preserveAspectRatio="xMidYMid meet">

<g transform="translate(0.000000,441.000000) scale(0.100000,-0.100000)"
fill="#000000" stroke="none">
<path d="M0 2884 l0 -1526 28 5 27 6 -28 -12 -27 -11 0 -673 1 -673 1337 0
1338 0 9 32 c30 96 199 93 235 -5 7 -17 14 -27 16 -21 3 7 -4 28 -16 48 -11
20 -20 39 -20 41 0 8 36 6 44 -3 4 -4 13 -7 19 -7 12 0 15 -34 6 -65 -4 -13
238 -15 2121 -18 1306 -1 2133 1 2145 7 26 12 104 23 87 12 -10 -6 -9 -10 7
-14 l21 -5 0 2204 0 2204 -3675 0 -3675 0 0 -1526z m3169 995 c-16 -10 -23 -4
-14 10 3 6 11 8 17 5 6 -4 5 -9 -3 -15z m-287 -1 c-12 -12 -218 -54 -612 -123
-209 -37 -359 -68 -286 -60 21 2 36 1 33 -2 -4 -3 -2 -14 4 -25 19 -35 13 -75
-15 -109 -21 -25 -24 -34 -14 -40 9 -6 3 -9 -17 -10 -29 -1 -29 -1 -5 -8 l25
-7 -23 -8 c-13 -4 -21 -10 -19 -13 8 -7 170 26 260 53 43 13 99 24 125 24 65
0 147 24 192 55 36 25 42 26 119 19 64 -5 79 -9 71 -19 -6 -7 -22 -16 -35 -19
-20 -5 -24 -11 -21 -41 1 -19 -2 -37 -8 -40 -6 -2 14 -4 44 -4 81 2 84 1 71
-14 -6 -8 -37 -19 -68 -26 -69 -15 -125 -40 -118 -51 3 -5 -3 -13 -12 -19 -35
-21 6 -10 77 19 40 17 75 28 78 26 4 -5 -70 -41 -138 -68 -24 -9 -23 -11 30
-33 30 -13 50 -24 44 -25 -6 0 -27 7 -47 15 -57 24 -96 19 -217 -24 -63 -22
-117 -41 -120 -41 -13 1 34 21 125 54 55 20 106 40 114 45 25 13 24 31 -1 31
-19 0 -20 2 -8 10 22 15 -83 5 -215 -20 -60 -12 -143 -28 -184 -36 -41 -7 -88
-18 -105 -23 -17 -5 -61 -15 -98 -21 -101 -18 -105 -23 -79 -101 11 -35 20
-66 18 -69 -4 -10 28 -38 37 -32 5 3 6 0 2 -7 -8 -12 83 -248 112 -291 9 -14
15 -29 14 -33 -1 -4 7 -3 18 3 11 6 17 16 14 22 -4 7 -3 8 4 4 7 -4 36 10 66
31 50 35 53 39 40 57 -8 11 -14 27 -13 36 0 8 7 0 15 -18 17 -38 23 -37 109
34 l55 45 45 -38 c25 -20 45 -38 45 -40 0 -1 -15 6 -32 17 -45 26 -76 20 -147
-30 -60 -42 -61 -43 -44 -64 10 -12 20 -23 22 -26 2 -3 1 5 -2 18 -4 19 -3 21
9 11 7 -6 11 -15 8 -20 -3 -5 -2 -9 3 -8 4 1 19 1 33 0 25 -2 25 -2 -5 -18
-16 -8 -31 -17 -33 -18 -1 -1 1 -10 4 -19 7 -18 29 -17 99 0 17 4 18 3 4 -5
-16 -10 -48 -19 -77 -20 -9 -1 -11 -9 -7 -23 6 -21 5 -22 -8 -5 -8 9 -20 17
-28 17 -10 0 -11 2 -2 8 9 5 9 12 0 27 -13 22 -19 23 -57 11 -14 -5 -34 -10
-45 -11 -11 -1 -23 -3 -27 -4 -14 -2 -19 -42 -8 -56 9 -10 9 -15 1 -15 -6 0
-2 -17 11 -41 16 -32 18 -43 8 -49 -8 -5 -9 -9 -1 -14 6 -4 11 -15 10 -24 0
-12 -3 -11 -9 6 -8 20 -16 22 -64 21 -44 -2 -55 -6 -59 -21 -3 -10 -12 -18
-21 -18 -13 0 -13 4 0 35 17 42 18 48 2 39 -6 -4 -16 0 -22 8 -8 11 -21 14
-39 11 -23 -5 -26 -9 -22 -32 11 -52 -110 218 -225 504 -62 154 -55 144 -97
135 -21 -4 -65 -13 -99 -20 l-61 -12 44 -102 c25 -55 96 -225 160 -376 63
-151 135 -321 159 -378 25 -57 43 -109 41 -115 -2 -7 -14 15 -26 48 -23 61
-209 506 -327 779 -35 82 -63 151 -61 152 2 2 54 14 117 28 63 14 129 29 145
35 l30 9 -31 1 c-19 1 -34 7 -38 16 -7 19 -26 20 -26 1 0 -13 -17 -16 -77 -18
-13 0 -23 -4 -23 -9 0 -5 -4 -9 -10 -9 -5 0 -10 7 -10 15 0 8 -4 15 -10 15 -5
0 -10 5 -10 11 0 6 9 9 20 6 11 -3 20 -1 20 5 0 5 5 6 10 3 6 -4 17 -1 25 5 8
7 26 9 39 6 14 -3 28 -2 31 4 10 16 21 12 33 -12 6 -13 11 -17 11 -10 1 6 -8
21 -18 31 -14 14 -16 21 -8 25 26 10 -35 5 -110 -9 -114 -22 -112 -17 7 15 58
15 94 29 80 29 -16 1 -21 4 -13 9 9 6 8 12 -7 25 -11 9 -25 37 -31 62 l-11 45
-49 -6 c-37 -5 -49 -3 -49 7 0 9 13 15 35 16 19 1 42 7 52 13 16 10 14 11 -9
7 -16 -2 -28 0 -28 4 0 5 9 9 21 9 11 0 17 5 14 10 -4 6 6 10 22 10 15 0 35 5
43 11 12 8 10 10 -10 5 -14 -2 -43 -8 -65 -11 -136 -22 -461 -82 -553 -102
-147 -31 -151 -65 -40 -318 137 -310 289 -667 286 -671 -2 -2 -17 27 -33 64
-24 56 -95 215 -150 337 -95 210 -185 419 -195 451 -10 33 -9 46 3 76 26 62
27 62 427 138 91 17 280 53 420 80 140 27 329 63 420 80 91 17 208 40 260 50
101 20 418 77 460 83 52 6 101 4 92 -5z m-122 -86 c-14 -2 -27 -7 -30 -11 -6
-8 -102 -31 -131 -31 -10 0 -19 6 -19 14 0 17 120 43 169 37 30 -4 32 -6 11
-9z m-219 -12 c23 -13 25 -55 3 -64 -43 -17 -84 35 -48 61 21 16 20 16 45 3z
m982 -17 c10 -10 -13 -33 -34 -33 -21 0 -33 15 -24 30 7 11 48 14 58 3z m-302
-29 c16 -15 16 -17 -4 -49 -24 -38 -63 -47 -74 -17 -4 9 -10 19 -14 22 -13 9
2 49 20 53 33 9 55 7 72 -9z m-1107 -39 c3 -8 14 -15 25 -15 25 0 34 -26 15
-45 -20 -20 -70 -20 -78 1 -8 21 -8 59 1 67 11 12 31 8 37 -8z m1766 -29 c0
-2 -9 -6 -20 -9 -11 -3 -20 -1 -20 4 0 5 9 9 20 9 11 0 20 -2 20 -4z m-420
-67 c0 -14 -27 -22 -47 -14 -17 6 -17 7 0 20 19 14 47 10 47 -6z m333 -26 c-7
-2 -19 -2 -25 0 -7 3 -2 5 12 5 14 0 19 -2 13 -5z m-2396 -45 c-3 -7 -5 -2 -5
12 0 14 2 19 5 13 2 -7 2 -19 0 -25z m-26 -15 c-10 -17 -10 -16 -11 3 0 23 13
41 18 25 2 -6 -1 -18 -7 -28z m2279 27 c0 -5 -7 -10 -15 -10 -8 0 -15 5 -15
10 0 6 7 10 15 10 8 0 15 -4 15 -10z m-2300 -15 c0 -8 -8 -15 -17 -16 -10 0
-30 -3 -45 -5 -17 -3 -28 0 -28 7 0 6 7 9 15 5 8 -3 15 -1 15 5 0 6 4 8 8 5 4
-2 14 -1 22 5 21 13 30 11 30 -6z m1600 0 c-46 -18 -64 -17 -25 0 17 8 37 14
45 14 8 0 -1 -7 -20 -14z m300 -5 c0 -5 -5 -10 -11 -10 -5 0 -7 5 -4 10 3 6 8
10 11 10 2 0 4 -4 4 -10z m-2000 -11 c0 -5 -4 -7 -10 -4 -5 3 -10 1 -10 -5 0
-7 -7 -10 -15 -6 -8 3 -15 0 -15 -6 0 -6 -3 -9 -6 -5 -3 3 -17 2 -30 -3 -19
-8 -24 -6 -24 7 0 9 2 14 5 11 3 -3 25 0 48 8 53 16 57 16 57 3z m3085 1 c3
-5 -3 -10 -14 -10 -12 0 -21 5 -21 10 0 6 6 10 14 10 8 0 18 -4 21 -10z
m-3215 -25 c0 -8 -3 -15 -7 -16 -5 0 -19 -2 -31 -5 -16 -3 -22 0 -19 8 2 7 11
12 21 10 9 -2 16 2 16 8 0 5 5 10 10 10 6 0 10 -7 10 -15z m2587 9 c-3 -3 -12
-4 -19 -1 -8 3 -5 6 6 6 11 1 17 -2 13 -5z m143 -4 c0 -5 -5 -10 -11 -10 -5 0
-7 5 -4 10 3 6 8 10 11 10 2 0 4 -4 4 -10z m-550 -10 c0 -5 -4 -10 -10 -10 -5
0 -10 5 -10 10 0 6 5 10 10 10 6 0 10 -4 10 -10z m-2369 -10 c22 -13 25 -48 4
-56 -21 -8 -45 19 -38 45 6 24 8 25 34 11z m109 -5 c0 -20 -21 -30 -31 -14
-13 21 -11 25 11 26 11 1 20 -4 20 -12z m2645 4 c11 -17 -1 -21 -15 -4 -8 9
-8 15 -2 15 6 0 14 -5 17 -11z m595 1 c0 -5 -9 -10 -20 -10 -11 0 -20 5 -20
10 0 6 9 10 20 10 11 0 20 -4 20 -10z m-1150 -10 c0 -5 -4 -10 -10 -10 -5 0
-10 5 -10 10 0 6 5 10 10 10 6 0 10 -4 10 -10z m818 -39 c-16 -11 -25 -11 -46
-1 l-27 12 23 19 c23 18 25 18 47 1 22 -17 22 -17 3 -31z m-576 17 c2 -6 28
-12 64 -12 32 -1 61 -4 65 -8 10 -14 99 -18 99 -5 0 8 3 9 8 1 9 -14 43 -14
60 -1 7 5 16 7 19 3 4 -4 1 -11 -7 -16 -10 -6 -1 -9 31 -8 25 0 60 -7 78 -17
18 -9 31 -13 28 -8 -3 5 -2 15 4 23 5 10 9 11 9 3 0 -7 7 -10 15 -7 9 4 18 -1
21 -10 6 -16 8 -16 25 0 20 18 49 13 49 -9 0 -7 13 -14 29 -15 16 -1 70 -11
119 -21 72 -14 89 -15 85 -5 -7 20 24 17 35 -3 7 -12 23 -16 58 -15 27 0 54
-3 59 -8 6 -4 19 -10 30 -14 11 -3 -2 -3 -29 0 -33 4 -46 2 -41 -5 3 -6 12
-11 19 -11 15 0 45 -34 70 -80 11 -19 24 -38 30 -42 6 -4 11 -25 12 -48 1 -60
16 -70 67 -42 23 13 36 17 30 11 -7 -7 -13 -17 -13 -21 0 -10 51 1 65 13 13
12 48 11 82 -3 23 -9 24 -12 10 -15 -10 -3 -24 1 -32 7 -11 9 -19 8 -35 -3
-11 -7 -17 -17 -12 -21 4 -4 -1 -14 -12 -21 -17 -13 -16 -15 23 -32 22 -10 41
-21 41 -25 0 -4 11 -19 24 -33 47 -51 67 -228 35 -304 -11 -24 -19 -49 -19
-56 0 -7 -12 -34 -26 -61 -14 -27 -19 -41 -11 -31 8 9 17 17 21 17 12 0 6 -49
-9 -63 -15 -15 -64 -30 -81 -25 -18 5 -144 -37 -149 -51 -9 -23 5 -28 21 -7 7
11 17 16 21 13 4 -4 1 -13 -5 -19 -7 -7 -12 -22 -12 -34 0 -31 -20 -41 -37
-19 -7 11 -13 14 -13 8 0 -12 -38 -26 -97 -38 -27 -5 -32 -4 -27 9 7 19 -7 21
-24 4 -8 -8 -15 -8 -27 2 -13 11 -15 9 -15 -9 0 -12 -7 -24 -15 -27 -8 -4 -15
-12 -15 -20 0 -16 -16 -19 -25 -5 -3 6 0 13 7 18 7 4 19 15 26 24 11 14 9 16
-15 15 -16 0 -35 -8 -43 -17 -8 -9 -26 -16 -40 -15 -34 3 -81 -14 -74 -25 3
-5 2 -9 -3 -8 -21 4 -33 -2 -33 -16 0 -8 -3 -15 -7 -16 -149 -12 -313 -57
-313 -86 0 -7 -7 -13 -16 -13 -8 0 -13 4 -9 10 3 5 -7 5 -25 -1 -16 -6 -30
-15 -30 -20 0 -4 -7 -6 -16 -2 -9 3 -19 2 -23 -3 -7 -11 -67 -35 -98 -39 -12
-2 -47 -15 -77 -29 -30 -14 -59 -26 -64 -26 -24 0 -112 -44 -112 -56 0 -8 -7
-14 -16 -14 -8 0 -12 -4 -9 -10 3 -5 2 -10 -4 -10 -5 0 -13 5 -16 10 -3 6 -14
10 -23 10 -15 0 -15 -1 0 -17 16 -15 25 -13 132 23 97 33 115 42 110 56 -4 13
0 18 16 18 11 0 23 -6 26 -14 4 -11 13 -12 40 -4 38 10 82 6 54 -5 -8 -3 -36
-8 -63 -12 -30 -4 -45 -10 -41 -17 4 -6 2 -8 -4 -4 -6 3 -13 2 -17 -3 -3 -6
-12 -8 -20 -4 -8 3 -15 1 -15 -4 0 -5 -8 -9 -17 -10 -44 -5 -82 -16 -78 -23 3
-4 -10 -10 -28 -14 -17 -3 -54 -15 -82 -25 -27 -10 -108 -38 -180 -61 -71 -23
-199 -66 -284 -96 -85 -30 -158 -53 -163 -52 -5 2 120 50 278 107 158 57 295
112 304 121 17 17 17 18 -1 23 -10 3 -16 1 -13 -4 11 -19 -27 -20 -88 -1 -41
12 -72 16 -86 11 -15 -6 -24 -4 -30 8 -7 12 -14 13 -28 5 -14 -8 -22 -6 -34 7
-16 19 -70 33 -135 36 -22 1 -80 -11 -130 -26 -49 -16 -91 -26 -93 -24 -2 2
42 18 99 37 56 18 94 35 85 36 -13 3 -16 10 -11 33 6 28 6 28 -25 18 -33 -12
-47 -8 -35 11 4 6 14 9 22 5 14 -5 14 -3 2 12 -11 13 -11 15 -1 9 25 -15 106
-12 119 4 8 10 12 11 13 3 0 -7 7 -10 17 -6 11 5 14 3 8 -6 -6 -10 -3 -11 14
-2 24 13 28 23 6 15 -8 -4 -15 -1 -15 6 0 6 -5 8 -10 5 -6 -4 -17 -1 -25 5 -8
7 -20 10 -27 7 -7 -3 -4 -6 7 -7 19 -1 19 -1 2 -11 -28 -16 -43 3 -25 30 8 12
19 18 24 13 4 -4 3 0 -4 9 -10 13 -8 18 12 29 13 7 29 9 36 5 9 -6 9 -2 0 16
l-13 23 -17 -21 c-16 -20 -17 -20 -28 -3 -14 23 -62 35 -73 18 -5 -7 -9 -9 -9
-3 0 5 -5 4 -12 -3 -17 -17 -31 -15 -24 3 3 8 1 15 -4 15 -6 0 -2 8 9 19 25
25 81 34 104 17 18 -14 18 -14 0 -19 -12 -3 -13 -5 -3 -6 18 -1 72 43 64 52
-4 3 -13 -1 -21 -9 -17 -16 -37 -9 -29 12 3 8 2 13 -2 13 -17 -3 -23 2 -15 14
12 19 12 37 1 37 -6 0 -8 7 -4 15 3 8 1 15 -4 15 -6 0 -10 -6 -10 -14 0 -7 -9
-16 -20 -19 -17 -4 -20 -2 -14 15 4 13 2 18 -4 14 -5 -3 -12 1 -16 9 -3 8 -12
12 -21 9 -10 -4 -15 0 -15 10 0 18 11 21 26 6 11 -11 64 8 64 23 0 5 5 5 12 1
6 -4 8 -3 5 3 -4 6 0 13 8 17 8 3 15 15 15 26 0 11 4 20 10 20 5 0 12 11 16
25 3 14 11 25 17 25 7 0 7 4 -1 12 -18 18 -14 31 8 25 21 -5 25 1 12 18 -7 10
-27 17 -49 18 -7 0 -13 5 -13 10 0 5 -8 3 -17 -4 -14 -12 -16 -12 -11 2 4 10
1 16 -8 16 -8 0 -14 -5 -14 -10 0 -5 -7 -6 -16 -3 -10 4 -23 -3 -36 -19 -17
-22 -48 -35 -48 -19 0 14 22 44 33 45 7 0 22 13 35 29 l22 29 -27 -9 c-44 -13
-68 -23 -73 -31 -3 -4 -12 -4 -20 2 -22 14 -1 24 94 44 44 10 87 20 94 24 17
9 6 19 -145 121 -68 45 -123 84 -123 87 0 5 -10 11 148 -89 68 -43 127 -78
132 -78 7 0 9 11 13 78 2 32 18 52 44 53 16 0 16 1 -2 9 -18 7 -18 9 -3 15 10
4 20 15 23 25 3 11 15 22 26 25 11 4 31 17 46 31 14 13 29 21 34 19 4 -3 17 2
28 12 15 13 17 19 8 25 -9 6 -8 12 5 22 10 7 15 16 11 19 -3 4 1 7 9 7 16 0
19 23 5 36 -12 12 -8 24 7 24 8 0 19 13 24 28 10 28 8 29 -40 47 -27 9 -47 19
-45 21 2 2 25 -3 51 -12 35 -12 51 -13 59 -5 8 8 8 11 -2 11 -7 0 -9 5 -6 10
4 6 10 8 15 5 5 -3 20 9 34 27 24 31 27 32 42 16 15 -15 15 -16 -2 -15 -12 1
-19 -4 -18 -15 1 -11 -4 -15 -15 -10 -14 5 -14 3 -3 -11 8 -8 21 -14 30 -11 9
2 1 -3 -18 -12 l-35 -17 40 -18 c48 -21 69 -24 59 -6 -6 9 -5 9 8 0 18 -15 32
-5 17 13 -7 8 -6 14 2 20 7 4 9 3 6 -3 -4 -6 2 -18 13 -28 19 -17 20 -17 20
-1 0 9 -4 14 -10 11 -5 -3 -10 -1 -10 4 0 6 7 11 15 11 8 0 15 5 15 11 0 6 -6
9 -13 6 -8 -3 -20 -1 -28 4 -10 6 -10 9 -1 9 6 0 11 3 11 8 -4 26 3 42 20 42
20 0 33 30 21 50 -6 9 -9 9 -15 0 -5 -8 -11 -6 -22 7 -8 10 -12 13 -9 7 8 -17
-20 -39 -30 -23 -5 8 -3 9 6 4 9 -5 11 -4 6 3 -5 9 -13 9 -27 2 -22 -13 -26
-22 -4 -14 8 4 15 2 15 -4 0 -14 -25 -22 -41 -12 -19 12 13 46 57 60 19 7 32
16 29 21 -6 8 11 13 42 12 7 -1 10 3 7 9 -3 5 4 18 17 29 26 23 30 24 23 5 -3
-8 -1 -17 5 -21 6 -3 11 -1 11 5 0 6 4 9 9 5 5 -3 13 -1 16 5 4 7 11 8 18 1
13 -10 41 12 30 23 -4 3 -1 6 5 6 5 0 12 -5 14 -12z m78 2 c0 -5 -4 -10 -10
-10 -5 0 -10 5 -10 10 0 6 5 10 10 10 6 0 10 -4 10 -10z m350 0 c0 -5 -4 -10
-10 -10 -5 0 -10 5 -10 10 0 6 5 10 10 10 6 0 10 -4 10 -10z m290 0 c12 -8 9
-10 -13 -10 -16 0 -26 4 -22 10 8 12 16 12 35 0z m-500 -4 c0 -3 -4 -8 -10
-11 -5 -3 -10 -1 -10 4 0 6 5 11 10 11 6 0 10 -2 10 -4z m260 0 c0 -2 -9 -6
-20 -9 -11 -3 -18 -1 -14 4 5 9 34 13 34 5z m-90 -20 c0 -11 -19 -15 -25 -6
-3 5 1 10 9 10 9 0 16 -2 16 -4z m40 -16 c0 -11 -2 -20 -4 -20 -2 0 -6 9 -9
20 -3 11 -1 20 4 20 5 0 9 -9 9 -20z m400 -30 c0 -5 -5 -10 -11 -10 -5 0 -7 5
-4 10 3 6 8 10 11 10 2 0 4 -4 4 -10z m-1105 -20 c3 -5 1 -10 -4 -10 -6 0 -11
5 -11 10 0 6 2 10 4 10 3 0 8 -4 11 -10z m-1738 -16 c-3 -3 -12 -4 -19 -1 -8
3 -5 6 6 6 11 1 17 -2 13 -5z m-235 -21 c-29 -4 -32 -7 -26 -26 15 -48 14 -51
-5 -17 -11 19 -20 38 -21 43 0 4 19 6 43 5 37 -1 38 -2 9 -5z m135 1 c-3 -3
-12 -4 -19 -1 -8 3 -5 6 6 6 11 1 17 -2 13 -5z m-209 -24 c7 -11 11 -20 9 -20
-2 0 -12 9 -22 20 -10 11 -14 20 -9 20 5 0 15 -9 22 -20z m149 14 c-3 -3 -12
-4 -19 -1 -8 3 -5 6 6 6 11 1 17 -2 13 -5z m-45 -13 c-11 -7 -10 -15 6 -46 12
-24 22 -34 26 -26 4 6 15 11 24 10 12 0 11 -3 -5 -9 -13 -5 -23 -14 -23 -19 0
-5 36 -96 80 -201 45 -106 79 -194 77 -196 -1 -2 -20 37 -41 87 l-39 90 -29
-27 c-15 -16 -26 -34 -24 -41 3 -7 1 -13 -4 -13 -19 0 -10 28 21 61 l30 33
-40 95 c-21 53 -51 122 -65 154 l-26 57 23 0 c16 0 18 -3 9 -9z m4383 -33 c33
-32 39 -47 36 -95 -2 -37 -42 -74 -90 -83 -105 -19 -182 53 -152 143 15 44 54
66 119 67 46 0 57 -4 87 -32z m-3690 12 c-3 -5 -12 -10 -18 -10 -7 0 -6 4 3
10 19 12 23 12 15 0z m993 -17 c24 -8 41 -17 39 -19 -5 -6 -117 36 -117 43 0
3 8 2 18 -2 9 -4 36 -14 60 -22z m1595 20 c-7 -2 -19 -2 -25 0 -7 3 -2 5 12 5
14 0 19 -2 13 -5z m70 -10 c-7 -2 -21 -2 -30 0 -10 3 -4 5 12 5 17 0 24 -2 18
-5z m-2262 -18 c-18 -8 -36 -15 -40 -15 -13 1 45 29 59 29 8 0 0 -6 -19 -14z
m909 5 c0 -5 -4 -10 -10 -10 -5 0 -10 5 -10 10 0 6 5 10 10 10 6 0 10 -4 10
-10z m1521 0 c37 0 49 -4 49 -15 0 -9 -12 -20 -26 -25 -33 -13 -34 -13 -34 5
0 15 -8 18 -90 35 l-45 9 49 -4 c27 -3 71 -5 97 -5z m-3596 -10 c3 -5 1 -10
-4 -10 -6 0 -11 5 -11 10 0 6 2 10 4 10 3 0 8 -4 11 -10z m1565 -36 c0 -8 -4
-12 -10 -9 -5 3 -10 10 -10 16 0 5 5 9 10 9 6 0 10 -7 10 -16z m476 -3 c-4 -5
-1 -11 6 -13 7 -3 2 -7 -10 -10 -12 -4 -20 -2 -16 3 3 5 -1 9 -8 9 -9 0 -9 3
2 10 19 12 33 13 26 1z m3824 -16 c66 -34 82 -115 31 -165 -16 -16 -40 -32
-55 -36 -69 -17 -152 32 -162 96 -6 41 23 95 59 110 34 14 95 12 127 -5z
m-4170 -21 c-47 -13 -152 -40 -235 -59 -82 -20 -174 -43 -203 -52 -34 -10 -56
-13 -63 -6 -13 13 20 27 96 42 33 7 146 32 250 56 208 47 289 58 155 19z
m1700 16 c0 -5 -7 -10 -16 -10 -8 0 -12 5 -9 10 3 6 10 10 16 10 5 0 9 -4 9
-10z m-2549 -45 c-18 -8 -38 -15 -45 -15 -15 1 46 28 64 29 8 0 0 -6 -19 -14z
m988 -79 c-4 -4 -202 -56 -213 -56 -3 0 -6 4 -6 8 0 5 33 15 73 22 39 7 81 16
92 21 21 8 61 12 54 5z m1711 -25 c0 -6 -4 -13 -10 -16 -5 -3 -10 1 -10 9 0 9
5 16 10 16 6 0 10 -4 10 -9z m-1780 -15 c0 -3 -4 -8 -10 -11 -5 -3 -10 -1 -10
4 0 6 5 11 10 11 6 0 10 -2 10 -4z m-845 -26 c16 0 14 -3 -9 -15 -34 -18 -56
-13 -56 11 0 12 6 15 23 10 12 -3 31 -6 42 -6z m-739 -77 c-3 -3 -13 -3 -22 1
-13 5 -14 9 -3 22 11 14 13 14 22 -1 5 -9 6 -19 3 -22z m205 -96 c-10 -9 -11
-8 -5 6 3 10 9 15 12 12 3 -3 0 -11 -7 -18z m5136 -3 c-6 -6 -47 9 -47 17 0 5
11 3 25 -3 14 -6 24 -13 22 -14z m-5157 -240 c44 -103 79 -188 77 -190 -3 -4
-163 361 -174 396 -13 44 25 -38 97 -206z m4253 205 c60 -27 62 -115 3 -143
-71 -34 -127 -13 -147 55 -12 37 -11 41 16 69 31 33 82 40 128 19z m924 -171
c28 -14 46 -57 38 -91 -9 -35 -46 -57 -95 -57 -102 0 -125 132 -27 158 33 9
47 7 84 -10z m-849 -18 c27 -17 32 -25 32 -58 0 -48 -24 -72 -78 -79 -34 -5
-45 -1 -66 20 -42 43 -30 97 27 122 42 19 46 18 85 -5z m-3154 -16 c23 -9 20
-24 -4 -24 -11 0 -20 7 -20 15 0 17 2 18 24 9z m86 -19 c0 -18 -36 -20 -46 -3
-5 8 -2 9 9 5 9 -3 19 -2 22 3 9 14 15 12 15 -5z m-159 -15 c16 0 29 -4 29 -9
0 -4 12 -7 28 -4 44 6 90 5 101 -1 16 -10 1 -36 -20 -36 -14 0 -18 -6 -16 -22
1 -17 -3 -23 -15 -22 -10 1 -18 -3 -18 -8 0 -6 -7 -8 -14 -5 -10 4 -13 1 -9
-9 3 -10 0 -12 -10 -8 -9 3 -15 14 -14 24 1 10 5 16 10 13 5 -3 6 5 2 18 -5
19 -4 21 4 9 6 -8 11 -13 12 -10 8 40 5 46 -22 42 -21 -3 -26 -8 -22 -25 4
-22 4 -22 -13 1 -19 25 -34 29 -34 7 0 -8 -4 -15 -9 -15 -5 0 -8 -11 -7 -25 0
-14 4 -25 7 -25 3 0 6 -13 6 -30 0 -16 -4 -27 -8 -25 -4 3 -9 -2 -13 -10 -3
-8 -11 -15 -17 -15 -8 0 -7 5 2 16 16 19 22 54 10 54 -5 0 -18 -12 -29 -27
-11 -16 -24 -25 -28 -21 -4 5 1 16 10 27 11 12 14 21 7 26 -18 11 -12 25 10
25 11 0 17 5 14 10 -3 6 -2 10 4 10 6 0 8 7 5 15 -3 8 0 17 8 20 10 4 14 16
11 33 -1 15 0 21 3 15 3 -7 19 -13 35 -13z m-51 0 c0 -5 -4 -10 -10 -10 -5 0
-10 5 -10 10 0 6 5 10 10 10 6 0 10 -4 10 -10z m2545 -65 c31 -30 32 -56 2
-90 -45 -53 -125 -31 -141 38 -15 66 88 104 139 52z m-2490 -45 c3 -5 1 -10
-4 -10 -6 0 -11 5 -11 10 0 6 2 10 4 10 3 0 8 -4 11 -10z m103 -12 c-2 -6 -10
-14 -16 -16 -7 -2 -10 2 -6 12 7 18 28 22 22 4z m-81 -24 c-16 -9 -32 -13 -35
-9 -9 9 19 25 43 24 16 0 15 -2 -8 -15z m-167 -35 c0 -5 -7 -9 -15 -9 -15 0
-20 12 -9 23 8 8 24 -1 24 -14z m2814 0 c15 -12 26 -30 26 -44 0 -28 -43 -65
-76 -65 -31 0 -64 33 -64 65 0 18 10 31 33 45 40 25 48 25 81 -1z m-3647 -86
c-5 -5 -47 83 -47 96 1 3 12 -16 26 -42 14 -27 23 -51 21 -54z m889 60 c-4
-11 -1 -13 14 -8 12 4 20 2 20 -5 0 -7 -8 -14 -19 -17 -12 -3 -18 -14 -19 -33
0 -22 3 -27 18 -23 10 3 21 -1 26 -8 5 -9 2 -11 -9 -6 -10 3 -17 2 -17 -3 0
-6 7 -10 15 -10 18 0 20 -16 4 -26 -6 -3 -15 -1 -19 6 -5 8 -11 3 -17 -15 -9
-27 -9 -27 -20 19 -8 38 -8 50 4 62 12 11 12 14 1 14 -8 0 -14 9 -15 20 -1 11
3 20 9 20 5 0 8 6 5 14 -7 17 2 28 15 20 5 -3 7 -13 4 -21z m-591 7 c-3 -6 4
-10 17 -10 19 0 20 -2 8 -11 -12 -8 -10 -10 11 -7 18 3 25 0 26 -13 1 -11 -3
-16 -12 -13 -7 3 -16 1 -20 -5 -4 -7 3 -11 17 -11 l23 -1 -25 -14 c-31 -18
-84 -20 -74 -3 4 6 3 8 -4 5 -5 -4 -17 -4 -25 -1 -24 9 -1 64 26 65 12 0 16 3
9 6 -16 6 -6 23 14 23 8 0 12 -4 9 -10z m115 -25 c0 -5 -5 -3 -10 5 -5 8 -10
20 -10 25 0 6 5 3 10 -5 5 -8 10 -19 10 -25z m596 10 c9 -8 12 -15 8 -15 -3 0
-1 -7 6 -15 8 -10 9 -15 2 -15 -6 0 -9 -7 -5 -16 4 -12 2 -15 -8 -12 -9 3 -13
16 -11 37 3 25 -1 33 -20 40 -18 8 -19 10 -5 10 10 1 25 -6 33 -14z m2007 8
c-7 -2 -19 -2 -25 0 -7 3 -2 5 12 5 14 0 19 -2 13 -5z m-1948 -43 c9 -15 -5
-52 -18 -47 -11 3 -12 13 -8 47 1 13 18 13 26 0z m1845 -10 c0 -5 -7 -10 -15
-10 -8 0 -15 5 -15 10 0 6 7 10 15 10 8 0 15 -4 15 -10z m-2470 -31 c0 -5 -4
-9 -10 -9 -5 0 -10 7 -10 16 0 8 5 12 10 9 6 -3 10 -10 10 -16z m-400 7 c0 -2
-9 -6 -20 -9 -11 -3 -20 -1 -20 4 0 5 9 9 20 9 11 0 20 -2 20 -4z m-65 -36
c-3 -5 -14 -10 -23 -10 -15 0 -15 2 -2 10 20 13 33 13 25 0z m1015 6 c0 -11
-19 -15 -25 -6 -3 5 1 10 9 10 9 0 16 -2 16 -4z m1680 -31 c0 -8 -4 -15 -10
-15 -5 0 -10 7 -10 15 0 8 5 15 10 15 6 0 10 -7 10 -15z m110 5 c0 -6 -7 -13
-15 -16 -20 -8 -48 3 -40 16 8 13 55 13 55 0z m-2530 -45 c0 -5 -5 -3 -10 5
-5 8 -10 20 -10 25 0 6 5 3 10 -5 5 -8 10 -19 10 -25z m2385 17 c33 -1 82 -7
108 -12 62 -13 124 -13 132 0 12 19 62 10 107 -20 25 -17 74 -36 114 -45 38
-8 78 -17 89 -19 11 -3 81 -16 155 -30 379 -70 637 -119 745 -141 66 -14 208
-41 315 -60 285 -52 349 -66 360 -80 14 -17 1 -26 -125 -83 -61 -28 -225 -105
-365 -172 -140 -67 -268 -125 -285 -130 -34 -9 -95 -39 -95 -46 0 -3 10 -3 23
1 44 11 -209 -115 -263 -131 -30 -9 -283 -131 -562 -270 -279 -140 -528 -258
-552 -264 -62 -14 -149 -3 -306 37 -258 66 -435 112 -515 133 -44 12 -102 28
-130 35 -27 7 -72 20 -100 28 -27 9 -68 18 -90 22 -42 6 -142 30 -270 65 -44
12 -127 33 -185 46 -58 13 -168 42 -245 63 -77 22 -225 63 -330 92 -174 48
-228 69 -213 84 3 3 54 -8 114 -24 60 -16 181 -48 269 -71 88 -23 201 -53 250
-66 156 -41 414 -104 427 -104 7 1 28 14 46 29 l34 29 -31 7 c-35 7 -44 17
-35 38 9 25 31 27 57 6 14 -10 33 -19 44 -19 10 0 27 -7 37 -15 17 -13 22 -12
47 2 28 17 30 16 90 -15 50 -27 68 -31 98 -26 37 7 81 31 81 44 0 14 -137 32
-159 21 -25 -14 -34 -14 -26 -1 4 6 -11 7 -40 3 -35 -4 -49 -2 -56 8 -13 21
-11 26 20 39 25 10 34 9 52 -3 12 -9 28 -13 35 -10 8 3 21 0 29 -7 12 -10 15
-10 15 2 0 15 59 48 86 48 12 0 15 -6 11 -23 -12 -47 105 -77 163 -41 16 10
18 13 5 8 -40 -14 -60 -10 -63 12 -2 16 5 25 27 35 30 14 45 34 17 23 -8 -3
-17 -1 -20 4 -9 15 76 3 94 -12 44 -37 210 30 210 85 0 11 16 24 45 36 45 18
58 33 29 33 -8 0 -12 5 -9 10 7 11 25 7 75 -13 24 -9 20 -12 -55 -48 -58 -27
-73 -38 -54 -38 14 -1 29 3 35 7 5 5 30 16 56 26 25 9 52 24 58 32 7 7 23 14
35 14 31 0 611 237 644 264 12 8 13 8 7 -1 -8 -15 3 -17 22 -4 9 5 -2 12 -35
20 -98 25 -111 30 -58 24 28 -3 67 -11 88 -18 23 -8 39 -9 43 -3 3 5 12 7 19
4 7 -2 22 2 34 11 12 8 28 16 34 17 40 7 86 29 81 38 -4 7 -2 8 4 4 7 -4 18
-4 25 1 12 8 18 9 38 12 8 1 8 5 0 15 -8 10 -9 16 -1 21 5 3 13 0 16 -8 4 -12
19 -8 80 17 58 24 71 32 57 38 -14 6 -12 7 6 4 14 -3 44 5 72 19 26 14 77 34
113 46 36 12 66 25 66 30 0 11 -105 31 -162 31 -26 0 -48 4 -48 7 0 9 -114 31
-157 31 -16 0 -33 4 -39 9 -19 17 -213 43 -274 36 -57 -7 -75 -18 -47 -28 6
-2 -1 -8 -17 -12 -18 -5 -36 -3 -47 4 -10 6 -38 11 -61 11 -24 0 -51 7 -60 14
-17 12 -17 14 2 31 11 10 20 14 20 10 0 -5 2 -6 5 -3 3 3 3 13 -1 22 -6 15 -9
15 -29 2 -28 -18 -115 -32 -115 -18 0 5 18 12 40 16 41 6 52 19 24 30 -30 12
-57 6 -213 -49 -86 -30 -185 -64 -221 -76 -91 -31 -129 -48 -107 -48 9 -1 17
-5 17 -11 0 -13 -33 -13 -46 0 -6 6 -26 3 -58 -9 -43 -16 -47 -20 -30 -29 24
-14 16 -21 -31 -29 -33 -5 -37 -4 -32 10 5 13 -13 9 -86 -17 -51 -19 -218 -80
-372 -136 -154 -56 -345 -126 -425 -155 -80 -30 -243 -90 -363 -134 -120 -44
-228 -86 -240 -92 -20 -10 -20 -10 -7 4 14 15 77 39 440 172 212 77 600 223
800 300 230 89 410 155 440 161 13 3 39 12 57 20 19 10 41 13 55 9 22 -7 22
-6 4 7 -13 10 -15 17 -8 22 7 4 16 5 22 1 10 -6 143 52 148 66 2 5 10 9 18 9
9 0 12 5 8 12 -5 8 -2 9 9 5 10 -4 16 -2 14 6 -1 7 3 11 10 10 7 -2 10 3 7 11
-3 9 3 17 15 21 12 3 21 11 21 16 0 5 7 9 15 9 8 0 15 6 15 13 0 7 3 8 8 2 4
-5 34 -11 67 -13z m-1725 -11 c-6 -12 -6 -22 -1 -25 5 -3 12 5 15 19 4 14 11
25 16 25 13 0 13 -17 0 -25 -8 -5 -7 -12 2 -23 10 -12 10 -16 1 -19 -7 -3 -13
-9 -13 -14 0 -6 4 -7 10 -4 6 3 7 -1 4 -9 -4 -12 0 -16 17 -17 13 0 18 -3 11
-6 -10 -4 -9 -9 5 -19 17 -13 17 -15 1 -27 -11 -9 -14 -18 -7 -28 5 -8 9 -18
8 -24 0 -5 -6 1 -13 15 -8 14 -12 28 -9 33 3 5 -4 11 -16 14 -11 3 -18 9 -15
14 3 5 -1 9 -8 9 -9 0 -9 3 2 10 8 5 10 10 5 10 -6 0 -19 13 -28 30 -20 33
-14 80 9 80 11 0 12 -4 4 -19z m-852 -38 c6 -18 9 -33 7 -33 -5 0 -35 68 -35
78 0 14 18 -16 28 -45z m1019 25 c5 -7 10 -25 11 -40 1 -22 -3 -28 -18 -28
-11 0 -20 5 -20 10 0 6 -11 8 -24 6 -18 -3 -23 -1 -19 9 2 8 10 13 16 12 6 -1
16 8 22 21 11 25 19 27 32 10z m1373 2 c0 -5 -4 -10 -10 -10 -5 0 -10 5 -10
10 0 6 5 10 10 10 6 0 10 -4 10 -10z m1558 -16 c41 -29 16 -94 -36 -94 -30 0
-62 26 -62 51 0 18 44 59 64 59 6 0 22 -7 34 -16z m-1718 -4 c0 -5 -2 -10 -4
-10 -3 0 -8 5 -11 10 -3 6 -1 10 4 10 6 0 11 -4 11 -10z m-1290 -9 c0 -14 -18
-23 -31 -15 -8 4 -7 9 2 15 18 11 29 11 29 0z m1465 -1 c-3 -5 -18 -10 -33 -9
l-27 1 25 8 c35 11 42 11 35 0z m-2158 -107 c-3 -2 -12 15 -22 39 -28 69 -27
78 0 19 14 -29 24 -55 22 -58z m1963 57 c0 -5 -7 -10 -15 -10 -8 0 -15 5 -15
10 0 6 7 10 15 10 8 0 15 -4 15 -10z m80 -15 c0 -14 -4 -25 -10 -25 -11 0 -14
33 -3 43 11 11 13 8 13 -18z m-1286 0 c-4 -8 -11 -12 -16 -9 -6 4 -5 10 3 15
19 12 19 11 13 -6z m-943 -86 c46 -109 60 -151 49 -144 -6 3 -10 10 -10 15 0
4 -9 30 -20 56 l-20 47 -23 -19 -22 -19 19 23 c19 22 18 36 -11 112 -3 8 -3
12 0 9 4 -3 21 -39 38 -80z m2019 71 c0 -5 -4 -10 -10 -10 -5 0 -10 -9 -10
-21 0 -12 -5 -19 -12 -16 -7 2 -12 11 -10 18 3 10 -1 10 -15 -2 -22 -19 -66
-23 -60 -6 2 6 21 15 43 20 21 4 43 12 48 17 13 13 26 13 26 0z m60 0 c0 -5
-4 -10 -10 -10 -5 0 -10 5 -10 10 0 6 5 10 10 10 6 0 10 -4 10 -10z m-1865
-83 c8 -20 13 -37 10 -37 -5 0 -35 67 -35 78 0 11 10 -5 25 -41z m695 23 c0
-5 -2 -10 -4 -10 -3 0 -8 5 -11 10 -3 6 -1 10 4 10 6 0 11 -4 11 -10z m994 4
c20 -8 21 -24 2 -24 -8 0 -16 7 -20 15 -6 17 -4 18 18 9z m-34 -19 c0 -18 -26
-20 -36 -3 -4 6 -3 8 4 4 6 -3 13 -2 17 4 9 14 15 12 15 -5z m-2582 -29 c-2
-13 -12 -22 -26 -24 -29 -4 -42 26 -18 44 24 17 48 6 44 -20z m3255 27 c-7 -2
-19 -2 -25 0 -7 3 -2 5 12 5 14 0 19 -2 13 -5z m517 2 c0 -2 -14 -12 -30 -20
-36 -19 -63 -9 -35 12 18 12 65 19 65 8z m-690 -35 c-28 -24 -43 -25 -60 -5
-11 13 -10 14 2 10 8 -3 25 -1 39 4 38 15 44 13 19 -9z m71 5 c-1 -15 -24 -12
-29 3 -3 9 2 13 12 10 10 -1 17 -7 17 -13z m189 11 c0 -2 -7 -6 -15 -10 -8 -3
-15 -1 -15 4 0 6 7 10 15 10 8 0 15 -2 15 -4z m203 -13 c-9 -7 -30 -13 -46
-13 -22 0 -27 3 -19 13 6 6 27 12 46 12 32 0 34 -2 19 -12z m-158 -3 c3 -5 -1
-10 -10 -10 -9 0 -13 5 -10 10 3 6 8 10 10 10 2 0 7 -4 10 -10z m580 0 c7 -12
-42 -36 -53 -26 -4 4 2 14 12 22 23 17 33 18 41 4z m-847 -12 c-3 -7 -15 -15
-28 -16 -21 -3 -22 -2 -11 12 16 19 44 21 39 4z m-2409 -49 c-16 -9 -36 -1
-43 17 -3 8 -2 13 3 10 5 -3 15 1 22 10 12 14 14 13 21 -7 6 -15 5 -25 -3 -30z
m2455 32 c-5 -5 -22 -13 -39 -16 -28 -7 -29 -7 -10 8 11 8 23 13 27 11 4 -2
10 1 13 7 4 5 10 8 13 4 3 -3 1 -9 -4 -14z m160 -2 c-7 -11 -34 -12 -34 -1 0
14 11 21 26 15 8 -3 11 -9 8 -14z m276 11 c0 -5 -4 -10 -10 -10 -5 0 -10 5
-10 10 0 6 5 10 10 10 6 0 10 -4 10 -10z m535 -10 c3 -5 -1 -10 -10 -10 -9 0
-13 5 -10 10 3 6 8 10 10 10 2 0 7 -4 10 -10z m-585 -10 c0 -5 -4 -10 -10 -10
-5 0 -10 5 -10 10 0 6 5 10 10 10 6 0 10 -4 10 -10z m-553 -6 c-3 -3 -12 -4
-19 -1 -8 3 -5 6 6 6 11 1 17 -2 13 -5z m433 -4 c12 -8 9 -10 -13 -10 -16 0
-26 4 -22 10 8 12 16 12 35 0z m-2775 -10 c-3 -5 -1 -10 6 -10 7 0 10 -3 6 -6
-9 -9 -28 6 -22 17 4 5 8 9 11 9 3 0 2 -4 -1 -10z m2399 1 c6 -10 -27 -34 -61
-45 -14 -5 -23 -3 -23 3 0 6 6 11 13 11 8 0 22 9 33 19 21 22 30 25 38 12z
m-1804 -72 c-113 -38 -213 -72 -222 -75 -11 -3 -18 0 -18 7 0 7 3 10 6 7 3 -3
96 25 207 62 111 38 209 68 217 68 8 0 -77 -31 -190 -69z m540 61 c-8 -5 -19
-10 -25 -10 -5 0 -3 5 5 10 8 5 20 10 25 10 6 0 3 -5 -5 -10z m660 6 c0 -9
-30 -14 -35 -6 -4 6 3 10 14 10 12 0 21 -2 21 -4z m510 -6 c0 -5 -11 -10 -24
-10 -14 0 -28 5 -31 10 -4 6 7 10 24 10 17 0 31 -4 31 -10z m228 -7 c2 -8 -6
-13 -22 -13 -26 0 -40 12 -29 24 11 11 46 2 51 -11z m812 7 c0 -5 -2 -10 -4
-10 -3 0 -8 5 -11 10 -3 6 -1 10 4 10 6 0 11 -4 11 -10z m-3020 -35 c0 -5 -5
-3 -10 5 -5 8 -10 20 -10 25 0 6 5 3 10 -5 5 -8 10 -19 10 -25z m2965 14 c-8
-12 -35 -12 -35 0 0 11 22 20 33 14 4 -2 5 -9 2 -14z m145 17 c0 -11 -19 -15
-25 -6 -3 5 1 10 9 10 9 0 16 -2 16 -4z m-809 -25 c-30 -23 -14 -34 28 -20 18
6 34 9 37 6 3 -3 -9 -8 -26 -12 -25 -6 -29 -9 -19 -21 8 -10 8 -14 0 -14 -6 0
-11 5 -11 10 0 18 -59 10 -106 -15 -26 -14 -54 -25 -63 -26 -9 -1 -5 -5 9 -9
l25 -8 -26 -1 c-49 -2 -40 14 28 45 98 46 43 44 -78 -2 -52 -20 -122 -47 -157
-60 -34 -13 -80 -33 -102 -44 -21 -11 -45 -20 -52 -19 -7 0 9 11 35 24 43 20
46 24 27 30 -12 4 -20 9 -17 11 2 3 15 0 29 -5 19 -7 39 -4 83 14 32 13 61 28
64 33 3 5 13 9 21 9 8 0 38 10 65 22 l50 23 -30 14 c-23 11 -24 12 -5 7 14 -4
34 -6 45 -6 11 1 43 3 70 5 28 1 56 8 63 15 7 7 19 13 25 13 7 0 1 -9 -12 -19z
m149 9 c12 -8 11 -10 -7 -10 -13 0 -23 5 -23 10 0 13 11 13 30 0z m620 0 c0
-5 -7 -10 -15 -10 -8 0 -15 5 -15 10 0 6 7 10 15 10 8 0 15 -4 15 -10z m-3161
-21 c-16 -10 -23 -4 -14 10 3 6 11 8 17 5 6 -4 5 -9 -3 -15z m1071 11 c0 -5
-5 -10 -11 -10 -5 0 -7 5 -4 10 3 6 8 10 11 10 2 0 4 -4 4 -10z m80 0 c0 -5
-7 -10 -16 -10 -8 0 -12 5 -9 10 3 6 10 10 16 10 5 0 9 -4 9 -10z m1560 1 c0
-12 -21 -19 -38 -13 -11 4 -11 6 0 13 17 11 38 11 38 0z m-860 -10 c0 -12 -20
-25 -27 -18 -7 7 6 27 18 27 5 0 9 -4 9 -9z m180 0 c0 -12 -28 -22 -34 -12 -3
5 -3 11 1 15 9 9 33 7 33 -3z m130 -22 c0 -5 -13 -9 -30 -9 -28 0 -38 9 -25
22 8 8 55 -3 55 -13z m610 12 c0 -5 -9 -7 -20 -4 -11 3 -20 7 -20 9 0 2 9 4
20 4 11 0 20 -4 20 -9z m-2660 -36 c0 -5 -5 -3 -10 5 -5 8 -10 20 -10 25 0 6
5 3 10 -5 5 -8 10 -19 10 -25z m1793 28 c-7 -2 -19 -2 -25 0 -7 3 -2 5 12 5
14 0 19 -2 13 -5z m-353 -13 c12 -8 11 -10 -7 -10 -13 0 -23 5 -23 10 0 13 11
13 30 0z m96 1 c-4 -5 -1 -11 6 -13 6 -2 -14 -15 -46 -27 -31 -13 -59 -21 -62
-18 -3 3 17 14 45 23 38 14 47 21 39 31 -8 10 -6 13 6 13 10 0 15 -4 12 -9z
m339 -1 c-3 -5 -11 -10 -16 -10 -6 0 -7 5 -4 10 3 6 11 10 16 10 6 0 7 -4 4
-10z m642 4 c-3 -3 -12 -4 -19 -1 -8 3 -5 6 6 6 11 1 17 -2 13 -5z m208 -4
c-3 -5 -16 -10 -28 -9 -21 0 -21 1 -2 9 28 12 37 12 30 0z m-158 -6 c-3 -3
-12 -4 -19 -1 -8 3 -5 6 6 6 11 1 17 -2 13 -5z m-3192 -14 c-3 -5 -13 -10 -21
-10 -8 0 -14 -4 -14 -8 0 -10 -98 -42 -127 -42 -13 0 -25 -11 -33 -30 -13 -30
-42 -40 -56 -19 -9 16 -25 12 -413 -105 -194 -59 -355 -105 -357 -103 -2 2 74
27 169 56 94 30 240 75 322 101 83 26 175 56 207 65 40 12 58 23 62 37 4 18
10 20 43 15 28 -5 63 2 128 23 105 34 98 33 90 20z m3292 4 c-3 -3 -12 -4 -19
-1 -8 3 -5 6 6 6 11 1 17 -2 13 -5z m-907 -13 c0 -14 -41 -41 -60 -40 -9 0 -7
4 8 11 13 7 21 17 18 25 -3 8 2 13 14 13 11 0 20 -4 20 -9z m480 -1 c12 -7 10
-9 -8 -7 -12 0 -22 5 -22 9 0 11 12 10 30 -2z m-665 -10 c3 -5 2 -10 -4 -10
-5 0 -13 5 -16 10 -3 6 -2 10 4 10 5 0 13 -4 16 -10z m740 -5 c-16 -8 -37 -14
-45 -14 -8 0 1 7 20 14 46 18 64 17 25 0z m200 5 c3 -5 1 -10 -4 -10 -6 0 -11
5 -11 10 0 6 2 10 4 10 3 0 8 -4 11 -10z m-1217 -12 c-6 -16 -46 -29 -53 -17
-4 5 4 13 17 18 32 13 40 13 36 -1z m71 -35 c-27 -13 -61 -25 -77 -28 -25 -5
-24 -4 6 10 20 10 30 20 26 27 -5 8 -2 9 9 5 9 -3 27 -2 39 3 13 5 19 9 15 9
-5 1 -5 5 -2 11 4 6 11 5 20 -3 11 -10 5 -16 -36 -34z m271 37 c0 -13 -20 -13
-40 0 -12 8 -9 10 13 10 15 0 27 -4 27 -10z m245 0 c-3 -5 -12 -10 -20 -10 -8
0 -17 5 -20 10 -4 6 5 10 20 10 15 0 24 -4 20 -10z m772 4 c-3 -3 -12 -4 -19
-1 -8 3 -5 6 6 6 11 1 17 -2 13 -5z m133 -4 c0 -5 -7 -10 -16 -10 -8 0 -12 5
-9 10 3 6 10 10 16 10 5 0 9 -4 9 -10z m-223 -7 c-9 -2 -14 -9 -11 -15 4 -7 2
-8 -4 -4 -6 3 -39 -5 -73 -19 -34 -14 -67 -25 -73 -25 -17 1 147 68 164 68 10
0 9 -2 -3 -5z m-1052 -13 c19 -8 19 -9 -2 -9 -12 -1 -25 4 -28 9 -7 12 2 12
30 0z m715 -4 c-14 -7 -36 -16 -50 -20 -14 -3 -7 3 15 13 45 22 73 27 35 7z
m515 4 c-3 -5 -14 -10 -23 -10 -15 0 -15 2 -2 10 20 13 33 13 25 0z m-3820
-10 c3 -5 1 -10 -4 -10 -6 0 -11 5 -11 10 0 6 2 10 4 10 3 0 8 -4 11 -10z
m2840 0 c3 -6 -1 -7 -9 -4 -18 7 -21 14 -7 14 6 0 13 -4 16 -10z m650 0 c3 -6
-1 -7 -9 -4 -18 7 -21 14 -7 14 6 0 13 -4 16 -10z m2572 -6 c7 -19 -16 -64
-34 -64 -7 0 -12 3 -11 8 0 4 -2 15 -6 25 -5 9 -6 24 -2 32 7 20 45 19 53 -1z
m-6087 -1 c0 -5 -102 -37 -227 -73 -159 -46 -235 -72 -252 -88 -22 -20 -26
-21 -39 -8 -22 22 -7 49 24 43 16 -3 113 22 247 63 230 71 247 75 247 63z
m2703 -3 c7 -1 -1 -8 -17 -16 -22 -12 -25 -18 -15 -24 9 -6 3 -9 -16 -8 -17 0
-43 -5 -58 -11 -16 -6 -34 -11 -40 -11 -7 1 16 13 51 27 46 19 62 30 57 40 -4
11 -1 13 11 9 8 -3 21 -6 27 -6z m525 -10 c21 -1 23 -3 12 -10 -16 -9 -90 9
-90 22 0 4 12 3 26 -2 14 -6 37 -10 52 -10z m-716 -12 c-12 -12 -35 -1 -27 12
3 5 13 6 21 3 10 -4 12 -9 6 -15z m913 12 c3 -5 2 -10 -4 -10 -5 0 -13 5 -16
10 -3 6 -2 10 4 10 5 0 13 -4 16 -10z m-1069 -29 c-3 -4 -38 -18 -78 -32 -58
-19 -67 -25 -45 -27 15 -2 27 -7 27 -12 0 -5 -16 -4 -35 1 -23 7 -41 6 -55 -1
-18 -10 -202 -78 -279 -103 l-35 -11 60 -15 c85 -20 132 -18 193 9 59 26 58
27 -23 45 -15 3 -26 8 -23 11 3 3 32 -1 66 -10 52 -13 66 -13 98 -2 70 25 94
39 89 53 -6 15 6 17 19 4 9 -9 122 23 153 42 18 12 5 27 -26 27 -26 0 -70 20
-45 20 23 0 113 -24 113 -30 0 -9 -76 -45 -140 -65 -30 -10 -59 -21 -65 -25
-9 -8 -57 -25 -279 -104 -49 -17 -91 -36 -93 -42 -2 -7 15 -15 39 -19 24 -4
38 -9 31 -12 -6 -2 -31 1 -55 8 -24 7 -45 12 -48 12 -3 0 -16 -3 -30 -7 -14
-3 -1 5 28 19 28 13 52 29 52 33 0 5 -28 16 -62 24 -61 15 -65 15 -133 -10
-75 -27 -100 -42 -71 -42 29 0 126 -31 126 -40 0 -4 -16 -14 -36 -22 l-36 -15
34 -16 33 -17 -28 0 c-16 0 -30 7 -33 15 -4 10 -14 14 -28 10 -11 -3 -4 3 16
15 20 11 39 23 42 28 2 4 -26 16 -63 25 l-68 18 -74 -30 c-82 -32 -81 -33 20
-61 49 -13 49 -29 0 -47 -29 -12 -31 -12 -16 0 24 20 21 37 -7 37 -35 0 -78
18 -71 30 10 15 -6 12 -74 -16 -35 -14 -65 -23 -68 -21 -2 3 19 13 47 23 27
10 50 21 50 25 0 4 -14 10 -31 14 -17 4 -28 9 -25 12 3 3 25 0 48 -6 34 -10
49 -10 74 1 17 7 31 17 32 23 0 5 6 11 14 13 9 2 8 0 -2 -7 -17 -12 -1 -15 25
-5 13 6 14 9 3 16 -8 5 -2 6 16 2 25 -6 28 -4 23 10 -4 9 -2 16 3 16 6 0 10
-4 10 -9 0 -5 27 0 59 12 33 12 57 25 54 30 -3 5 1 8 8 6 31 -4 50 1 43 12 -4
7 0 9 12 6 20 -6 128 35 119 45 -4 3 -1 9 6 14 8 4 10 3 5 -4 -8 -13 4 -15 30
-5 16 6 16 7 -2 15 -14 6 -12 7 9 3 33 -7 79 4 71 16 -3 5 2 6 11 3 10 -4 15
-2 13 6 -2 6 7 16 20 21 13 5 22 5 22 -1 0 -5 7 -7 15 -4 8 4 12 11 8 17 -4 6
0 8 10 4 20 -7 79 12 72 23 -3 4 4 6 15 3 11 -3 20 0 20 6 0 6 12 11 27 11 26
0 26 1 7 15 -17 13 -16 14 13 4 18 -6 31 -14 29 -18z m1404 24 c0 -5 -52 -28
-91 -40 -40 -12 -9 12 36 29 44 16 55 18 55 11z m48 -4 c11 -7 10 -9 -3 -14
-9 -4 -14 -3 -10 2 3 5 -1 12 -7 14 -7 3 -8 6 -3 6 6 0 16 -3 23 -8z m-1588
-21 c-8 -5 -17 -7 -19 -4 -3 3 1 9 9 14 8 5 17 7 19 4 3 -3 -1 -9 -9 -14z
m350 16 c0 -11 -19 -15 -25 -6 -3 5 1 10 9 10 9 0 16 -2 16 -4z m253 -3 c-7
-2 -21 -2 -30 0 -10 3 -4 5 12 5 17 0 24 -2 18 -5z m257 -3 c0 -5 -4 -10 -9
-10 -6 0 -13 5 -16 10 -3 6 1 10 9 10 9 0 16 -4 16 -10z m408 -5 c-4 -4 -222
-93 -248 -101 -8 -3 0 3 18 13 18 11 30 22 26 25 -3 4 4 4 17 1 15 -4 20 -2
15 5 -4 6 1 10 12 9 24 -1 142 45 142 56 0 4 5 5 11 2 6 -4 9 -9 7 -10z m92 5
c0 -5 -5 -10 -11 -10 -5 0 -7 5 -4 10 3 6 8 10 11 10 2 0 4 -4 4 -10z m-400
-14 c-14 -7 -36 -16 -50 -20 -14 -3 -7 3 15 13 45 22 73 27 35 7z m150 4 c-8
-5 -22 -10 -30 -10 -13 0 -13 1 0 10 8 5 22 10 30 10 13 0 13 -1 0 -10z m-607
-17 c-7 -2 -19 -2 -25 0 -7 3 -2 5 12 5 14 0 19 -2 13 -5z m224 1 c-3 -3 -12
-4 -19 -1 -8 3 -5 6 6 6 11 1 17 -2 13 -5z m-127 -19 c0 -9 -50 -10 -53 0 -3
7 5 10 24 7 16 -2 29 -5 29 -7z m-470 -5 c0 -5 3 -9 8 -9 20 3 55 -2 49 -7 -9
-9 -97 6 -97 17 0 5 9 9 20 9 11 0 20 -4 20 -10z m707 2 c9 -5 -2 -16 -33 -31
-26 -12 -48 -20 -50 -18 -2 2 15 12 38 23 l42 19 -29 6 c-27 6 -28 7 -5 8 14
0 31 -3 37 -7z m-977 -11 c0 -9 -52 -22 -60 -15 -7 7 23 24 43 24 9 0 17 -4
17 -9z m-481 -5 c-8 -8 -113 -45 -117 -42 -2 2 21 13 50 25 51 19 76 26 67 17z
m1044 -3 c-7 -2 -19 -2 -25 0 -7 3 -2 5 12 5 14 0 19 -2 13 -5z m277 -2 c0 -5
-11 -8 -24 -7 -13 0 -22 4 -19 9 6 10 43 9 43 -2z m-165 -15 c26 -14 26 -14
-23 -13 -45 2 -48 3 -29 14 12 7 23 12 23 13 1 0 14 -6 29 -14z m428 7 c-7 -2
-21 -2 -30 0 -10 3 -4 5 12 5 17 0 24 -2 18 -5z m-888 -13 c3 -5 2 -10 -4 -10
-5 0 -13 5 -16 10 -3 6 -2 10 4 10 5 0 13 -4 16 -10z m222 4 c-3 -3 -12 -4
-19 -1 -8 3 -5 6 6 6 11 1 17 -2 13 -5z m-1519 -27 c15 4 15 3 2 -6 -22 -15
-30 -14 -29 7 0 9 3 12 5 5 3 -7 13 -9 22 -6z m1625 5 c15 -6 12 -9 -13 -19
-26 -10 -29 -9 -21 1 6 7 8 16 4 19 -8 9 6 8 30 -1z m434 2 c-3 -3 -12 -4 -19
-1 -8 3 -5 6 6 6 11 1 17 -2 13 -5z m-887 -14 c0 -5 -9 -10 -21 -10 -11 0 -17
5 -14 10 3 6 13 10 21 10 8 0 14 -4 14 -10z m708 4 c20 -6 19 -8 -20 -29 -24
-12 -54 -25 -68 -29 -14 -4 -3 5 24 20 37 19 46 28 35 35 -16 10 -4 11 29 3z
m332 -4 c-8 -5 -19 -10 -25 -10 -5 0 -3 5 5 10 8 5 20 10 25 10 6 0 3 -5 -5
-10z m-2271 -55 c0 -5 -6 1 -14 15 -8 14 -14 30 -14 35 0 6 6 -1 14 -15 8 -14
14 -29 14 -35z m975 47 c3 -5 -11 -9 -32 -10 -27 -1 -33 1 -22 8 19 12 47 13
54 2z m311 -1 c-6 -11 -45 -10 -45 1 0 4 12 8 26 8 14 0 23 -4 19 -9z m260 -1
c4 -6 -7 -10 -27 -9 -31 1 -32 1 -8 9 14 4 26 8 27 9 1 1 5 -3 8 -9z m670 4
c11 -5 -7 -17 -60 -41 -42 -19 -78 -33 -81 -30 -2 2 25 16 61 32 36 15 62 31
59 36 -6 11 -1 11 21 3z m-415 -14 c0 -5 -10 -10 -22 -10 -19 0 -20 2 -8 10
19 13 30 13 30 0z m-2060 -4 c0 -3 -24 -12 -52 -21 -29 -9 -66 -20 -82 -25
-16 -5 -26 -6 -22 -2 7 6 133 51 149 52 4 0 7 -2 7 -4z m1885 -5 c-3 -5 3 -11
12 -14 10 -2 2 -4 -17 -4 -19 1 -44 -2 -55 -6 -11 -4 -2 2 20 13 46 23 48 23
40 11z m445 -1 c0 -13 -20 -13 -40 0 -12 8 -9 10 13 10 15 0 27 -4 27 -10z
m-645 -10 c19 -8 19 -9 -2 -9 -12 -1 -25 4 -28 9 -7 12 2 12 30 0z m-375 -20
c0 -5 -7 -10 -15 -10 -8 0 -15 5 -15 10 0 6 7 10 15 10 8 0 15 -4 15 -10z
m473 -1 c14 0 17 -2 7 -5 -8 -3 -32 -13 -53 -22 -36 -15 -37 -16 -16 -24 12
-5 20 -11 17 -14 -3 -2 -16 0 -29 6 -19 8 -39 5 -97 -17 -75 -28 -93 -45 -57
-52 33 -6 68 -21 63 -27 -8 -7 -98 17 -98 27 0 5 -12 4 -26 -1 -49 -19 -49 -9
1 15 27 14 54 30 60 37 5 7 24 13 41 14 44 1 147 50 138 65 -5 9 -2 10 10 6
10 -4 27 -7 39 -8z m433 -2 c10 -10 -17 -8 -41 3 -17 8 -16 9 7 7 15 -2 30 -6
34 -10z m-2389 -13 c3 -8 1 -20 -5 -26 -6 -6 -8 -17 -5 -24 3 -8 -1 -14 -11
-14 -9 0 -16 8 -16 20 0 17 -5 19 -27 15 -24 -5 -25 -4 -7 4 12 5 24 16 27 25
8 21 36 21 44 0z m1223 6 c0 -5 -10 -10 -22 -10 -19 0 -20 2 -8 10 19 13 30
13 30 0z m315 0 c18 -8 17 -9 -7 -9 -16 -1 -28 4 -28 9 0 12 8 12 35 0z m682
-6 c-19 -7 -46 -19 -59 -28 -13 -9 -49 -24 -79 -35 -29 -10 -82 -33 -115 -50
-34 -17 -75 -34 -91 -37 -16 -3 -39 -13 -52 -23 l-23 -17 41 -13 c23 -6 39
-16 36 -22 -7 -11 -74 -1 -92 13 -7 6 -25 8 -40 5 -25 -4 -26 -4 -8 7 10 6 31
22 46 37 17 16 38 25 60 25 36 1 149 50 149 65 0 5 -10 9 -22 9 -13 0 -30 5
-38 11 -12 8 -10 9 10 5 85 -21 108 -19 177 14 56 27 65 33 48 40 -13 5 -1 7
34 7 l53 -1 -35 -12z m216 -34 c-32 -15 -80 -35 -108 -45 -27 -11 -53 -23 -56
-28 -4 -5 -29 -17 -55 -27 -87 -31 -109 -42 -96 -47 17 -7 15 -23 -3 -23 -8 0
-15 5 -15 11 0 7 -10 5 -25 -5 -14 -9 -30 -14 -35 -11 -5 3 -24 -2 -42 -12
-18 -9 -36 -16 -40 -15 -4 1 -10 -7 -13 -18 -4 -11 -15 -20 -26 -20 -11 0 -28
-7 -36 -16 -15 -14 -17 -14 -25 1 -13 22 31 62 74 67 44 5 135 46 142 64 3 8
16 13 28 12 31 -1 158 51 158 66 0 6 15 11 33 12 38 1 170 57 144 62 -9 2 -17
7 -17 12 0 4 16 3 36 -3 l35 -11 -58 -26z m-649 31 c18 -7 18 -8 3 -14 -20 -7
-47 1 -47 14 0 11 17 11 44 0z m276 -11 c0 -5 -15 -10 -32 -10 -25 0 -29 3
-18 10 20 13 50 13 50 0z m270 -10 c0 -5 -11 -10 -25 -10 -14 0 -25 5 -25 10
0 6 11 10 25 10 14 0 25 -4 25 -10z m-650 -10 l25 -8 -25 0 c-14 0 -34 3 -45
8 l-20 9 20 -1 c11 0 31 -4 45 -8z m-341 -20 c16 0 22 -3 15 -10 -6 -6 -23 -4
-48 4 -22 8 -33 16 -25 18 8 3 18 2 24 -3 5 -5 20 -9 34 -9z m886 -13 c7 -6
-2 -7 -25 -3 -19 3 -39 11 -44 16 -7 7 1 8 24 4 19 -4 40 -11 45 -17z m-1185
3 c0 -5 -10 -10 -22 -10 -19 0 -20 2 -8 10 19 13 30 13 30 0z m585 1 c8 -14
-30 -32 -49 -25 -21 8 -20 21 2 27 29 8 41 7 47 -2z m-1914 -37 c-41 -14 -76
-23 -78 -20 -5 5 116 44 137 44 8 0 -18 -11 -59 -24z m2162 11 c-3 -13 -53
-20 -53 -7 0 15 13 23 35 20 11 -2 19 -7 18 -13z m272 -4 c3 -5 1 -12 -5 -16
-14 -9 -52 4 -45 16 8 12 42 12 50 0z m-3448 -7 c-3 -3 -12 -4 -19 -1 -8 3 -5
6 6 6 11 1 17 -2 13 -5z m3603 -14 c0 -5 -2 -10 -4 -10 -3 0 -8 5 -11 10 -3 6
-1 10 4 10 6 0 11 -4 11 -10z m-1144 -10 c13 0 24 -4 24 -10 0 -12 -61 -1 -75
13 -7 7 -4 8 8 3 10 -3 30 -6 43 -6z m442 0 c9 -1 -4 -10 -30 -22 -27 -11 -48
-24 -48 -28 0 -5 19 -15 43 -23 l42 -15 -37 -1 c-20 -1 -43 5 -50 13 -8 8 -23
16 -34 18 -15 3 -11 8 19 21 20 9 40 23 43 32 4 9 13 14 21 11 8 -3 22 -6 31
-6z m405 -4 c8 8 47 -6 47 -17 0 -6 -15 -7 -37 -3 -47 8 -55 13 -47 25 4 6 10
6 18 0 7 -6 15 -8 19 -5z m-2583 -66 c-113 -37 -288 -94 -388 -126 l-184 -59
-13 -39 c-13 -36 -29 -55 -47 -56 -13 0 -39 61 -36 83 3 19 11 23 68 29 40 4
203 51 420 121 195 63 362 115 370 115 8 0 -77 -30 -190 -68z m2026 59 c3 -6
0 -15 -7 -20 -18 -11 -21 -11 -39 1 -13 9 -13 11 0 20 20 13 37 13 46 -1z
m-596 -8 c0 -9 -52 -22 -60 -15 -7 7 23 24 43 24 9 0 17 -4 17 -9z m845 -20
c7 -12 -31 -25 -45 -16 -5 3 -10 10 -10 16 0 12 47 12 55 0z m261 -5 c18 -14
18 -15 2 -21 -24 -9 -48 1 -48 20 0 19 20 19 46 1z m-1178 -26 c12 0 22 -5 22
-11 0 -13 -60 -6 -105 11 -41 16 -20 29 22 14 21 -7 48 -13 61 -14z m187 10
c-3 -5 -10 -10 -16 -10 -5 0 -9 5 -9 10 0 6 7 10 16 10 8 0 12 -4 9 -10z m445
-24 c0 -7 -10 -16 -22 -20 -36 -9 -39 -7 -26 14 15 23 48 27 48 6z m799 5 c20
-13 4 -31 -46 -53 -40 -18 -47 -18 -60 -5 -14 14 -11 18 23 40 42 28 61 32 83
18z m-1271 -31 c42 -11 58 -30 25 -30 -24 1 -111 24 -119 32 -14 14 7 27 29
18 12 -5 41 -14 65 -20z m700 -16 c-13 -8 -32 -13 -42 -14 -16 0 -15 4 9 25
23 19 32 22 43 13 11 -10 9 -14 -10 -24z m-403 5 c0 -8 -10 -15 -22 -17 -25
-4 -33 22 -10 31 18 8 32 2 32 -14z m283 -7 c5 -15 -103 -66 -123 -58 -28 10
-11 29 46 53 57 23 70 24 77 5z m-459 -6 c6 -7 29 -16 50 -20 21 -3 44 -13 51
-21 16 -20 6 -20 -73 1 -76 20 -81 22 -66 40 14 18 23 18 38 0z m195 -57 c13
-19 28 -23 99 -28 9 -1 17 -8 17 -16 0 -17 -20 -14 -92 11 -21 7 -38 11 -38 8
0 -2 -9 0 -20 6 -11 6 -17 16 -14 25 9 21 30 18 48 -6z m-704 -43 c0 -2 -7 -7
-16 -10 -8 -3 -12 -2 -9 4 6 10 25 14 25 6z m-383 -132 c-3 -3 -12 -4 -19 -1
-8 3 -5 6 6 6 11 1 17 -2 13 -5z m63 2 c0 -2 -7 -7 -16 -10 -8 -3 -12 -2 -9 4
6 10 25 14 25 6z m-140 -26 c-12 -7 -8 -10 15 -10 42 -1 28 -7 -165 -80 -206
-78 -236 -90 -333 -129 -43 -17 -83 -29 -88 -26 -5 4 -9 1 -9 -5 0 -7 -7 -9
-17 -6 -10 4 -14 4 -10 0 4 -4 -54 -31 -130 -60 -101 -39 -141 -50 -154 -43
-23 12 -26 12 -26 -5 0 -8 7 -12 16 -9 14 4 14 4 1 -6 -8 -6 -23 -8 -32 -5
-10 3 -18 1 -18 -5 0 -6 -6 -8 -13 -5 -7 2 -13 -4 -14 -15 -2 -25 -42 -71 -62
-71 -9 0 -28 6 -43 14 -20 11 -28 11 -32 3 -3 -9 -7 -9 -13 0 -6 9 -26 5 -78
-14 -39 -13 -81 -26 -95 -27 -14 -1 -30 -5 -37 -9 -6 -4 -19 -4 -28 -1 -9 4
-20 2 -24 -4 -4 -7 -20 -13 -36 -16 -17 -2 -23 -1 -15 1 8 3 21 10 28 16 11 8
11 12 0 18 -9 6 -6 9 9 9 12 0 25 5 29 11 5 8 10 6 16 -5 13 -22 26 -20 30 6
2 12 10 23 18 25 13 4 13 3 0 -7 -12 -8 -8 -9 15 -4 42 9 69 26 30 19 -16 -3
-1 6 35 20 35 14 70 23 77 21 7 -3 13 -1 13 5 0 6 4 7 10 4 5 -3 10 -2 10 3 0
4 9 18 21 31 15 16 32 22 62 22 59 0 96 3 91 8 -5 5 38 24 77 35 23 7 23 6 5
-8 -11 -9 -16 -16 -10 -16 13 1 50 30 38 31 -5 0 14 9 41 19 114 41 378 134
485 171 63 21 158 54 210 73 97 36 126 43 100 26z m4899 -165 c46 -23 55 -76
21 -113 -44 -47 -130 -9 -130 58 0 23 7 35 33 50 38 24 40 24 76 5z m-4869
-25 c24 -24 25 -38 3 -62 -32 -36 -93 -15 -93 32 0 48 54 66 90 30z m5744 -11
c30 -24 34 -64 11 -109 -35 -67 -86 -69 -125 -5 -27 43 -25 81 5 110 30 31 73
32 109 4z m-3506 -149 c29 -27 29 -74 0 -94 -47 -33 -110 -10 -123 45 -5 21
-1 31 21 48 34 27 74 27 102 1z m3163 -89 c48 -49 39 -109 -28 -178 -18 -19
-71 -16 -103 7 -30 22 -60 76 -60 110 0 12 15 37 34 56 29 29 41 34 81 34 38
0 52 -5 76 -29z m-6207 -316 c58 -28 82 -97 50 -143 -54 -77 -178 -57 -203 34
-25 91 61 153 153 109z"/>
<path d="M1893 3683 c9 -2 23 -2 30 0 6 3 -1 5 -18 5 -16 0 -22 -2 -12 -5z"/>
<path d="M2408 3533 c-21 -5 -24 -23 -4 -23 16 0 46 -26 46 -40 0 -5 -12 -13
-27 -19 -25 -9 -24 -10 12 -4 49 7 49 7 50 41 0 15 4 32 7 38 7 11 -50 16 -84
7z"/>
<path d="M2155 3484 c-11 -3 -60 -12 -108 -21 -49 -9 -84 -19 -78 -22 12 -8
10 -28 -7 -58 -11 -20 -10 -23 5 -24 14 0 12 -3 -6 -10 -48 -19 -13 -17 99 7
123 25 289 69 299 80 3 3 -5 3 -19 0 -14 -4 -47 -10 -73 -15 -45 -8 -49 -7
-64 16 -16 24 -16 26 2 39 18 13 18 14 -6 13 -13 -1 -33 -3 -44 -5z m22 -36
c-3 -8 -6 -5 -6 6 -1 11 2 17 5 13 3 -3 4 -12 1 -19z"/>
<path d="M1650 3324 c0 -20 27 -37 36 -23 4 7 3 9 -4 5 -6 -3 -15 2 -21 11 -6
10 -11 13 -11 7z"/>
<path d="M1750 3260 c-14 -4 -36 -5 -49 -2 -16 3 -22 1 -17 -6 5 -8 1 -10 -9
-6 -8 4 -30 3 -49 0 l-34 -6 80 -188 c84 -199 179 -415 184 -420 1 -2 11 1 21
6 17 10 17 11 0 18 -17 6 -17 7 0 20 16 13 15 14 -9 8 -35 -8 -38 11 -3 20 13
3 22 12 20 19 -5 14 22 53 31 44 4 -3 13 0 20 8 8 8 21 12 29 9 23 -9 19 7
-26 114 -86 202 -74 186 -135 185 -6 0 -9 8 -7 18 5 18 15 23 40 20 12 -2 -39
126 -55 140 -4 3 -18 3 -32 -1z"/>
<path d="M2106 2799 c-32 -23 -55 -44 -51 -47 3 -4 9 -1 13 5 4 7 24 10 45 9
27 -2 37 0 33 9 -3 8 4 11 18 10 19 -2 22 1 18 21 -2 13 -8 26 -12 29 -4 2
-33 -14 -64 -36z"/>
<path d="M3308 3383 c7 -3 16 -2 19 1 4 3 -2 6 -13 5 -11 0 -14 -3 -6 -6z"/>
<path d="M3248 3373 c7 -3 16 -2 19 1 4 3 -2 6 -13 5 -11 0 -14 -3 -6 -6z"/>
<path d="M3277 3368 c-5 -13 0 -16 24 -16 19 1 25 4 18 9 -7 4 -16 6 -20 3 -4
-2 -9 1 -11 8 -3 8 -7 6 -11 -4z"/>
<path d="M3216 3361 c-3 -5 2 -15 12 -22 15 -12 16 -12 5 2 -7 9 -10 19 -6 22
3 4 4 7 0 7 -3 0 -8 -4 -11 -9z"/>
<path d="M3626 3347 c3 -10 9 -15 12 -12 3 3 0 11 -7 18 -10 9 -11 8 -5 -6z"/>
<path d="M3583 3333 c-11 -16 -13 -16 -23 -3 -10 12 -11 11 -5 -5 11 -29 11
-75 1 -77 -5 -2 -10 7 -11 20 -1 12 3 22 8 22 6 0 0 9 -13 20 -25 22 -35 26
-25 11 3 -5 -5 -17 -17 -25 -12 -9 -18 -16 -14 -16 5 0 17 7 27 16 11 10 19
12 24 5 3 -6 1 -11 -5 -11 -6 0 -8 -4 -5 -10 8 -13 -26 -59 -44 -60 -8 0 -12
-3 -8 -6 3 -3 -8 -19 -24 -35 -16 -15 -29 -32 -29 -37 0 -6 -9 -12 -20 -15
-11 -3 -20 -12 -20 -19 0 -15 40 -38 65 -38 7 0 15 -4 17 -9 2 -6 22 -11 45
-12 23 -2 40 -6 37 -10 -2 -4 3 -10 12 -13 27 -10 20 -15 118 72 20 18 34 37
31 42 -4 6 1 7 11 3 13 -5 16 -2 12 9 -4 10 -1 15 10 14 11 -1 16 5 14 17 -2
11 4 17 16 17 28 0 49 27 33 43 -7 7 -12 8 -11 2 4 -21 0 -36 -10 -30 -5 3 -6
13 -3 22 4 9 2 14 -3 10 -6 -3 -10 8 -9 29 2 37 -9 46 -18 14 -6 -23 -27 -27
-27 -5 0 11 -7 14 -25 9 -15 -4 -32 -1 -41 7 -12 10 -15 10 -12 -2 2 -8 -7
-15 -22 -17 -22 -4 -23 -2 -10 14 12 14 12 16 1 9 -11 -6 -13 -2 -9 19 6 30
-2 34 -19 9z m-63 -123 c0 -5 -5 -10 -11 -10 -5 0 -7 5 -4 10 3 6 8 10 11 10
2 0 4 -4 4 -10z"/>
<path d="M3986 3322 c-3 -5 0 -9 7 -10 7 0 31 -3 54 -5 23 -2 47 -1 53 3 7 4
-6 9 -29 12 -23 2 -41 -1 -41 -6 0 -6 -5 -5 -12 2 -14 14 -25 15 -32 4z"/>
<path d="M3231 3294 c0 -11 3 -14 6 -6 3 7 2 16 -1 19 -3 4 -6 -2 -5 -13z"/>
<path d="M3815 3250 c3 -5 8 -10 11 -10 2 0 4 5 4 10 0 6 -5 10 -11 10 -5 0
-7 -4 -4 -10z"/>
<path d="M3877 3242 c-11 -12 -16 -25 -13 -30 3 -5 -3 -12 -13 -15 -13 -3 -18
-13 -17 -33 1 -34 53 -107 69 -97 5 3 8 2 4 -3 -9 -15 20 -47 34 -38 8 5 11 2
6 -8 -8 -21 3 -30 20 -17 8 7 13 8 13 1 0 -13 41 -3 58 14 6 7 12 20 12 28 0
18 13 20 38 7 9 -5 26 -5 37 0 17 6 17 8 3 8 -20 1 -22 9 -9 30 8 12 12 12 25
2 19 -16 56 -5 56 16 0 10 6 14 18 11 21 -6 59 18 48 29 -4 4 -15 2 -26 -4
-14 -10 -19 -9 -24 2 -3 10 3 17 19 21 14 3 25 10 25 16 0 5 -10 6 -22 3 -14
-4 -18 -3 -11 2 16 12 3 28 -25 29 -17 0 -21 -4 -17 -17 7 -21 -10 -59 -26
-59 -6 0 -8 4 -4 9 3 5 -4 13 -16 16 -13 5 -17 10 -11 14 7 4 -2 12 -20 19
l-31 11 28 -29 c16 -16 25 -33 21 -37 -4 -5 -13 0 -20 10 -7 9 -18 17 -24 17
-6 0 -12 4 -14 9 -1 4 -13 12 -25 15 -17 6 -23 3 -23 -8 0 -16 -12 -21 -23 -9
-4 3 -3 11 3 17 6 8 3 12 -9 12 -21 0 -22 -23 -2 -36 8 -4 11 -12 7 -18 -3 -6
4 -18 16 -26 12 -9 19 -19 15 -22 -8 -8 -46 36 -47 54 0 6 -7 12 -15 12 -14 0
-20 17 -16 48 1 7 -9 12 -23 12 -15 0 -26 7 -28 16 -3 14 -6 13 -21 -4z m17
-48 c3 -8 2 -12 -4 -9 -6 3 -10 10 -10 16 0 14 7 11 14 -7z m-24 -8 c0 -3 -4
-8 -10 -11 -5 -3 -10 -1 -10 4 0 6 5 11 10 11 6 0 10 -2 10 -4z m50 -16 c0 -5
-5 -10 -11 -10 -5 0 -7 5 -4 10 3 6 8 10 11 10 2 0 4 -4 4 -10z m-28 -64 c8
-15 3 -13 -16 7 -14 15 -26 31 -26 34 0 10 31 -20 42 -41z m63 34 c3 -5 2 -10
-4 -10 -5 0 -13 5 -16 10 -3 6 -2 10 4 10 5 0 13 -4 16 -10z m30 -20 c3 -5 1
-10 -4 -10 -6 0 -11 5 -11 10 0 6 2 10 4 10 3 0 8 -4 11 -10z m110 0 c3 -5 2
-10 -4 -10 -5 0 -13 5 -16 10 -3 6 -2 10 4 10 5 0 13 -4 16 -10z m85 -6 c0
-17 -22 -14 -28 4 -2 7 3 12 12 12 9 0 16 -7 16 -16z m-226 -39 c3 -8 1 -15
-4 -15 -6 0 -10 7 -10 15 0 8 2 15 4 15 2 0 6 -7 10 -15z m116 5 c0 -5 -7 -10
-16 -10 -8 0 -12 5 -9 10 3 6 10 10 16 10 5 0 9 -4 9 -10z m-40 -46 c0 -8 -7
-14 -15 -14 -15 0 -21 21 -9 33 10 9 24 -2 24 -19z"/>
<path d="M3272 3234 c10 -10 20 -15 24 -12 3 4 -5 12 -18 18 -22 12 -22 12 -6
-6z"/>
<path d="M3825 3219 c-4 -6 -5 -12 -2 -15 2 -3 7 2 10 11 7 17 1 20 -8 4z"/>
<path d="M2987 3142 c-21 -47 -21 -56 -4 -49 8 3 20 1 28 -4 11 -7 9 -9 -7 -9
-12 0 -25 -7 -28 -16 -8 -22 -9 -21 21 -29 34 -8 55 -24 47 -36 -9 -16 3 -10
17 8 8 10 9 14 2 10 -6 -4 -14 -3 -18 3 -3 5 3 10 14 10 11 0 22 4 25 9 4 5
-4 7 -16 4 -23 -4 -23 -4 2 17 l24 21 8 -20 c4 -12 10 -21 12 -21 3 0 3 7 0
15 -4 8 -1 15 5 15 6 0 11 -4 11 -10 0 -5 5 -10 10 -10 25 0 6 21 -37 41 -33
15 -43 23 -30 26 29 7 19 27 -23 46 -22 9 -41 17 -43 17 -2 0 -11 -17 -20 -38z
m90 -7 c5 -4 -3 -4 -16 0 -20 6 -23 4 -18 -9 4 -11 3 -15 -4 -11 -5 4 -16 2
-24 -5 -9 -7 -15 -8 -20 0 -3 5 1 10 11 10 12 0 14 3 6 13 -9 10 -3 12 24 12
18 -1 37 -5 41 -10z m-15 -52 c-6 -2 -10 -9 -6 -14 3 -5 1 -9 -5 -9 -5 0 -12
4 -15 9 -6 9 10 19 29 19 6 0 4 -2 -3 -5z"/>
<path d="M3810 3171 c0 -5 5 -13 10 -16 6 -3 10 -2 10 4 0 5 -4 13 -10 16 -5
3 -10 2 -10 -4z"/>
<path d="M3753 3147 c-65 -48 -129 -114 -130 -135 -1 -11 5 -26 13 -33 11 -9
14 -9 14 2 1 24 30 -23 30 -47 0 -13 5 -26 10 -29 6 -3 10 1 10 9 0 8 5 18 12
22 11 7 9 -7 -7 -51 -7 -17 -6 -18 6 -7 11 10 16 7 31 -20 16 -30 17 -31 18
-9 0 27 25 50 55 51 11 0 29 8 40 17 20 15 20 15 -3 10 -19 -5 -21 -3 -11 9 7
8 19 12 26 10 11 -5 13 0 8 17 -6 18 -5 20 6 10 14 -14 30 -17 28 -5 -5 29 2
34 22 16 32 -28 -41 71 -98 134 l-48 53 -32 -24z m52 -16 c-3 -3 -10 1 -15 9
-8 13 -10 13 -10 1 0 -8 -3 -12 -6 -8 -3 3 -3 11 1 17 5 8 11 8 21 -1 8 -6 12
-14 9 -18z m15 -17 c0 -8 -19 -13 -24 -6 -3 5 1 9 9 9 8 0 15 -2 15 -3z m45
-54 c3 -6 -1 -7 -9 -4 -18 7 -21 14 -7 14 6 0 13 -4 16 -10z m22 -17 c-4 -3 1
-12 11 -20 15 -13 15 -13 -6 -3 -19 9 -23 30 -5 30 4 0 3 -3 0 -7z m-122 -23
c3 -5 1 -10 -4 -10 -6 0 -11 5 -11 10 0 6 2 10 4 10 3 0 8 -4 11 -10z"/>
<path d="M3103 3121 c-10 -15 -9 -20 2 -25 8 -3 17 -1 20 4 4 6 11 10 16 10 6
0 7 -4 4 -10 -3 -5 -2 -10 3 -10 20 0 20 28 1 33 -10 3 -19 0 -20 -6 0 -7 -4
-4 -7 5 -7 17 -8 17 -19 -1z"/>
<path d="M4288 3114 c3 -19 7 -22 13 -12 13 20 11 38 -5 38 -9 0 -12 -8 -8
-26z"/>
<path d="M4220 3079 c0 -5 5 -7 10 -4 6 3 10 8 10 11 0 2 -4 4 -10 4 -5 0 -10
-5 -10 -11z"/>
<path d="M3200 3070 c0 -5 5 -10 11 -10 5 0 7 5 4 10 -3 6 -8 10 -11 10 -2 0
-4 -4 -4 -10z"/>
<path d="M3152 3044 c-7 -8 -8 -14 -3 -14 10 0 25 19 20 25 -2 1 -10 -3 -17
-11z"/>
<path d="M4530 3020 c0 -5 5 -10 11 -10 5 0 7 5 4 10 -3 6 -8 10 -11 10 -2 0
-4 -4 -4 -10z"/>
<path d="M3601 3006 c-7 -8 -8 -17 -3 -20 6 -3 12 3 15 14 6 24 4 25 -12 6z"/>
<path d="M3343 2997 c-11 -5 -26 -20 -34 -33 -7 -13 -21 -24 -31 -24 -10 0
-18 -7 -18 -16 0 -8 -4 -13 -8 -10 -12 7 -80 -13 -88 -26 -4 -7 -3 -8 4 -4 7
4 12 3 12 -2 0 -6 -7 -13 -16 -16 -8 -3 -12 -2 -9 4 3 6 1 10 -5 10 -7 0 -14
-9 -17 -19 -3 -12 -17 -23 -33 -26 -21 -5 -27 -11 -23 -22 5 -12 1 -14 -17 -8
-14 5 -20 3 -16 -3 3 -6 2 -21 -3 -34 -6 -12 -10 -17 -10 -9 -1 11 -4 11 -16
1 -20 -17 -11 -28 20 -22 14 2 25 0 25 -7 0 -5 6 -8 14 -5 7 3 16 -2 20 -12 5
-13 9 -14 21 -4 12 10 15 10 15 -3 0 -15 28 -26 70 -27 14 0 34 -7 44 -15 11
-8 33 -15 49 -15 21 0 28 -4 24 -14 -4 -10 -1 -13 9 -9 10 4 12 9 6 15 -11 11
-4 48 8 48 5 0 10 -9 12 -21 l3 -20 21 20 c12 11 25 17 28 14 3 -4 6 1 6 10 0
9 4 18 9 21 5 4 6 -9 1 -28 -5 -21 -3 -39 3 -45 7 -7 5 -12 -6 -17 -18 -7 -24
-34 -7 -34 6 0 10 -5 10 -11 0 -5 -4 -8 -9 -5 -5 4 -7 -3 -4 -14 3 -11 9 -18
13 -15 5 3 15 -1 22 -9 8 -7 24 -17 36 -20 12 -4 22 -11 22 -15 0 -4 13 -21
30 -37 16 -16 30 -33 30 -37 0 -5 -16 7 -36 27 -21 21 -43 35 -50 32 -8 -3
-11 0 -8 8 6 15 -22 30 -37 20 -6 -3 -7 -27 -4 -52 l5 -47 -15 55 c-9 30 -21
58 -28 62 -9 6 -8 8 2 8 8 0 11 3 8 6 -4 4 -13 1 -21 -5 -9 -7 -21 -9 -28 -5
-7 5 -22 10 -33 12 -19 2 -19 2 -1 -11 16 -12 15 -13 -11 -12 -15 0 -29 6 -29
13 -1 6 -2 16 -3 21 -3 22 -42 19 -122 -8 -126 -43 -151 -56 -189 -97 -30 -31
-32 -36 -13 -32 14 4 20 2 17 -6 -2 -6 -13 -12 -24 -12 -10 0 -16 4 -14 8 3 4
3 8 -1 8 -13 0 -134 -130 -126 -135 5 -2 11 2 15 10 3 8 11 15 17 15 8 0 8 -4
-1 -15 -13 -16 -17 -14 112 -61 51 -19 72 -22 87 -14 14 7 21 6 25 -3 5 -9 7
-9 12 0 3 7 11 10 18 7 6 -2 29 2 49 11 41 17 57 19 57 6 0 -5 -12 -12 -27
-16 -53 -13 -204 -86 -198 -95 2 -4 -4 -6 -13 -6 -9 1 -17 -2 -17 -5 0 -3 -7
-14 -15 -24 -14 -16 -13 -17 6 -11 12 3 32 2 45 -3 16 -7 18 -10 7 -10 -9 -1
-18 -4 -21 -8 -2 -5 -2 -2 -1 5 2 6 1 12 -1 12 -3 0 -15 -6 -28 -12 -12 -7
-23 -14 -25 -15 -11 -5 22 -43 36 -43 16 1 16 2 0 14 -23 17 -23 30 1 23 10
-2 26 0 35 5 12 7 18 4 25 -14 6 -13 10 -17 10 -10 1 9 11 11 36 6 30 -5 34
-4 29 10 -5 13 1 15 48 10 49 -5 52 -4 33 10 -19 14 -18 15 13 6 31 -8 87 -6
124 6 11 3 15 11 11 22 -5 16 -4 16 11 1 16 -14 24 -15 79 -3 34 7 74 13 90
14 15 0 27 5 27 11 0 6 9 8 22 3 21 -6 22 -5 8 12 -11 15 -11 16 0 7 17 -16
54 -17 44 -2 -5 8 -1 8 14 0 26 -14 35 -14 26 0 -4 8 0 9 15 4 15 -4 21 -3 19
7 -2 9 8 13 34 12 29 0 35 3 27 13 -8 9 -7 17 4 28 19 19 34 20 18 1 -13 -15
0 -30 36 -38 15 -4 20 -2 17 7 -3 7 -14 11 -25 8 -21 -6 -25 7 -7 25 6 6 10
14 7 16 -12 11 -269 89 -304 92 -36 3 -64 -2 -120 -21 -11 -3 -2 4 20 16 22
12 51 30 63 40 19 14 26 16 37 6 7 -7 11 -14 10 -17 -4 -7 344 -119 392 -127
33 -6 46 9 21 21 -7 4 -3 4 10 2 12 -2 20 0 16 5 -3 5 -16 9 -30 9 -30 0 -31
16 -1 26 27 9 68 6 84 -7 7 -7 14 -6 18 1 3 6 11 7 17 4 7 -4 8 -2 4 4 -4 6
-13 9 -21 5 -8 -3 -15 0 -15 6 0 6 12 16 28 22 24 9 25 11 9 20 -9 6 -15 15
-11 20 6 10 36 -23 47 -51 3 -9 6 -5 6 11 1 15 -6 32 -14 39 -8 7 -15 17 -15
24 0 6 11 -1 25 -16 14 -15 25 -34 25 -43 0 -23 20 -14 38 16 12 21 12 22 -1
7 -19 -23 -31 -23 -24 1 4 18 -23 51 -43 51 -13 0 -53 40 -47 46 3 3 12 -2 21
-11 9 -9 16 -14 16 -11 0 2 29 -10 64 -28 47 -24 63 -29 58 -17 -3 9 -12 21
-20 27 -10 7 -12 13 -4 18 6 3 19 -2 29 -13 18 -19 18 -19 18 5 0 17 -4 23
-14 19 -12 -5 -12 -3 0 12 12 15 12 16 -4 10 -15 -6 -16 -4 -7 14 12 22 57 23
53 1 -2 -7 8 -12 22 -12 28 0 34 -17 8 -22 -16 -3 -16 -4 -1 -10 12 -5 27 9
59 54 35 51 40 63 28 72 -8 7 -13 24 -11 44 2 19 -1 32 -8 32 -24 0 -40 29
-35 60 6 33 -1 34 -38 2 -9 -8 -20 -12 -24 -8 -7 6 6 19 32 30 6 3 3 9 -5 15
-11 8 -18 7 -27 -5 -7 -10 -17 -13 -25 -8 -26 17 -50 15 -46 -3 2 -10 -3 -24
-12 -31 -13 -10 -12 -11 4 -5 14 5 17 3 11 -7 -5 -8 -4 -11 3 -6 6 3 13 2 16
-3 4 -5 1 -13 -6 -17 -8 -5 -6 -10 8 -15 17 -7 17 -8 -3 -8 -24 -1 -29 -16
-14 -39 6 -11 11 -10 25 3 9 9 16 20 16 25 0 5 14 16 32 24 37 19 38 19 38 6
0 -5 -7 -10 -16 -10 -9 0 -31 -16 -48 -35 -28 -30 -37 -34 -64 -29 -18 4 -32
13 -32 20 0 8 -7 14 -15 14 -21 0 -19 20 3 21 15 0 15 1 -2 8 -11 4 -22 15
-26 25 -5 16 -9 16 -38 -9 -18 -15 -30 -31 -27 -36 4 -5 -1 -6 -10 -3 -8 4
-20 15 -26 25 -6 12 -15 17 -22 12 -7 -4 -5 2 3 13 22 29 23 30 18 14 -3 -8 1
-20 8 -27 19 -19 26 -16 14 6 -7 13 -7 22 0 26 5 3 10 13 10 21 0 10 -4 12
-12 7 -12 -7 -58 -12 -58 -7 0 2 7 10 16 18 14 15 14 16 0 16 -9 0 -16 5 -16
11 0 5 -5 7 -11 3 -8 -4 -7 -9 2 -15 9 -5 5 -10 -13 -14 -32 -8 -49 0 -41 20
3 8 1 15 -5 15 -6 0 -9 -8 -7 -17 2 -10 4 -21 4 -25 1 -5 8 -8 17 -8 8 0 12
-4 9 -10 -11 -17 -22 -11 -35 20 -11 27 -30 41 -30 23 0 -11 -52 -10 -70 2
-12 7 -11 3 3 -18 48 -74 50 -81 14 -42 -20 22 -36 44 -37 48 0 5 -5 5 -12 1
-7 -4 -8 -3 -4 4 10 16 -12 54 -26 46 -7 -4 -8 -3 -4 4 9 15 -76 144 -91 138
-7 -3 -10 1 -6 10 9 24 -33 16 -45 -8 -9 -19 -11 -20 -11 -5 -1 10 3 27 9 37
8 16 6 18 -15 15 -19 -2 -23 1 -15 10 7 8 -1 16 -28 29 l-37 17 25 -21 25 -21
-34 16 c-18 9 -30 12 -27 6 4 -6 2 -19 -3 -28 -6 -10 -11 -12 -11 -5 0 6 -8
20 -18 30 -14 14 -24 16 -39 9z m293 -207 c0 -12 -4 -16 -9 -11 -5 5 -6 14 -3
20 10 15 12 14 12 -9z m-193 -45 c-3 -9 -8 -14 -10 -11 -3 3 -2 9 2 15 9 16
15 13 8 -4z m735 -61 c2 -1 -4 -4 -13 -8 -9 -3 -13 -2 -10 4 3 6 1 10 -4 10
-6 0 -11 5 -11 11 0 8 6 7 18 -2 9 -7 18 -14 20 -15z m-383 5 c11 -16 1 -19
-13 -3 -7 8 -8 14 -3 14 5 0 13 -5 16 -11z m105 -9 c0 -5 -2 -10 -4 -10 -3 0
-8 5 -11 10 -3 6 -1 10 4 10 6 0 11 -4 11 -10z m10 -30 c0 -5 -2 -10 -4 -10
-3 0 -8 5 -11 10 -3 6 -1 10 4 10 6 0 11 -4 11 -10z m-37 -104 c11 4 32 17 46
30 30 28 37 29 44 10 4 -11 1 -13 -10 -9 -12 5 -14 3 -8 -8 4 -8 4 -11 0 -6
-10 9 -47 -22 -39 -34 3 -5 0 -9 -5 -9 -6 0 -11 -5 -11 -11 0 -6 9 -8 23 -4
15 4 18 3 9 -3 -11 -7 -7 -14 15 -31 17 -13 20 -18 7 -12 -11 5 -32 8 -45 5
-13 -2 -18 -2 -11 2 26 12 11 26 -27 22 -33 -3 -40 0 -54 25 -16 26 -16 27 3
17 29 -15 26 8 -5 50 -37 50 -30 51 11 2 28 -33 41 -41 57 -36z m417 44 c-19
-13 -30 -13 -30 0 0 6 10 10 23 10 18 0 19 -2 7 -10z m-85 -36 c-9 -9 -19 -13
-23 -10 -3 4 0 11 8 16 24 15 33 11 15 -6z m-998 -14 c1 -11 -2 -22 -6 -25 -5
-2 -8 7 -8 20 0 30 12 34 14 5z m1048 10 c-3 -5 -10 -10 -16 -10 -5 0 -9 5 -9
10 0 6 7 10 16 10 8 0 12 -4 9 -10z m-245 -6 c0 -3 -7 -12 -15 -20 -9 -10 -15
-11 -15 -4 0 6 -6 10 -12 7 -7 -2 -12 -10 -10 -16 1 -6 -2 -11 -8 -11 -15 0
-12 16 6 34 15 15 54 22 54 10z m300 -14 c0 -5 -7 -10 -16 -10 -8 0 -12 5 -9
10 3 6 10 10 16 10 5 0 9 -4 9 -10z m-1140 -10 c0 -5 -5 -10 -11 -10 -5 0 -7
5 -4 10 3 6 8 10 11 10 2 0 4 -4 4 -10z m881 -2 c17 -10 23 -10 26 0 3 6 9 12
14 12 12 0 0 -27 -15 -33 -7 -3 -23 4 -37 14 -27 21 -20 25 12 7z m99 2 c0 -5
-5 -10 -11 -10 -5 0 -7 5 -4 10 3 6 8 10 11 10 2 0 4 -4 4 -10z m-475 -10 c3
-5 1 -10 -4 -10 -6 0 -11 5 -11 10 0 6 2 10 4 10 3 0 8 -4 11 -10z m558 0 c9
0 17 -4 17 -10 0 -14 -33 -13 -48 2 -9 9 -16 8 -30 -5 -10 -9 -22 -14 -25 -11
-11 12 27 34 48 29 11 -3 28 -5 38 -5z m-1103 -20 c0 -5 -2 -10 -4 -10 -3 0
-8 5 -11 10 -3 6 -1 10 4 10 6 0 11 -4 11 -10z m858 -15 c-3 -3 -9 2 -12 12
-6 14 -5 15 5 6 7 -7 10 -15 7 -18z m-540 -10 c-3 -3 -9 2 -12 12 -6 14 -5 15
5 6 7 -7 10 -15 7 -18z m379 -19 c1 -11 -1 -15 -4 -8 -3 6 -10 9 -15 6 -7 -4
-8 -2 -4 5 4 6 2 19 -6 28 -12 15 -11 15 7 3 12 -7 21 -22 22 -34z m-39 9 c-3
-3 -9 2 -12 12 -6 14 -5 15 5 6 7 -7 10 -15 7 -18z m297 15 c-3 -5 -12 -7 -20
-3 -21 7 -19 13 6 13 11 0 18 -4 14 -10z m-906 -9 c7 -5 9 -11 5 -14 -5 -3
-15 1 -22 9 -14 16 -5 18 17 5z m881 -11 c0 -5 -4 -10 -10 -10 -5 0 -10 5 -10
10 0 6 5 10 10 10 6 0 10 -4 10 -10z m50 0 c0 -5 -4 -10 -10 -10 -5 0 -10 5
-10 10 0 6 5 10 10 10 6 0 10 -4 10 -10z m-1033 -22 c-3 -8 -6 -5 -6 6 -1 11
2 17 5 13 3 -3 4 -12 1 -19z m648 12 c3 -5 -1 -10 -10 -10 -9 0 -13 5 -10 10
3 6 8 10 10 10 2 0 7 -4 10 -10z m40 1 c3 -5 1 -12 -5 -16 -5 -3 -10 1 -10 9
0 18 6 21 15 7z m-265 -11 c0 -5 -4 -10 -10 -10 -5 0 -10 5 -10 10 0 6 5 10
10 10 6 0 10 -4 10 -10z m480 -20 c0 -5 -4 -10 -10 -10 -5 0 -10 5 -10 10 0 6
5 10 10 10 6 0 10 -4 10 -10z m130 0 c0 -5 -5 -10 -11 -10 -5 0 -7 5 -4 10 3
6 8 10 11 10 2 0 4 -4 4 -10z m-775 -20 c3 -5 1 -10 -4 -10 -6 0 -11 5 -11 10
0 6 2 10 4 10 3 0 8 -4 11 -10z m102 -12 c-3 -8 -6 -5 -6 6 -1 11 2 17 5 13 3
-3 4 -12 1 -19z m121 -13 c-3 -3 -9 2 -12 12 -6 14 -5 15 5 6 7 -7 10 -15 7
-18z m52 4 c0 -5 -4 -9 -8 -9 -5 0 -9 7 -9 15 0 8 4 12 9 9 4 -3 8 -9 8 -15z
m291 -26 c-9 -16 -10 -16 -11 -1 0 9 3 25 7 35 7 16 8 17 11 1 2 -10 -1 -25
-7 -35z m-995 15 c-1 -16 -7 -23 -21 -23 -18 0 -21 -6 -16 -35 0 -5 9 -10 19
-10 14 0 15 -2 2 -10 -9 -5 -17 -5 -21 1 -3 5 -14 7 -25 3 -15 -6 -17 -4 -7 6
6 7 9 18 7 24 -5 12 41 66 56 66 4 0 7 -10 6 -22z m884 5 c0 -14 -19 -38 -25
-32 -8 8 5 39 16 39 5 0 9 -3 9 -7z m-728 -25 c-7 -7 -12 -8 -12 -2 0 14 12
26 19 19 2 -3 -1 -11 -7 -17z m918 -10 c0 -4 -4 -8 -9 -8 -6 0 -12 4 -15 8 -3
5 1 9 9 9 8 0 15 -4 15 -9z m-213 -24 c-7 -7 -37 7 -37 17 0 6 9 5 21 -1 11
-7 19 -14 16 -16z m173 11 c0 -8 -7 -15 -15 -15 -26 0 -18 20 13 29 1 1 2 -6
2 -14z m-91 -39 c-3 -3 -11 5 -18 17 -13 21 -12 21 5 5 10 -10 16 -20 13 -22z
m-49 14 c0 -5 -2 -10 -4 -10 -3 0 -8 5 -11 10 -3 6 -1 10 4 10 6 0 11 -4 11
-10z m-30 -20 c0 -5 -5 -10 -11 -10 -5 0 -7 5 -4 10 3 6 8 10 11 10 2 0 4 -4
4 -10z m50 -9 c0 -5 9 -13 20 -16 11 -3 20 -10 20 -15 0 -11 -30 -1 -47 16
-16 15 -17 24 -3 24 6 0 10 -4 10 -9z m-695 -81 c-3 -5 -12 -10 -18 -10 -7 0
-6 4 3 10 19 12 23 12 15 0z m370 -50 c3 -6 -1 -7 -9 -4 -18 7 -21 14 -7 14 6
0 13 -4 16 -10z m-38 -6 c-3 -3 -12 -4 -19 -1 -8 3 -5 6 6 6 11 1 17 -2 13 -5z
m-347 -35 c0 -3 -16 -11 -35 -19 -25 -10 -31 -16 -23 -23 10 -6 9 -7 -2 -4 -8
2 -15 9 -15 15 0 5 -3 14 -7 18 -5 4 -8 0 -8 -9 0 -9 -4 -17 -10 -17 -15 0
-12 30 3 31 10 0 10 2 0 6 -7 2 -13 10 -13 16 0 6 11 0 25 -13 15 -14 25 -18
25 -11 0 7 6 11 14 8 9 -4 18 2 22 15 5 16 8 18 15 7 5 -8 9 -17 9 -20z"/>
<path d="M2923 2962 c-29 -4 -30 -28 -2 -42 23 -13 22 -13 37 17 13 24 3 31
-35 25z m12 -22 c3 -5 1 -10 -4 -10 -6 0 -11 5 -11 10 0 6 2 10 4 10 3 0 8 -4
11 -10z"/>
<path d="M2860 2950 c0 -6 -7 -10 -15 -10 -8 0 -15 -5 -15 -11 0 -6 -6 -9 -13
-6 -10 4 -13 -2 -9 -18 3 -16 -1 -25 -15 -28 -12 -4 -9 -5 7 -4 14 1 25 8 25
15 0 15 18 17 23 2 2 -6 -10 -16 -27 -23 -17 -6 -31 -15 -31 -18 0 -4 -7 -15
-16 -23 -8 -9 -11 -16 -6 -16 15 0 9 -25 -11 -45 -13 -13 -15 -20 -7 -30 6 -8
18 -11 26 -8 11 4 12 9 4 18 -8 10 -8 15 1 21 8 5 9 3 4 -6 -5 -9 -4 -11 4 -6
6 4 9 12 6 17 -4 5 1 9 10 9 9 0 14 -4 11 -8 -2 -4 4 -8 14 -8 10 0 16 4 14 8
-3 4 2 8 10 8 8 0 22 7 30 16 9 8 16 11 16 5 0 -6 4 -11 8 -11 5 0 9 6 9 13 0
7 -14 12 -34 13 -28 1 -31 -1 -20 -14 10 -13 9 -14 -9 -2 -22 14 -22 15 14 55
6 7 12 21 12 29 0 9 5 16 10 16 6 0 10 -4 10 -10 0 -5 7 -10 15 -10 27 0 16
-19 -12 -22 -18 -2 -29 -10 -31 -22 -3 -11 0 -16 7 -11 6 3 9 10 6 14 -2 5 6
6 19 4 18 -4 26 0 31 16 3 12 11 19 16 16 8 -6 13 8 10 28 0 4 6 7 14 7 8 0
15 5 15 10 0 6 -7 10 -15 10 -14 0 -19 -12 -16 -32 0 -5 -6 -8 -14 -8 -8 0
-15 5 -15 11 0 5 -4 7 -10 4 -5 -3 -10 -1 -10 5 0 6 -5 8 -10 5 -6 -4 -10 -3
-9 2 3 19 -2 31 -16 37 -8 3 -15 1 -15 -4z m-28 -112 c-7 -7 -12 -8 -12 -2 0
6 3 14 7 17 3 4 9 5 12 2 2 -3 -1 -11 -7 -17z m-2 -38 c8 -5 11 -12 7 -17 -5
-4 -12 -1 -16 6 -5 8 -14 10 -21 6 -9 -5 -11 -4 -6 3 9 14 16 15 36 2z"/>
<path d="M3580 2944 c0 -6 9 -20 20 -32 11 -12 20 -24 20 -27 0 -7 92 -145 96
-145 6 0 -3 56 -10 69 -4 6 -15 11 -24 11 -13 0 -14 2 -3 9 10 7 11 13 2 27
-6 11 -11 13 -11 6 0 -7 -4 -11 -10 -7 -5 3 -7 13 -4 23 4 12 3 13 -3 5 -6 -9
-18 -1 -41 29 -18 23 -32 37 -32 32z m130 -164 c0 -5 -2 -10 -4 -10 -3 0 -8 5
-11 10 -3 6 -1 10 4 10 6 0 11 -4 11 -10z"/>
<path d="M3040 2879 c0 -5 5 -7 10 -4 6 3 10 8 10 11 0 2 -4 4 -10 4 -5 0 -10
-5 -10 -11z"/>
<path d="M3790 2880 c0 -13 11 -13 30 0 12 8 11 10 -7 10 -13 0 -23 -4 -23
-10z"/>
<path d="M3005 2870 c-3 -6 1 -7 9 -4 18 7 21 14 7 14 -6 0 -13 -4 -16 -10z"/>
<path d="M2946 2834 c-4 -9 -4 -19 -1 -22 3 -3 5 0 5 7 0 7 5 9 10 6 6 -3 10
-2 10 4 0 18 -18 21 -24 5z"/>
<path d="M4005 2820 c-3 -6 4 -9 19 -8 13 1 22 6 20 10 -7 11 -32 10 -39 -2z"/>
<path d="M4244 2815 c-18 -14 -18 -14 4 -8 12 3 22 9 22 14 0 12 -3 11 -26 -6z"/>
<path d="M2735 2780 c-3 -6 1 -7 9 -4 18 7 21 14 7 14 -6 0 -13 -4 -16 -10z"/>
<path d="M4195 2770 c-3 -5 -1 -10 4 -10 6 0 11 5 11 10 0 6 -2 10 -4 10 -3 0
-8 -4 -11 -10z"/>
<path d="M3860 2720 c0 -5 5 -10 10 -10 6 0 10 5 10 10 0 6 -4 10 -10 10 -5 0
-10 -4 -10 -10z"/>
<path d="M4328 2713 c6 -2 18 -2 25 0 6 3 1 5 -13 5 -14 0 -19 -2 -12 -5z"/>
<path d="M4091 2696 c-9 -11 -9 -16 1 -22 7 -4 10 -4 6 1 -4 4 -3 14 3 22 6 7
9 13 6 13 -2 0 -10 -6 -16 -14z"/>
<path d="M4285 2681 c-9 -15 7 -20 59 -18 46 2 47 2 19 14 -21 8 -31 8 -42 0
-12 -9 -13 -9 -7 1 4 7 2 12 -8 12 -8 0 -17 -4 -21 -9z"/>
<path d="M2654 2659 c-3 -6 -2 -15 2 -19 12 -12 38 5 30 19 -9 14 -23 14 -32
0z"/>
<path d="M3998 2663 c-10 -2 -18 -12 -18 -20 0 -14 3 -14 20 2 17 15 26 28 18
24 -2 -1 -11 -3 -20 -6z"/>
<path d="M2705 2650 c3 -5 10 -10 16 -10 5 0 9 5 9 10 0 6 -7 10 -16 10 -8 0
-12 -4 -9 -10z"/>
<path d="M2770 2636 c0 -2 8 -10 18 -17 15 -13 16 -12 3 4 -13 16 -21 21 -21
13z"/>
<path d="M2700 2619 c0 -5 -5 -7 -12 -3 -7 4 -8 3 -4 -4 4 -7 18 -12 32 -12
23 0 24 2 10 15 -17 18 -26 19 -26 4z"/>
<path d="M3027 2603 c-12 -11 25 -44 37 -34 7 6 17 6 26 -1 13 -8 12 -9 -2 -5
-9 3 -19 0 -21 -7 -4 -9 17 -6 71 11 42 13 78 25 79 27 2 2 -22 2 -52 2 -30
-1 -55 -4 -55 -7 0 -3 -17 -5 -37 -4 -23 1 -37 6 -35 13 2 13 -1 15 -11 5z"/>
<path d="M3366 2591 c-3 -5 0 -14 7 -19 10 -8 13 -6 14 9 2 19 -11 26 -21 10z"/>
<path d="M4430 2554 c0 -7 -6 -14 -12 -17 -7 -2 -10 -7 -7 -11 4 -4 18 4 32
18 22 22 22 24 6 23 -11 -1 -19 -7 -19 -13z"/>
<path d="M3024 2545 c8 -8 18 -15 22 -15 3 0 1 7 -6 15 -7 8 -17 15 -22 15 -5
0 -3 -7 6 -15z"/>
<path d="M2767 2529 c7 -7 15 -10 18 -7 3 3 -2 9 -12 12 -14 6 -15 5 -6 -5z"/>
<path d="M2955 2519 c-5 -8 -4 -10 3 -5 7 4 12 3 12 -3 0 -17 -22 -24 -31 -10
-7 11 -9 11 -9 1 0 -9 -8 -11 -22 -8 -15 4 -12 1 7 -9 26 -12 27 -20 3 -16 -5
0 -7 -3 -5 -8 1 -5 -11 -20 -28 -35 -16 -14 -27 -28 -24 -30 3 -3 32 21 64 54
43 43 56 63 48 71 -8 8 -13 7 -18 -2z"/>
<path d="M4303 2450 c-22 -38 -34 -66 -27 -63 8 3 14 10 14 15 0 6 6 8 14 5 8
-3 21 2 30 12 18 20 20 31 6 31 -5 0 -10 -7 -10 -15 0 -8 -7 -15 -15 -15 -22
0 -2 37 25 45 11 4 18 10 15 15 -3 5 2 10 10 12 13 2 13 5 -3 14 -16 10 -23 4
-59 -56z"/>
<path d="M2746 2485 c-17 -26 -12 -32 14 -15 8 5 11 10 5 10 -5 0 -4 4 4 9 8
5 9 11 3 15 -5 3 -17 -5 -26 -19z"/>
<path d="M4420 2495 c0 -8 5 -15 10 -15 6 0 10 7 10 15 0 8 -4 15 -10 15 -5 0
-10 -7 -10 -15z"/>
<path d="M2797 2413 c-4 -3 -7 -11 -7 -17 0 -6 5 -5 12 2 6 6 9 14 7 17 -3 3
-9 2 -12 -2z"/>
<path d="M4185 2400 c3 -5 8 -10 11 -10 2 0 4 5 4 10 0 6 -5 10 -11 10 -5 0
-7 -4 -4 -10z"/>
<path d="M2645 2369 c-4 -6 -5 -12 -2 -15 2 -3 7 2 10 11 7 17 1 20 -8 4z"/>
<path d="M4190 2370 c0 -5 5 -10 11 -10 5 0 7 5 4 10 -3 6 -8 10 -11 10 -2 0
-4 -4 -4 -10z"/>
<path d="M4325 2310 c-3 -5 -3 -14 0 -20 4 -6 -4 -6 -21 0 -19 7 -30 8 -36 0
-4 -5 -5 -8 -2 -6 3 3 17 1 30 -4 16 -7 35 -4 61 7 34 14 36 17 18 24 -28 11
-43 11 -50 -1z"/>
<path d="M2836 2235 c18 -15 18 -15 -8 -9 -15 3 -35 1 -45 -6 -17 -11 -17 -11
1 -6 20 7 76 -13 76 -27 0 -4 -10 -2 -22 4 -17 9 -23 9 -26 0 -2 -6 -9 -8 -14
-5 -7 4 -8 2 -4 -4 4 -7 14 -12 22 -12 8 0 14 -8 14 -17 0 -16 -2 -16 -11 -3
-8 12 -10 12 -7 1 5 -18 48 -22 48 -4 0 17 19 17 26 -1 4 -11 12 -12 35 -4 16
5 29 15 29 20 0 7 -5 6 -14 -1 -10 -9 -15 -8 -19 2 -5 14 29 18 48 5 6 -3 18
0 28 7 16 11 8 16 -68 44 -95 34 -118 39 -89 16z m61 -21 c-3 -3 -12 -4 -19
-1 -8 3 -5 6 6 6 11 1 17 -2 13 -5z"/>
<path d="M2685 2181 c-3 -5 -1 -12 5 -16 5 -3 10 1 10 9 0 18 -6 21 -15 7z"/>
<path d="M3670 2129 c0 -5 5 -7 10 -4 6 3 10 8 10 11 0 2 -4 4 -10 4 -5 0 -10
-5 -10 -11z"/>
<path d="M3590 2110 c0 -5 5 -10 11 -10 5 0 7 5 4 10 -3 6 -8 10 -11 10 -2 0
-4 -4 -4 -10z"/>
<path d="M2885 2097 c-15 -12 -16 -15 -4 -22 8 -5 11 -5 7 0 -4 4 0 14 10 21
23 18 11 18 -13 1z"/>
<path d="M3485 2094 c-33 -8 -75 -16 -92 -18 -37 -3 -48 -10 -38 -25 9 -15 75
-9 75 7 0 6 6 13 13 14 35 4 43 3 50 -7 5 -6 6 -2 3 9 -4 12 -2 17 7 13 7 -3
24 1 38 9 29 16 21 16 -56 -2z"/>
<path d="M2838 2083 c-19 -5 -22 -12 -10 -29 5 -9 10 -9 17 0 9 11 19 38 13
35 -2 -1 -11 -3 -20 -6z"/>
<path d="M3296 2057 c-17 -12 -17 -14 -2 -20 9 -4 16 -2 16 4 0 6 9 5 23 -2
22 -12 22 -12 3 10 -23 25 -18 24 -40 8z"/>
<path d="M2856 2042 c-4 -7 -3 -12 3 -12 6 0 8 -8 4 -17 -7 -19 -5 -18 17 11
8 11 10 17 3 13 -6 -4 -13 -2 -15 5 -3 9 -6 9 -12 0z"/>
<path d="M3248 2028 c2 -10 6 -18 7 -18 1 0 5 8 7 18 3 11 0 19 -7 19 -7 0
-10 -8 -7 -19z"/>
<path d="M3155 2033 c-20 -5 -35 -21 -35 -37 0 -6 6 -1 14 9 8 12 19 16 31 11
10 -3 24 -1 31 5 10 8 14 8 14 0 0 -6 5 -11 10 -11 16 0 11 17 -7 25 -10 3
-19 1 -21 -4 -2 -6 -8 -11 -13 -11 -6 0 -7 5 -4 10 3 6 5 9 3 9 -2 -1 -12 -4
-23 -6z"/>
<path d="M3080 2010 c-8 -5 -12 -12 -9 -15 4 -3 12 1 19 10 14 17 11 19 -10 5z"/>
<path d="M2990 1989 c0 -5 5 -7 10 -4 6 3 10 8 10 11 0 2 -4 4 -10 4 -5 0 -10
-5 -10 -11z"/>
<path d="M2639 2518 c0 -2 -2 -13 -3 -25 -3 -30 8 -29 22 2 10 21 9 25 -3 25
-8 0 -15 -1 -16 -2z"/>
<path d="M4368 1993 c7 -3 16 -2 19 1 4 3 -2 6 -13 5 -11 0 -14 -3 -6 -6z"/>
<path d="M2629 2123 c-13 -16 -12 -17 4 -4 16 13 21 21 13 21 -2 0 -10 -8 -17
-17z"/>
<path d="M1670 1879 c0 -5 5 -7 10 -4 6 3 10 8 10 11 0 2 -4 4 -10 4 -5 0 -10
-5 -10 -11z"/>
<path d="M4188 1813 c7 -3 16 -2 19 1 4 3 -2 6 -13 5 -11 0 -14 -3 -6 -6z"/>
<path d="M2988 1583 c7 -3 16 -2 19 1 4 3 -2 6 -13 5 -11 0 -14 -3 -6 -6z"/>
<path d="M1403 929 c-5 -4 -17 -9 -28 -11 -15 -3 -16 -5 -5 -9 8 -3 38 2 65
12 l50 16 -37 0 c-21 -1 -41 -4 -45 -8z"/>
<path d="M1340 900 c8 -5 20 -10 25 -10 6 0 3 5 -5 10 -8 5 -19 10 -25 10 -5
0 -3 -5 5 -10z"/>
<path d="M1280 880 c13 -8 12 -10 -5 -11 -11 -1 -26 -1 -34 0 -7 2 -10 -2 -6
-8 3 -6 1 -11 -6 -11 -7 0 -10 -2 -7 -5 2 -3 23 3 47 12 29 11 38 19 29 25 -7
4 -17 8 -23 8 -5 0 -3 -5 5 -10z"/>
<path d="M1146 821 c-4 -5 3 -7 14 -4 23 6 26 13 6 13 -8 0 -17 -4 -20 -9z"/>
<path d="M1055 785 c-25 -12 -26 -14 -5 -9 14 4 29 10 35 15 12 12 5 11 -30
-6z"/>
<path d="M793 685 c0 -8 4 -12 9 -9 5 3 6 10 3 15 -9 13 -12 11 -12 -6z"/>
<path d="M828 693 c7 -3 16 -2 19 1 4 3 -2 6 -13 5 -11 0 -14 -3 -6 -6z"/>
<path d="M748 683 c7 -3 16 -2 19 1 4 3 -2 6 -13 5 -11 0 -14 -3 -6 -6z"/>
<path d="M690 669 c-12 -8 -10 -9 9 -4 17 5 22 4 16 -5 -5 -9 -4 -11 3 -6 7 4
12 11 12 17 0 12 -21 11 -40 -2z"/>
<path d="M641 626 c-14 -8 -32 -11 -40 -8 -12 4 -13 2 -5 -7 8 -9 21 -7 55 8
24 12 37 21 29 20 -8 0 -26 -6 -39 -13z"/>
<path d="M510 590 c-18 -12 -2 -12 25 0 13 6 15 9 5 9 -8 0 -22 -4 -30 -9z"/>
<path d="M268 503 c7 -3 16 -2 19 1 4 3 -2 6 -13 5 -11 0 -14 -3 -6 -6z"/>
<path d="M2941 54 c0 -11 3 -14 6 -6 3 7 2 16 -1 19 -3 4 -6 -2 -5 -13z"/>
</g>
</svg>
