<?xml version="1.0" standalone="no"?>
<!DOCTYPE svg PUBLIC "-//W3C//DTD SVG 20010904//EN"
 "http://www.w3.org/TR/2001/REC-SVG-20010904/DTD/svg10.dtd">
<svg version="1.0" xmlns="http://www.w3.org/2000/svg"
 width="592.000000pt" height="592.000000pt" viewBox="0 0 592.000000 592.000000"
 preserveAspectRatio="xMidYMid meet">

<g transform="translate(0.000000,592.000000) scale(0.100000,-0.100000)"
fill="#000000" stroke="none">
<path d="M0 2960 l0 -2960 2960 0 2960 0 0 2960 0 2960 -2960 0 -2960 0 0
-2960z m3026 1646 c17 -13 21 -12 37 2 14 12 20 13 30 3 9 -9 7 -13 -11 -18
-17 -4 -21 -10 -16 -22 37 -85 -8 -172 -92 -174 -67 -2 -114 46 -114 119 0 52
53 104 107 104 22 0 48 -6 59 -14z m-1229 -334 c-19 -21 -23 -42 -5 -24 26 26
27 10 1 -25 -15 -21 -28 -40 -30 -42 -2 -2 -6 -1 -10 2 -3 4 2 17 13 29 10 12
13 18 5 13 -19 -11 -3 36 18 52 23 18 27 16 8 -5z m2303 -24 c0 -18 -4 -39 -9
-47 -13 -20 -28 13 -23 50 6 41 32 38 32 -3z m-2352 -48 c-14 -22 -24 -19 -15
5 4 8 11 15 17 15 6 0 6 -7 -2 -20z m-131 -27 c-3 -10 -5 -4 -5 12 0 17 2 24
5 18 2 -7 2 -21 0 -30z m2623 23 c0 -3 -13 -18 -30 -34 -16 -17 -30 -41 -30
-54 0 -28 -8 -39 -37 -55 -20 -12 -26 -9 -56 21 -33 32 -34 33 -43 12 -9 -21
-26 -25 -32 -8 -2 6 5 12 15 15 14 4 13 5 -4 6 -13 0 -23 6 -23 11 0 6 25 10
55 10 30 0 55 -4 55 -10 0 -5 -8 -10 -17 -11 -10 0 -5 -5 11 -9 17 -6 36 -5
45 0 13 8 12 9 -6 10 -13 0 -23 4 -23 9 0 5 10 12 23 14 19 4 18 4 -5 6 -35 1
-37 21 -2 21 14 0 39 11 56 25 27 23 48 32 48 21z m80 -22 c0 -8 -4 -14 -10
-14 -5 0 -10 9 -10 21 0 11 5 17 10 14 6 -3 10 -13 10 -21z m-2552 -38 c4 -30
8 -30 80 -10 16 5 22 2 22 -10 0 -14 7 -13 43 9 24 14 47 25 51 25 4 0 6 -26
4 -57 l-3 -58 -122 -3 -123 -3 0 39 c0 66 11 103 29 100 9 -2 17 -15 19 -32z
m2360 27 c-26 -2 -71 -2 -100 0 -29 2 -8 3 47 3 55 0 79 -1 53 -3z m-93 -23
c4 -6 -5 -10 -19 -10 -14 0 -26 5 -26 10 0 6 9 10 19 10 11 0 23 -4 26 -10z
m65 0 c0 -5 -11 -10 -25 -10 -14 0 -25 5 -25 10 0 6 11 10 25 10 14 0 25 -4
25 -10z m-570 -70 c-18 -12 -30 -13 -30 -2 0 4 10 9 22 9 18 2 20 0 8 -7z
m546 -1 c10 -17 -13 -36 -27 -22 -12 12 -4 33 11 33 5 0 12 -5 16 -11z m-269
-13 c-3 -8 1 -20 9 -27 8 -6 12 -14 9 -17 -9 -9 -33 31 -28 45 3 7 7 13 10 13
3 0 3 -6 0 -14z m-1687 -29 c0 -2 -10 -12 -22 -23 l-23 -19 19 23 c18 21 26
27 26 19z m214 -48 c-8 -14 -24 -10 -24 6 0 9 6 12 15 9 8 -4 12 -10 9 -15z
m681 -49 c-3 -5 -13 -10 -21 -10 -8 0 -14 5 -14 10 0 6 9 10 21 10 11 0 17 -4
14 -10z m0 -55 c-25 -9 -107 -12 -94 -4 8 5 34 8 59 8 25 0 41 -2 35 -4z m68
-12 c-7 -2 -21 -2 -30 0 -10 3 -4 5 12 5 17 0 24 -2 18 -5z m212 -11 c-3 -3
-11 0 -18 7 -9 10 -8 11 6 5 10 -3 15 -9 12 -12z m-71 -26 c46 -18 106 -48
132 -67 116 -78 233 -226 279 -352 10 -26 20 -46 22 -43 7 7 -42 122 -78 183
-19 31 -61 86 -93 122 l-60 66 57 -55 c72 -69 131 -157 174 -263 30 -75 33
-78 27 -37 -3 25 -21 77 -39 115 -31 67 -50 94 -123 177 -19 21 -32 43 -30 50
8 22 118 -125 164 -217 49 -100 69 -170 80 -275 l7 -71 -87 3 c-47 2 -86 6
-86 11 0 4 0 22 0 41 0 25 5 35 20 39 11 3 20 1 20 -4 0 -5 4 -9 9 -9 9 0 2
39 -20 123 -5 21 -14 35 -19 32 -4 -3 -6 5 -3 17 4 19 3 20 -7 8 -9 -12 -10
-11 -5 8 8 30 -49 123 -129 211 -58 63 -32 45 42 -29 23 -24 20 -18 -11 20
-48 58 -103 110 -117 110 -5 0 -10 4 -12 8 -5 13 -118 73 -128 67 -4 -3 -10
-2 -12 2 -1 5 -19 16 -38 25 -59 28 -24 20 64 -16z m167 -19 c30 -19 63 -45
74 -58 l20 -24 -25 21 c-14 12 -35 25 -47 29 -13 3 -23 10 -23 14 0 4 -18 17
-40 30 -22 12 -40 25 -40 28 0 8 23 -3 81 -40z m249 23 c0 -5 -4 -10 -10 -10
-5 0 -10 5 -10 10 0 6 5 10 10 10 6 0 10 -4 10 -10z m-239 -77 c13 -16 12 -17
-3 -4 -17 13 -22 21 -14 21 2 0 10 -8 17 -17z m-40 -40 c13 -16 12 -17 -3 -4
-10 7 -18 15 -18 17 0 8 8 3 21 -13z m-101 -13 c0 -5 -4 -10 -10 -10 -5 0 -10
5 -10 10 0 6 5 10 10 10 6 0 10 -4 10 -10z m-267 -24 c4 -10 1 -13 -9 -9 -15
6 -19 23 -5 23 5 0 11 -7 14 -14z m867 -16 c0 -5 -2 -10 -4 -10 -3 0 -8 5 -11
10 -3 6 -1 10 4 10 6 0 11 -4 11 -10z m-1425 -40 c3 -5 1 -10 -4 -10 -6 0 -11
5 -11 10 0 6 2 10 4 10 3 0 8 -4 11 -10z m946 -135 c17 -24 39 -45 48 -48 11
-2 26 -34 43 -88 38 -118 40 -127 30 -133 -5 -3 -7 -17 -4 -31 2 -15 0 -25 -7
-25 -6 0 -11 11 -11 25 0 14 -4 25 -9 25 -5 0 -12 19 -16 43 -4 23 -18 69 -31
103 -13 33 -24 68 -24 77 0 9 -30 49 -67 89 -56 60 -61 67 -26 39 24 -18 57
-52 74 -76z m442 86 c3 -14 1 -18 -9 -14 -8 3 -14 11 -14 19 0 21 17 17 23 -5z
m-621 -43 c90 -57 162 -156 189 -262 6 -25 15 -46 20 -46 11 0 12 -3 -7 61
-27 91 -73 167 -143 232 -48 44 -54 53 -24 30 92 -65 158 -163 188 -278 17
-68 19 -105 5 -105 -5 0 -10 12 -10 26 0 14 -4 23 -9 20 -5 -3 -7 -15 -4 -26
4 -16 0 -20 -19 -20 -23 0 -26 5 -32 55 -8 67 -32 134 -57 157 -11 9 -19 21
-19 26 0 21 -56 77 -115 114 -33 21 -53 38 -45 38 13 0 13 1 0 11 -34 24 37
-4 82 -33z m278 -68 c0 -5 -4 -10 -10 -10 -5 0 -10 5 -10 10 0 6 5 10 10 10 6
0 10 -4 10 -10z m-990 -50 c-6 -11 -12 -20 -14 -20 -2 0 -2 9 1 20 3 11 9 20
15 20 5 0 4 -9 -2 -20z m1046 -37 c-10 -10 -19 5 -10 18 6 11 8 11 12 0 2 -7
1 -15 -2 -18z m-2526 -13 c0 -5 -4 -10 -10 -10 -5 0 -10 5 -10 10 0 6 5 10 10
10 6 0 10 -4 10 -10z m1920 0 c0 -5 -4 -10 -10 -10 -5 0 -10 5 -10 10 0 6 5
10 10 10 6 0 10 -4 10 -10z m-660 -40 c0 -5 -4 -10 -10 -10 -5 0 -10 5 -10 10
0 6 5 10 10 10 6 0 10 -4 10 -10z m-540 -30 c17 -23 19 -34 10 -47 -9 -16 -10
-16 -8 4 2 12 -8 33 -21 47 -14 14 -20 26 -13 26 6 0 20 -13 32 -30z m3030
-10 c5 -10 5 -22 -2 -31 -8 -11 -9 -11 -5 3 3 9 -4 29 -16 45 -15 20 -16 24
-4 14 10 -8 22 -22 27 -31z m-553 12 c-10 -10 -17 -29 -17 -43 0 -18 -2 -21
-9 -10 -10 16 3 50 23 63 19 13 20 9 3 -10z m296 11 c-13 -2 -35 -2 -50 0 -16
2 -5 4 22 4 28 0 40 -2 28 -4z m-3313 -7 c0 -2 -7 -9 -15 -16 -13 -11 -14 -10
-9 4 5 14 24 23 24 12z m2086 -17 c24 -12 44 -49 44 -79 0 -10 -10 -31 -23
-46 -19 -22 -34 -28 -80 -32 l-57 -4 0 -54 c0 -53 0 -54 -30 -54 l-30 0 0 139
c0 102 3 141 13 144 21 7 141 -3 163 -14z m-486 -9 c0 -18 -7 -20 -65 -20
l-65 0 0 -34 0 -35 53 -3 c45 -3 52 -6 55 -25 3 -22 0 -23 -52 -23 -49 0 -56
-2 -56 -20 0 -11 7 -20 15 -20 18 0 20 -16 3 -23 -7 -3 15 -6 50 -6 59 -1 62
-2 62 -26 0 -25 -1 -25 -90 -25 l-90 0 0 140 0 140 90 0 c83 0 90 -1 90 -20z
m225 14 c23 -9 48 -62 41 -90 -4 -13 -16 -32 -28 -43 l-21 -20 22 -52 c27 -66
27 -71 -5 -67 -21 2 -30 13 -48 57 -20 49 -24 54 -54 55 l-32 1 0 -57 c0 -58
0 -58 -30 -58 l-30 0 0 140 0 140 84 0 c46 0 92 -3 101 -6z m-482 -26 c-4 -19
-3 -20 6 -8 8 11 9 1 4 -37 -4 -34 -2 -58 6 -67 6 -7 9 -21 5 -30 -9 -25 16
-116 36 -128 10 -7 16 -17 13 -23 -6 -18 56 -95 112 -138 62 -47 149 -74 240
-76 90 -1 165 21 240 71 32 21 51 30 41 19 -21 -23 -9 -29 14 -8 8 6 7 3 -2
-8 -27 -33 -119 -83 -183 -100 -165 -42 -330 6 -444 131 -89 97 -127 200 -115
314 6 62 18 110 28 110 2 0 2 -10 -1 -22z m-353 -8 c0 -11 -4 -20 -10 -20 -5
0 -10 9 -10 20 0 11 5 20 10 20 6 0 10 -9 10 -20z m264 12 c2 -4 1 -14 -4 -22
-7 -11 -12 -12 -21 -3 -6 6 -8 16 -5 22 8 13 23 14 30 3z m-914 -112 c0 -49
-3 -90 -7 -90 -5 -1 -48 -2 -98 -3 l-90 -2 -3 58 -3 57 41 0 c35 0 40 3 40 23
0 35 19 47 72 47 l48 0 0 -90z m2941 70 c32 0 49 4 50 13 0 10 2 10 6 0 2 -7
13 -13 24 -13 16 0 19 -7 19 -48 0 -26 5 -53 12 -60 8 -8 8 -15 -2 -27 -13
-15 -40 -21 -40 -7 0 4 -39 7 -87 7 l-88 0 -3 62 c-3 59 -2 62 25 75 15 8 30
10 31 6 2 -4 26 -8 53 -8z m-3231 -41 c0 -31 -4 -48 -10 -44 -17 11 -12 95 7
95 2 0 3 -23 3 -51z m3460 0 c0 -31 -4 -48 -10 -44 -17 11 -12 95 7 95 2 0 3
-23 3 -51z m-1167 -12 c-8 -13 -23 3 -23 26 0 20 0 20 14 2 8 -11 12 -23 9
-28z m-1165 -12 c19 -4 32 -12 32 -21 0 -9 -5 -12 -12 -8 -10 6 -10 5 -1 -8 7
-8 14 -27 15 -41 4 -49 12 -17 9 38 -3 71 15 71 24 0 3 -30 10 -55 14 -55 5 0
11 -15 14 -33 11 -68 68 -165 136 -230 104 -101 218 -149 351 -147 131 1 179
8 235 34 30 14 55 23 55 20 0 -3 -26 -17 -57 -31 -32 -14 -65 -32 -74 -40 -24
-20 -143 -31 -234 -22 -117 13 -243 77 -326 168 -59 64 -119 165 -133 225 -4
15 -9 26 -11 24 -3 -2 1 -22 7 -44 6 -21 10 -45 9 -53 -1 -8 2 -10 10 -5 9 5
10 2 6 -9 -3 -9 1 -18 10 -21 9 -4 13 -9 10 -12 -3 -4 -1 -12 6 -19 7 -6 23
-27 37 -45 14 -19 35 -43 48 -54 16 -15 19 -22 10 -28 -10 -6 -10 -8 0 -9 6
-1 17 -3 22 -4 6 -1 13 -3 18 -4 4 -1 1 -5 -7 -10 -11 -7 -6 -12 20 -18 19 -5
34 -15 34 -22 0 -6 7 -16 15 -21 12 -7 12 -12 2 -22 -6 -6 -12 -16 -12 -21 0
-5 9 1 20 14 l20 24 -10 -29 c-10 -27 -9 -28 7 -15 15 12 16 12 10 -3 -3 -10
-2 -18 2 -18 5 0 11 5 13 12 6 18 115 -31 121 -54 3 -12 14 -18 31 -18 14 0
26 -5 26 -11 0 -6 -7 -8 -16 -5 -9 3 -27 6 -40 6 -20 0 -25 4 -22 22 2 18 -4
24 -32 30 -54 13 -59 14 -59 4 1 -5 -5 -13 -13 -17 -8 -5 5 -7 31 -5 29 3 40
1 30 -5 -12 -7 -11 -9 3 -9 9 0 19 -4 23 -9 3 -6 -10 -5 -31 1 -20 5 -38 8
-40 5 -3 -2 24 -12 58 -23 46 -13 96 -18 183 -18 131 0 191 13 300 66 49 24
55 25 35 8 -20 -18 -15 -16 28 6 29 15 82 55 118 89 35 33 64 59 64 57 0 -2
-17 -24 -37 -49 -73 -89 -220 -175 -363 -212 -41 -11 -66 -20 -55 -20 17 -1
109 22 180 44 11 3 2 -3 -20 -15 -45 -24 -151 -50 -207 -50 -21 0 -38 -4 -38
-9 0 -6 15 -8 33 -6 17 2 59 7 92 10 65 6 147 30 213 64 23 12 42 19 42 16 0
-14 -131 -68 -217 -90 -319 -81 -648 50 -836 333 -72 109 -127 280 -127 395
l0 42 82 -2 c46 -2 98 -5 116 -8z m125 -52 c2 -32 17 -89 33 -128 22 -56 42
-84 98 -140 39 -39 93 -81 119 -94 118 -57 246 -66 362 -27 39 14 71 23 73 21
8 -8 -119 -47 -168 -52 -30 -3 -58 -11 -62 -17 -6 -8 -10 -8 -15 0 -5 6 -30
14 -56 17 -45 6 -176 53 -187 66 -3 4 -26 23 -51 44 -26 21 -59 55 -74 77 -15
22 -34 40 -42 40 -10 0 -12 6 -8 21 5 16 4 19 -5 14 -8 -5 -11 -4 -7 2 3 5 -3
38 -13 72 -21 65 -27 141 -11 141 4 0 11 -26 14 -57z m1591 1 c3 -8 12 -11 19
-8 8 3 17 -2 21 -11 3 -10 -1 -18 -11 -22 -10 -4 -19 -1 -21 6 -4 11 -6 11
-13 0 -7 -11 -9 -11 -9 2 0 9 -7 20 -16 23 -8 3 -13 10 -10 14 8 13 35 10 40
-4z m-2404 -39 c0 -14 -4 -25 -9 -25 -5 0 -8 11 -7 25 1 33 16 33 16 0z m2577
3 c-3 -8 -6 -5 -6 6 -1 11 2 17 5 13 3 -3 4 -12 1 -19z m-2506 -2 c17 10 9 -9
-17 -43 -14 -18 -30 -33 -36 -33 -6 0 -2 10 10 23 12 13 22 34 23 48 0 13 3
18 6 11 2 -6 9 -10 14 -6z m2456 -50 c4 -6 -2 -1 -14 13 -12 13 -19 31 -15 40
4 11 8 8 13 -13 4 -15 11 -33 16 -40z m-3040 40 c-3 -8 1 -20 9 -26 8 -7 14
-18 14 -24 -1 -6 -9 -1 -20 12 -16 20 -18 52 -3 52 3 0 3 -6 0 -14z m3593 -26
c-12 -22 -40 -45 -40 -33 0 6 9 18 19 27 11 10 17 25 14 34 -4 14 -3 15 5 3 7
-9 7 -21 2 -31z m-2923 -12 c-3 -8 -6 -5 -6 6 -1 11 2 17 5 13 3 -3 4 -12 1
-19z m143 -6 c0 -47 50 -202 92 -287 47 -94 110 -184 167 -240 45 -43 57 -38
14 7 -21 22 -23 28 -10 28 9 0 17 -3 17 -8 0 -4 11 -14 24 -22 l24 -15 -20
-25 -20 -25 -19 23 c-10 13 -23 21 -29 17 -17 -10 -11 -25 7 -18 11 4 14 3 9
-6 -4 -6 -3 -10 2 -9 6 2 10 0 11 -4 4 -29 -4 -28 -39 7 -40 39 -58 74 -21 41
38 -34 32 4 -7 52 -89 106 -149 223 -186 366 -35 133 -38 146 -26 146 5 0 10
-13 10 -28z m-40 -7 c0 -8 -9 -15 -20 -15 -22 0 -27 15 -7 23 21 9 27 7 27 -8z
m1105 -35 c3 -5 1 -10 -4 -10 -6 0 -11 5 -11 10 0 6 2 10 4 10 3 0 8 -4 11
-10z m611 -67 c-10 -10 -19 5 -10 18 6 11 8 11 12 0 2 -7 1 -15 -2 -18z
m-1759 5 c-22 -8 -26 -14 -22 -31 5 -18 4 -19 -4 -7 -16 22 -13 38 7 43 33 9
47 5 19 -5z m1103 -112 c0 -3 -4 -8 -10 -11 -5 -3 -10 -1 -10 4 0 6 5 11 10
11 6 0 10 -2 10 -4z m-1080 -51 c0 -5 -5 -3 -10 5 -5 8 -10 20 -10 25 0 6 5 3
10 -5 5 -8 10 -19 10 -25z m222 -73 c11 -5 10 -22 0 -22 -13 0 -62 94 -62 116
1 11 13 -6 27 -36 15 -30 30 -56 35 -58z m1098 104 c0 -2 -12 -11 -27 -20
l-28 -17 24 20 c23 21 31 25 31 17z m-1010 -36 c0 -5 -4 -10 -10 -10 -5 0 -10
5 -10 10 0 6 5 10 10 10 6 0 10 -4 10 -10z m1065 0 c-3 -5 -12 -10 -18 -10 -7
0 -6 4 3 10 19 12 23 12 15 0z m302 -25 c0 -8 -4 -15 -9 -15 -10 0 -11 14 -1
23 9 10 10 9 10 -8z m-132 -93 c-71 -69 -189 -151 -200 -140 -3 2 24 20 59 40
34 20 96 68 137 107 41 39 76 70 79 70 3 0 -31 -34 -75 -77z m445 -2 c0 -5 -4
-10 -10 -10 -5 0 -10 5 -10 10 0 6 5 10 10 10 6 0 10 -4 10 -10z m-1165 -68
c-3 -3 -11 0 -18 7 -9 10 -8 11 6 5 10 -3 15 -9 12 -12z m380 -2 c-3 -5 -11
-10 -16 -10 -6 0 -7 5 -4 10 3 6 11 10 16 10 6 0 7 -4 4 -10z m-974 -32 c8
-15 8 -18 0 -14 -6 4 -16 16 -22 28 -8 15 -8 18 0 14 6 -4 16 -16 22 -28z
m799 11 c0 -5 -4 -9 -10 -9 -5 0 -10 7 -10 16 0 8 5 12 10 9 6 -3 10 -10 10
-16z m680 -90 c0 -18 -2 -19 -15 -9 -8 7 -15 16 -15 21 0 5 7 9 15 9 9 0 15
-9 15 -21z m50 -23 c0 -2 -8 -10 -17 -17 -16 -13 -17 -12 -4 4 13 16 21 21 21
13z m-1399 -43 c13 -16 12 -17 -3 -4 -10 7 -18 15 -18 17 0 8 8 3 21 -13z m97
-102 c41 -27 103 -62 139 -77 62 -27 65 -29 59 -58 -4 -16 -8 -32 -11 -34 -13
-14 -310 155 -330 188 -3 6 2 21 12 34 16 22 20 23 38 10 11 -7 53 -36 93 -63z
m32 3 c0 -3 -20 9 -45 26 -25 17 -45 33 -45 36 0 3 20 -9 45 -26 25 -17 45
-33 45 -36z m705 56 c-3 -5 -10 -10 -16 -10 -5 0 -9 5 -9 10 0 6 7 10 16 10 8
0 12 -4 9 -10z m605 0 c0 -5 -4 -10 -10 -10 -5 0 -10 5 -10 10 0 6 5 10 10 10
6 0 10 -4 10 -10z m-847 -7 c-7 -2 -19 -2 -25 0 -7 3 -2 5 12 5 14 0 19 -2 13
-5z m953 -32 c-16 -16 -25 -34 -22 -40 4 -6 2 -11 -4 -11 -6 0 -9 -4 -6 -8 3
-5 -1 -9 -9 -9 -8 0 -15 3 -15 7 0 14 61 90 72 90 6 0 -1 -13 -16 -29z m537
-3 c37 -51 39 -57 17 -51 -11 3 -17 10 -14 15 8 13 -35 58 -51 52 -7 -3 -16
-1 -20 5 -4 7 4 11 19 11 17 0 33 -11 49 -32z m-2777 1 c-14 -11 -26 -29 -26
-40 0 -11 -4 -17 -10 -14 -5 3 -10 0 -11 -7 0 -10 -2 -10 -6 0 -7 17 44 82 64
82 11 0 8 -6 -11 -21z m538 -12 c15 -19 26 -40 26 -48 0 -11 -2 -12 -9 -1 -4
8 -12 12 -16 10 -5 -1 -9 5 -11 15 -4 27 -23 45 -52 50 -25 4 -24 4 5 6 25 1
37 -6 57 -32z m524 -9 c49 -17 201 -49 220 -47 4 1 33 1 65 0 49 -1 58 -4 56
-18 -1 -10 -1 -31 0 -47 l1 -29 69 7 c37 3 90 12 117 20 27 8 62 18 77 21 15
3 25 10 22 15 -8 13 15 24 27 12 8 -8 21 -7 45 3 18 8 49 22 68 30 48 21 44
10 -5 -15 -74 -38 -194 -81 -245 -88 -27 -4 -124 -7 -215 -6 -179 0 -272 17
-392 71 -50 22 -55 27 -42 40 8 8 12 19 9 24 -4 5 -2 9 4 9 5 0 13 9 16 20 5
17 10 18 27 9 11 -6 45 -20 76 -31z m1637 22 c22 -18 39 -124 26 -161 -6 -18
-11 -48 -11 -68 0 -21 -5 -42 -12 -49 -9 -9 -5 -12 19 -12 35 0 66 32 56 58
-5 11 -3 13 6 7 8 -4 17 -2 22 6 5 8 9 9 9 3 0 -6 -14 -30 -30 -52 -29 -40
-64 -55 -84 -34 -4 4 -100 7 -212 7 -112 0 -204 -3 -204 -7 0 -5 -9 -8 -20 -8
-19 0 -80 71 -80 93 0 6 3 7 7 4 3 -4 11 -3 17 2 8 6 12 0 13 -21 2 -32 18
-58 35 -58 6 0 7 8 4 17 -4 9 -3 73 1 142 4 69 9 115 10 101 2 -14 6 -36 9
-49 5 -22 6 -23 19 -5 9 12 14 14 15 6 0 -10 3 -10 14 0 8 7 12 15 11 18 -2 3
6 7 18 7 12 1 17 -1 12 -5 -6 -4 -17 -16 -25 -27 -15 -20 -15 -20 8 0 l23 19
-10 -26 c-7 -19 -7 -28 1 -30 7 -3 5 -10 -5 -19 -10 -10 -12 -21 -6 -30 7 -12
9 -12 9 1 0 8 4 21 9 29 8 12 12 13 25 1 9 -7 14 -20 11 -30 -3 -10 7 -27 30
-47 19 -17 35 -28 35 -24 0 4 -13 19 -29 34 -28 24 -29 28 -18 62 9 30 15 35
31 31 18 -4 19 -3 6 7 -8 7 -17 21 -18 31 -3 16 -1 18 11 8 7 -6 17 -9 21 -5
4 4 4 0 0 -10 -4 -12 -1 -17 10 -17 9 0 16 -7 16 -15 0 -12 3 -12 18 3 11 9
17 22 14 27 -3 6 -2 7 3 3 4 -4 9 -23 11 -42 2 -27 0 -34 -12 -29 -7 3 -14 0
-14 -6 0 -6 -20 -11 -47 -11 -39 -1 -44 -3 -30 -11 10 -6 21 -8 24 -5 4 3 16
-2 27 -11 12 -10 18 -14 14 -9 -11 13 11 36 34 36 16 0 17 -3 8 -22 -11 -22
-10 -22 4 -4 9 10 13 23 10 27 -3 5 -1 9 5 9 32 0 15 -49 -26 -71 -13 -7 -23
-17 -23 -22 0 -6 9 -2 20 8 23 21 27 4 4 -19 -13 -14 -13 -16 -1 -16 8 0 17 7
21 15 3 8 11 15 18 14 10 0 10 -2 1 -6 -18 -7 -16 -23 2 -23 9 0 18 7 21 15 8
21 32 19 37 -2 4 -14 5 -12 6 5 1 19 -4 22 -41 22 -31 0 -39 3 -28 10 8 5 24
7 35 4 11 -3 28 -8 39 -11 12 -3 17 -1 14 8 -3 8 -11 14 -18 14 -7 0 -14 6
-16 13 -1 7 0 8 3 2 10 -20 23 2 23 38 0 21 7 64 15 95 8 32 15 60 15 62 0 3
-93 6 -207 7 -115 1 -183 4 -153 7 87 9 350 3 365 -9z m-2285 0 c-32 -10 -210
-11 -275 0 -35 5 4 7 125 8 101 0 164 -3 150 -8z m-353 -17 c0 -10 4 -42 8
-70 l8 -53 41 1 c30 2 34 3 14 6 -45 7 -32 23 20 25 43 1 44 2 10 5 -89 10 -7
33 113 33 33 0 59 -4 59 -9 0 -14 38 -20 44 -7 2 6 2 -3 -1 -21 -4 -27 -2 -32
18 -35 14 -2 25 -11 27 -23 6 -32 20 -39 20 -10 0 15 -8 30 -19 35 -11 6 -16
17 -12 26 3 8 -2 23 -11 33 -15 17 -15 19 -1 25 9 3 13 2 10 -4 -3 -6 -2 -10
4 -10 5 0 12 -15 14 -32 3 -28 4 -27 5 10 2 49 16 50 20 1 4 -57 12 -45 12 19
0 39 -4 62 -12 65 -10 4 -10 6 -1 6 21 2 24 -15 29 -156 5 -137 10 -152 39
-121 7 7 6 12 -2 15 -10 3 -9 8 2 19 8 9 19 13 24 10 5 -4 12 0 14 6 3 8 6 8
6 2 1 -6 -9 -26 -21 -44 l-23 -34 -265 1 -265 1 -22 32 c-24 34 -30 56 -14 46
5 -4 12 0 14 6 3 7 6 0 6 -16 1 -35 26 -66 55 -66 15 0 17 3 8 12 -7 7 -12 30
-13 53 0 22 -3 58 -7 80 -9 45 5 136 22 147 17 12 22 10 23 -9z m1853 2 c0 -2
-10 -9 -22 -15 -22 -11 -22 -10 -4 4 21 17 26 19 26 11z m575 -8 c21 -16 10
-27 -32 -32 -28 -3 -53 -29 -53 -54 0 -8 3 -11 8 -7 4 4 7 13 7 19 0 5 7 12
15 14 12 4 12 3 2 -5 -8 -5 -13 -12 -12 -16 0 -3 -4 -14 -9 -24 -9 -16 -10
-16 -16 0 -4 10 -11 15 -16 12 -22 -13 -6 25 21 51 16 15 27 32 24 36 -3 5 2
6 10 3 9 -3 16 -1 16 5 0 15 12 14 35 -2z m-1586 -33 c14 -12 -19 -1 -35 12
-18 14 -18 14 6 3 14 -6 27 -13 29 -15z m1658 16 c-2 -7 35 -63 46 -71 5 -4 4
-17 -3 -29 -11 -20 -10 -22 3 -17 12 4 14 2 10 -10 -5 -13 -10 -11 -30 12 -14
15 -22 34 -18 43 3 9 -7 28 -26 48 l-31 32 25 -1 c14 -1 25 -4 24 -7z m-847
-25 c-14 -8 -32 -14 -40 -14 -8 0 -1 7 15 14 39 18 57 18 25 0z m170 1 c0 -3
-4 -8 -10 -11 -5 -3 -10 -1 -10 4 0 6 5 11 10 11 6 0 10 -2 10 -4z m-1484 -52
c-4 -9 -9 -15 -11 -12 -3 3 -3 13 1 22 4 9 9 15 11 12 3 -3 3 -13 -1 -22z
m1547 15 c-6 -6 -55 -33 -110 -61 -54 -27 -89 -47 -79 -43 19 5 19 5 4 -12
-22 -23 -84 -60 -73 -43 6 9 4 11 -6 5 -25 -16 -48 -39 -44 -44 2 -3 -9 -6
-23 -6 -15 0 -40 -4 -55 -8 -19 -5 -26 -4 -22 2 3 6 -10 4 -29 -4 -50 -21 -82
-19 -106 8 l-21 22 28 5 28 6 -25 7 c-14 4 -47 7 -75 7 -83 0 -219 22 -201 32
9 5 16 21 16 35 0 22 3 24 23 19 12 -4 70 -9 130 -13 l107 -6 0 -29 c0 -23 4
-28 18 -24 54 15 62 18 62 27 0 5 9 9 20 9 11 0 20 4 20 9 0 13 57 34 75 27 8
-3 15 0 16 7 0 9 2 9 6 0 2 -7 10 -13 15 -13 6 0 9 3 5 6 -7 8 17 34 32 34 6
0 11 -7 11 -16 0 -8 4 -13 10 -9 5 3 18 0 29 -7 16 -10 32 -6 103 25 46 21 90
42 98 47 20 13 26 12 13 -1z m-460 -16 c-7 -2 -19 -2 -25 0 -7 3 -2 5 12 5 14
0 19 -2 13 -5z m-376 -109 c-3 -3 -12 -4 -19 -1 -8 3 -5 6 6 6 11 1 17 -2 13
-5z m554 -146 c33 -46 36 -58 14 -58 -8 0 -15 -5 -15 -11 0 -5 -4 -8 -9 -5 -5
3 -7 15 -4 26 4 14 0 20 -11 20 -9 0 -16 5 -16 10 0 6 7 10 16 10 14 0 14 3 4
15 -7 8 -19 15 -26 15 -19 0 -19 -148 -1 -193 8 -18 12 -38 10 -44 -3 -7 2
-13 11 -13 9 0 16 8 16 20 0 11 5 20 10 20 6 0 10 -5 10 -11 0 -5 5 -7 10 -4
27 17 1 -44 -33 -78 -20 -20 -30 -22 -107 -17 -119 6 -240 5 -342 -3 -59 -4
-88 -3 -88 4 0 5 -5 7 -10 4 -6 -4 -9 -3 -8 2 2 5 -6 25 -16 45 -19 35 -19 36
-1 54 13 13 20 15 23 6 4 -14 22 -16 22 -3 0 5 -8 12 -19 16 -16 5 -17 11 -11
46 4 23 12 44 16 48 14 10 17 51 4 51 -7 0 -10 -6 -7 -13 3 -8 1 -20 -3 -27
-7 -11 -11 -10 -24 3 -21 21 -21 23 15 68 30 38 69 51 94 32 12 -10 347 -5
341 5 -2 4 20 5 51 4 50 -4 56 -7 84 -44z m-9 -128 c3 -16 1 -30 -4 -30 -4 0
-8 14 -8 30 0 17 2 30 4 30 2 0 6 -13 8 -30z m-782 16 c0 -3 -4 -8 -10 -11 -5
-3 -10 -1 -10 4 0 6 5 11 10 11 6 0 10 -2 10 -4z m-670 -51 c0 -8 -7 -15 -15
-15 -8 0 -15 7 -15 15 0 8 7 15 15 15 8 0 15 -7 15 -15z m714 -53 c2 -4 1 -14
-4 -22 -7 -11 -11 -11 -24 -1 -9 8 -16 17 -16 22 0 11 37 12 44 1z m-329 -33
c10 -15 -1 -23 -20 -15 -9 3 -13 10 -10 16 8 13 22 13 30 -1z m87 -4 c0 -5 -5
-11 -11 -13 -6 -2 -11 4 -11 13 0 9 5 15 11 13 6 -2 11 -8 11 -13z m-62 -39
c49 1 90 -2 90 -6 0 -4 -41 -6 -92 -6 -65 1 -92 5 -94 14 -1 7 -1 9 2 5 2 -5
44 -7 94 -7z m-110 -6 c0 -5 -2 -10 -4 -10 -3 0 -8 5 -11 10 -3 6 -1 10 4 10
6 0 11 -4 11 -10z m450 0 c0 -6 -43 -10 -120 -10 -66 0 -120 4 -120 9 0 5 54
10 120 10 78 1 120 -2 120 -9z m1196 1 c-3 -5 -15 -7 -26 -4 -28 7 -25 13 6
13 14 0 23 -4 20 -9z m-733 -8 c-24 -2 -62 -2 -85 0 -24 2 -5 4 42 4 47 0 66
-2 43 -4z m1178 -179 c145 -86 266 -158 268 -160 2 -2 -647 -5 -1442 -6 -796
-2 -1446 0 -1445 4 2 4 120 77 263 162 l260 155 916 0 917 1 263 -156z m-2831
-214 c23 -14 3 -25 -23 -12 -12 7 -56 13 -97 15 l-75 3 90 2 c50 1 97 -2 105
-8z m3515 1 c-44 -3 -204 -3 -355 0 l-275 5 355 0 c195 1 319 -2 275 -5z m-58
-43 c-3 -8 -6 -5 -6 6 -1 11 2 17 5 13 3 -3 4 -12 1 -19z m1 -42 c-4 -19 0
-26 16 -29 12 -2 -10 -4 -49 -4 -38 0 -59 1 -45 4 60 9 70 14 70 33 0 11 3 20
6 20 4 0 4 -11 2 -24z m-3369 -32 c2 -2 -40 -3 -95 -2 -75 1 -88 3 -54 8 42 6
140 2 149 -6z"/>
<path d="M2921 4596 c-89 -49 -53 -186 49 -186 33 0 48 6 72 30 27 27 30 36
26 75 -9 78 -81 118 -147 81z m93 -17 c41 -19 49 -89 14 -126 -48 -51 -138
-15 -138 54 0 64 62 100 124 72z"/>
<path d="M2922 4557 c-27 -29 -28 -71 -2 -97 45 -45 124 -8 118 55 -3 31 -22
37 -24 7 -1 -9 -2 -22 -3 -29 -2 -21 -39 -35 -61 -23 -40 21 -14 89 30 77 25
-6 48 18 24 27 -31 12 -61 6 -82 -17z"/>
<path d="M2944 4525 c-4 -8 -3 -22 0 -31 8 -22 50 -14 54 11 3 16 1 18 -9 8
-20 -20 -31 -15 -19 7 9 16 8 20 -5 20 -9 0 -18 -7 -21 -15z"/>
<path d="M1916 4093 c-12 -12 -6 -33 9 -33 8 0 15 6 15 14 0 17 -14 28 -24 19z"/>
<path d="M1810 4075 c0 -8 7 -15 15 -15 8 0 15 7 15 15 0 8 -7 15 -15 15 -8 0
-15 -7 -15 -15z"/>
<path d="M3592 3205 c0 -16 2 -22 5 -12 2 9 2 23 0 30 -3 6 -5 -1 -5 -18z"/>
<path d="M3622 3200 c0 -14 2 -19 5 -12 2 6 2 18 0 25 -3 6 -5 1 -5 -13z"/>
<path d="M3160 3210 c0 -40 0 -40 39 -40 42 0 67 20 57 46 -5 13 -9 14 -22 3
-13 -10 -16 -9 -21 9 -3 15 -13 22 -29 22 -21 0 -24 -5 -24 -40z"/>
<path d="M2896 3235 c-3 -9 -6 -28 -6 -41 0 -24 3 -25 46 -22 54 3 77 26 58
56 -15 24 -89 29 -98 7z"/>
<path d="M3175 2795 l-30 -25 38 21 c20 11 37 23 37 25 0 10 -17 2 -45 -21z"/>
<path d="M1469 3210 c-6 -16 -5 -50 2 -50 13 0 17 14 8 35 -4 11 -8 18 -10 15z"/>
<path d="M1345 3150 c-4 -6 7 -10 24 -10 17 0 31 5 31 10 0 6 -11 10 -24 10
-14 0 -28 -4 -31 -10z"/>
<path d="M4398 3193 c7 -3 16 -2 19 1 4 3 -2 6 -13 5 -11 0 -14 -3 -6 -6z"/>
<path d="M4528 3193 c7 -3 16 -2 19 1 4 3 -2 6 -13 5 -11 0 -14 -3 -6 -6z"/>
<path d="M4435 3170 c-3 -5 -1 -10 4 -10 6 0 11 5 11 10 0 6 -2 10 -4 10 -3 0
-8 -4 -11 -10z"/>
<path d="M4490 3170 c0 -5 5 -10 11 -10 5 0 7 5 4 10 -3 6 -8 10 -11 10 -2 0
-4 -4 -4 -10z"/>
<path d="M4520 3170 c0 -6 7 -10 15 -10 8 0 15 2 15 4 0 2 -7 6 -15 10 -8 3
-15 1 -15 -4z"/>
<path d="M4398 3163 c7 -3 16 -2 19 1 4 3 -2 6 -13 5 -11 0 -14 -3 -6 -6z"/>
<path d="M4505 3139 c-16 -6 -17 -8 -3 -8 9 -1 18 -9 20 -18 2 -10 6 -13 9 -8
13 20 -5 43 -26 34z"/>
<path d="M4398 3133 c7 -3 16 -2 19 1 4 3 -2 6 -13 5 -11 0 -14 -3 -6 -6z"/>
<path d="M2570 2686 c0 -2 8 -10 18 -17 15 -13 16 -12 3 4 -13 16 -21 21 -21
13z"/>
<path d="M2628 2643 c6 -2 9 -10 6 -15 -4 -7 -2 -8 5 -4 13 9 5 26 -12 25 -9
0 -8 -2 1 -6z"/>
<path d="M2627 2569 c7 -7 15 -10 18 -7 3 3 -2 9 -12 12 -14 6 -15 5 -6 -5z"/>
<path d="M3245 2530 c-3 -6 1 -7 9 -4 18 7 21 14 7 14 -6 0 -13 -4 -16 -10z"/>
<path d="M2953 2423 c9 -2 23 -2 30 0 6 3 -1 5 -18 5 -16 0 -22 -2 -12 -5z"/>
<path d="M2851 2406 c7 -8 98 -10 105 -3 4 4 -19 7 -51 7 -32 0 -56 -2 -54 -4z"/>
<path d="M3961 2102 c-1 -15 47 -62 63 -62 6 0 -1 8 -16 17 -15 9 -31 26 -37
37 -5 12 -10 15 -10 8z"/>
<path d="M4250 2030 c0 -5 5 -10 11 -10 5 0 7 5 4 10 -3 6 -8 10 -11 10 -2 0
-4 -4 -4 -10z"/>
<path d="M1660 2118 c0 -7 -3 -24 -5 -38 -5 -22 -4 -22 4 -5 8 17 10 18 10 3
1 -14 10 -18 35 -18 18 0 39 -7 46 -15 11 -14 15 -14 29 -1 9 8 32 19 51 24
l35 9 -29 8 c-22 6 -31 4 -38 -9 -12 -21 -24 -20 -48 4 -11 11 -31 20 -45 20
-42 0 -28 19 18 23 40 3 40 4 -10 5 -37 1 -53 -2 -53 -10z"/>
<path d="M1900 2086 c0 -2 8 -10 18 -17 15 -13 16 -12 3 4 -13 16 -21 21 -21
13z"/>
<path d="M1805 2044 c-20 -15 -12 -17 19 -5 11 4 15 10 10 13 -5 4 -18 0 -29
-8z"/>
<path d="M1848 2013 c7 -3 16 -2 19 1 4 3 -2 6 -13 5 -11 0 -14 -3 -6 -6z"/>
<path d="M2700 1925 c-7 -8 -8 -15 -2 -15 5 0 15 7 22 15 7 8 8 15 2 15 -5 0
-15 -7 -22 -15z"/>
<path d="M2702 1790 c0 -14 2 -19 5 -12 2 6 2 18 0 25 -3 6 -5 1 -5 -13z"/>
<path d="M2690 1700 c0 -5 5 -10 10 -10 6 0 10 5 10 10 0 6 -4 10 -10 10 -5 0
-10 -4 -10 -10z"/>
<path d="M2702 1654 c9 -9 21 -15 27 -13 6 2 -2 10 -17 17 -25 11 -25 11 -10
-4z"/>
<path d="M3206 1659 c2 -4 -2 -10 -8 -12 -9 -4 -7 -6 3 -6 9 -1 22 5 29 13 9
12 8 15 -9 13 -11 0 -18 -4 -15 -8z"/>
</g>
</svg>
