<?xml version="1.0" standalone="no"?>
<!DOCTYPE svg PUBLIC "-//W3C//DTD SVG 20010904//EN"
 "http://www.w3.org/TR/2001/REC-SVG-20010904/DTD/svg10.dtd">
<svg version="1.0" xmlns="http://www.w3.org/2000/svg"
 width="736.000000pt" height="460.000000pt" viewBox="0 0 736.000000 460.000000"
 preserveAspectRatio="xMidYMid meet">

<g transform="translate(0.000000,460.000000) scale(0.100000,-0.100000)"
fill="#000000" stroke="none">
<path d="M60 4593 c8 -3 23 -10 33 -15 12 -6 17 -5 17 7 0 10 -10 15 -32 14
-18 0 -26 -3 -18 -6z"/>
<path d="M184 4575 c20 -14 45 -25 56 -25 10 0 22 -4 25 -10 3 -5 17 -10 31
-10 17 0 23 -4 18 -12 -4 -6 -3 -8 4 -4 6 3 23 1 39 -6 15 -6 32 -10 36 -10 4
1 13 -2 20 -8 7 -6 36 -23 66 -38 58 -29 85 -61 36 -42 -14 5 -41 10 -59 10
-17 0 -37 5 -44 12 -9 9 -12 8 -12 -6 0 -9 15 -31 33 -48 l32 -30 -40 7 c-25
4 -47 15 -58 31 -15 19 -28 24 -63 24 -26 0 -44 -5 -44 -11 0 -14 -61 -4 -71
12 -3 6 -12 9 -20 7 -8 -1 -28 7 -45 19 -17 13 -43 27 -58 33 -28 10 -35 30
-11 30 23 0 7 28 -26 44 l-29 14 0 -198 0 -198 68 -6 c37 -3 106 -10 153 -16
48 -5 104 -10 125 -10 38 1 39 1 18 18 -12 9 -31 23 -42 31 -11 8 -18 19 -16
26 3 6 -7 24 -22 38 -15 15 -22 27 -16 27 6 0 17 3 25 6 9 3 16 -2 19 -13 4
-13 24 -24 64 -35 55 -16 59 -16 84 2 18 13 31 16 41 9 18 -11 30 -11 48 0 11
7 10 14 -8 39 -12 17 -31 32 -43 34 -12 2 -23 10 -26 18 -4 12 -2 13 9 3 7 -7
25 -13 41 -13 15 0 50 -9 78 -20 28 -11 72 -25 97 -31 26 -5 52 -17 58 -26 10
-13 15 -13 35 -3 14 7 37 10 59 5 20 -3 61 -8 91 -11 30 -2 57 -9 58 -14 2 -6
13 -10 25 -10 16 0 18 3 9 12 -19 19 -14 30 11 28 58 -5 61 -3 38 34 -31 49
-28 57 22 50 l44 -6 12 45 c7 25 10 55 6 68 -6 19 -5 22 6 14 8 -6 27 -12 43
-14 38 -4 27 13 -27 39 -23 12 -64 34 -92 50 -129 75 -93 70 -543 70 l-405 0
37 -25z m276 -60 c0 -3 -9 -5 -20 -5 -11 0 -20 7 -20 15 0 13 4 14 20 5 11 -6
20 -13 20 -15z m-210 -161 c0 -8 -9 -14 -20 -14 -18 0 -19 3 -10 20 12 22 30
18 30 -6z"/>
<path d="M1227 4588 c-8 -5 5 -24 36 -55 27 -26 60 -60 74 -75 15 -15 41 -30
57 -34 17 -4 43 -15 58 -25 18 -13 43 -19 82 -19 32 0 56 -4 56 -10 0 -13 120
-70 147 -70 30 0 41 -13 39 -47 -1 -27 -6 -34 -31 -40 -16 -3 -41 -5 -55 -4
-35 4 -91 32 -84 42 3 5 -4 9 -15 9 -11 0 -24 -6 -28 -14 -4 -8 -17 -15 -28
-18 -19 -3 -19 -4 1 -24 12 -12 43 -29 70 -39 27 -9 58 -21 69 -25 11 -5 38
-11 60 -14 22 -4 49 -8 60 -10 11 -2 23 -5 28 -5 4 -1 7 -5 7 -10 0 -5 -25 -9
-56 -8 -61 2 -81 -8 -37 -19 15 -4 33 -11 39 -15 21 -17 109 -39 154 -39 68 0
79 18 30 47 -65 39 -50 61 26 38 32 -10 66 -13 98 -8 l49 6 -24 18 c-21 16
-22 20 -9 30 11 8 12 12 3 16 -7 2 -13 11 -13 18 0 12 6 12 40 0 22 -8 57 -14
78 -15 110 -1 434 9 439 14 4 3 1 6 -6 6 -7 0 -9 5 -6 10 4 6 -22 23 -59 40
-35 16 -67 34 -71 40 -3 5 -15 10 -27 10 -11 0 -32 7 -46 15 -15 8 -59 25 -98
38 -70 23 -71 24 -66 4 4 -18 2 -19 -24 -13 -16 4 -38 16 -50 27 -11 10 -26
19 -32 19 -7 0 -12 4 -12 9 0 10 -89 45 -97 37 -3 -3 -15 -1 -25 5 -15 8 -36
7 -78 -2 -49 -11 -56 -15 -52 -32 4 -17 1 -18 -31 -14 -19 2 -40 0 -46 -6 -18
-18 -118 -14 -137 5 -13 13 -15 20 -6 31 9 10 2 21 -31 48 -42 36 -69 41 -123
24 -12 -4 -25 -2 -28 4 -4 6 -16 11 -27 11 -10 0 -19 5 -19 11 0 5 -6 7 -12 3
-8 -5 -7 -1 2 10 13 16 12 20 -5 33 -14 11 -16 17 -7 20 6 3 12 9 12 15 0 11
-194 8 -213 -4z m177 -24 c11 -30 6 -37 -14 -19 -11 10 -20 22 -20 27 0 15 28
9 34 -8z m494 -432 c3 -9 -2 -13 -14 -10 -9 1 -19 9 -22 16 -3 9 2 13 14 10 9
-1 19 -9 22 -16z"/>
<path d="M1518 4590 c-26 -3 -50 -9 -54 -12 -13 -14 5 -36 33 -40 15 -3 36 -9
46 -13 11 -4 17 -3 17 5 0 7 7 18 15 24 13 9 13 14 3 27 -10 11 -24 14 -60 9z"/>
<path d="M1995 4580 c4 -14 2 -20 -8 -20 -9 0 -17 -5 -19 -11 -3 -8 -16 -8
-47 1 -48 13 -87 6 -61 -10 17 -11 6 -13 -76 -10 -53 1 -129 -14 -138 -28 -10
-17 12 -32 51 -35 22 -1 47 -8 55 -14 8 -7 33 -15 56 -19 l42 -7 -2 34 c-3 30
0 34 20 31 20 -2 22 1 17 20 -6 17 -4 20 10 15 9 -4 22 -7 29 -7 7 0 30 -13
51 -30 21 -16 48 -30 60 -30 27 0 91 43 87 59 -1 6 5 14 13 17 20 8 19 27 -3
47 -13 12 -37 17 -81 17 -58 0 -62 -1 -56 -20z"/>
<path d="M2296 4591 c-3 -5 4 -11 16 -14 33 -9 16 -18 -20 -11 -18 4 -29 11
-26 16 10 16 -59 -2 -72 -18 -6 -8 -17 -14 -24 -14 -10 0 -10 -3 0 -15 7 -8
18 -15 24 -15 6 0 27 -11 47 -24 33 -22 40 -24 80 -14 53 13 58 16 39 28 -8 5
-11 12 -7 17 5 4 17 -3 27 -17 19 -25 19 -25 34 -5 9 11 16 23 16 26 0 12 49
16 54 5 3 -8 5 -7 5 1 2 22 -89 63 -140 63 -26 0 -50 -4 -53 -9z"/>
<path d="M2524 4560 c64 -59 145 -92 241 -97 l80 -5 -22 24 c-13 13 -23 27
-23 31 0 3 -19 24 -42 46 l-43 40 -117 1 -118 0 44 -40z"/>
<path d="M3538 4593 c47 -6 41 -29 -7 -25 -21 2 -42 -1 -45 -6 -12 -20 26 -80
65 -101 21 -12 45 -29 53 -36 9 -9 41 -16 84 -18 38 -2 74 -7 81 -11 16 -10 4
-26 -20 -26 -17 0 -18 -3 -9 -20 6 -11 14 -19 18 -18 4 1 14 -2 22 -5 56 -23
97 -24 237 -11 81 8 153 14 158 15 6 0 34 -3 63 -7 28 -4 52 -4 52 -1 0 21
-47 97 -59 97 -9 0 -38 21 -66 46 -27 24 -62 47 -77 51 -49 10 -30 23 30 20
31 -1 62 -5 67 -9 6 -3 23 -4 40 -3 30 4 53 -4 163 -58 58 -28 65 -29 104 -18
34 11 46 10 72 -2 17 -9 50 -20 74 -27 24 -6 59 -27 80 -46 l37 -35 -23 -19
c-12 -10 -18 -21 -13 -24 14 -9 189 -14 198 -6 32 29 188 38 233 15 31 -16 60
-51 60 -72 0 -16 -91 -18 -107 -2 -7 7 -12 4 -16 -11 -4 -18 1 -24 29 -36 19
-8 39 -12 45 -9 5 4 31 0 57 -8 83 -27 109 -28 115 -8 5 22 116 47 144 33 10
-6 71 -12 136 -14 72 -3 122 -9 129 -16 7 -7 20 -12 30 -12 10 0 18 -7 18 -15
0 -10 -10 -15 -33 -15 -30 0 -57 -14 -57 -31 0 -3 31 -16 70 -28 53 -17 88
-21 151 -19 54 2 83 -1 86 -8 2 -7 -11 -14 -31 -18 -71 -14 -62 -59 13 -63 20
-1 53 -5 73 -8 34 -6 39 -4 47 16 9 23 9 23 17 4 4 -11 12 -23 18 -27 16 -11
114 -10 121 2 10 16 -13 48 -37 53 -23 4 -23 4 0 6 15 0 35 -11 53 -30 23 -25
31 -28 48 -20 39 21 260 11 400 -18 55 -11 71 -6 68 22 -2 20 2 22 51 19 32
-3 59 1 67 8 9 7 48 15 88 18 49 3 80 11 96 24 22 16 26 17 41 3 9 -8 24 -15
33 -15 9 0 17 -5 17 -11 0 -8 19 -10 61 -6 34 3 73 1 85 -4 l24 -9 0 200 0
200 -40 6 c-22 4 -37 10 -34 15 3 5 -2 6 -10 3 -9 -3 -34 3 -56 15 -22 12 -49
21 -60 21 -10 0 -25 7 -34 15 -8 8 -29 15 -47 15 -49 0 -28 11 38 20 32 4 69
11 83 15 14 4 37 9 52 12 36 7 43 31 17 60 l-22 23 -279 0 c-272 0 -278 0
-278 -20 0 -22 -5 -22 -98 5 -55 17 -63 3 -23 -39 17 -18 29 -35 25 -38 -3 -4
27 -16 67 -28 40 -12 83 -26 96 -31 15 -5 27 -4 35 4 16 16 63 16 79 0 10 -10
9 -13 -2 -16 -8 -2 -29 -9 -47 -15 -23 -7 -42 -7 -63 0 -33 11 -64 4 -53 -13
3 -6 1 -22 -7 -35 -10 -19 -10 -27 -1 -36 7 -7 12 -16 12 -21 0 -9 -9 -8 -105
13 -27 6 -85 17 -128 23 -43 7 -81 17 -85 23 -4 6 -14 14 -22 17 -12 4 -11 6
3 6 30 2 8 21 -24 21 -27 0 -29 2 -29 40 0 36 -3 41 -37 55 -21 9 -49 14 -62
12 -14 -3 -36 0 -50 5 -43 17 -122 21 -147 7 -19 -10 -27 -9 -41 2 -15 12 -16
12 -10 -3 8 -23 10 -23 -57 13 -51 27 -61 29 -91 19 -28 -9 -39 -8 -71 10 -38
20 -50 20 -1003 20 -855 0 -962 -2 -951 -15 11 -13 9 -15 -13 -15 -13 0 -30 7
-37 15 -10 12 -36 15 -129 13 -64 0 -101 -3 -83 -5z m3442 -142 c0 -14 -6 -17
-30 -13 -36 5 -39 19 -7 31 27 10 37 6 37 -18z m-180 -111 c0 -5 -5 -10 -11
-10 -5 0 -7 5 -4 10 3 6 8 10 11 10 2 0 4 -4 4 -10z m73 -67 c-10 -4 -10 -10
-2 -25 9 -17 8 -18 -9 -9 -10 5 -24 17 -31 25 -11 13 -7 15 21 14 18 -1 27 -3
21 -5z"/>
<path d="M6033 4593 c9 -2 23 -2 30 0 6 3 -1 5 -18 5 -16 0 -22 -2 -12 -5z"/>
<path d="M6108 4593 c7 -3 16 -2 19 1 4 3 -2 6 -13 5 -11 0 -14 -3 -6 -6z"/>
<path d="M170 4500 c0 -5 5 -10 11 -10 5 0 7 5 4 10 -3 6 -8 10 -11 10 -2 0
-4 -4 -4 -10z"/>
<path d="M2366 4440 c5 -5 25 -12 44 -16 33 -5 34 -5 16 10 -22 17 -77 23 -60
6z"/>
<path d="M1480 4300 c20 -13 33 -13 25 0 -3 6 -14 10 -23 10 -15 0 -15 -2 -2
-10z"/>
<path d="M1104 4225 c7 -19 -27 -55 -53 -55 -10 0 -24 -7 -31 -15 -10 -12 -9
-15 4 -15 10 0 15 -4 12 -9 -7 -11 68 -31 93 -24 11 3 22 15 25 28 6 22 10 24
54 18 31 -3 58 -1 73 7 23 13 23 13 -16 27 -22 8 -51 17 -65 19 -13 3 -29 9
-35 13 -5 5 -23 11 -39 15 -23 6 -27 4 -22 -9z"/>
<path d="M1485 4210 c3 -5 8 -10 11 -10 2 0 4 5 4 10 0 6 -5 10 -11 10 -5 0
-7 -4 -4 -10z"/>
<path d="M440 4191 c0 -5 21 -21 47 -35 37 -21 52 -25 72 -17 25 9 25 9 3 10
-12 1 -45 12 -72 26 -28 14 -50 21 -50 16z"/>
<path d="M857 4184 c-13 -14 5 -24 41 -24 35 1 36 2 18 15 -21 16 -48 20 -59
9z"/>
<path d="M785 4170 c3 -5 8 -10 11 -10 2 0 4 5 4 10 0 6 -5 10 -11 10 -5 0 -7
-4 -4 -10z"/>
<path d="M2152 4143 c-10 -4 -10 -8 -2 -18 6 -8 19 -11 27 -8 9 4 14 2 11 -3
-4 -5 5 -10 18 -10 14 -1 23 3 21 9 -4 14 -58 36 -75 30z"/>
<path d="M1320 4131 c0 -6 4 -11 9 -11 5 0 16 -15 25 -34 14 -29 22 -34 58
-38 23 -2 54 -2 70 0 24 4 26 6 15 25 -18 32 -36 49 -45 43 -7 -4 -70 7 -114
20 -10 3 -18 1 -18 -5z"/>
<path d="M1236 4111 c-10 -11 -15 -25 -11 -30 9 -15 46 -13 68 3 16 13 16 14
-7 30 -31 20 -29 20 -50 -3z"/>
<path d="M2270 4099 c0 -8 98 -39 124 -39 23 0 20 17 -6 32 -25 13 -118 19
-118 7z"/>
<path d="M2825 4030 c3 -5 18 -10 33 -9 24 0 25 1 7 9 -28 12 -47 12 -40 0z"/>
<path d="M2984 4016 c11 -9 24 -16 30 -16 12 0 7 5 -24 19 -24 11 -24 11 -6
-3z"/>
<path d="M3060 4007 c0 -10 -5 -14 -15 -11 -8 4 -15 2 -15 -3 0 -15 45 -35 69
-31 22 3 22 4 -8 32 -24 23 -31 26 -31 13z"/>
<path d="M6995 3960 c3 -5 16 -10 28 -10 18 0 19 2 7 10 -20 13 -43 13 -35 0z"/>
<path d="M94 3896 c2 -34 29 -76 48 -76 5 0 21 -9 36 -20 28 -20 52 -24 112
-21 37 1 69 16 58 26 -3 3 -18 8 -33 11 -15 3 -54 16 -87 30 -32 13 -64 22
-70 18 -6 -4 -8 -3 -5 3 4 6 -4 14 -18 17 -14 4 -25 13 -25 21 0 7 -4 16 -10
20 -5 3 -8 -9 -6 -29z"/>
<path d="M7251 3890 c-42 -6 -61 -31 -40 -53 22 -22 69 -43 112 -51 37 -7 37
-7 37 26 0 18 -4 38 -8 43 -16 22 -68 40 -101 35z"/>
<path d="M7166 3875 c4 -8 10 -15 15 -15 5 0 9 7 9 15 0 8 -7 15 -15 15 -9 0
-12 -6 -9 -15z"/>
<path d="M2100 3790 c-9 -6 -10 -10 -3 -10 6 0 15 5 18 10 8 12 4 12 -15 0z"/>
<path d="M4873 3777 c4 -11 2 -14 -9 -10 -7 3 -14 2 -14 -2 0 -14 59 -65 75
-65 8 0 15 -4 15 -9 0 -13 100 -11 101 3 0 6 2 18 3 26 3 22 -39 59 -56 49
-11 -7 -11 -9 1 -9 11 0 11 -3 1 -15 -18 -22 -32 -19 -80 16 -26 19 -41 25
-37 16z"/>
<path d="M2728 3743 c6 -2 18 -2 25 0 6 3 1 5 -13 5 -14 0 -19 -2 -12 -5z"/>
<path d="M2940 3740 c0 -5 -11 -10 -25 -10 -14 0 -25 -4 -25 -10 0 -5 9 -10
19 -10 11 0 26 -3 35 -6 11 -4 16 -1 16 11 0 9 6 15 13 12 6 -2 11 -10 9 -16
-1 -7 2 -9 9 -5 9 5 5 13 -10 26 -26 20 -41 23 -41 8z"/>
<path d="M2748 3723 c7 -3 16 -2 19 1 4 3 -2 6 -13 5 -11 0 -14 -3 -6 -6z"/>
<path d="M610 3706 c0 -2 18 -6 40 -8 22 -2 40 0 40 4 0 5 -18 8 -40 8 -22 0
-40 -2 -40 -4z"/>
<path d="M3300 3690 c8 -5 31 -9 50 -9 l35 1 -30 8 c-16 4 -39 8 -50 9 -16 1
-17 -1 -5 -9z"/>
<path d="M5103 3665 c-10 -5 -20 -11 -22 -12 -2 -2 2 -9 9 -18 21 -25 280 -19
280 7 0 5 -4 7 -9 4 -5 -3 -8 2 -7 11 0 10 -7 18 -19 20 -11 1 -14 0 -7 -3 17
-8 15 -21 -4 -28 -8 -3 -12 -2 -9 3 3 5 0 13 -6 17 -19 11 -185 10 -206 -1z"/>
<path d="M1330 3572 c0 -61 4 -92 11 -92 8 0 9 26 5 87 -3 47 -8 88 -11 91 -3
3 -5 -36 -5 -86z"/>
<path d="M4881 3643 c-9 -10 -27 -14 -52 -11 -26 2 -35 0 -28 -7 5 -5 31 -10
57 -11 26 0 55 -4 65 -9 10 -4 21 -4 25 0 4 4 1 10 -6 12 -7 3 -21 13 -30 23
-15 16 -19 16 -31 3z"/>
<path d="M5500 3645 c7 -8 22 -15 34 -15 20 1 20 2 -4 15 -33 19 -46 19 -30 0z"/>
<path d="M5390 3640 c0 -5 5 -10 10 -10 6 0 10 5 10 10 0 6 -4 10 -10 10 -5 0
-10 -4 -10 -10z"/>
<path d="M6841 3626 l-1 -29 -147 4 c-282 6 -689 -1 -673 -12 11 -8 6 -9 -20
-5 -32 6 -33 5 -10 -5 l25 -12 -25 -7 c-21 -7 -22 -8 -5 -9 15 -1 17 -3 6 -10
-10 -6 -6 -11 15 -19 25 -9 26 -11 7 -11 -12 -1 -25 -5 -28 -11 -3 -5 -15 -10
-26 -10 -10 0 -19 -4 -19 -9 0 -5 -18 -28 -40 -50 -22 -22 -40 -43 -40 -47 0
-3 -9 -17 -19 -30 -16 -21 -21 -22 -28 -10 -7 13 -10 13 -21 -4 -7 -11 -8 -20
-3 -20 5 0 12 6 14 13 4 7 6 8 6 1 1 -6 -5 -16 -12 -22 -16 -14 -147 -31 -147
-20 0 5 -4 7 -9 4 -11 -7 -18 20 -27 97 -4 31 -11 57 -15 57 -13 0 -11 34 4
49 6 8 0 6 -15 -3 -23 -15 -27 -26 -33 -87 -8 -77 -24 -96 -19 -21 2 26 1 40
-2 31 -5 -15 -8 -15 -34 -2 -17 8 -34 12 -39 9 -5 -4 -12 -2 -16 4 -3 5 0 10
7 11 7 0 4 4 -7 9 -24 10 -106 13 -129 4 -19 -7 -21 -35 -3 -53 10 -11 9 -12
-3 -6 -12 6 -13 5 -2 -6 6 -7 12 -18 12 -24 0 -7 -6 -12 -12 -12 -7 0 -21 -4
-30 -8 -13 -5 -18 -2 -18 8 0 9 -8 21 -17 27 -16 10 -14 11 8 7 22 -3 25 0 27
30 3 32 1 33 -18 23 -11 -6 -25 -8 -30 -5 -6 3 -10 2 -10 -2 0 -5 12 -14 28
-21 20 -9 21 -11 5 -8 -23 4 -40 -19 -22 -30 15 -9 -10 -34 -33 -34 -17 0 -18
-3 -8 -15 10 -13 9 -15 -9 -15 -11 0 -21 -3 -21 -8 0 -9 -45 -28 -89 -37 -21
-5 -29 -10 -22 -15 8 -4 -4 -10 -29 -14 -30 -5 -40 -11 -37 -20 5 -12 -24 -30
-44 -27 -4 0 -9 -8 -12 -19 -6 -22 16 -34 41 -22 9 4 28 7 42 6 14 -1 63 -2
110 -3 47 -2 79 -5 73 -8 -19 -7 -16 -23 5 -25 9 -1 -44 -5 -118 -8 l-135 -6
170 -3 c94 -1 179 -7 190 -12 19 -9 18 -9 -2 -5 -13 2 -25 1 -27 -3 -3 -3 -64
-8 -137 -9 -73 -2 -136 -6 -139 -10 -3 -4 -13 -8 -23 -9 -13 -1 -17 4 -13 14
5 11 2 13 -10 9 -8 -3 -18 -6 -21 -6 -3 0 0 -7 7 -15 15 -18 -1 -20 -18 -3
-10 10 -14 8 -18 -9 -3 -12 -13 -24 -21 -27 -12 -5 -14 0 -11 24 5 30 -6 41
-15 18 -4 -10 -6 -10 -6 0 -1 19 -21 14 -21 -5 0 -15 -2 -15 -9 -4 -8 12 -41
12 -213 4 -203 -10 -233 -9 -222 8 3 5 -11 9 -30 9 -29 0 -34 4 -33 20 1 16 9
20 42 21 22 1 47 1 57 0 9 -1 56 5 105 13 48 9 122 16 163 17 84 1 122 9 127
26 4 12 -14 12 -34 0 -6 -4 -13 -4 -15 0 -1 5 -21 16 -42 26 -29 14 -41 15
-46 6 -4 -6 -13 -8 -19 -5 -6 4 -9 12 -6 17 10 15 -12 10 -29 -6 -20 -21 -29
-19 -23 5 3 13 0 20 -9 20 -8 0 -14 -4 -14 -10 0 -5 -13 -7 -32 -3 -22 4 -29
3 -24 -5 4 -7 1 -12 -8 -12 -8 0 -18 5 -21 10 -4 6 -13 7 -23 1 -10 -5 -42 -9
-72 -8 -44 1 -55 -2 -58 -15 -2 -13 4 -17 25 -16 15 1 78 0 138 -1 145 -3 109
-18 -54 -23 l-121 -3 0 40 0 40 -72 -2 c-47 -1 -75 2 -80 10 -4 7 -8 -6 -8
-28 0 -38 2 -41 45 -58 25 -11 45 -26 45 -34 0 -10 -6 -13 -16 -9 -9 3 -12 2
-9 -5 8 -12 -24 -51 -36 -43 -5 3 -9 -9 -9 -26 0 -27 -3 -31 -22 -28 -17 2
-22 9 -21 26 2 16 -2 22 -17 22 -22 0 -44 35 -34 53 6 9 3 8 -8 -1 -13 -10
-18 -10 -24 -1 -4 7 3 20 17 32 16 13 20 21 12 24 -7 3 -13 9 -13 14 0 4 6 6
14 3 12 -4 13 11 10 87 -2 51 -6 94 -9 97 -13 13 -20 -17 -23 -106 l-4 -98
-34 4 c-19 2 -40 0 -47 -6 -14 -12 -97 -4 -97 9 0 5 6 9 13 10 38 2 58 7 64
13 5 5 -11 7 -33 4 -31 -2 -40 0 -37 9 3 7 0 13 -7 13 -6 0 -8 5 -4 12 5 8 2
9 -11 5 -9 -4 -24 -2 -31 4 -11 9 -14 9 -14 0 0 -7 -6 -11 -12 -10 -28 3 -37
-2 -40 -23 -2 -19 -9 -23 -35 -22 -41 2 -43 -12 -3 -21 28 -6 30 -9 25 -43 -2
-20 -7 -77 -10 -126 -2 -49 -6 -91 -9 -93 -2 -2 -6 14 -10 37 -7 43 -20 49
-52 25 -26 -20 -32 -19 -36 7 -6 41 -26 31 -33 -16 -9 -59 -25 -49 -25 15 0
37 -5 53 -20 66 -16 14 -20 30 -20 85 0 39 -4 68 -10 68 -5 0 -10 5 -10 11 0
6 10 8 23 5 12 -3 16 -3 10 0 -7 3 -13 11 -13 18 0 18 -61 19 -74 1 -7 -9 -13
-55 -14 -103 -1 -48 -7 -89 -12 -90 -6 -2 -8 -8 -4 -13 3 -5 -1 -9 -8 -9 -7 0
-2 -6 12 -13 34 -17 36 -41 5 -55 -15 -7 -25 -18 -23 -24 4 -10 -52 -58 -67
-58 -2 0 -10 14 -19 30 -14 28 -13 30 5 30 13 0 18 -4 13 -12 -4 -7 -3 -8 5
-4 6 4 9 11 6 16 -3 4 1 11 7 13 8 4 7 6 -3 6 -9 1 -20 8 -23 17 -3 8 -11 12
-17 8 -8 -4 -8 0 0 15 6 11 23 24 36 27 36 9 30 26 -7 22 l-33 -3 -3 63 c-3
57 -5 64 -28 72 -34 13 -33 13 -43 -13 -13 -34 -41 -31 -41 5 0 23 4 28 25 28
14 0 25 5 25 10 0 6 -11 8 -25 6 -22 -4 -25 -1 -25 25 0 27 -3 29 -35 29 -31
0 -35 -3 -35 -25 0 -16 -6 -25 -16 -25 -9 0 -12 5 -8 12 4 7 3 8 -5 4 -6 -4
-9 -11 -6 -15 6 -11 -266 -8 -283 3 -14 9 -52 -1 -52 -14 0 -6 -10 -6 -24 0
-13 5 -33 6 -44 3 -19 -5 -20 -11 -16 -126 2 -67 4 -129 4 -137 1 -12 3 -11
14 3 12 16 14 16 20 1 14 -36 7 -54 -21 -54 l-28 -1 25 -14 c25 -14 24 -14
-18 -15 -26 0 -41 4 -37 10 4 6 -6 10 -24 10 -16 0 -33 -5 -36 -10 -4 -6 -14
-10 -23 -9 -10 2 -35 0 -57 -4 -87 -16 -98 -16 -45 2 37 13 47 19 31 20 -28 1
-91 22 -91 31 1 18 21 32 39 27 17 -4 19 -2 11 13 -6 10 -10 28 -10 39 0 10
-6 22 -12 24 -10 4 -10 8 1 15 9 7 10 12 2 16 -6 4 -11 12 -11 17 0 6 5 7 12
3 7 -5 8 -3 4 5 -5 7 -15 9 -25 6 -9 -4 -25 -8 -36 -9 -13 -1 -20 -8 -19 -22
0 -19 -3 -20 -35 -13 -56 13 -121 11 -137 -6 -13 -12 -12 -15 5 -24 29 -16 17
-49 -16 -43 -22 4 -24 9 -20 42 l4 38 -46 -2 c-25 -1 -51 -5 -58 -9 -6 -4 -13
-1 -16 5 -3 10 -8 10 -21 -1 -14 -12 -19 -12 -25 -2 -6 9 -29 11 -82 8 -100
-6 -145 -19 -141 -40 2 -9 -2 -17 -9 -17 -7 0 -9 10 -7 25 3 14 1 25 -3 25 -5
0 -10 -8 -10 -17 -2 -24 -2 -25 7 -48 5 -14 -3 -9 -24 14 -22 23 -32 28 -32
17 0 -9 -5 -16 -11 -16 -5 0 -7 4 -4 10 3 5 -1 10 -9 10 -9 0 -16 -4 -16 -8 0
-4 -15 -6 -34 -4 -25 3 -33 8 -29 18 4 10 0 12 -11 8 -13 -5 -16 1 -16 30 l0
36 93 1 c102 0 189 5 287 16 72 8 66 8 147 -1 41 -5 54 -4 43 3 -13 9 -12 11
5 12 16 0 14 3 -9 13 -20 9 -25 16 -16 21 7 4 16 2 21 -6 6 -11 38 -14 146
-12 172 2 213 5 213 15 0 4 -15 8 -32 9 -27 0 -29 2 -13 8 11 5 25 6 30 3 13
-8 84 -9 80 -1 -2 3 3 6 11 6 8 0 13 -6 10 -14 -4 -10 1 -12 19 -9 28 5 43 -9
20 -18 -21 -8 -19 -21 5 -23 16 -1 20 5 21 30 0 27 2 29 9 12 l9 -20 0 20 c1
11 -4 38 -10 60 -10 33 -13 37 -19 20 -4 -11 -5 -26 -3 -33 4 -8 0 -10 -11 -6
-11 4 -16 18 -16 42 0 46 -10 36 -12 -12 -1 -28 -4 -33 -10 -22 -5 9 -14 16
-19 16 -6 0 -7 -5 -3 -11 4 -8 -1 -9 -17 -3 -13 4 -31 7 -39 5 -18 -2 -91 -3
-235 -3 -70 1 -112 -3 -116 -10 -6 -10 -17 -13 -64 -17 -5 -1 -3 -6 5 -11 17
-11 17 -11 -28 -15 -18 -1 -35 1 -38 6 -3 5 4 9 15 9 12 0 21 3 21 8 0 4 -11
7 -24 7 -13 0 -22 -4 -19 -8 2 -4 -8 -5 -24 -2 -20 4 -23 3 -9 -3 15 -6 17
-11 7 -17 -11 -6 -11 -9 0 -16 10 -6 10 -9 2 -9 -6 0 -15 5 -18 10 -4 6 -11 7
-17 4 -8 -5 -9 -1 -5 10 9 24 -12 64 -24 45 -6 -11 -9 -10 -15 4 -4 12 -17 17
-45 17 -21 0 -39 5 -39 11 0 7 -11 8 -33 3 -17 -4 -63 -8 -102 -9 -141 -4
-138 -3 -132 -25 3 -11 2 -20 -2 -20 -10 0 -21 125 -21 223 l0 69 -30 -4 c-20
-3 -30 0 -30 9 0 7 -4 13 -10 13 -5 0 -10 -7 -10 -15 0 -20 -116 -22 -123 -2
-4 10 -6 10 -6 0 -1 -7 -7 -13 -15 -13 -8 0 -16 6 -19 13 -2 6 -7 9 -11 6 -6
-6 -13 -53 -33 -233 -5 -47 -8 -55 -14 -38 -7 19 -16 22 -63 22 -45 0 -54 3
-50 15 4 8 1 15 -5 15 -6 0 -11 -7 -11 -16 0 -14 -8 -16 -52 -10 -29 4 -55 11
-58 16 -5 7 -139 16 -400 26 -63 2 -131 6 -150 9 -19 3 -49 6 -66 8 -17 1 -39
10 -48 20 -18 17 -46 23 -46 9 0 -4 -13 -8 -30 -8 -19 -1 -30 3 -30 12 0 10
-16 14 -57 15 -42 0 -52 3 -38 9 16 7 17 9 3 9 -22 1 -68 -20 -68 -31 0 -5 -9
-4 -21 3 -33 17 -10 28 76 33 54 3 72 2 55 -4 -18 -7 -11 -8 25 -3 28 3 79 9
115 13 63 7 62 7 -40 10 -158 3 -201 2 -250 -6 -36 -5 -41 -8 -25 -15 17 -6
17 -8 3 -8 -16 -1 -18 -15 -18 -145 l0 -144 190 -1 c121 -1 190 3 190 9 0 5
-5 10 -11 10 -6 0 -4 7 5 15 8 8 34 16 58 16 l43 2 -35 6 c-32 6 -33 7 -11 13
26 7 72 -10 70 -26 -3 -26 2 -35 16 -30 10 4 15 0 15 -15 0 -12 5 -21 10 -21
6 0 10 10 10 23 0 21 3 22 75 19 71 -3 75 -5 75 -27 0 -13 -5 -27 -10 -30 -6
-4 -8 -11 -5 -16 12 -19 -9 -8 -29 16 -15 17 -27 23 -44 19 -12 -4 -22 -12
-22 -19 0 -8 -8 -16 -17 -19 -10 -3 -6 -4 9 -2 28 3 54 -16 44 -32 -3 -5 -20
-12 -37 -16 -28 -5 -30 -8 -18 -23 13 -15 12 -15 -18 0 -22 12 -59 17 -120 18
-48 0 -110 4 -138 8 -44 6 -47 8 -25 15 24 9 24 9 -15 21 -24 7 -42 8 -46 2
-4 -5 -12 -6 -19 -2 -24 15 12 23 98 24 47 0 87 3 90 6 3 3 -82 4 -189 3 -107
-2 -178 -4 -158 -6 31 -3 36 -6 32 -23 -5 -17 -17 -23 -50 -22 -10 1 -13 -144
-13 -689 l0 -690 68 6 c70 6 70 6 -45 -20 l-23 -4 0 -676 0 -675 232 118 c127
65 230 122 229 126 -2 5 9 21 23 36 26 27 22 62 -4 46 -8 -5 -11 -4 -7 2 4 6
-11 15 -32 22 -21 6 -44 18 -51 26 -28 34 48 93 115 91 18 -1 35 6 43 17 7 9
20 17 28 17 9 0 12 5 8 11 -4 7 -1 10 7 7 8 -3 28 4 44 16 32 22 33 23 65 25
28 2 27 27 -16 229 -33 154 -35 175 -22 188 8 9 113 36 244 64 126 27 248 53
272 58 53 12 78 -5 90 -63 6 -30 14 -41 32 -46 25 -7 25 -7 2 -8 -28 -1 -19
-21 9 -21 24 0 25 -28 1 -32 -18 -3 -18 -8 6 -113 25 -113 31 -130 40 -106 16
45 96 81 164 74 66 -8 115 7 306 92 92 40 259 110 372 155 113 45 261 104 330
132 161 65 359 142 585 228 305 116 337 129 357 147 18 17 18 18 1 24 -10 4
-35 8 -55 8 -36 1 -43 7 -39 38 3 21 -85 34 -369 58 -102 8 -203 18 -226 21
-32 5 -42 2 -47 -10 -7 -18 -33 -22 -39 -6 -2 6 -30 4 -73 -5 -47 -10 -122
-15 -230 -14 -98 1 -212 -5 -295 -15 -179 -22 -734 -95 -994 -131 -17 -2 -116
-16 -221 -30 -104 -14 -251 -34 -325 -44 -123 -17 -151 -18 -139 -7 2 2 65 11
139 21 74 9 212 27 305 40 94 14 260 36 370 50 110 14 247 32 305 40 58 8 206
29 330 46 124 17 241 35 261 40 54 14 55 33 3 59 -44 21 -45 23 -28 41 9 10
25 19 36 19 10 0 18 3 18 8 0 7 -40 24 -233 93 -64 23 -116 44 -114 45 4 4 71
-17 202 -64 156 -55 184 -60 207 -30 9 13 18 18 18 12 0 -8 25 -12 69 -12 61
0 70 2 74 20 3 11 10 17 16 13 6 -3 9 0 5 8 -3 8 7 54 22 101 31 100 11 93
213 72 73 -8 126 -18 131 -25 4 -7 -3 -49 -16 -94 -41 -141 -40 -129 -10 -121
17 4 26 2 26 -5 0 -17 46 9 125 70 37 28 68 49 70 47 2 -2 -24 -26 -59 -53
-42 -33 -60 -53 -52 -58 7 -6 5 -7 -6 -4 -9 3 -29 -4 -43 -15 -22 -17 -24 -23
-12 -30 17 -9 12 -48 -7 -48 -6 0 -4 -4 4 -9 8 -5 80 -14 160 -20 80 -6 217
-19 304 -28 147 -14 160 -14 171 1 7 9 22 16 33 16 36 0 50 24 45 77 -3 26 -9
52 -14 57 -12 14 -11 73 1 81 17 10 194 33 201 26 4 -3 9 -19 11 -36 3 -16 3
-24 1 -17 -6 16 -22 15 -19 -1 1 -8 9 -26 19 -40 9 -15 17 -36 17 -47 0 -12 5
-31 11 -42 9 -17 8 -24 -4 -33 -19 -14 -164 -51 -172 -44 -2 3 -7 23 -9 45 -2
21 -6 46 -9 54 -3 8 -13 35 -21 60 -9 25 -14 34 -11 20 3 -14 14 -65 25 -114
10 -48 21 -90 23 -92 2 -2 23 2 48 10 24 7 64 19 89 27 25 7 49 15 53 19 4 4
29 3 55 -1 26 -4 49 -5 51 -3 2 2 -1 4 -8 4 -7 0 -9 5 -6 10 9 15 95 9 111 -8
8 -7 14 -10 14 -5 0 4 4 2 9 -6 6 -10 21 -11 60 -6 28 4 49 11 46 15 -3 4 4 6
15 3 11 -3 41 0 68 7 26 6 85 18 132 25 120 20 270 57 265 65 -3 4 -22 10 -42
13 -21 4 -50 17 -64 31 -14 13 -34 26 -45 29 -10 2 2 5 28 6 56 1 57 20 2 40
-20 7 -34 14 -32 17 4 3 99 -25 142 -42 13 -5 17 -4 12 4 -13 22 28 30 113 22
62 -7 94 -6 122 4 21 8 36 10 34 5 -3 -4 -1 -10 5 -14 5 -3 11 2 11 12 1 10 5
5 9 -12 6 -25 8 -26 9 -7 0 13 5 20 11 17 6 -4 7 -11 4 -17 -4 -6 3 -5 16 2
29 15 67 5 106 -30 25 -22 46 -29 96 -35 136 -14 457 -67 441 -72 -6 -2 -57 3
-114 12 -351 55 -415 62 -404 45 3 -5 -3 -10 -15 -10 -13 0 -24 -9 -30 -25
-10 -25 -21 -31 -34 -18 -12 12 -176 15 -176 3 0 -5 5 -10 10 -10 6 0 10 -7
10 -15 0 -20 -28 -8 -35 15 -5 15 -11 17 -29 10 -17 -6 -30 -4 -45 7 -17 12
-28 13 -49 4 -15 -6 -101 -24 -192 -41 -273 -52 -295 -57 -293 -67 1 -6 -8 -8
-21 -6 -13 3 -50 -1 -82 -8 -52 -11 -56 -13 -30 -18 34 -7 34 -7 17 -38 -6
-13 -21 -23 -32 -23 -13 0 -18 -4 -13 -12 5 -8 -2 -9 -27 -5 -24 5 -30 4 -19
-3 13 -8 13 -10 0 -10 -25 0 22 -27 111 -64 46 -19 138 -57 204 -84 66 -27
183 -75 260 -106 77 -31 148 -61 157 -66 9 -5 61 -28 115 -51 54 -23 134 -57
178 -76 44 -19 107 -46 140 -60 33 -14 74 -31 90 -38 17 -7 64 -27 105 -44 41
-16 122 -51 180 -77 58 -25 152 -65 210 -89 58 -24 146 -61 195 -83 149 -65
232 -92 265 -86 16 4 29 9 28 13 -5 42 31 57 99 41 29 -7 53 -17 53 -22 0 -14
172 -9 215 6 43 15 90 11 115 -9 8 -7 24 -15 35 -18 17 -4 16 -5 -4 -6 -36 -2
-21 -10 40 -21 92 -18 125 -21 111 -12 -8 5 8 9 43 10 43 1 66 -5 103 -25 82
-45 142 -89 134 -98 -4 -5 -1 -5 6 -1 7 4 19 2 27 -4 19 -16 19 -31 0 -24 -10
4 -15 0 -15 -14 0 -12 -8 -25 -17 -31 -21 -11 -23 -10 122 -59 50 -17 98 -33
108 -37 16 -7 17 43 17 1003 0 792 -3 1012 -13 1015 -9 4 -9 6 0 6 9 1 12 37
12 130 1 96 -2 128 -12 127 -6 0 -12 4 -12 9 0 6 6 9 13 9 10 -2 12 85 10 420
l-3 421 -35 -4 c-19 -1 -38 -8 -42 -13 -3 -7 -29 -9 -65 -6 -32 3 -48 4 -35 1
12 -2 22 -9 22 -14 0 -5 -73 -9 -174 -9 l-175 0 -4 28 -4 27 -2 -29z m-46 -66
c28 -7 -4 -8 -105 -5 -80 3 -197 6 -260 6 -90 2 -105 4 -70 10 56 9 381 1 435
-11z m-675 -10 c0 -5 -9 -10 -20 -10 -11 0 -20 5 -20 10 0 6 9 10 20 10 11 0
20 -4 20 -10z m1117 -26 c-7 -8 -97 -7 -105 1 -3 3 21 5 53 5 32 0 56 -3 52
-6z m-538 -127 c13 -12 21 -16 17 -9 -4 6 -4 12 0 12 10 0 44 -41 44 -53 0 -6
-7 -2 -16 9 -13 16 -15 16 -10 2 7 -23 -11 -33 -32 -17 -15 12 -15 12 1 -7 20
-24 23 -41 4 -25 -11 8 -18 6 -33 -11 -10 -12 -14 -18 -7 -15 8 5 11 0 10 -12
0 -11 -5 -17 -9 -15 -4 3 -8 0 -8 -6 0 -6 -8 -10 -17 -8 -10 1 -24 -1 -30 -5
-8 -5 -13 -3 -13 3 0 6 -5 8 -12 4 -6 -4 -8 -3 -5 4 9 13 -2 44 -13 37 -14 -9
-29 20 -26 49 2 15 9 32 17 37 11 7 10 9 -6 9 -15 0 -12 5 15 25 41 29 91 26
129 -8z m-5231 7 c2 -1 -18 -2 -45 -2 -34 0 -42 3 -28 8 17 7 63 3 73 -6z
m5349 -36 c-3 -8 -6 -5 -6 6 -1 11 2 17 5 13 3 -3 4 -12 1 -19z m33 -30 c0 -9
4 -8 11 2 9 12 10 12 5 -3 -3 -10 -6 -28 -6 -39 0 -14 -5 -18 -15 -15 -8 4
-17 2 -20 -3 -14 -22 -25 -7 -23 30 1 35 4 40 25 40 12 0 23 -6 23 -12z
m-1313 -55 c-3 -10 -5 -2 -5 17 0 19 2 27 5 18 2 -10 2 -26 0 -35z m-1450 -40
c-3 -10 -5 -4 -5 12 0 17 2 24 5 18 2 -7 2 -21 0 -30z m2803 -29 c0 -2 -7 -4
-15 -4 -8 0 -15 7 -15 15 0 8 -5 15 -10 15 -6 0 -6 6 2 13 10 12 15 10 25 -11
7 -13 13 -26 13 -28z m-77 32 c7 -18 -1 -26 -25 -26 -20 0 -21 1 -12 24 8 20
30 21 37 2z m-2253 -46 c0 -5 -5 -10 -11 -10 -5 0 -7 5 -4 10 3 6 8 10 11 10
2 0 4 -4 4 -10z m-2203 -36 c-3 -3 -12 -4 -19 -1 -8 3 -5 6 6 6 11 1 17 -2 13
-5z m40 0 c-3 -3 -12 -4 -19 -1 -8 3 -5 6 6 6 11 1 17 -2 13 -5z m753 -79 c0
-47 -2 -85 -5 -85 -2 0 -15 5 -29 11 -27 13 -61 7 -90 -16 -17 -13 -17 -16 -3
-29 14 -14 14 -33 1 -75 -10 -32 -22 9 -29 97 l-7 92 48 1 c27 1 63 5 79 10
20 5 2 7 -52 3 -75 -4 -83 -3 -93 16 -14 25 -30 26 -37 1 -3 -11 -13 -21 -24
-24 -12 -3 -22 -17 -25 -36 -4 -20 -13 -31 -23 -31 -14 0 -17 11 -16 68 l0 67
120 5 c66 4 135 7 153 8 l32 2 0 -85z m710 75 c0 -5 -5 -10 -11 -10 -5 0 -7 5
-4 10 3 6 8 10 11 10 2 0 4 -4 4 -10z m1110 6 c0 -2 -7 -6 -15 -10 -8 -3 -15
-1 -15 4 0 6 7 10 15 10 8 0 15 -2 15 -4z m-2703 -12 c-3 -3 -12 -4 -19 -1 -8
3 -5 6 6 6 11 1 17 -2 13 -5z m523 -84 c0 -92 -12 -120 -24 -52 -12 72 -7 142
9 142 12 0 15 -17 15 -90z m-833 74 c-3 -3 -12 -4 -19 -1 -8 3 -5 6 6 6 11 1
17 -2 13 -5z m-710 -26 c-3 -8 -6 -5 -6 6 -1 11 2 17 5 13 3 -3 4 -12 1 -19z
m330 -25 c-3 -10 -5 -4 -5 12 0 17 2 24 5 18 2 -7 2 -21 0 -30z m375 19 c3
-11 0 -19 -8 -19 -16 0 -16 0 -8 21 8 21 11 20 16 -2z m89 1 c13 -15 12 -15
-8 -4 -24 12 -29 21 -14 21 5 0 15 -7 22 -17z m329 7 c0 -5 -4 -10 -10 -10 -5
0 -10 5 -10 10 0 6 5 10 10 10 6 0 10 -4 10 -10z m50 6 c0 -2 -7 -7 -16 -10
-8 -3 -12 -2 -9 4 6 10 25 14 25 6z m-536 -17 c17 2 26 -1 22 -7 -3 -6 -16 -8
-28 -4 -16 4 -19 2 -13 -9 7 -12 6 -12 -7 -1 -13 10 -17 10 -21 0 -2 -7 -7
-10 -11 -7 -11 10 5 39 18 32 6 -4 24 -6 40 -4z m3530 2 c45 -2 23 -13 -26
-13 -32 0 -38 -2 -23 -8 16 -7 17 -9 3 -9 -10 -1 -23 5 -30 12 -7 8 -20 12
-30 9 -10 -2 -18 0 -18 6 0 8 18 9 124 3z m-4774 -19 c0 -4 -10 -9 -22 -9 -13
-1 -34 -5 -46 -8 -14 -3 -21 -2 -18 4 3 5 0 12 -6 15 -7 2 6 3 30 1 25 -3 42
-1 42 6 0 5 5 7 10 4 6 -3 10 -9 10 -13z m468 9 c11 -7 11 -9 -1 -14 -9 -3
-18 1 -21 9 -6 16 2 18 22 5z m528 -6 c13 -13 13 -15 1 -15 -8 0 -17 7 -21 15
-3 8 -3 15 0 15 3 0 12 -7 20 -15z m-936 -5 c0 -5 -9 -10 -21 -10 -11 0 -17 5
-14 10 3 6 13 10 21 10 8 0 14 -4 14 -10z m310 0 c0 -5 -4 -10 -10 -10 -5 0
-10 5 -10 10 0 6 5 10 10 10 6 0 10 -4 10 -10z m60 2 c0 -4 -9 -8 -20 -9 -11
-1 -18 2 -15 8 7 11 35 12 35 1z m125 -2 c4 -6 -2 -9 -14 -7 -29 4 -39 17 -13
17 11 0 24 -5 27 -10z m4779 -5 c-3 -7 -14 -11 -25 -8 -27 7 -24 18 5 19 16 1
23 -3 20 -11z m86 -1 c0 -2 -16 -4 -36 -4 -19 0 -33 4 -30 8 5 8 66 4 66 -4z
m-330 -4 c0 -5 -2 -10 -4 -10 -3 0 -8 5 -11 10 -3 6 -1 10 4 10 6 0 11 -4 11
-10z m1380 -5 c-7 -9 -15 -13 -19 -10 -3 3 1 10 9 15 21 14 24 12 10 -5z m169
-11 c10 -9 -35 -3 -49 6 -11 8 -7 9 15 4 17 -4 32 -8 34 -10z m-6080 2 c-12
-10 -59 -15 -59 -6 0 5 14 10 32 10 17 0 29 -2 27 -4z m3163 -18 c-9 -9 -15
-9 -24 0 -9 9 -7 12 12 12 19 0 21 -3 12 -12z m-3556 -13 c-4 -24 -16 -30 -16
-7 0 12 4 22 9 22 5 0 8 -7 7 -15z m54 5 c0 -5 -5 -10 -11 -10 -5 0 -7 5 -4
10 3 6 8 10 11 10 2 0 4 -4 4 -10z m210 -14 c-14 -12 -27 -20 -30 -16 -3 4
-27 8 -55 9 -28 1 -56 8 -64 16 -14 13 -4 15 79 15 l95 0 -25 -24z m150 -6 c0
-5 -4 -10 -10 -10 -5 0 -10 5 -10 10 0 6 5 10 10 10 6 0 10 -4 10 -10z m2888
-8 c2 -7 -3 -12 -12 -12 -9 0 -16 7 -16 16 0 17 22 14 28 -4z m427 -3 c61 -5
153 -12 205 -15 52 -3 120 -9 150 -14 30 -5 121 -12 203 -16 81 -4 149 -9 151
-13 2 -3 1 -50 -1 -103 l-6 -97 -50 4 c-38 2 -53 8 -57 21 -6 16 -7 15 -12 -4
-9 -34 -52 -24 -53 13 0 6 -8 9 -18 9 -13 -1 -19 8 -23 37 -4 23 -12 39 -20
39 -8 0 -14 7 -14 15 0 8 -7 15 -16 15 -9 0 -12 5 -8 12 5 7 3 8 -6 3 -8 -5
-23 -9 -34 -10 -30 -1 -66 -36 -66 -62 0 -13 -6 -23 -14 -23 -8 0 -18 -13 -24
-28 -9 -25 -14 -28 -48 -25 l-39 3 35 -11 c19 -7 29 -14 23 -16 -7 -3 -13 -18
-13 -34 0 -42 -27 -38 -36 6 -3 19 -11 36 -18 36 -40 4 -66 18 -66 36 0 9 6
13 13 10 8 -3 20 -1 28 4 9 5 -19 8 -73 8 -49 0 -88 -5 -88 -10 0 -5 -5 -9
-11 -9 -5 0 -7 5 -4 10 4 6 -6 10 -22 10 -17 0 -33 8 -40 19 -11 17 -9 19 23
18 39 -1 54 14 46 47 -8 32 -22 46 -48 46 -27 0 -33 -27 -9 -36 21 -9 19 -36
-2 -32 -12 2 -19 14 -21 36 -3 30 -6 32 -42 32 -36 0 -40 -3 -48 -32 -13 -51
-26 -39 -29 27 -2 33 -5 68 -7 77 -4 16 2 17 47 13 29 -3 102 -10 162 -16z
m-255 -71 c-1 -46 -1 -92 1 -103 3 -17 -3 -21 -46 -26 -27 -3 -43 -7 -35 -8
10 -2 7 -6 -8 -14 -17 -8 -25 -8 -30 0 -4 6 -34 14 -67 18 -68 8 -98 21 -92
38 4 12 23 16 86 19 19 1 29 4 23 6 -18 6 -14 30 6 42 15 10 15 10 -3 8 -12
-2 -20 3 -20 12 0 8 -4 18 -10 22 -5 4 23 8 63 8 l73 0 -3 -40 c-1 -25 -6 -39
-13 -36 -6 2 -22 -3 -36 -11 -23 -14 -23 -14 14 -8 23 4 37 2 37 -5 0 -14 30
-13 35 3 9 24 12 127 3 127 -8 0 12 29 20 30 2 0 3 -37 2 -82z m1805 62 c-3
-5 -12 -10 -18 -10 -7 0 -6 4 3 10 19 12 23 12 15 0z m-3190 -39 c-4 -17 -14
-35 -23 -41 -15 -8 -15 -9 -1 -10 9 0 21 10 27 23 l11 22 0 -22 c1 -16 7 -23
21 -23 22 0 29 -39 8 -42 -7 0 -17 -2 -23 -3 -5 -2 -19 -3 -30 -4 -17 -1 -18
-3 -5 -12 11 -8 0 -9 -40 -4 -57 7 -75 14 -51 23 11 4 11 6 0 13 -12 8 -11 12
3 22 9 7 19 29 23 49 6 34 10 37 44 40 20 2 38 2 39 1 2 -1 1 -15 -3 -32z
m-535 -5 c0 -20 4 -23 23 -19 18 4 19 3 7 -6 -26 -19 -56 -13 -68 14 -16 35
-16 35 13 35 20 0 25 -5 25 -24z m-670 -16 c0 -5 -10 -10 -22 -9 -22 0 -22 1
-3 9 11 5 21 9 23 9 1 1 2 -3 2 -9z m-57 -7 c-7 -2 -21 -2 -30 0 -10 3 -4 5
12 5 17 0 24 -2 18 -5z m3852 -80 c-5 -49 -8 -99 -8 -112 1 -21 -2 -23 -35
-17 -20 3 -38 10 -40 16 -2 5 -15 10 -28 10 -24 0 -24 1 -24 95 l0 95 71 0 72
0 -8 -87z m-1238 45 c-3 -7 -5 -2 -5 12 0 14 2 19 5 13 2 -7 2 -19 0 -25z
m-347 12 c0 -5 -10 -10 -22 -9 -22 0 -22 1 -3 9 11 5 21 9 23 9 1 1 2 -3 2 -9z
m2577 -16 c-3 -3 -12 -4 -19 -1 -8 3 -5 6 6 6 11 1 17 -2 13 -5z m-509 -11
c-13 -3 -18 -18 -21 -66 l-3 -62 -2 68 c-2 64 -1 67 21 66 16 -1 17 -3 5 -6z
m120 0 c-10 -2 -26 -2 -35 0 -10 3 -2 5 17 5 19 0 27 -2 18 -5z m115 -10 c-7
-2 -21 -2 -30 0 -10 3 -4 5 12 5 17 0 24 -2 18 -5z m-2767 -18 c-8 -8 -23 -15
-33 -15 -14 1 -13 4 7 15 33 19 45 19 26 0z m2924 5 c8 -5 11 -10 5 -10 -5 0
-17 5 -25 10 -8 5 -10 10 -5 10 6 0 17 -5 25 -10z m-5715 -18 c-3 -3 -11 0
-18 7 -9 10 -8 11 6 5 10 -3 15 -9 12 -12z m2555 -2 c-7 -14 -7 -20 0 -20 14
0 13 -33 -2 -48 -8 -8 -9 -12 -1 -12 6 0 14 6 16 13 4 9 8 8 16 -3 6 -8 11
-12 11 -7 0 4 14 0 32 -9 29 -15 30 -17 12 -27 -10 -6 -65 -11 -121 -11 -55
-1 -99 -4 -97 -8 3 -4 -9 0 -25 10 -17 9 -31 19 -31 22 0 11 60 41 70 35 6 -4
10 7 10 24 0 18 -5 31 -12 31 -32 2 52 28 90 29 40 1 42 0 32 -19z m2884 14
c-7 -3 -8 -23 -4 -55 5 -40 3 -52 -9 -60 -12 -7 -9 -8 12 -5 19 3 27 0 27 -10
0 -27 20 -14 21 14 l1 27 8 -30 c4 -16 8 -23 9 -15 1 12 11 14 46 12 25 -2 43
-8 40 -12 -3 -5 3 -11 12 -13 10 -3 3 -5 -14 -6 -18 0 -33 4 -33 9 0 6 -10 10
-22 10 -19 0 -20 -2 -8 -11 11 -8 -2 -9 -48 -5 -35 3 -67 8 -70 10 -4 2 -6 35
-4 73 3 63 5 69 25 70 12 0 17 -1 11 -3z m916 -10 c0 -2 -9 -4 -20 -4 -11 0
-20 4 -20 9 0 5 9 7 20 4 11 -3 20 -7 20 -9z m88 -35 c2 -4 12 -5 22 -2 11 3
20 0 20 -6 0 -6 -5 -11 -11 -11 -5 0 -7 -4 -4 -10 3 -5 1 -10 -4 -10 -6 0 -11
5 -11 10 0 6 -19 19 -42 30 l-43 19 35 -6 c19 -3 36 -9 38 -14z m157 1 c-3 -5
-12 -10 -18 -10 -7 0 -6 4 3 10 19 12 23 12 15 0z m35 -10 c0 -5 -2 -10 -4
-10 -3 0 -8 5 -11 10 -3 6 -1 10 4 10 6 0 11 -4 11 -10z m-290 -10 c12 -8 11
-10 -7 -10 -13 0 -23 5 -23 10 0 13 11 13 30 0z m174 -22 c16 -11 -6 -10 -23
1 -8 5 -10 14 -5 22 6 10 9 10 12 -1 3 -8 10 -18 16 -22z m-3400 6 c4 -10 -1
-25 -11 -36 -16 -18 -16 -18 0 -12 9 3 17 10 17 15 0 6 8 5 19 -1 13 -6 17
-17 14 -30 -4 -15 0 -20 14 -20 10 0 24 -5 30 -11 13 -13 6 -42 -8 -33 -5 3
-9 1 -9 -5 0 -5 8 -11 18 -13 9 -2 -26 -4 -78 -4 -52 0 -106 -3 -120 -8 -24
-7 -25 -7 -5 9 14 12 15 16 5 14 -22 -3 -70 12 -70 22 0 5 14 12 30 16 17 3
30 10 30 15 0 5 5 6 10 3 6 -4 10 7 10 24 0 17 5 31 11 31 6 0 8 9 4 20 -6 18
-2 20 38 20 32 0 47 -5 51 -16z m2443 -30 c-3 -3 -12 -4 -19 -1 -8 3 -5 6 6 6
11 1 17 -2 13 -5z m-587 -24 c0 -13 -7 -20 -19 -20 -22 0 -35 15 -26 30 12 19
45 11 45 -10z m853 13 c-7 -2 -19 -2 -25 0 -7 3 -2 5 12 5 14 0 19 -2 13 -5z
m-3083 -13 c-13 -9 -13 -10 1 -10 18 0 69 -23 69 -31 0 -11 -48 -58 -54 -52
-12 12 -18 -28 -6 -42 10 -12 9 -15 -4 -15 -10 0 -14 -5 -11 -11 4 -6 13 -8
21 -5 8 3 14 1 14 -5 0 -7 -10 -9 -25 -5 -14 4 -25 2 -25 -4 0 -5 -5 -9 -11
-7 -6 1 -13 -3 -16 -10 -3 -9 4 -10 24 -4 15 4 34 6 41 4 6 -3 17 6 22 19 9
19 10 16 7 -19 -1 -24 -2 -43 -1 -43 1 0 10 -3 20 -7 12 -5 15 -3 9 6 -6 10
-3 11 14 2 15 -8 21 -8 21 -1 0 6 10 2 22 -10 12 -11 27 -20 32 -21 6 -1 0 -4
-14 -8 -14 -4 -24 -14 -24 -23 1 -10 -4 -14 -12 -11 -7 2 -38 -1 -69 -7 -41
-8 -60 -9 -68 -1 -7 7 -14 7 -23 0 -9 -7 -19 -7 -33 1 -12 6 -21 7 -21 2 0 -5
-11 -7 -25 -4 -14 2 -25 8 -25 12 0 5 -10 10 -22 12 -30 4 -32 42 -3 44 66 3
65 2 65 43 0 23 7 46 16 55 19 19 19 19 44 4 10 -7 23 -8 27 -4 4 5 2 11 -4
13 -19 7 -16 41 5 46 10 3 6 5 -11 6 -17 1 -26 -3 -22 -9 3 -5 -1 -10 -10 -10
-9 0 -14 4 -10 9 3 5 -3 16 -14 23 -15 11 -17 17 -8 29 16 20 79 59 97 59 13
0 13 -1 0 -10z m2948 3 c-10 -2 -28 -2 -40 0 -13 2 -5 4 17 4 22 1 32 -1 23
-4z m228 -16 c8 3 39 2 69 -2 39 -4 55 -11 55 -21 0 -8 -4 -13 -9 -9 -5 3 -12
1 -16 -5 -3 -5 3 -10 14 -10 12 0 21 -5 21 -11 0 -8 5 -8 15 1 20 17 29 -7 16
-42 -13 -34 -4 -43 58 -58 53 -13 54 -13 34 -30 -19 -15 -19 -18 -4 -28 13
-10 9 -11 -24 -7 -22 2 -103 6 -180 7 -120 3 -142 6 -157 21 -9 10 -26 19 -37
20 -33 2 -25 15 14 23 20 3 43 13 51 22 13 12 17 13 24 2 5 -8 12 12 18 51 l9
64 2 -66 1 -67 73 -4 c39 -3 76 -1 82 4 5 4 -23 8 -63 8 -49 0 -74 4 -77 13
-2 6 -5 44 -8 82 -2 39 -2 62 0 53 3 -10 10 -15 19 -11z m92 16 c-10 -2 -28
-2 -40 0 -13 2 -5 4 17 4 22 1 32 -1 23 -4z m59 1 c-3 -3 -12 -4 -19 -1 -8 3
-5 6 6 6 11 1 17 -2 13 -5z m-282 -14 c-11 -5 -36 -8 -55 -8 l-35 1 35 7 c19
4 44 8 55 8 l20 1 -20 -9z m565 0 c0 -5 -6 -10 -14 -10 -8 0 -18 5 -21 10 -3
6 3 10 14 10 12 0 21 -4 21 -10z m275 0 c-3 -5 -12 -10 -18 -10 -7 0 -6 4 3
10 19 12 23 12 15 0z m-6235 -14 c0 -3 -4 -8 -10 -11 -5 -3 -10 -1 -10 4 0 6
5 11 10 11 6 0 10 -2 10 -4z m3343 -29 c10 -4 28 -2 39 4 15 8 19 8 14 0 -4
-6 0 -11 8 -11 8 0 21 -10 28 -22 l12 -23 8 25 c5 18 7 12 5 -23 -2 -34 1 -46
10 -42 7 2 13 0 13 -5 0 -18 20 -10 21 8 0 12 2 13 6 3 5 -11 7 -11 14 0 7 11
9 10 9 -3 0 -10 -4 -18 -8 -18 -5 0 -9 -7 -9 -15 0 -8 4 -12 9 -9 4 3 8 1 8
-4 0 -5 21 1 47 14 85 44 191 29 280 -38 30 -23 31 -25 12 -36 -17 -11 -24 -9
-50 13 -17 14 -36 25 -42 25 -6 0 0 -8 13 -17 34 -24 50 -46 40 -57 -5 -5 -21
1 -38 13 -40 28 -50 27 -16 -2 36 -31 24 -56 -13 -27 -14 11 -31 20 -37 20 -6
-1 2 -8 17 -16 44 -24 28 -39 -41 -39 -52 -1 -59 2 -49 14 10 12 9 13 -11 2
-33 -17 -42 -3 -13 20 27 22 14 26 -15 4 -36 -28 -48 -8 -16 28 17 20 17 20
-10 3 -38 -25 -50 0 -14 31 33 28 24 30 -14 3 -24 -17 -29 -18 -40 -5 -6 8 -9
18 -7 22 8 13 -67 2 -76 -11 -6 -8 -10 -8 -14 2 -2 7 -22 12 -44 12 -22 0 -38
-4 -34 -9 3 -5 -6 -26 -20 -47 -29 -43 -31 -41 -9 11 8 20 13 40 10 43 -3 3
-6 0 -6 -6 0 -7 -5 -12 -11 -12 -5 0 -7 5 -4 10 4 6 -5 10 -19 10 -14 0 -26 5
-26 10 0 6 -7 10 -15 10 -20 0 -19 20 3 36 22 17 35 18 26 2 -4 -8 -3 -10 2
-5 9 8 10 12 13 40 1 8 4 7 11 -3 5 -8 10 -10 10 -4 0 5 -6 16 -12 23 -10 11
-10 13 0 7 12 -7 17 15 13 54 -1 10 1 11 6 4 4 -6 16 -13 26 -17z m-3502 -4
c13 -17 13 -17 -6 -3 -11 8 -22 16 -24 17 -2 2 0 3 6 3 6 0 17 -8 24 -17z
m2369 -9 c0 -2 -9 0 -20 6 -11 6 -20 13 -20 16 0 2 9 0 20 -6 11 -6 20 -13 20
-16z m-2107 -1 c-9 -3 -13 -31 -13 -91 0 -67 3 -83 12 -74 7 7 32 12 58 11 35
0 40 -2 24 -9 -26 -10 -39 -28 -21 -27 42 1 57 -4 57 -22 0 -18 -19 -26 -115
-46 l-30 -7 35 -19 c23 -13 27 -17 10 -12 -44 14 -221 7 -269 -11 -57 -21 -65
-14 -10 8 49 20 48 30 -2 16 -43 -13 -62 -13 -54 0 4 6 -7 13 -25 16 -53 11
-51 42 5 63 30 10 35 17 35 43 l0 31 24 -22 c21 -19 24 -20 30 -6 3 9 6 47 6
85 0 57 3 69 18 73 24 6 240 7 225 0z m4063 -84 c2 -4 -1 -20 -6 -35 -10 -27
-10 -27 7 -12 19 17 32 10 46 -24 3 -10 10 -18 15 -18 14 0 12 -51 -3 -66 -8
-9 -15 -11 -15 -5 0 6 -7 11 -15 11 -8 0 -15 -4 -15 -10 0 -22 -150 4 -181 31
l-22 19 35 0 c36 0 36 0 42 54 7 51 8 53 34 49 23 -3 24 -2 7 6 -16 8 -11 9
23 9 24 -1 45 -5 48 -9z m-4046 -24 c7 -9 8 -15 2 -15 -5 0 -12 7 -16 15 -3 8
-4 15 -2 15 2 0 9 -7 16 -15z m5175 5 c18 -8 17 -9 -7 -9 -15 -1 -30 4 -33 9
-7 12 12 12 40 0z m-6105 -14 c0 -2 -7 -7 -16 -10 -8 -3 -12 -2 -9 4 6 10 25
14 25 6z m1505 -27 c-4 -6 -1 -10 6 -8 8 1 22 1 32 0 16 -1 16 -3 -3 -23 -11
-12 -17 -24 -14 -27 3 -3 9 1 13 8 7 11 11 9 20 -8 7 -11 9 -21 5 -21 -18 0
21 -29 44 -33 27 -3 26 -4 -10 -20 -59 -27 -228 -20 -228 9 0 9 11 14 30 14
27 0 30 3 31 33 1 17 1 35 0 39 0 4 7 4 17 1 15 -6 15 -5 -1 15 -19 21 -19 21
20 25 21 2 39 4 41 5 2 1 0 -3 -3 -9z m4655 -15 c0 -2 -12 -4 -26 -4 -14 0
-23 4 -20 9 6 8 46 4 46 -5z m-130 -6 c0 -4 -15 -8 -32 -8 -20 0 -28 3 -21 8
16 10 53 10 53 0z m-5870 -18 c0 -5 -2 -10 -4 -10 -3 0 -8 5 -11 10 -3 6 -1
10 4 10 6 0 11 -4 11 -10z m3790 1 c0 -5 -6 -12 -12 -14 -7 -3 -1 -6 15 -6 15
-1 27 4 27 9 0 6 22 10 49 10 l49 0 4 -47 c3 -27 1 -58 -3 -70 -5 -13 -4 -25
1 -28 6 -4 10 -2 10 4 0 6 11 6 33 -1 49 -16 52 -25 16 -42 -35 -16 -261 -38
-302 -29 -21 4 -20 3 3 -12 l25 -16 -25 7 c-41 11 -70 23 -70 29 0 4 5 3 11
-1 6 -3 29 -1 50 6 30 10 36 16 30 28 -12 21 8 39 36 34 22 -4 23 -1 23 52 0
49 -2 56 -20 56 -13 0 -18 5 -14 14 8 21 64 35 64 17z m-440 -31 c0 -5 -19
-10 -42 -9 -37 1 -39 2 -18 9 36 12 60 12 60 0z m-127 -17 c4 -3 52 -6 107 -6
55 0 100 -3 100 -8 0 -4 16 -17 35 -29 34 -21 46 -52 24 -65 -6 -4 -21 2 -33
14 -32 30 -44 26 -13 -5 42 -42 17 -61 -30 -24 -14 11 -31 20 -37 20 -6 0 4
-10 22 -21 17 -12 32 -27 32 -35 0 -19 -15 -18 -48 3 l-27 17 23 -23 c18 -18
21 -26 11 -37 -9 -11 -7 -14 12 -14 19 0 21 -2 9 -10 -16 -10 -43 6 -35 21 3
4 -4 13 -16 20 -17 9 -31 8 -61 -1 -70 -20 -61 14 10 37 l37 12 -40 -5 c-22
-3 -47 -12 -57 -20 -20 -19 -35 0 -17 22 11 13 9 14 -13 9 -36 -9 -43 9 -13
33 14 11 25 23 25 27 0 4 -16 -5 -35 -19 -32 -24 -36 -25 -42 -10 -5 13 4 27
30 49 32 28 34 32 19 42 -15 10 -15 12 -1 12 9 1 19 -2 22 -6z m272 -41 c-3
-3 -11 0 -18 7 -9 10 -8 11 6 5 10 -3 15 -9 12 -12z m-570 -2 c-3 -5 -16 -15
-28 -21 -22 -12 -22 -12 -3 10 19 21 43 30 31 11z m-677 -11 l47 -1 -48 -10
c-34 -8 -47 -14 -43 -24 8 -20 -11 -17 -33 5 -14 14 -16 22 -8 30 6 6 18 9 25
6 8 -3 35 -6 60 -6z m2118 -10 c24 -27 8 -54 -32 -54 -23 0 -30 5 -32 24 -3
15 3 30 14 38 24 17 28 17 50 -8z m-2026 -24 c0 -8 -10 -19 -21 -26 -13 -7
-19 -7 -15 -1 3 6 2 13 -4 17 -15 9 -2 25 21 25 10 0 19 -7 19 -15z m-1422
-22 c23 -9 41 -17 39 -19 -4 -4 -120 35 -127 43 -6 7 32 -4 88 -24z m-571 -19
c-3 -3 -12 -4 -19 -1 -8 3 -5 6 6 6 11 1 17 -2 13 -5z m3250 -20 c-3 -3 -12
-4 -19 -1 -8 3 -5 6 6 6 11 1 17 -2 13 -5z m-2532 -14 c13 -6 15 -9 5 -9 -8 0
-22 4 -30 9 -18 12 -2 12 25 0z m3959 -29 c-3 -3 -15 6 -27 18 l-22 24 27 -19
c14 -10 24 -21 22 -23z m-3784 -35 c131 -47 149 -55 127 -55 -9 -1 -25 3 -35
8 -9 5 -56 24 -104 42 -49 17 -88 33 -88 35 0 6 -1 6 100 -30z m2118 17 c5
-10 7 -24 4 -32 -3 -9 0 -11 9 -6 8 5 10 4 6 0 -10 -11 -27 -14 -107 -19 -36
-2 -83 -6 -105 -10 -35 -6 -34 -5 10 8 28 8 65 15 83 16 27 0 32 4 32 23 0 13
3 27 7 30 13 14 52 7 61 -10z m175 10 c-7 -2 -21 -2 -30 0 -10 3 -4 5 12 5 17
0 24 -2 18 -5z m207 -3 c8 -5 11 -10 5 -10 -5 0 -17 5 -25 10 -8 5 -10 10 -5
10 6 0 17 -5 25 -10z m-260 -4 c0 -2 -9 -6 -20 -9 -11 -3 -20 -1 -20 4 0 5 9
9 20 9 11 0 20 -2 20 -4z m-2117 -33 c-7 -2 -21 -2 -30 0 -10 3 -4 5 12 5 17
0 24 -2 18 -5z m2487 -3 c0 -5 -7 -7 -15 -4 -8 4 -15 8 -15 10 0 2 7 4 15 4 8
0 15 -4 15 -10z m-1213 -25 c-15 -14 -33 -25 -40 -25 -6 0 4 11 23 25 45 31
53 31 17 0z m3213 4 c-11 -8 -8 -9 15 -5 20 5 25 3 16 -3 -11 -7 -10 -11 5
-20 29 -16 11 -13 -25 5 -29 15 -34 34 -8 34 7 0 6 -4 -3 -11z m-1860 -31 c10
-6 7 -7 -10 -2 -14 3 -32 11 -40 16 -10 6 -7 7 10 2 14 -3 32 -11 40 -16z
m1650 12 c-19 -13 -30 -13 -30 0 0 6 10 10 23 10 18 0 19 -2 7 -10z m285 -8
c-3 -3 -11 0 -18 7 -9 10 -8 11 6 5 10 -3 15 -9 12 -12z m-2812 1 c-7 -2 -21
-2 -30 0 -10 3 -4 5 12 5 17 0 24 -2 18 -5z m2603 -19 c24 -14 44 -28 44 -31
0 -4 -86 42 -99 53 -15 13 18 0 55 -22z m150 -32 c-5 -4 -106 46 -106 53 0 3
25 -7 55 -22 30 -15 53 -29 51 -31z m-179 20 c26 -16 57 -32 68 -36 11 -5 15
-10 8 -13 -12 -4 -119 52 -129 68 -9 15 2 11 53 -19z m188 8 c3 -6 -1 -7 -9
-4 -18 7 -21 14 -7 14 6 0 13 -4 16 -10z m69 -12 c-3 -5 -12 -4 -20 3 -19 16
-18 18 6 12 11 -3 17 -9 14 -15z m43 1 c6 -6 28 -17 49 -24 l39 -14 -39 -1
c-22 0 -36 3 -33 7 4 3 -5 15 -20 25 -16 10 -23 18 -17 18 5 0 15 -5 21 -11z
m-3074 -6 c-7 -2 -19 -2 -25 0 -7 3 -2 5 12 5 14 0 19 -2 13 -5z m-100 -20
c-7 -2 -19 -2 -25 0 -7 3 -2 5 12 5 14 0 19 -2 13 -5z m3003 -21 c-4 -3 -14 2
-24 12 -16 18 -16 18 6 6 13 -6 21 -14 18 -18z m97 8 c5 -4 -10 -6 -33 -5 -23
1 -45 6 -50 11 -11 11 71 5 83 -6z m72 -1 c15 -14 -7 -10 -35 7 l-25 15 25 -7
c14 -3 29 -10 35 -15z m126 -7 c-7 -2 -18 1 -23 6 -8 8 -4 9 13 5 13 -4 18 -8
10 -11z m-3404 2 c-3 -3 -12 -4 -19 -1 -8 3 -5 6 6 6 11 1 17 -2 13 -5z m-102
-24 c-11 -5 -31 -8 -45 -8 l-25 0 25 8 c14 4 34 8 45 8 l20 1 -20 -9z m1248
-36 c-7 -18 -17 -18 -33 1 -10 12 -10 18 1 31 12 14 14 14 25 -1 7 -9 10 -23
7 -31z m-4043 16 c-9 -16 -8 -20 6 -20 13 0 16 -7 11 -35 l-6 -35 40 0 c62 0
46 -32 -24 -45 -20 -4 -40 -11 -43 -17 -4 -5 -10 -5 -18 1 -6 5 -43 11 -81 13
-57 2 -70 6 -73 21 -3 12 3 17 20 17 26 0 52 14 54 30 1 5 2 15 3 21 0 5 5 7
11 4 6 -3 7 1 4 10 -4 8 -1 22 6 30 15 18 -1 20 -18 3 -9 -9 -12 -8 -12 5 0
14 11 17 65 17 63 0 65 -1 55 -20z m2710 6 c0 -2 -9 -6 -20 -9 -11 -3 -18 -1
-14 4 5 9 34 13 34 5z m4325 -16 c3 -5 1 -10 -4 -10 -6 0 -11 5 -11 10 0 6 2
10 4 10 3 0 8 -4 11 -10z m-3482 -70 c3 -11 1 -18 -4 -14 -5 3 -9 12 -9 20 0
20 7 17 13 -6z m1850 13 c-7 -2 -21 -2 -30 0 -10 3 -4 5 12 5 17 0 24 -2 18
-5z m70 -10 c-7 -2 -21 -2 -30 0 -10 3 -4 5 12 5 17 0 24 -2 18 -5z m-5348
-22 c-3 -6 -11 -11 -17 -11 -6 0 -6 6 2 15 14 17 26 13 15 -4z m5515 4 c58 -8
111 -15 119 -15 8 0 12 -2 9 -5 -6 -6 -260 24 -267 31 -7 7 30 4 139 -11z
m1254 1 c-6 -15 -44 -29 -44 -17 0 6 29 25 47 30 1 1 0 -5 -3 -13z m-3081 -13
c-7 -2 -21 -2 -30 0 -10 3 -4 5 12 5 17 0 24 -2 18 -5z m2103 -7 c7 -19 120
-39 209 -38 141 1 161 1 240 -7 l80 -8 -65 -3 c-49 -1 -59 -4 -40 -10 18 -6 4
-9 -50 -11 -41 -1 -84 -1 -94 0 -11 1 -17 -1 -13 -5 3 -3 57 -7 119 -8 165 -4
250 -32 380 -128 70 -51 88 -79 68 -103 -19 -23 -43 -18 -86 18 -60 51 -94 72
-154 95 -164 63 -357 46 -493 -44 -40 -26 -70 -25 -81 3 -4 9 0 23 8 32 24 26
123 83 179 102 l52 18 -60 -6 c-33 -3 -229 -48 -435 -99 -206 -52 -376 -94
-379 -94 -24 0 39 19 220 65 118 31 292 76 387 100 95 25 181 45 191 45 9 0
18 6 18 13 0 16 -183 43 -216 32 -12 -4 -30 0 -43 9 -12 9 -30 16 -40 16 -9 0
-19 4 -22 8 -2 4 10 6 29 4 18 -2 36 1 39 7 10 16 46 14 52 -3z m-1789 -22
c-3 -3 -12 -4 -19 -1 -8 3 -5 6 6 6 11 1 17 -2 13 -5z m-106 -45 c27 -12 48
-23 46 -25 -3 -4 -109 34 -116 42 -11 11 25 2 70 -17z m794 -26 c-136 -22
-127 -17 -120 -71 4 -26 13 -72 21 -103 7 -30 15 -65 17 -77 2 -12 9 -28 17
-35 7 -6 10 -7 7 -1 -4 7 23 18 74 29 109 25 113 28 98 92 -9 39 -15 48 -24
40 -10 -9 -9 -14 2 -22 9 -7 13 -23 11 -40 -3 -27 -8 -30 -80 -49 -43 -11 -81
-17 -84 -13 -11 11 -53 202 -46 209 12 11 132 25 138 16 3 -4 10 -6 15 -2 5 3
8 0 7 -8 -2 -8 4 -12 15 -10 21 4 23 -24 1 -32 -12 -5 -13 -8 -2 -20 11 -12
15 -8 24 23 11 34 12 34 13 8 1 -15 8 -53 17 -85 l16 -57 74 -18 c66 -16 78
-16 126 -3 29 8 73 17 98 19 38 5 32 1 -34 -20 -87 -27 -87 -26 2 -68 42 -20
41 -25 -5 -14 -47 11 -53 11 -52 2 6 -39 -43 -58 -133 -54 -55 2 -68 0 -68
-12 0 -20 -45 -27 -62 -10 -15 14 -105 18 -200 9 -50 -5 -57 -4 -63 13 -11 37
-31 31 -28 -8 l2 -36 -7 35 c-5 26 -13 36 -30 38 -33 5 -59 48 -44 73 7 10 12
29 13 41 1 22 2 19 15 -20 3 -11 7 -10 20 2 8 9 21 13 27 9 7 -3 3 3 -7 15
-11 12 -27 22 -36 22 -9 0 -20 4 -26 10 -5 5 -39 20 -74 33 -301 110 -382 141
-373 144 5 2 52 -13 104 -32 52 -20 150 -56 219 -80 69 -24 148 -53 177 -64
32 -13 54 -17 58 -11 3 6 14 10 23 9 14 0 14 -2 -3 -10 -19 -9 -19 -9 2 -5 12
2 24 1 26 -3 2 -3 2 1 0 9 -15 56 -25 172 -16 181 12 12 181 37 203 30 8 -3
-22 -11 -65 -18z m-158 -15 c-3 -8 -6 -5 -6 6 -1 11 2 17 5 13 3 -3 4 -12 1
-19z m1736 -85 c-7 -2 -19 -2 -25 0 -7 3 -2 5 12 5 14 0 19 -2 13 -5z m47 -30
c30 -8 63 -15 72 -16 9 -1 15 -3 13 -5 -2 -3 22 -22 55 -43 70 -45 98 -82 80
-104 -17 -21 -44 -19 -65 5 -19 21 -41 28 -29 8 4 -7 3 -8 -5 -4 -6 4 -9 11
-6 16 7 12 -78 57 -144 76 -98 29 -234 8 -313 -47 -33 -24 -55 -24 -68 0 -16
30 -13 38 25 61 19 12 33 26 30 31 -4 5 2 6 11 2 12 -4 15 -3 10 5 -5 8 -1 10
10 5 10 -3 15 -2 12 3 -4 5 6 10 20 11 15 1 56 6 92 11 73 11 119 7 200 -15z
m-6242 -60 c-10 -2 -26 -2 -35 0 -10 3 -2 5 17 5 19 0 27 -2 18 -5z m-66 -20
c-6 -2 -10 -8 -8 -12 3 -4 -1 -8 -9 -8 -8 0 -15 3 -15 7 0 12 13 20 29 19 11
0 12 -2 3 -6z m-159 -10 c-7 -2 -19 -2 -25 0 -7 3 -2 5 12 5 14 0 19 -2 13 -5z
m6461 -16 c69 -26 146 -80 146 -103 0 -23 -31 -29 -59 -11 -119 76 -228 90
-336 44 -43 -18 -64 -22 -72 -15 -32 27 7 65 92 91 75 23 154 21 229 -6z m-14
-89 c54 -23 80 -45 80 -69 0 -31 -17 -30 -69 2 -62 39 -135 44 -200 14 -30
-13 -45 -15 -53 -7 -26 26 22 67 93 81 53 10 90 5 149 -21z m416 -16 c-4 -3
-14 2 -24 12 -16 18 -16 18 6 6 13 -6 21 -14 18 -18z m54 -73 c0 -23 -4 -30
-17 -27 -23 4 -27 23 -8 42 22 22 25 21 25 -15z m-5815 1 c-3 -5 -11 -10 -16
-10 -6 0 -7 5 -4 10 3 6 11 10 16 10 6 0 7 -4 4 -10z m48 -7 c-7 -2 -19 -2
-25 0 -7 3 -2 5 12 5 14 0 19 -2 13 -5z m87 -3 c0 -5 -4 -10 -10 -10 -5 0 -10
5 -10 10 0 6 5 10 10 10 6 0 10 -4 10 -10z m3467 -32 c-3 -7 -5 -2 -5 12 0 14
2 19 5 13 2 -7 2 -19 0 -25z m1703 22 c25 -13 41 -65 30 -94 -10 -28 -47 -56
-72 -56 -30 0 -65 21 -77 47 -16 35 -14 57 10 87 22 28 73 36 109 16z m-4523
-67 c2 -6 -5 -17 -16 -23 -19 -10 -21 -8 -21 15 0 19 5 26 17 23 9 -2 18 -8
20 -15z m-204 -118 c-3 -9 -8 -14 -10 -11 -3 3 -2 9 2 15 9 16 15 13 8 -4z
m147 -3 c0 -13 -50 -30 -70 -25 -11 3 -20 13 -20 22 0 14 2 14 10 1 9 -13 11
-13 21 0 7 11 12 12 15 3 3 -7 12 -9 20 -6 7 3 11 10 7 16 -3 6 -1 7 5 3 7 -4
12 -10 12 -14z m5333 -639 c-7 -2 -19 -2 -25 0 -7 3 -2 5 12 5 14 0 19 -2 13
-5z"/>
<path d="M4551 2913 c1 -22 2 -23 6 -8 3 11 10 23 17 27 7 5 5 8 -6 8 -13 0
-18 -7 -17 -27z"/>
<path d="M4625 2929 c18 -5 33 -5 39 1 7 7 -4 10 -29 9 -40 -1 -40 -1 -10 -10z"/>
<path d="M4605 2900 c-16 -11 -25 -20 -18 -20 6 0 15 5 18 11 4 6 13 8 19 6 7
-3 13 1 13 9 0 8 -1 14 -1 14 -1 0 -14 -9 -31 -20z"/>
<path d="M4670 2889 c0 -5 -3 -8 -7 -6 -5 3 -16 -4 -27 -14 -18 -17 -18 -18 3
-16 11 1 21 5 21 9 0 9 41 -12 52 -27 4 -5 8 7 8 28 0 33 -3 37 -25 37 -14 0
-25 -5 -25 -11z"/>
<path d="M3101 2774 c0 -11 3 -14 6 -6 3 7 2 16 -1 19 -3 4 -6 -2 -5 -13z"/>
<path d="M6060 2790 c0 -22 3 -40 8 -40 4 0 6 18 4 40 -2 22 -6 40 -8 40 -2 0
-4 -18 -4 -40z"/>
<path d="M3761 2705 c-25 -27 -17 -34 13 -12 11 8 17 19 15 25 -2 6 -14 1 -28
-13z"/>
<path d="M3693 2653 c9 -2 23 -2 30 0 6 3 -1 5 -18 5 -16 0 -22 -2 -12 -5z"/>
<path d="M3297 2553 c-11 -11 -8 -43 4 -43 6 0 9 9 6 20 -3 10 0 21 7 24 7 3
7 5 0 5 -6 1 -14 -2 -17 -6z"/>
<path d="M6721 2634 c0 -11 3 -14 6 -6 3 7 2 16 -1 19 -3 4 -6 -2 -5 -13z"/>
<path d="M6676 2633 c-3 -4 -6 -10 -6 -14 0 -10 28 -20 34 -11 5 9 -20 32 -28
25z"/>
<path d="M6485 2540 c-18 -8 -17 -9 8 -9 15 -1 27 4 27 9 0 12 -8 12 -35 0z"/>
<path d="M6715 2520 l-30 -8 30 0 c17 0 41 4 55 8 l25 8 -25 0 c-14 0 -38 -4
-55 -8z"/>
<path d="M6583 2513 c9 -2 23 -2 30 0 6 3 -1 5 -18 5 -16 0 -22 -2 -12 -5z"/>
<path d="M4455 2580 c-3 -6 1 -7 9 -4 18 7 21 14 7 14 -6 0 -13 -4 -16 -10z"/>
<path d="M4423 2533 c15 -2 37 -2 50 0 12 2 0 4 -28 4 -27 0 -38 -2 -22 -4z"/>
<path d="M4698 2523 c12 -2 30 -2 40 0 9 3 -1 5 -23 4 -22 0 -30 -2 -17 -4z"/>
<path d="M4708 2483 c7 -3 16 -2 19 1 4 3 -2 6 -13 5 -11 0 -14 -3 -6 -6z"/>
<path d="M4668 2473 c7 -3 16 -2 19 1 4 3 -2 6 -13 5 -11 0 -14 -3 -6 -6z"/>
<path d="M4718 2443 c7 -3 16 -2 19 1 4 3 -2 6 -13 5 -11 0 -14 -3 -6 -6z"/>
<path d="M938 2643 c-15 -4 -18 -16 -18 -76 0 -64 1 -69 14 -51 8 10 10 21 5
22 -12 5 -12 49 1 57 6 3 10 11 10 16 0 6 -5 7 -12 3 -7 -4 -8 -3 -4 4 4 7 32
12 63 12 31 0 54 2 51 5 -7 7 -89 13 -110 8z"/>
<path d="M1072 2568 c5 -15 28 -23 28 -10 0 5 -7 13 -16 16 -10 4 -14 1 -12
-6z"/>
<path d="M1060 2500 c0 -6 -32 -10 -76 -10 -48 0 -73 -4 -69 -10 8 -13 173
-11 181 1 3 5 -2 9 -11 9 -9 0 -13 5 -10 10 3 6 1 10 -4 10 -6 0 -11 -4 -11
-10z"/>
<path d="M1145 2430 c-3 -5 1 -10 9 -10 9 0 16 5 16 10 0 6 -4 10 -9 10 -6 0
-13 -4 -16 -10z"/>
<path d="M828 2423 c6 -2 18 -2 25 0 6 3 1 5 -13 5 -14 0 -19 -2 -12 -5z"/>
<path d="M1045 2410 l-30 -8 33 -1 c17 0 32 4 32 9 0 6 -1 9 -2 9 -2 -1 -16
-5 -33 -9z"/>
<path d="M928 2403 c7 -3 16 -2 19 1 4 3 -2 6 -13 5 -11 0 -14 -3 -6 -6z"/>
<path d="M5102 2500 c0 -14 2 -19 5 -12 2 6 2 18 0 25 -3 6 -5 1 -5 -13z"/>
<path d="M5148 2453 c7 -3 16 -2 19 1 4 3 -2 6 -13 5 -11 0 -14 -3 -6 -6z"/>
<path d="M4278 2454 c-4 -3 -4 -12 -2 -19 3 -7 0 -16 -6 -20 -9 -6 -9 -10 1
-16 10 -6 9 -12 -6 -28 -10 -12 -15 -24 -12 -28 10 -9 37 28 35 47 0 8 2 23 7
33 8 18 -6 43 -17 31z"/>
<path d="M4238 2443 c7 -3 16 -2 19 1 4 3 -2 6 -13 5 -11 0 -14 -3 -6 -6z"/>
<path d="M4200 2300 c20 -13 40 -13 40 0 0 6 -12 10 -27 10 -22 0 -25 -2 -13
-10z"/>
<path d="M3745 2365 c27 -8 51 -12 53 -10 5 5 -69 25 -88 24 -8 0 7 -7 35 -14z"/>
<path d="M3653 2363 c9 -2 23 -2 30 0 6 3 -1 5 -18 5 -16 0 -22 -2 -12 -5z"/>
<path d="M3660 2320 c-10 -6 -2 -7 25 -3 49 7 58 13 19 13 -16 0 -36 -5 -44
-10z"/>
<path d="M140 1940 c-9 -6 -10 -10 -3 -10 6 0 15 5 18 10 8 12 4 12 -15 0z"/>
<path d="M100 1920 c0 -5 5 -10 11 -10 5 0 7 5 4 10 -3 6 -8 10 -11 10 -2 0
-4 -4 -4 -10z"/>
<path d="M5057 1679 c7 -7 15 -10 18 -7 3 3 -2 9 -12 12 -14 6 -15 5 -6 -5z"/>
<path d="M4862 1559 c-18 -3 -36 -10 -40 -14 -4 -4 4 -4 18 -1 l25 7 -25 -16
c-24 -16 -24 -16 -2 -12 28 6 29 -9 0 -19 -31 -9 -8 -19 82 -34 160 -27 381
-10 379 28 0 11 -2 12 -6 5 -2 -7 -12 -13 -21 -13 -15 0 -15 2 -2 10 26 17
-18 12 -95 -10 -72 -21 -166 -20 -224 2 -17 6 -27 5 -33 -4 -7 -9 -8 -7 -4 7
3 11 0 32 -7 46 -11 22 -16 25 -45 18z"/>
<path d="M1471 3614 c0 -11 3 -14 6 -6 3 7 2 16 -1 19 -3 4 -6 -2 -5 -13z"/>
<path d="M4880 3600 c0 -5 5 -10 11 -10 5 0 7 5 4 10 -3 6 -8 10 -11 10 -2 0
-4 -4 -4 -10z"/>
<path d="M5198 3593 c7 -3 16 -2 19 1 4 3 -2 6 -13 5 -11 0 -14 -3 -6 -6z"/>
<path d="M5388 3593 c7 -3 16 -2 19 1 4 3 -2 6 -13 5 -11 0 -14 -3 -6 -6z"/>
<path d="M1470 3536 c0 -33 4 -56 10 -56 13 0 11 98 -2 106 -4 3 -8 -20 -8
-50z"/>
<path d="M5225 3570 c-4 -6 7 -13 24 -16 17 -4 28 -11 25 -16 -4 -6 3 -5 15 2
14 7 42 9 77 4 56 -7 73 5 35 26 -25 13 -41 13 -21 0 9 -6 10 -10 3 -10 -6 0
-15 5 -18 10 -8 13 -132 13 -140 0z m92 -10 c-16 -5 -38 -5 -50 -1 -16 6 -9 8
28 9 42 0 46 -1 22 -8z"/>
<path d="M5573 3557 c-18 -12 -33 -26 -33 -31 0 -5 8 -2 18 6 9 9 31 23 47 31
17 9 23 16 15 16 -8 0 -30 -10 -47 -22z"/>
<path d="M4965 3552 c-3 -7 -5 -15 -5 -16 0 -1 18 0 40 2 22 2 40 8 40 14 0 5
-10 6 -21 3 -12 -4 -19 -3 -16 2 3 5 -3 9 -13 9 -11 0 -22 -6 -25 -14z"/>
<path d="M4800 3548 c0 -4 33 -8 73 -7 84 1 79 6 -10 11 -35 3 -63 1 -63 -4z"/>
<path d="M5130 3550 c-9 -6 -10 -10 -3 -10 6 0 15 5 18 10 8 12 4 12 -15 0z"/>
<path d="M5078 3543 c6 -2 18 -2 25 0 6 3 1 5 -13 5 -14 0 -19 -2 -12 -5z"/>
<path d="M5208 3543 c7 -3 16 -2 19 1 4 3 -2 6 -13 5 -11 0 -14 -3 -6 -6z"/>
<path d="M5877 3529 c17 -18 20 -28 12 -36 -9 -9 -7 -11 4 -9 29 4 28 12 -6
42 -26 23 -28 24 -10 3z"/>
<path d="M5830 3493 c0 -4 5 -15 10 -23 8 -13 10 -13 10 2 0 9 -4 20 -10 23
-5 3 -10 3 -10 -2z"/>
<path d="M5802 3444 c10 -10 20 -16 22 -13 3 3 -5 11 -17 18 -21 13 -21 12 -5
-5z"/>
<path d="M463 3353 c9 -2 23 -2 30 0 6 3 -1 5 -18 5 -16 0 -22 -2 -12 -5z"/>
<path d="M5660 3353 c0 -6 8 -17 18 -24 16 -13 16 -13 2 6 -8 11 -16 22 -17
24 -2 2 -3 0 -3 -6z"/>
<path d="M408 3343 c6 -2 18 -2 25 0 6 3 1 5 -13 5 -14 0 -19 -2 -12 -5z"/>
<path d="M5750 3330 c-13 -8 -12 -10 3 -10 9 0 17 5 17 10 0 12 -1 12 -20 0z"/>
<path d="M5708 3313 c7 -3 16 -2 19 1 4 3 -2 6 -13 5 -11 0 -14 -3 -6 -6z"/>
<path d="M3058 3193 c7 -3 16 -2 19 1 4 3 -2 6 -13 5 -11 0 -14 -3 -6 -6z"/>
<path d="M3363 3192 c-46 -2 -83 -7 -83 -12 0 -8 159 -2 169 6 9 8 -6 9 -86 6z"/>
<path d="M2671 3174 c0 -11 3 -14 6 -6 3 7 2 16 -1 19 -3 4 -6 -2 -5 -13z"/>
<path d="M3980 3180 c0 -5 7 -10 16 -10 8 0 12 5 9 10 -3 6 -10 10 -16 10 -5
0 -9 -4 -9 -10z"/>
<path d="M4395 3090 c-3 -5 -1 -10 4 -10 6 0 11 5 11 10 0 6 -2 10 -4 10 -3 0
-8 -4 -11 -10z"/>
<path d="M4550 3079 c47 -4 117 -7 155 -6 l70 0 -90 8 c-49 4 -119 7 -155 6
-64 0 -63 0 20 -8z"/>
<path d="M2168 3073 c6 -2 18 -2 25 0 6 3 1 5 -13 5 -14 0 -19 -2 -12 -5z"/>
<path d="M2540 3071 c-30 -3 -48 -9 -40 -12 21 -8 100 1 100 12 0 5 -1 8 -2 7
-2 -1 -28 -4 -58 -7z"/>
<path d="M4788 3073 c7 -3 16 -2 19 1 4 3 -2 6 -13 5 -11 0 -14 -3 -6 -6z"/>
<path d="M2617 3053 c5 -12 3 -14 -7 -8 -9 5 -11 4 -6 -4 4 -6 12 -9 17 -6 17
11 13 -64 -4 -82 -7 -7 -33 -13 -59 -14 -27 -2 -48 -7 -48 -12 0 -5 17 -6 38
-3 20 3 53 5 72 6 l35 0 0 62 c0 61 -7 78 -32 78 -7 0 -10 -7 -6 -17z m23
-103 c0 -5 -5 -10 -11 -10 -5 0 -7 5 -4 10 3 6 8 10 11 10 2 0 4 -4 4 -10z"/>
<path d="M496 3015 c4 -8 10 -15 15 -15 5 0 9 7 9 15 0 8 -7 15 -15 15 -9 0
-12 -6 -9 -15z"/>
<path d="M2492 3005 c0 -16 2 -22 5 -12 2 9 2 23 0 30 -3 6 -5 -1 -5 -18z"/>
<path d="M2611 2994 c0 -11 3 -14 6 -6 3 7 2 16 -1 19 -3 4 -6 -2 -5 -13z"/>
<path d="M425 2981 c-6 -10 83 -6 93 3 3 4 -15 6 -41 6 -25 0 -48 -4 -52 -9z"/>
<path d="M2548 2883 c12 -2 32 -2 45 0 12 2 2 4 -23 4 -25 0 -35 -2 -22 -4z"/>
<path d="M2446 2197 c-9 -31 -19 -63 -22 -72 -5 -11 -2 -14 10 -9 9 3 13 10
10 15 -3 5 2 31 11 58 l16 48 57 -9 c84 -12 103 -18 97 -27 -2 -5 7 -12 20
-15 15 -4 23 -11 19 -17 -6 -10 11 -8 54 8 18 7 15 -30 -5 -74 -10 -21 -20
-39 -23 -41 -3 -1 -4 -17 -3 -35 6 -55 0 -57 -126 -36 -129 21 -153 27 -163
43 -5 7 -8 5 -8 -6 0 -9 4 -20 10 -23 16 -10 280 -62 284 -56 8 13 76 245 76
257 0 14 -26 20 -135 29 -38 3 -91 8 -116 11 l-47 6 -16 -55z"/>
<path d="M2650 2140 c8 -5 20 -10 25 -10 6 0 3 5 -5 10 -8 5 -19 10 -25 10 -5
0 -3 -5 5 -10z"/>
<path d="M2621 2094 c0 -11 3 -14 6 -6 3 7 2 16 -1 19 -3 4 -6 -2 -5 -13z"/>
<path d="M2650 2100 c0 -5 0 -13 1 -16 0 -4 -5 -11 -13 -15 -10 -7 -9 -9 5 -9
12 0 17 8 17 25 0 14 -2 25 -5 25 -3 0 -5 -4 -5 -10z"/>
<path d="M3570 2088 c-83 -12 -96 -24 -22 -21 80 4 142 14 142 24 0 11 -32 10
-120 -3z"/>
<path d="M4580 2056 c0 -9 40 -13 46 -5 3 5 -6 9 -20 9 -14 0 -26 -2 -26 -4z"/>
<path d="M4795 2053 c11 -3 27 -10 35 -17 13 -10 13 -9 1 7 -7 9 -23 16 -35
16 -20 -1 -20 -2 -1 -6z"/>
<path d="M4548 2023 c7 -3 16 -2 19 1 4 3 -2 6 -13 5 -11 0 -14 -3 -6 -6z"/>
<path d="M4710 2000 c0 -6 14 -10 30 -10 39 0 39 14 0 17 -17 1 -30 -2 -30 -7z"/>
<path d="M4780 1998 c0 -7 79 -2 87 5 2 3 -16 4 -41 4 -25 -1 -46 -5 -46 -9z"/>
<path d="M3676 1981 c-4 -7 -5 -15 -2 -18 9 -9 19 4 14 18 -4 11 -6 11 -12 0z"/>
<path d="M3695 1949 c-4 -6 -5 -12 -2 -15 2 -3 7 2 10 11 7 17 1 20 -8 4z"/>
<path d="M2172 1930 c22 -14 108 -40 128 -39 8 0 -12 9 -45 19 -33 10 -69 21
-80 25 -18 6 -18 5 -3 -5z"/>
<path d="M2328 1913 c7 -3 16 -2 19 1 4 3 -2 6 -13 5 -11 0 -14 -3 -6 -6z"/>
<path d="M2415 1889 c65 -20 112 -24 134 -10 10 6 1 8 -25 4 -23 -3 -62 2 -94
11 -29 9 -58 16 -64 15 -6 0 16 -9 49 -20z"/>
<path d="M2635 1895 l-30 -14 30 6 c17 3 39 10 50 14 l20 8 -20 0 c-11 0 -33
-6 -50 -14z"/>
<path d="M3890 1811 c-8 -5 -50 -16 -94 -25 -64 -14 -93 -15 -154 -6 -79 11
-111 7 -46 -6 38 -8 141 -9 254 -4 45 2 48 4 20 8 l-35 4 55 18 c30 10 46 19
35 19 -11 0 -27 -4 -35 -8z"/>
<path d="M3536 1724 c-3 -8 -10 -12 -16 -9 -10 6 -109 -29 -445 -161 -104 -41
-244 -95 -310 -121 -66 -25 -172 -68 -235 -94 -63 -26 -221 -91 -350 -144
-366 -149 -560 -234 -560 -245 0 -4 10 -12 23 -17 22 -11 22 -11 -9 -24 -33
-15 -35 -39 -3 -39 12 0 17 -4 13 -11 -4 -8 0 -9 15 -4 12 4 21 2 21 -4 0 -6
14 -11 31 -11 20 0 28 -4 23 -12 -5 -8 0 -9 14 -6 12 4 20 2 17 -3 -3 -4 10
-6 29 -4 52 7 108 -16 119 -49 8 -24 6 -32 -16 -52 -15 -13 -32 -24 -38 -24
-7 0 -10 -3 -6 -6 9 -9 -22 -66 -33 -59 -4 3 -23 -12 -42 -34 -18 -21 -42 -41
-53 -45 -15 -4 -20 -14 -20 -37 0 -27 -5 -34 -35 -45 -45 -16 -107 -17 -112
-2 -3 8 -48 1 -154 -21 -82 -18 -158 -35 -169 -37 -11 -2 -38 -20 -60 -39 -62
-55 -65 -57 -65 -44 0 7 -13 10 -35 7 -19 -2 -35 0 -35 4 0 4 -6 8 -13 8 -7 0
-21 11 -31 25 -15 20 -27 25 -66 25 -26 0 -69 4 -96 9 -91 18 -154 22 -173 11
-29 -15 -106 -20 -144 -8 -32 10 -46 4 -253 -99 -120 -60 -229 -116 -242 -124
-20 -12 -22 -22 -22 -96 l0 -83 3680 0 3680 0 0 238 0 237 -135 45 c-106 35
-137 42 -147 32 -9 -9 -9 -12 0 -12 7 0 12 -4 12 -10 0 -5 -7 -7 -15 -4 -8 4
-15 2 -15 -4 0 -16 -49 -25 -138 -26 -52 -1 -86 -6 -90 -13 -10 -15 -57 -33
-88 -33 -13 0 -41 11 -62 24 -28 18 -58 26 -122 31 -153 13 -181 14 -234 3
l-53 -11 -78 51 c-77 51 -115 64 -115 40 0 -7 -6 -6 -17 4 -10 8 -31 18 -46
22 -15 4 -35 15 -45 26 -14 18 -31 20 -132 22 -63 1 -88 3 -55 5 33 1 79 5
102 8 39 6 41 8 31 25 -16 25 14 60 51 60 31 0 45 9 54 32 6 17 -17 28 -343
171 -239 104 -772 327 -783 327 -3 0 -52 22 -109 49 -57 26 -175 79 -263 115
-88 37 -178 76 -200 86 -127 57 -439 181 -476 189 -55 13 -223 13 -194 1 14
-6 1 -9 -43 -9 -40 -1 -61 3 -57 9 3 6 2 10 -3 10 -6 0 -13 -7 -16 -16z m76
-196 c-7 -7 -12 -8 -12 -2 0 14 12 26 19 19 2 -3 -1 -11 -7 -17z m45 0 c-3 -8
-6 -5 -6 6 -1 11 2 17 5 13 3 -3 4 -12 1 -19z m133 7 c0 -2 -7 -8 -15 -15 -12
-10 -15 -10 -15 2 0 8 7 15 15 15 8 0 15 -1 15 -2z m45 -14 c-8 -14 -25 -14
-25 0 0 5 5 7 10 4 6 -3 10 -1 10 6 0 7 3 10 6 6 3 -3 3 -10 -1 -16z m205
-182 c0 -6 -4 -7 -10 -4 -5 3 -10 11 -10 16 0 6 5 7 10 4 6 -3 10 -11 10 -16z
m33 -326 c3 -19 1 -33 -5 -33 -6 0 -3 -11 6 -24 8 -14 11 -26 6 -28 -5 -2 -10
-24 -11 -50 -2 -32 -7 -48 -16 -48 -15 0 -13 21 2 32 7 5 6 14 -1 25 -9 14 -8
21 2 31 16 15 19 36 4 27 -11 -7 -13 27 -4 74 8 38 10 37 17 -6z m-166 -130
c-2 -27 -3 -5 -3 47 0 52 1 74 3 48 2 -27 2 -69 0 -95z m-2057 76 c0 -6 -4 -7
-10 -4 -5 3 -10 11 -10 16 0 6 5 7 10 4 6 -3 10 -11 10 -16z m2184 -5 c3 -8 2
-12 -4 -9 -6 4 -10 -16 -11 -52 l-1 -58 -10 44 c-7 30 -6 52 1 68 12 27 17 28
25 7z m-50 -29 c3 -8 1 -15 -4 -15 -6 0 -10 7 -10 15 0 8 2 15 4 15 2 0 6 -7
10 -15z m143 -87 c-3 -8 -6 -5 -6 6 -1 11 2 17 5 13 3 -3 4 -12 1 -19z m-20 6
c-3 -3 -12 -4 -19 -1 -8 3 -5 6 6 6 11 1 17 -2 13 -5z m-71 -60 c-4 -14 -9
-24 -12 -21 -3 2 -2 17 2 31 3 15 9 25 11 22 3 -3 2 -17 -1 -32z m29 -114 c8
-13 -15 -13 -35 0 -12 8 -11 10 7 10 12 0 25 -4 28 -10z m1165 -5 c0 -12 16
-15 78 -17 l77 -1 -95 -7 c-78 -6 -97 -4 -107 8 -16 20 -8 32 23 32 15 0 24
-6 24 -15z m338 -12 c-21 -2 -57 -2 -80 0 -24 2 -7 4 37 4 44 0 63 -2 43 -4z
m-1563 -22 c3 -5 2 -12 -3 -15 -5 -3 -9 1 -9 9 0 17 3 19 12 6z m-118 -143
c-2 -13 -4 -5 -4 17 -1 22 1 32 4 23 2 -10 2 -28 0 -40z m109 -4 c-5 -43 -4
-54 6 -48 10 6 11 4 1 -7 -7 -7 -13 -26 -13 -41 0 -15 -4 -28 -9 -28 -5 0 -8
34 -6 78 3 42 2 69 -1 60 -7 -22 -24 -24 -24 -2 0 9 9 18 20 21 11 3 20 9 20
14 0 5 3 9 6 9 4 0 4 -25 0 -56z m41 -51 c-2 -16 -4 -5 -4 22 0 28 2 40 4 28
2 -13 2 -35 0 -50z m-117 -53 c0 -5 -4 -10 -10 -10 -5 0 -10 5 -10 10 0 6 5
10 10 10 6 0 10 -4 10 -10z m1943 -124 c9 -7 17 -18 17 -24 0 -10 -30 -32 -45
-32 -12 0 -22 45 -13 58 13 15 18 15 41 -2z m-3262 -128 c10 -18 8 -24 -6 -34
-23 -17 -35 -9 -35 20 0 41 23 48 41 14z"/>
<path d="M1055 1259 c-71 -15 -177 -38 -235 -49 -154 -31 -154 -31 -145 -88
10 -65 91 -431 97 -437 2 -3 36 6 74 19 38 14 92 31 119 39 144 43 351 111
359 118 8 7 -51 317 -75 397 -13 40 -18 40 -194 1z m142 -5 c-3 -3 -12 -4 -19
-1 -8 3 -5 6 6 6 11 1 17 -2 13 -5z m-47 -14 c-13 -8 -12 -10 3 -10 19 0 23
-26 5 -33 -9 -3 -8 -10 6 -26 l19 -21 24 22 c13 12 23 31 24 42 1 18 2 18 9
-4 11 -34 12 -72 2 -66 -4 2 -14 1 -22 -5 -12 -7 -12 -9 3 -9 10 0 15 -4 12
-10 -3 -5 -1 -10 4 -10 12 0 9 -35 -4 -47 -4 -5 -5 -2 0 6 5 9 4 12 -2 8 -18
-11 -22 -55 -5 -62 9 -3 12 0 9 9 -4 10 -1 13 9 9 10 -3 12 0 8 10 -3 8 0 18
7 23 8 5 10 3 4 -6 -4 -7 -4 -15 1 -19 9 -6 48 -141 42 -146 -5 -4 -318 -103
-411 -129 -49 -14 -93 -28 -98 -32 -13 -8 -25 31 -49 158 -12 62 -30 144 -41
182 -10 38 -18 70 -16 71 2 2 149 35 362 82 39 8 75 16 80 18 21 7 29 4 15 -5z"/>
<path d="M1205 1110 c-3 -5 -1 -10 4 -10 6 0 11 5 11 10 0 6 -2 10 -4 10 -3 0
-8 -4 -11 -10z"/>
<path d="M1182 1090 c0 -14 2 -19 5 -12 2 6 2 18 0 25 -3 6 -5 1 -5 -13z"/>
<path d="M1378 853 c7 -3 16 -2 19 1 4 3 -2 6 -13 5 -11 0 -14 -3 -6 -6z"/>
<path d="M1545 830 c-3 -5 1 -10 9 -10 9 0 16 5 16 10 0 6 -4 10 -9 10 -6 0
-13 -4 -16 -10z"/>
<path d="M1469 815 c19 -8 73 -27 120 -42 47 -14 90 -29 94 -33 4 -4 5 -19 2
-33 -7 -27 -41 -43 -255 -121 -52 -19 -136 -50 -187 -70 -51 -20 -108 -36
-127 -36 -31 0 -109 31 -298 117 -41 19 -59 33 -64 52 -4 14 -7 29 -6 34 1 4
-3 7 -9 7 -6 0 -9 7 -6 15 4 8 2 17 -4 20 -5 4 -9 3 -8 -2 3 -20 -2 -29 -18
-30 -46 -2 -71 -8 -67 -14 2 -4 -8 -20 -24 -36 -15 -15 -27 -35 -26 -43 3 -43
3 -43 43 -37 21 2 53 15 70 28 17 12 34 20 37 16 4 -3 -7 -14 -25 -24 -49 -28
-37 -63 22 -63 22 0 22 -1 -2 -19 -33 -25 -22 -47 31 -63 52 -16 359 -15 485
1 108 14 234 45 300 76 29 13 56 24 58 24 3 0 20 8 38 17 61 31 96 64 106 100
11 39 4 97 -10 88 -5 -3 -7 1 -4 8 7 16 -88 63 -106 52 -7 -4 -10 -3 -6 3 4 6
-2 13 -13 16 -11 3 -23 1 -26 -4 -5 -9 -39 -8 -114 6 l-35 6 34 -16z m215 -34
c4 -5 -3 -7 -14 -4 -23 6 -26 13 -6 13 8 0 17 -4 20 -9z m36 -19 c0 -5 -7 -9
-15 -9 -8 0 -12 4 -9 9 3 4 9 8 15 8 5 0 9 -4 9 -8z"/>
<path d="M1238 799 c-42 -15 -55 -24 -53 -37 2 -9 4 -20 4 -24 1 -5 9 -8 19
-8 14 0 15 2 2 10 -12 8 -12 10 -1 10 11 0 11 3 0 17 -12 14 -12 16 1 11 8 -3
14 -13 14 -22 -1 -9 2 -16 8 -16 5 0 7 -4 4 -9 -4 -5 0 -12 6 -15 7 -3 1 -4
-13 -1 -15 3 -39 -1 -53 -9 -23 -11 -24 -15 -10 -20 10 -4 21 -2 24 5 5 7 10
8 14 1 3 -6 -4 -14 -16 -18 -15 -4 -26 -1 -37 12 -21 25 -54 20 -46 -7 4 -11
2 -19 -4 -19 -6 0 -11 6 -12 13 0 6 -2 19 -4 28 -1 9 1 23 6 30 7 11 9 10 9
-3 0 -10 7 -18 16 -18 11 0 15 6 11 20 -3 11 -1 20 5 20 5 0 12 -9 15 -20 6
-22 11 -24 33 -10 12 8 12 10 -5 10 -17 0 -17 2 -5 10 11 7 11 10 2 10 -7 0
-10 5 -7 10 3 6 1 10 -4 10 -6 0 -11 -4 -11 -10 0 -5 -6 -7 -12 -5 -7 3 -66
-13 -131 -34 l-119 -39 55 -26 c31 -14 62 -26 71 -26 8 0 16 -4 18 -10 2 -5
48 6 105 26 57 20 100 40 98 45 -3 4 7 7 22 7 16 0 44 7 63 15 34 16 35 16 5
11 -23 -3 -17 2 23 20 28 14 52 28 52 31 0 3 -9 1 -19 -5 -30 -15 -47 -12 -48
10 -1 11 2 20 8 20 5 0 9 -4 9 -10 0 -5 7 -10 15 -10 13 0 14 4 5 20 -9 16
-15 18 -30 10 -12 -7 -21 -7 -25 0 -8 13 -8 12 -77 -11z m29 -39 c-2 -9 0 -26
6 -36 7 -15 7 -16 -2 -8 -15 14 -24 77 -10 68 6 -3 9 -14 6 -24z m43 -11 c0
-14 -17 -10 -23 5 -4 10 -1 13 9 9 7 -3 14 -9 14 -14z m-250 -39 c8 -5 11 -10
5 -10 -5 0 -17 5 -25 10 -8 5 -10 10 -5 10 6 0 17 -5 25 -10z m-53 -7 c-4 -3
-2 -12 5 -20 8 -11 7 -12 -6 -7 -18 7 -22 34 -4 34 6 0 8 -3 5 -7z m-32 -13
c3 -5 1 -10 -4 -10 -6 0 -11 5 -11 10 0 6 2 10 4 10 3 0 8 -4 11 -10z m170
-29 c-6 -5 -25 10 -25 20 0 5 6 4 14 -3 8 -7 12 -15 11 -17z m-84 1 c-7 -2
-18 1 -23 6 -8 8 -4 9 13 5 13 -4 18 -8 10 -11z m-51 -2 c20 -6 21 -8 5 -8
-11 0 -29 3 -40 8 -25 11 1 11 35 0z m57 -26 c-3 -3 -12 -4 -19 -1 -8 3 -5 6
6 6 11 1 17 -2 13 -5z"/>
<path d="M6325 803 c-33 -2 -70 -8 -82 -14 -11 -6 -27 -9 -35 -6 -7 3 -2 6 11
6 13 1 22 4 18 7 -9 10 -157 -27 -151 -37 3 -5 1 -9 -3 -9 -5 0 -9 -22 -9 -50
0 -27 3 -45 7 -39 3 6 9 1 12 -11 4 -15 11 -21 21 -17 9 4 16 3 16 -2 0 -8 76
-41 93 -41 4 0 3 8 -2 18 -9 17 -6 18 42 15 67 -4 77 -6 105 -22 18 -9 21 -15
12 -26 -15 -19 -6 -22 96 -36 122 -16 395 -6 455 17 63 25 72 33 57 52 -11 13
-10 15 5 9 13 -5 17 -3 14 5 -2 8 -19 12 -43 10 -55 -4 -171 17 -184 33 -10
12 -5 13 24 8 41 -6 106 4 106 17 0 6 -11 10 -25 10 -14 0 -25 5 -25 10 0 6
-7 10 -16 10 -8 0 -13 4 -9 9 4 8 -13 18 -45 26 -3 1 -16 5 -30 9 -14 3 -50 8
-80 10 -43 2 -50 0 -35 -8 25 -15 138 -116 149 -134 16 -27 -19 -32 -215 -28
-195 4 -222 8 -250 42 -12 16 -12 17 1 9 8 -5 -2 10 -23 34 -42 46 -43 62 -6
72 40 11 159 10 159 -2 0 -5 -4 -8 -9 -4 -5 3 -12 1 -16 -5 -3 -5 0 -10 8 -10
8 0 18 -7 21 -16 5 -13 9 -14 21 -4 12 10 13 8 10 -10 -3 -18 -2 -20 10 -10
10 8 15 8 21 -1 4 -7 3 -9 -3 -6 -5 3 -10 0 -10 -8 0 -8 4 -12 8 -10 13 8 39
-7 32 -18 -4 -6 0 -8 10 -4 9 3 19 2 22 -3 3 -5 -3 -11 -12 -14 -15 -4 -14 -4
2 -3 11 1 27 -2 35 -7 8 -4 -14 21 -50 55 -36 35 -65 67 -65 72 0 5 -9 15 -19
23 -19 14 -19 14 3 14 12 0 20 -4 16 -9 -3 -5 5 -11 17 -13 13 -2 28 -15 35
-29 15 -30 38 -52 60 -55 23 -4 9 20 -18 27 -13 4 -20 7 -15 8 5 1 1 10 -9 21
-18 19 -17 20 3 20 11 0 23 -4 26 -9 3 -5 21 -18 40 -29 28 -16 34 -17 32 -5
-3 20 -46 52 -69 53 -10 0 -25 7 -33 15 -11 10 -36 15 -84 15 -38 0 -74 1 -82
3 -7 2 -40 2 -73 0z m12 -19 c-3 -3 -12 -4 -19 -1 -8 3 -5 6 6 6 11 1 17 -2
13 -5z m200 0 c-3 -3 -12 -4 -19 -1 -8 3 -5 6 6 6 11 1 17 -2 13 -5z m278 -52
c-3 -3 -11 0 -18 7 -9 10 -8 11 6 5 10 -3 15 -9 12 -12z"/>
<path d="M1390 750 c-8 -5 -10 -10 -5 -10 6 0 17 5 25 10 8 5 11 10 5 10 -5 0
-17 -5 -25 -10z"/>
<path d="M6306 741 c-10 -15 23 -53 37 -44 5 3 7 1 4 -4 -10 -15 17 -34 37
-27 10 4 15 13 12 20 -3 8 -1 14 4 14 6 0 10 -5 10 -11 0 -5 5 -7 11 -4 12 8
79 -22 79 -35 0 -11 -17 -13 -62 -10 -16 1 -28 -3 -28 -9 0 -12 75 -14 102 -3
13 6 9 15 -27 54 -42 46 -43 47 -95 42 -41 -4 -55 -1 -65 12 -9 13 -14 14 -19
5z"/>
<path d="M6358 743 c7 -3 16 -2 19 1 4 3 -2 6 -13 5 -11 0 -14 -3 -6 -6z"/>
<path d="M6398 743 c7 -3 16 -2 19 1 4 3 -2 6 -13 5 -11 0 -14 -3 -6 -6z"/>
<path d="M1560 675 c-147 -58 -424 -155 -443 -155 -9 0 -67 22 -129 50 -61 27
-114 48 -116 45 -3 -3 -3 -6 -1 -8 7 -6 116 -56 181 -83 l61 -26 64 21 c91 30
461 169 481 180 37 22 -15 9 -98 -24z"/>
<path d="M6634 692 c4 -6 0 -15 -9 -19 -13 -8 -13 -11 1 -31 13 -19 23 -22 87
-21 40 1 63 3 52 6 -30 7 -83 32 -90 43 -3 6 -15 15 -27 21 -13 7 -18 7 -14 1z
m31 -33 c-7 -11 -35 -12 -35 -1 0 4 9 8 20 9 11 1 18 -2 15 -8z"/>
<path d="M6720 666 c0 -2 7 -9 15 -16 9 -7 15 -8 15 -2 0 5 -7 12 -15 16 -8 3
-15 4 -15 2z"/>
<path d="M1825 649 c-4 -6 -5 -12 -2 -15 2 -3 7 2 10 11 7 17 1 20 -8 4z"/>
<path d="M795 640 c28 -12 37 -12 30 0 -3 6 -16 10 -28 9 -21 0 -21 -1 -2 -9z"/>
<path d="M6385 640 c3 -5 8 -10 11 -10 2 0 4 5 4 10 0 6 -5 10 -11 10 -5 0 -7
-4 -4 -10z"/>
<path d="M840 620 c0 -5 5 -10 11 -10 5 0 7 5 4 10 -3 6 -8 10 -11 10 -2 0 -4
-4 -4 -10z"/>
</g>
</svg>
