<?xml version="1.0" standalone="no"?>
<!DOCTYPE svg PUBLIC "-//W3C//DTD SVG 20010904//EN"
 "http://www.w3.org/TR/2001/REC-SVG-20010904/DTD/svg10.dtd">
<svg version="1.0" xmlns="http://www.w3.org/2000/svg"
 width="735.000000pt" height="490.000000pt" viewBox="0 0 735.000000 490.000000"
 preserveAspectRatio="xMidYMid meet">

<g transform="translate(0.000000,490.000000) scale(0.100000,-0.100000)"
fill="#000000" stroke="none">
<path d="M0 2450 l0 -2450 496 0 497 0 446 226 c245 125 461 234 479 244 18 9
30 19 26 22 -7 8 68 56 110 70 17 6 35 15 40 19 6 5 20 9 33 9 12 0 46 9 76
20 60 23 103 22 141 -4 14 -9 26 -13 26 -9 0 5 5 0 11 -10 8 -14 7 -22 -8 -33
-16 -13 -247 -129 -870 -436 -123 -60 -223 -112 -223 -114 0 -2 1366 -4 3035
-4 l3035 0 0 1515 c0 970 -3 1515 -10 1515 -5 0 -82 -37 -170 -81 -142 -72
-160 -84 -154 -102 6 -18 3 -19 -26 -14 -27 6 -66 -10 -266 -111 -151 -76
-232 -121 -229 -129 2 -7 0 -13 -4 -13 -5 0 -11 4 -13 10 -2 5 -9 6 -17 1 -9
-6 39 -35 158 -95 94 -48 171 -89 171 -92 0 -3 -3 -3 -7 -1 -17 10 -270 130
-303 143 -110 46 -1111 553 -1092 553 12 1 247 -111 522 -249 274 -137 501
-250 503 -250 3 0 8 21 11 48 15 106 47 165 78 145 6 -3 8 -1 4 5 -4 6 7 13
26 17 42 9 148 57 143 65 -4 6 22 11 67 14 14 0 26 6 25 11 -1 6 7 11 18 11
11 1 26 2 33 3 6 1 11 6 10 12 -2 6 3 14 11 17 8 3 11 0 7 -7 -5 -7 0 -8 16
-2 13 5 22 14 21 20 -2 6 4 8 12 5 8 -4 15 -1 15 6 0 6 4 9 9 6 5 -3 99 39
210 94 111 55 207 100 212 100 5 0 9 336 9 865 l0 865 -3675 0 -3675 0 0
-2450z m2708 1811 c43 -21 129 -64 192 -95 63 -31 144 -72 180 -92 36 -20 74
-37 85 -39 11 -1 23 -3 27 -4 3 0 16 -16 27 -35 16 -26 21 -48 20 -102 -1 -53
-3 -62 -9 -39 -7 28 -8 28 -9 -12 -1 -33 -4 -41 -16 -37 -11 5 -14 -2 -12 -28
3 -31 1 -33 -28 -33 -16 0 -35 3 -42 8 -7 4 -16 1 -21 -9 -6 -11 -12 -13 -16
-6 -4 7 -15 8 -29 3 -26 -10 -77 -9 -94 2 -7 5 -16 0 -22 -12 -14 -25 -14 -31
0 -31 5 0 7 5 4 10 -10 17 4 11 25 -10 21 -21 46 -28 34 -8 -4 7 -3 8 5 4 6
-4 9 -12 6 -17 -4 -5 10 -16 29 -26 24 -11 36 -23 36 -37 0 -12 -3 -16 -8 -10
-10 16 -55 39 -69 36 -7 -2 -13 2 -13 8 0 7 -5 10 -12 8 -7 -3 -28 6 -47 19
-18 13 -40 23 -48 23 -8 0 -27 7 -41 14 -15 8 -49 25 -77 37 -27 12 -62 28
-77 35 -16 7 -28 9 -28 4 0 -5 8 -11 18 -14 10 -3 54 -29 97 -56 70 -44 76
-50 50 -50 -24 0 -27 -2 -15 -11 11 -8 5 -9 -22 -4 -46 7 -53 -13 -8 -21 30
-7 39 -19 18 -26 -6 -2 2 -18 21 -37 17 -17 36 -29 41 -26 6 3 10 0 10 -7 0
-11 72 -44 105 -48 6 -1 18 -9 27 -17 17 -15 20 -14 38 7 18 21 20 21 20 4 0
-16 2 -17 10 -4 7 11 10 -1 10 -41 l0 -55 -49 0 c-27 1 -47 4 -45 7 2 4 -8 7
-22 7 -17 0 -23 -5 -20 -14 6 -15 -17 -9 -49 13 -18 12 -18 13 8 13 15 0 27 5
27 13 -1 17 -26 48 -33 40 -4 -3 -7 -2 -7 3 0 5 -9 10 -20 11 -10 1 -51 18
-91 37 -39 20 -76 33 -82 29 -6 -4 -8 0 -4 10 8 21 3 21 -26 3 -22 -15 -22
-14 -24 41 -2 71 -13 99 -23 63 -5 -14 -8 122 -9 301 -1 292 1 339 17 339 2 0
38 -17 80 -39z m1896 -217 c9 -3 16 -15 16 -26 0 -14 -5 -18 -16 -14 -9 3 -18
6 -20 6 -2 0 -4 9 -4 20 0 22 1 23 24 14z m-443 -195 c188 -93 348 -168 355
-165 20 8 44 -4 38 -18 -3 -7 12 -20 37 -31 69 -31 69 -32 69 -175 0 -81 -4
-131 -11 -135 -7 -5 -10 31 -8 122 2 71 -1 134 -5 141 -4 7 -196 107 -427 222
-231 116 -413 210 -405 210 8 0 169 -77 357 -171z m-336 130 c11 -17 -1 -21
-15 -4 -8 9 -8 15 -2 15 6 0 14 -5 17 -11z m773 -7 c17 -11 4 -42 -14 -35 -8
3 -14 14 -14 24 0 20 8 23 28 11z m-773 -33 c11 -17 -1 -21 -15 -4 -8 9 -8 15
-2 15 6 0 14 -5 17 -11z m973 -64 c129 -63 158 -84 133 -99 -4 -3 -72 26 -150
64 -113 56 -141 74 -141 91 0 11 3 19 8 17 4 -2 71 -35 150 -73z m-896 17
c-16 -5 -53 17 -47 28 4 6 17 2 32 -7 14 -9 21 -19 15 -21z m-74 -1 c3 -8 -1
-12 -9 -9 -7 2 -15 10 -17 17 -3 8 1 12 9 9 7 -2 15 -10 17 -17z m760 -10 c3
-16 -1 -22 -10 -19 -7 3 -15 15 -16 27 -3 16 1 22 10 19 7 -3 15 -15 16 -27z
m-629 -46 c79 -39 116 -65 95 -65 -14 0 -192 89 -199 99 -12 20 15 11 104 -34z
m-132 9 c-9 -9 -28 6 -21 18 4 6 10 6 17 -1 6 -6 8 -13 4 -17z m737 -10 c9 -3
16 -15 16 -26 0 -14 -5 -18 -16 -14 -9 3 -18 6 -20 6 -2 0 -4 9 -4 20 0 22 1
23 24 14z m-734 -24 c0 -5 -4 -10 -10 -10 -5 0 -10 5 -10 10 0 6 5 10 10 10 6
0 10 -4 10 -10z m370 -147 c0 -8 -43 9 -105 39 -58 29 -105 58 -105 65 0 16
209 -88 210 -104z m-419 -28 c153 -77 285 -136 304 -138 18 -1 31 -5 28 -9 -2
-4 22 -25 54 -45 l58 -38 -5 -170 -6 -170 -2 172 -2 173 -357 179 c-197 99
-355 180 -350 180 4 1 129 -60 278 -134z m779 120 c9 -11 10 -19 2 -27 -14
-14 -32 -1 -32 23 0 23 13 25 30 4z m434 -55 c114 -56 146 -75 146 -90 0 -11
-2 -20 -5 -20 -3 0 -73 34 -155 75 -93 47 -150 81 -150 90 0 8 4 15 9 15 5 0
75 -32 155 -70z m-1846 14 c4 -4 -1 -4 -10 -1 -11 4 -18 2 -18 -6 0 -23 17
-38 36 -32 18 6 18 6 1 -5 -12 -8 -26 -8 -45 -1 -15 5 -21 10 -14 10 6 1 12 6
12 12 0 6 -7 9 -15 6 -15 -7 -29 8 -21 21 6 10 65 7 74 -4z m952 -34 c55 -28
100 -55 100 -60 0 -5 -47 14 -105 42 -58 29 -105 56 -105 60 0 13 5 11 110
-42z m-1057 15 c-7 -21 -13 -19 -13 6 0 11 4 18 10 14 5 -3 7 -12 3 -20z m95
-51 c13 -9 30 -13 38 -10 8 3 13 2 10 -3 -4 -5 71 -48 164 -95 l170 -87 0 86
c0 50 4 85 10 85 6 0 10 -37 10 -90 l0 -90 40 -20 40 -20 0 86 c0 59 4 84 11
82 7 -2 12 -38 14 -91 1 -50 7 -93 14 -100 6 -6 11 -40 11 -77 l0 -65 178 -90
177 -90 3 -122 c2 -77 -1 -123 -7 -123 -6 0 -12 49 -13 121 l-3 121 -115 59
c-76 39 -122 56 -136 53 -12 -3 -25 0 -29 7 -6 9 -2 11 16 6 23 -6 23 -5 5 8
-23 18 -50 20 -40 4 4 -8 0 -9 -15 -4 -17 5 -21 2 -21 -14 0 -11 9 -22 20 -26
11 -3 20 -11 20 -16 0 -6 -9 -7 -21 -4 -19 6 -20 3 -17 -42 3 -45 6 -49 46
-71 54 -30 48 -41 -7 -12 -23 11 -41 16 -41 11 0 -5 9 -13 20 -16 11 -3 20
-11 20 -16 0 -6 -8 -5 -21 1 -18 10 -20 9 -19 -12 5 -53 -1 -158 -7 -158 -5 0
-7 116 -5 257 1 142 0 268 -3 281 -4 17 -63 51 -285 162 -154 77 -280 142
-280 145 0 10 26 4 48 -11z m1153 -20 c9 -11 9 -14 0 -14 -19 0 -71 29 -71 40
0 12 56 -8 71 -26z m816 -59 c128 -64 150 -78 146 -94 -5 -18 -19 -13 -159 57
-111 55 -154 82 -154 94 0 10 3 18 8 18 4 0 75 -34 159 -75z m-2233 50 c-4 -8
-8 -15 -10 -15 -2 0 -4 7 -4 15 0 8 4 15 10 15 5 0 7 -7 4 -15z m2099 -65
c106 -54 147 -80 147 -92 0 -10 -3 -18 -7 -18 -5 0 -76 34 -159 77 -125 63
-150 80 -146 95 2 10 7 18 11 16 3 -2 72 -37 154 -78z m-680 23 c-15 -5 -73
24 -73 37 0 6 19 1 43 -11 23 -12 37 -24 30 -26z m107 -13 c0 -5 -18 1 -40 11
-23 11 -38 24 -35 29 6 10 75 -27 75 -40z m930 -25 c119 -59 150 -79 150 -95
0 -20 -1 -20 -47 3 -27 13 -99 48 -160 77 -104 49 -124 65 -106 83 9 10 0 14
163 -68z m-2199 35 c10 -6 19 -17 19 -26 0 -12 -4 -12 -25 2 -38 25 -34 45 6
24z m1219 -20 c0 -5 -4 -10 -9 -10 -6 0 -13 5 -16 10 -3 6 1 10 9 10 9 0 16
-4 16 -10z m124 -15 c32 -13 49 -35 29 -35 -11 0 -73 39 -73 45 0 7 4 7 44
-10z m-1533 -13 c-7 -2 -18 1 -23 6 -8 8 -4 9 13 5 13 -4 18 -8 10 -11z m1457
0 c2 -7 -2 -10 -12 -6 -9 3 -16 11 -16 16 0 13 23 5 28 -10z m52 -24 c0 -13
-23 -5 -28 10 -2 7 2 10 12 6 9 -3 16 -11 16 -16z m170 -48 c0 -5 -18 1 -39
13 -22 12 -37 25 -35 29 5 8 74 -30 74 -42z m-125 30 c3 -5 -1 -10 -9 -10 -9
0 -16 5 -16 10 0 6 4 10 9 10 6 0 13 -4 16 -10z m-1332 -28 c26 -12 47 -28 47
-36 0 -12 -11 -9 -52 12 -28 15 -54 33 -56 41 -3 7 -1 12 4 9 5 -2 30 -14 57
-26z m1935 -151 c2 -12 1 -21 -2 -21 -14 0 -305 150 -311 160 -4 6 -4 17 -1
25 8 22 310 -136 314 -164z m-563 158 c11 -17 -1 -21 -15 -4 -8 9 -8 15 -2 15
6 0 14 -5 17 -11z m879 -47 c70 -36 111 -63 112 -74 1 -10 -2 -18 -7 -18 -5 0
-61 26 -124 57 -82 41 -115 63 -115 75 0 27 15 22 134 -40z m-144 -32 c0 -25
0 -25 -63 6 -56 29 -68 40 -60 60 8 21 123 -41 123 -66z m-1320 -46 c0 -63 -4
-104 -10 -104 -6 0 -10 44 -10 111 0 71 4 108 10 104 6 -3 10 -52 10 -111z
m-345 -14 c8 -12 7 -281 0 -289 -7 -6 -179 77 -212 102 -22 18 -23 23 -23 156
0 76 3 140 6 144 7 7 219 -97 229 -113z m2079 40 c133 -64 156 -78 156 -97 0
-21 -11 -17 -165 59 -124 62 -165 87 -165 101 0 10 4 17 9 15 4 -1 78 -37 165
-78z m-2969 49 c25 -12 48 -25 51 -30 3 -5 19 -9 35 -9 19 0 28 4 23 11 -4 7
1 10 11 7 23 -4 32 -28 12 -28 -9 0 -26 -12 -38 -27 -12 -16 -19 -20 -16 -10
4 9 2 17 -2 17 -5 0 -11 -6 -13 -12 -3 -9 -23 -1 -61 22 -59 36 -71 53 -17 25
17 -9 37 -14 43 -12 7 2 -9 15 -35 28 -27 12 -48 27 -48 31 0 12 5 10 55 -13z
m444 -5 c28 -14 51 -31 51 -39 0 -12 -5 -12 -25 -3 -14 6 -25 15 -25 20 0 5
-4 7 -8 4 -11 -6 -52 21 -52 35 0 13 2 12 59 -17z m2052 -56 c113 -59 159 -88
159 -100 0 -10 -6 -18 -12 -18 -7 0 -80 36 -163 79 -113 59 -151 84 -153 100
-2 12 0 21 4 21 3 0 78 -37 165 -82z m-1955 58 c10 -8 16 -17 12 -21 -11 -11
-48 5 -48 21 0 18 11 18 36 0z m58 -31 c27 -20 16 -39 -12 -20 -21 16 -30 35
-14 35 4 0 15 -7 26 -15z m1170 9 c9 -3 16 -17 16 -30 0 -18 -4 -22 -17 -17
-23 8 -32 23 -26 40 6 15 6 15 27 7z m-1339 -21 c19 -9 35 -23 35 -30 0 -7 -3
-13 -7 -12 -16 1 -67 35 -71 47 -5 16 1 15 43 -5z m625 -19 c0 -13 -4 -24 -9
-24 -10 0 -21 47 -13 54 10 11 22 -6 22 -30z m310 -81 c0 -51 -4 -95 -10 -98
-6 -4 -11 23 -11 72 -3 142 -2 153 11 133 5 -8 10 -56 10 -107z m1285 90 c43
-21 55 -32 55 -50 l0 -23 -60 30 c-43 22 -60 36 -60 50 0 25 -1 25 65 -7z
m-2682 -46 c-4 -6 -8 -19 -8 -27 -1 -8 -3 -26 -4 -40 -3 -25 -3 -25 -11 3 -5
16 -6 36 -3 44 5 12 3 14 -8 8 -11 -6 -12 -5 -1 6 6 7 12 27 12 44 l1 30 15
-28 c8 -15 11 -33 7 -40z m2017 -36 c112 -59 146 -82 148 -99 2 -12 -2 -22 -8
-22 -6 0 -79 36 -161 81 -112 61 -149 85 -149 100 0 10 6 19 13 18 6 0 77 -35
157 -78z m1107 -67 c12 -32 -12 -26 -132 34 -113 56 -138 76 -119 95 9 9 244
-111 251 -129z m-2673 111 c27 -20 16 -39 -12 -20 -21 16 -30 35 -14 35 4 0
15 -7 26 -15z m101 -1 c9 -9 14 -18 12 -20 -7 -8 -57 15 -57 26 0 15 27 12 45
-6z m640 -41 c-7 -17 -8 -16 -17 4 -6 12 -7 30 -3 40 7 17 8 16 17 -4 6 -12 7
-30 3 -40z m602 29 c7 -4 10 -17 7 -30 -5 -18 -10 -20 -25 -11 -10 5 -19 19
-19 29 0 21 16 26 37 12z m1103 -74 c0 -24 -10 -23 -75 9 -43 21 -55 32 -55
50 0 23 0 23 65 -9 44 -22 65 -38 65 -50z m-2963 35 c-3 -10 -5 -4 -5 12 0 17
2 24 5 18 2 -7 2 -21 0 -30z m603 0 c0 -16 -5 -16 -31 -3 -10 6 -19 17 -19 25
0 12 5 12 25 3 14 -6 25 -17 25 -25z m-66 -24 c-7 -12 -45 10 -52 30 -3 9 5 8
27 -4 18 -9 29 -20 25 -26z m116 6 c7 -9 10 -18 7 -21 -7 -8 -47 14 -47 26 0
15 26 12 40 -5z m2785 -67 c120 -60 165 -88 165 -100 0 -10 -3 -18 -7 -18 -5
0 -83 37 -175 82 -124 61 -168 87 -168 100 0 10 4 18 10 18 5 0 84 -37 175
-82z m-2840 41 c11 -17 -1 -22 -24 -9 -12 6 -21 17 -21 26 0 11 4 12 19 4 11
-5 23 -15 26 -21z m2350 -51 c140 -70 165 -86 165 -105 0 -13 -2 -23 -5 -23
-2 0 -78 38 -167 84 -121 63 -164 90 -166 105 -2 12 -1 21 2 21 3 0 80 -37
171 -82z m-2581 6 c-3 -30 1 -52 12 -69 9 -14 14 -28 10 -32 -3 -3 -6 -2 -6 4
0 6 -9 13 -19 16 -13 3 -24 20 -31 47 -6 22 -14 48 -17 57 -4 11 -2 14 5 9 7
-4 12 -1 12 7 0 10 7 13 19 10 16 -4 19 -12 15 -49z m204 13 c27 -15 44 -37
27 -37 -17 0 -115 57 -115 67 0 13 21 6 88 -30z m160 9 c3 -14 0 -15 -22 -5
-14 7 -26 18 -26 25 0 19 44 1 48 -20z m1106 28 c15 -6 24 -54 10 -54 -21 0
-42 22 -37 40 6 22 6 22 27 14z m1286 -76 c0 -24 -10 -23 -75 9 -43 21 -55 32
-55 50 0 23 0 23 65 -9 44 -22 65 -38 65 -50z m-2464 45 c10 -10 12 -19 6 -21
-14 -4 -52 16 -52 28 0 16 27 11 46 -7z m889 -33 c-4 -40 -5 -41 -15 -35 -11
7 -14 68 -3 79 10 10 21 -16 18 -44z m1799 -22 c112 -56 147 -84 129 -102 -3
-3 -62 24 -132 59 -102 51 -127 67 -127 84 0 12 2 21 3 21 2 0 59 -28 127 -62z
m-2831 28 c27 -21 22 -38 -8 -24 -14 6 -25 17 -25 25 0 16 10 16 33 -1z m709
-67 c156 -77 154 -76 146 -85 -7 -6 -298 138 -298 148 0 12 1 12 152 -63z
m-1142 51 c8 -5 11 -10 5 -10 -5 0 -17 5 -25 10 -8 5 -10 10 -5 10 6 0 17 -5
25 -10z m598 -16 c26 -14 52 -30 57 -34 6 -5 12 -8 15 -7 13 3 110 -48 114
-60 3 -7 1 -13 -5 -13 -14 0 -91 40 -111 58 -10 8 -18 12 -18 8 0 -3 -27 7
-60 24 -33 17 -60 35 -60 40 0 16 18 12 68 -16z m1540 -26 c54 -28 127 -67
164 -87 63 -34 84 -60 59 -75 -5 -3 -83 34 -173 82 -125 68 -164 94 -166 110
-2 12 2 22 8 22 7 0 55 -23 108 -52z m-2048 32 c8 -5 11 -10 5 -10 -5 0 -17 5
-25 10 -8 5 -10 10 -5 10 6 0 17 -5 25 -10z m1664 -12 c13 -22 -3 -41 -27 -32
-23 8 -23 57 -1 52 9 -2 22 -11 28 -20z m-1243 2 c5 0 9 -7 9 -15 0 -18 -5
-18 -31 -5 -23 13 -26 35 -3 26 9 -3 20 -6 25 -6z m-325 -47 c-6 -6 -76 30
-76 38 0 5 18 -2 40 -13 22 -12 38 -23 36 -25z m383 13 c15 -8 20 -16 13 -20
-13 -8 -52 10 -52 24 0 13 10 12 39 -4z m1711 -154 c60 -33 75 -45 75 -64 0
-13 -5 -22 -10 -21 -13 2 -327 171 -337 181 -4 4 -5 17 -2 28 5 20 11 19 102
-31 54 -29 131 -71 172 -93z m-1647 124 c27 -21 22 -38 -8 -24 -14 6 -25 17
-25 25 0 16 10 16 33 -1z m1119 -4 c-7 -2 -12 -15 -12 -28 0 -24 -14 -30 -37
-16 -7 4 -10 17 -6 30 4 17 10 21 25 16 14 -4 18 -2 14 5 -5 7 -1 8 10 4 11
-4 13 -8 6 -11z m1501 -93 c121 -62 157 -85 157 -100 0 -10 -2 -19 -5 -19 -3
0 -82 38 -175 85 -138 69 -170 89 -170 106 0 27 2 26 193 -72z m-2403 36 c7
-9 11 -18 8 -20 -9 -10 -38 7 -38 21 0 18 14 18 30 -1z m1041 -40 c60 -31 115
-53 121 -49 6 4 8 3 5 -2 -3 -5 53 -40 124 -78 121 -63 150 -89 116 -102 -10
-3 -473 222 -494 240 -4 3 9 46 13 46 3 0 54 -25 115 -55z m-161 -22 c0 -30
-12 -35 -37 -15 -16 13 -19 22 -12 40 7 20 11 21 29 10 11 -7 20 -23 20 -35z
m-630 27 c8 -5 12 -11 9 -14 -3 -3 -14 1 -25 9 -21 16 -8 20 16 5z m1423 -93
l-5 -23 -69 35 c-63 33 -82 55 -63 74 4 3 37 -9 74 -28 59 -30 67 -37 63 -58z
m237 66 c0 -20 -24 -11 -28 10 -2 12 1 15 12 11 9 -3 16 -13 16 -21z m-1603
-9 c-7 -7 -37 7 -37 17 0 6 9 5 21 -1 11 -7 19 -14 16 -16z m-32 -6 c14 -6 25
-15 25 -20 0 -8 -17 -1 -50 22 -20 13 -7 13 25 -2z m1915 -125 c0 -7 -2 -13
-5 -13 -3 0 -59 27 -125 60 -73 36 -120 66 -120 75 0 11 36 -3 125 -47 69 -35
125 -68 125 -75z m-1840 117 c8 -5 12 -11 9 -14 -3 -3 -14 1 -25 9 -21 16 -8
20 16 5z m407 -12 c-3 -8 -6 -5 -6 6 -1 11 2 17 5 13 3 -3 4 -12 1 -19z m60 6
c-3 -3 -12 -4 -19 -1 -8 3 -5 6 6 6 11 1 17 -2 13 -5z m1091 -28 c3 -12 -1
-17 -10 -14 -7 3 -15 13 -16 22 -3 12 1 17 10 14 7 -3 15 -13 16 -22z m-1157
-27 c-5 -13 -10 -19 -10 -12 -1 15 10 45 15 40 3 -2 0 -15 -5 -28z m853 -12
c64 -35 71 -44 57 -66 -7 -11 -22 -7 -75 23 -36 20 -66 39 -66 41 0 10 13 35
19 35 3 0 33 -15 65 -33z m166 3 c30 -16 40 -26 40 -45 0 -14 -2 -25 -4 -25
-2 0 -24 12 -50 26 -43 24 -55 42 -39 57 9 10 9 10 53 -13z m138 -23 c2 -12
-1 -15 -12 -11 -19 7 -22 38 -3 32 6 -3 13 -12 15 -21z m-1124 -12 c11 -8 29
-16 40 -16 16 -1 17 -2 4 -6 -16 -4 -78 22 -78 32 0 9 15 4 34 -10z m76 -95
c192 -96 184 -89 182 -164 0 -15 -2 -30 -4 -31 -2 -2 -88 39 -191 91 -128 64
-199 94 -222 94 -43 0 -539 -247 -543 -271 -2 -11 162 -98 640 -338 353 -178
652 -331 665 -340 21 -17 21 -18 2 -31 -10 -8 -15 -17 -10 -20 10 -5 -2 -327
-16 -435 -4 -33 -6 -75 -4 -93 1 -18 -3 -40 -11 -49 -32 -39 71 7 501 221 248
124 451 223 451 221 0 -3 -15 -12 -32 -21 -38 -19 -51 -36 -37 -44 5 -4 -44
-32 -108 -63 -216 -103 -436 -208 -602 -288 -101 -49 -176 -79 -196 -79 -22 0
-148 57 -386 173 -195 96 -360 172 -366 170 -7 -3 -9 -11 -6 -19 3 -8 0 -21
-7 -28 -9 -12 -7 -19 11 -37 l22 -22 -26 7 c-21 5 -30 1 -47 -24 -12 -16 -17
-31 -11 -31 20 -3 26 -4 36 -11 6 -3 29 -3 53 2 23 4 45 3 48 -1 3 -5 10 -7
15 -3 5 3 7 10 4 15 -4 5 -1 9 4 9 6 0 11 -8 11 -17 0 -13 2 -15 8 -5 7 10 15
10 36 3 15 -6 30 -10 34 -10 31 5 56 -6 87 -38 36 -37 45 -59 21 -50 -16 6
-19 -29 -4 -49 11 -15 13 -64 4 -86 -6 -13 -4 -18 8 -18 10 0 15 7 13 21 -1
12 5 24 13 27 13 4 13 3 2 -11 -11 -13 -10 -17 5 -26 17 -10 17 -10 -2 -11
l-20 -1 20 -10 c17 -8 15 -8 -8 -4 -15 3 -26 2 -25 -2 0 -5 -2 -16 -6 -25 -6
-14 -12 -15 -26 -8 -23 12 -40 13 -40 1 0 -8 27 -19 41 -17 3 1 14 -5 23 -13
15 -13 19 -13 26 -1 5 8 6 19 3 24 -4 6 -8 5 -11 -2 -2 -7 -8 -12 -13 -12 -15
0 6 33 23 36 24 3 15 -52 -12 -76 -16 -14 -26 -17 -29 -9 -2 6 3 15 10 20 11
7 10 9 -3 9 -12 0 -18 -8 -18 -24 0 -14 -6 -26 -12 -29 -7 -2 -5 -3 4 -2 10 2
15 -2 11 -11 -3 -8 0 -14 6 -14 6 0 11 -5 11 -12 0 -9 -3 -9 -12 0 -19 19 -26
14 -21 -12 4 -17 -1 -27 -16 -35 -12 -7 -21 -21 -21 -31 0 -11 -5 -20 -12 -20
-6 0 -3 -7 8 -15 18 -14 18 -14 0 -15 -14 0 -16 -3 -7 -13 9 -11 4 -14 -25
-15 -19 -1 -39 -4 -44 -7 -5 -3 -19 -1 -32 4 -33 13 -213 70 -235 74 -20 4
-24 6 -112 35 -60 20 -65 21 -100 5 -20 -9 -44 -20 -53 -25 -31 -13 -21 29 10
46 15 9 21 15 12 16 -9 0 -22 -6 -28 -12 -23 -23 -226 -96 -234 -84 -6 8 -11
7 -17 -4 -6 -8 -13 -12 -16 -8 -14 14 73 59 560 293 88 42 168 83 177 92 23
21 23 55 1 76 -10 8 -233 122 -495 253 -346 172 -487 238 -512 238 -19 0 -34
4 -33 9 1 5 -11 17 -28 27 -29 16 -31 16 -54 -1 -13 -11 -30 -19 -37 -19 -8 0
-13 -3 -13 -7 3 -20 -2 -24 -16 -13 -8 7 -15 8 -15 3 0 -10 38 -32 75 -44 19
-6 19 -7 1 -14 -10 -4 -21 -4 -25 1 -3 5 -17 14 -31 21 -33 15 -78 27 -65 16
13 -10 18 -33 8 -34 -24 -2 -43 -8 -60 -19 -16 -10 -16 -11 5 -7 32 7 27 -2
-8 -14 -16 -6 -27 -15 -24 -21 4 -6 10 -6 17 1 6 6 15 11 20 11 5 0 -2 -9 -16
-20 -14 -11 -31 -20 -39 -19 -7 0 -4 4 7 9 13 6 15 9 5 9 -8 0 -21 -3 -29 -8
-11 -7 -6 -12 20 -18 l34 -9 -37 -18 c-20 -10 -42 -24 -49 -32 -14 -17 -39
-18 -39 -1 0 6 -8 0 -18 -15 -9 -16 -21 -28 -26 -28 -5 0 -24 -12 -43 -26 -18
-14 -49 -28 -68 -31 -19 -3 -35 -10 -35 -14 0 -5 -8 -9 -17 -9 -10 0 -31 -14
-48 -31 -21 -22 -37 -29 -53 -26 -18 3 -26 -2 -34 -19 -6 -13 -16 -24 -23 -24
-6 0 -25 -13 -40 -29 -28 -27 -31 -28 -67 -15 -20 7 -47 18 -60 26 -13 7 -26
11 -30 10 -5 -1 -8 2 -8 7 0 5 -9 7 -20 4 -16 -4 -20 0 -20 20 0 48 28 67 115
79 124 16 176 59 140 114 -9 14 -14 32 -11 41 7 17 23 16 161 -12 103 -20 130
-11 121 39 -6 29 -3 37 20 55 15 12 41 21 59 21 85 0 125 12 164 50 21 21 54
41 72 45 39 8 79 31 79 45 0 6 -41 30 -91 55 -86 41 -94 43 -119 30 -15 -8
-30 -23 -33 -35 -4 -15 -13 -20 -36 -20 -18 0 -74 -24 -141 -61 -61 -33 -116
-59 -121 -57 -5 2 39 29 98 59 63 33 112 65 118 78 10 22 12 22 55 25 14 1 36
9 48 17 22 16 21 16 -34 45 l-55 29 -75 -40 c-41 -22 -74 -43 -74 -47 0 -5 -6
-8 -14 -8 -8 0 -47 -18 -88 -41 -115 -65 -122 -70 -108 -79 19 -11 19 -45 3
-99 -7 -25 -14 -48 -14 -51 0 -17 -31 -105 -40 -116 -6 -8 -9 -20 -6 -28 4
-11 1 -13 -11 -10 -14 5 -14 3 2 -10 18 -14 18 -15 -2 -13 -11 0 -18 5 -16 9
3 4 0 8 -6 8 -11 0 5 40 21 50 12 8 -2 81 -14 73 -6 -3 -7 -1 -3 5 4 7 3 12
-2 12 -13 0 -126 -62 -130 -72 -2 -4 -10 -8 -17 -8 -8 0 -55 -23 -106 -50 -51
-28 -94 -48 -96 -46 -4 4 120 76 203 119 19 10 32 22 29 27 -6 10 34 35 42 26
3 -3 -5 -10 -18 -15 -13 -5 -17 -10 -9 -10 18 0 52 24 44 32 -3 3 12 17 34 31
30 19 43 36 56 75 9 27 16 60 16 73 0 48 10 66 33 60 20 -5 21 -4 7 13 -13 17
-13 18 0 10 28 -17 90 -12 128 11 20 12 65 36 100 53 35 17 61 35 57 41 -4 6
1 7 11 3 12 -4 15 -3 10 5 -5 8 -2 10 8 6 9 -3 16 -1 16 5 0 6 -80 51 -177 99
-177 86 -178 87 -253 86 -46 0 -88 -6 -110 -16 -19 -9 -48 -19 -64 -23 -22 -5
-26 -9 -16 -15 9 -5 4 -8 -13 -7 -15 1 -27 3 -27 5 0 1 34 19 76 38 66 30 87
35 151 35 71 0 81 -3 216 -67 78 -36 165 -76 192 -88 28 -12 57 -26 65 -31 8
-5 17 -10 20 -11 5 0 65 -27 116 -51 17 -8 47 -16 67 -18 21 -2 45 -9 54 -17
13 -10 17 -10 20 0 3 6 9 12 15 12 6 0 7 -7 4 -16 -4 -11 -2 -15 8 -11 7 3 23
-1 35 -9 12 -9 21 -11 21 -5 0 6 5 11 11 11 5 0 7 -4 4 -10 -3 -5 2 -10 12
-10 11 0 28 -7 39 -15 25 -19 34 -19 34 0 0 8 5 15 11 15 6 0 9 -6 6 -14 -6
-16 11 -36 30 -36 7 0 13 4 13 10 0 5 -7 7 -16 3 -11 -4 -15 -2 -13 6 3 7 7
12 9 11 41 -8 50 -14 45 -28 -4 -12 -3 -12 8 -3 11 9 17 8 26 -2 6 -8 7 -18 3
-23 -4 -4 1 -2 11 5 15 12 21 9 19 -10 -1 -4 8 -5 18 -2 11 3 20 1 20 -5 0 -5
8 -9 18 -8 12 1 16 -5 14 -19 -2 -15 0 -16 6 -7 8 11 21 9 68 -14 32 -15 64
-27 71 -27 7 0 13 -4 13 -9 0 -4 9 -8 20 -8 11 0 23 -6 26 -14 4 -10 15 -13
39 -9 20 3 50 -1 73 -10 22 -9 42 -13 45 -10 3 3 12 1 19 -3 7 -5 18 -9 23
-11 6 -1 21 -5 35 -8 36 -10 -41 35 -194 112 -95 47 -136 63 -156 60 -14 -3
-32 -2 -40 4 -12 7 -12 9 3 9 10 0 15 5 12 10 -4 6 -154 85 -335 175 -180 90
-330 171 -334 180 -3 9 -6 23 -6 31 0 14 1348 694 1376 694 8 0 95 -41 194
-90z m60 80 c8 -5 11 -10 5 -10 -5 0 -17 5 -25 10 -8 5 -10 10 -5 10 6 0 17
-5 25 -10z m-15 -20 c3 -6 -1 -7 -9 -4 -18 7 -21 14 -7 14 6 0 13 -4 16 -10z
m853 -39 c4 -24 -15 -28 -41 -8 -11 8 -15 20 -11 35 6 21 8 22 28 9 11 -8 22
-24 24 -36z m487 -8 c63 -32 115 -63 115 -70 0 -7 -6 -13 -12 -12 -24 2 -232
114 -236 127 -6 21 14 14 133 -45z m-1335 16 l25 -20 -32 16 c-18 8 -33 18
-33 20 0 10 16 4 40 -16z m147 -24 c0 -8 -4 -12 -9 -9 -5 3 -6 10 -3 15 9 13
12 11 12 -6z m765 -2 c16 -15 26 -53 13 -53 -3 0 -16 7 -29 15 -16 11 -22 22
-19 35 6 24 11 25 35 3z m-801 -10 c11 -15 11 -16 -1 -6 -10 9 -17 10 -27 2
-13 -12 -19 2 -6 14 10 11 20 8 34 -10z m83 -12 c-2 -3 -12 3 -22 13 -16 17
-16 18 5 5 12 -7 20 -15 17 -18z m49 -41 c42 -23 77 -38 77 -35 0 3 6 1 13 -6
6 -6 80 -46 162 -88 l150 -76 2 -79 c2 -44 4 -80 5 -82 2 -1 80 -40 173 -86
l170 -85 3 -61 c2 -34 5 -62 7 -62 2 0 15 5 28 11 19 9 31 7 56 -5 17 -9 31
-19 31 -21 0 -2 -14 -12 -31 -21 -25 -12 -37 -14 -56 -5 -31 14 -33 14 -33 -4
0 -10 68 -49 185 -107 102 -51 185 -96 185 -99 0 -4 -14 -12 -31 -19 -30 -13
-38 -10 -190 66 l-159 79 -1 35 c0 19 -1 73 -2 119 l-2 85 -240 123 c-132 67
-243 122 -247 123 -5 0 -8 -7 -8 -16 0 -8 -4 -12 -10 -9 -15 9 -13 88 2 83 7
-3 15 -15 18 -29 7 -27 40 -40 40 -15 0 10 6 13 15 10 8 -4 15 -16 15 -29 0
-13 7 -26 16 -29 22 -9 24 -8 24 9 0 8 5 15 10 15 6 0 10 22 10 50 l0 50 -247
124 c-137 69 -241 125 -232 125 9 1 50 -17 92 -39z m767 -12 c0 -21 -18 -23
-43 -4 -10 8 -15 20 -11 29 8 22 54 1 54 -25z m423 -22 c64 -33 117 -65 117
-73 0 -7 -2 -13 -5 -13 -3 0 -59 27 -125 60 -77 39 -120 66 -120 76 0 9 3 14
8 12 4 -2 60 -30 125 -62z m-1676 42 c18 -7 33 -15 33 -18 0 -4 -15 -13 -33
-22 -30 -14 -36 -14 -66 1 -33 18 -31 29 9 44 22 8 21 8 57 -5z m421 -47 c2
-32 0 -42 -10 -39 -7 3 -14 23 -16 47 -2 32 0 42 10 39 7 -3 14 -23 16 -47z
m1422 -21 c77 -39 120 -66 120 -76 0 -9 -3 -14 -7 -12 -107 47 -243 122 -243
133 0 8 2 15 5 15 3 0 59 -27 125 -60z m-527 36 c9 -7 17 -23 17 -34 0 -19 -3
-20 -25 -10 -16 7 -25 19 -25 35 0 26 7 28 33 9z m-823 -47 c0 -28 -4 -39 -15
-39 -11 0 -15 12 -15 45 0 35 3 43 15 39 10 -4 15 -20 15 -45z m1040 41 c18
-12 2 -12 -25 0 -13 6 -15 9 -5 9 8 0 22 -4 30 -9z m-1235 -217 l435 -218 0
-33 c0 -30 -2 -33 -22 -26 -13 3 -225 108 -471 232 l-449 226 34 17 c18 10 34
18 35 19 2 0 199 -98 438 -217z m1125 146 c0 -22 -18 -24 -42 -5 -18 13 -24
37 -12 49 11 11 54 -25 54 -44z m180 31 c8 -5 11 -10 5 -10 -5 0 -17 5 -25 10
-8 5 -10 10 -5 10 6 0 17 -5 25 -10z m-960 -456 l874 -436 -37 -19 -36 -19
-876 437 c-481 241 -875 441 -875 444 0 8 41 27 60 28 8 1 409 -195 890 -435z
m-10 385 c0 -28 -4 -39 -15 -39 -11 0 -15 12 -15 45 0 35 3 43 15 39 10 -4 15
-20 15 -45z m1030 41 c0 -5 -2 -10 -4 -10 -3 0 -8 5 -11 10 -3 6 -1 10 4 10 6
0 11 -4 11 -10z m-1417 -12 c35 -17 34 -21 -5 -40 -30 -14 -36 -14 -65 0 -39
18 -41 25 -10 40 30 14 48 14 80 0z m207 -13 c0 -8 -4 -15 -8 -15 -5 0 -9 7
-9 15 0 8 4 15 9 15 4 0 8 -7 8 -15z m100 -1 c0 -8 -4 -12 -10 -9 -5 3 -10 10
-10 16 0 5 5 9 10 9 6 0 10 -7 10 -16z m1360 -29 c53 -26 90 -51 90 -60 0 -11
-26 -2 -95 32 -52 26 -95 53 -95 60 0 18 0 18 100 -32z m-140 15 c22 -11 40
-27 40 -35 0 -8 -3 -15 -7 -14 -18 2 -87 45 -91 57 -5 17 13 15 58 -8z m794
-144 c166 -83 313 -162 328 -175 34 -30 58 -90 57 -144 0 -23 -3 -36 -6 -30
-4 10 -9 10 -26 1 -12 -7 -26 -11 -30 -10 -4 1 -3 -7 3 -18 14 -26 4 -59 -18
-58 -9 0 -30 -4 -47 -9 -36 -12 -66 -6 -44 8 9 6 10 9 2 9 -6 0 -14 -4 -18 -9
-6 -11 31 -35 43 -27 4 2 8 -4 8 -15 0 -23 2 -23 -43 -4 -20 8 -38 13 -41 10
-3 -3 0 -5 7 -5 7 0 9 -5 5 -11 -4 -8 -9 -8 -17 0 -19 19 -31 12 -14 -7 10
-10 17 -27 17 -38 -1 -18 -1 -18 -14 -1 -15 20 -30 23 -23 5 15 -42 17 -58 8
-58 -6 0 -11 7 -11 15 0 8 -4 15 -10 15 -14 0 -12 -22 4 -46 19 -27 26 -146 8
-152 -7 -2 -18 -9 -25 -16 -6 -6 -25 -19 -40 -29 l-28 -18 -38 43 c-82 93 -93
104 -86 83 5 -15 -3 -11 -29 14 -44 43 -47 29 -5 -22 33 -41 29 -50 -8 -15
-17 16 -23 18 -23 7 0 -8 5 -20 12 -27 25 -25 -7 -11 -35 16 -28 25 -29 26
-23 5 5 -14 3 -23 -3 -23 -6 0 -11 8 -11 18 0 10 -3 13 -8 7 -20 -29 -66 -55
-86 -49 -19 6 -19 5 -4 -10 9 -9 22 -16 29 -16 8 0 8 -4 -1 -15 -11 -13 -15
-13 -21 -3 -10 15 -12 6 -3 -16 3 -9 14 -16 24 -16 25 0 122 -31 140 -45 8 -6
32 -21 54 -34 30 -17 41 -19 52 -10 8 7 17 9 21 5 3 -3 1 -6 -6 -6 -7 0 -9 -5
-5 -12 5 -7 3 -8 -7 -3 -12 8 -12 6 0 -9 8 -9 20 -15 27 -12 8 3 13 0 11 -6
-1 -7 8 -17 21 -23 12 -5 22 -13 22 -17 0 -15 49 -8 84 11 34 19 34 19 53 -2
26 -29 53 -69 53 -79 0 -5 -14 6 -31 24 -18 18 -26 25 -18 14 17 -23 24 -70 9
-61 -5 3 -10 -1 -10 -9 0 -9 -4 -16 -9 -16 -10 0 -323 145 -453 211 -65 32
-88 49 -89 64 -6 86 -3 120 9 118 6 -2 12 2 12 8 0 6 -6 9 -14 6 -18 -7 -26
93 -26 338 0 148 -3 193 -12 192 -33 -1 -44 5 -45 22 -2 20 17 20 42 0 7 -5
11 16 12 62 l1 70 -79 39 c-46 24 -79 47 -79 55 0 11 20 5 79 -24 64 -32 78
-37 74 -22 -2 10 -42 35 -94 61 -50 24 -93 48 -96 53 -15 24 17 17 100 -25
l92 -45 1 38 c1 52 18 70 56 62 17 -3 166 -74 332 -157z m-3965 138 c12 8 24
-25 12 -37 -13 -13 -51 1 -51 19 0 8 -6 14 -12 14 -9 0 -8 3 2 10 9 5 19 5 27
-1 7 -6 16 -8 22 -5z m1931 -41 c0 -36 -3 -44 -15 -39 -11 4 -15 -1 -15 -18 0
-19 -7 -24 -36 -29 -47 -8 -108 19 -80 35 9 5 16 19 15 31 0 12 -1 29 0 37 2
24 22 -4 30 -42 8 -41 43 -54 35 -13 -4 23 -2 26 16 20 18 -6 20 -2 20 34 0
32 3 39 15 35 10 -4 15 -20 15 -51z m157 20 c-3 -10 -5 -4 -5 12 0 17 2 24 5
18 2 -7 2 -21 0 -30z m-949 -16 l83 -43 -37 -17 -37 -18 -83 40 c-46 22 -84
42 -84 45 0 7 52 35 65 35 6 0 47 -19 93 -42z m612 18 c38 -20 38 -29 0 -45
-24 -10 -36 -10 -60 0 -37 15 -38 25 -2 44 34 19 28 19 62 1z m97 -7 c-3 -8
-6 -5 -6 6 -1 11 2 17 5 13 3 -3 4 -12 1 -19z m323 -39 c0 -28 -4 -39 -15 -39
-11 0 -15 12 -15 45 0 35 3 43 15 39 10 -4 15 -20 15 -45z m-3143 15 c-9 -9
-28 6 -21 18 4 6 10 6 17 -1 6 -6 8 -13 4 -17z m2961 -9 c0 -14 -4 -27 -8 -30
-3 -2 -5 6 -4 18 1 12 3 25 3 30 2 18 9 5 9 -18z m1302 5 c22 -11 40 -27 40
-36 0 -9 -3 -14 -7 -12 -5 2 -27 12 -50 22 -24 10 -43 24 -43 32 0 19 14 18
60 -6z m-5075 0 c3 -5 -1 -10 -10 -10 -9 0 -13 5 -10 10 3 6 8 10 10 10 2 0 7
-4 10 -10z m2756 -11 l41 -20 -33 -18 c-33 -16 -36 -16 -73 2 l-39 19 29 18
c16 10 30 19 32 19 1 1 21 -8 43 -20z m1099 -45 c0 -34 -3 -42 -15 -38 -11 5
-15 -1 -15 -21 0 -41 -34 -30 -35 13 -1 26 2 31 17 26 15 -4 18 1 18 35 0 32
3 39 15 35 10 -4 15 -20 15 -50z m684 -85 c122 -61 226 -116 231 -121 7 -7 7
-9 0 -7 -16 7 -460 231 -464 235 -18 17 43 -11 233 -107z m690 46 c-8 -19 -93
24 -94 48 0 15 6 14 49 -9 32 -16 48 -30 45 -39z m-1489 45 c3 -5 1 -10 -4
-10 -6 0 -11 5 -11 10 0 6 2 10 4 10 3 0 8 -4 11 -10z m-857 -20 c17 -8 32
-17 32 -21 0 -10 -63 -34 -79 -31 -8 2 -25 11 -39 20 l-24 16 34 17 c18 10 35
17 38 15 3 -1 20 -9 38 -16z m822 -305 c358 -179 649 -329 646 -334 -3 -5 -18
-14 -33 -20 -26 -11 -73 11 -680 314 -359 178 -653 327 -653 330 0 5 51 34 63
35 4 0 300 -146 657 -325z m40 286 c0 -11 6 -21 13 -24 9 -4 9 -7 0 -17 -10
-11 -20 -10 -53 5 -42 19 -39 35 8 35 13 0 20 4 17 10 -3 6 -1 10 4 10 6 0 11
-9 11 -19z m-2700 -6 c10 -12 9 -15 -8 -15 -11 0 -25 7 -32 15 -10 12 -9 15 8
15 11 0 25 -7 32 -15z m4270 -25 c27 -14 38 -25 33 -35 -4 -13 -12 -12 -46 9
-71 41 -60 63 13 26z m-2280 -31 c0 -3 -15 -12 -33 -21 -31 -15 -35 -14 -72 4
l-39 20 34 18 c31 16 36 16 71 1 22 -9 39 -19 39 -22z m850 5 c0 -14 -4 -23
-9 -20 -5 3 -8 17 -8 31 0 13 3 22 8 19 5 -3 9 -16 9 -30z m531 -30 c4 -21 4
-44 2 -51 -7 -18 -23 -16 -23 2 0 8 -10 20 -22 26 -33 17 -33 17 -8 44 31 33
43 28 51 -21z m-431 6 c8 -5 11 -12 8 -16 -4 -3 -14 1 -23 10 -18 17 -9 21 15
6z m499 -4 c6 -7 10 -24 10 -37 -1 -13 1 -31 5 -40 4 -10 2 -20 -4 -24 -13 -8
-60 13 -60 27 0 5 9 4 21 -2 31 -17 36 -3 8 27 -18 20 -20 25 -6 20 26 -10 21
18 -5 31 -23 11 -23 11 -2 11 12 1 27 -5 33 -13z m-900 -246 c269 -135 490
-248 491 -252 0 -4 -13 -14 -30 -23 -29 -15 -31 -14 -525 231 -272 136 -495
250 -495 253 0 7 53 40 61 38 4 -1 228 -112 498 -247z m331 210 c0 -17 -3 -18
-25 -8 -27 12 -24 28 6 28 12 0 19 -7 19 -20z m30 4 c0 -8 -5 -12 -10 -9 -6 4
-8 11 -5 16 9 14 15 11 15 -7z m110 -6 c0 -5 -9 -4 -20 2 -11 6 -20 12 -20 14
0 2 9 2 20 -1 11 -3 20 -9 20 -15z m510 -29 c0 -24 -18 -33 -35 -19 -15 13
-20 51 -8 63 10 10 43 -24 43 -44z m-552 13 c12 -8 22 -21 22 -28 0 -11 -9
-10 -40 6 -22 11 -40 27 -40 35 0 16 19 11 58 -13z m91 -1 c8 -5 9 -11 3 -15
-5 -3 -15 1 -22 9 -14 16 -3 20 19 6z m476 -46 c-15 -19 -30 -33 -33 -31 -3 3
8 22 23 41 15 20 29 34 32 31 3 -2 -7 -21 -22 -41z m-635 19 c0 -8 -5 -12 -10
-9 -6 4 -8 11 -5 16 9 14 15 11 15 -7z m675 -30 c19 -20 16 -48 -7 -52 -20 -4
-40 30 -32 52 8 20 18 20 39 0z m185 -73 c0 -49 3 -96 6 -105 3 -9 1 -16 -4
-16 -7 0 -12 41 -14 105 -2 58 0 105 5 105 4 0 7 -40 7 -89z m-610 -11 c158
-80 205 -110 170 -110 -6 0 -68 29 -139 65 -71 36 -132 65 -135 65 -14 0 -86
51 -86 60 0 6 2 10 5 10 2 0 85 -41 185 -90z m-250 64 c0 -8 -5 -12 -10 -9 -6
4 -8 11 -5 16 9 14 15 11 15 -7z m740 1 c-7 -8 -17 -15 -23 -15 -6 0 -2 7 9
15 25 19 30 19 14 0z m-492 -115 c132 -65 161 -84 149 -96 -6 -6 -129 56 -138
69 -3 5 -9 8 -13 7 -15 -4 -146 65 -146 77 0 7 2 13 4 13 2 0 67 -31 144 -70z
m582 51 c0 -5 -7 -12 -16 -15 -14 -5 -15 -4 -4 9 14 17 20 19 20 6z m-3260
-124 c0 -5 -3 -7 -7 -5 -67 31 -143 74 -143 80 0 4 34 -9 75 -29 41 -21 75
-41 75 -46z m165 73 c3 -5 1 -10 -4 -10 -6 0 -11 5 -11 10 0 6 2 10 4 10 3 0
8 -4 11 -10z m35 -20 c0 -5 -2 -10 -4 -10 -3 0 -8 5 -11 10 -3 6 -1 10 4 10 6
0 11 -4 11 -10z m-772 -29 c5 -16 -27 -14 -44 3 -12 13 -10 14 13 12 15 -2 29
-8 31 -15z m495 -8 c29 -14 47 -28 40 -30 -11 -4 -113 43 -113 52 0 11 23 4
73 -22z m-40 -15 c34 -17 57 -33 50 -35 -12 -4 -74 25 -108 51 -32 25 -9 19
58 -16z m-75 -27 c39 -19 72 -38 72 -42 0 -5 -2 -9 -6 -9 -11 0 -144 73 -150
82 -4 6 -3 9 2 7 5 -3 42 -20 82 -38z m41 13 c55 -24 78 -44 51 -44 -12 0
-120 60 -120 66 0 7 7 5 69 -22z m-5 -75 c-5 -9 -164 72 -164 83 0 5 38 -11
84 -34 47 -23 83 -45 80 -49z m3278 65 l32 -17 -37 -19 c-34 -17 -39 -17 -67
-3 -36 19 -38 28 -7 43 31 15 43 14 79 -4z m-3392 -30 c44 -20 80 -41 80 -45
0 -5 -3 -9 -6 -9 -8 0 -164 81 -164 86 0 8 11 4 90 -32z m670 6 c0 -5 -2 -10
-4 -10 -3 0 -8 5 -11 10 -3 6 -1 10 4 10 6 0 11 -4 11 -10z m-675 -37 c30 -15
55 -31 55 -35 0 -13 -13 -9 -75 27 -71 41 -59 46 20 8z m3510 5 c14 -6 25 -14
25 -18 0 -9 -46 -30 -65 -30 -18 0 -65 21 -65 29 0 9 41 28 62 30 9 0 29 -4
43 -11z m1198 -19 c-4 -13 -9 -17 -15 -11 -11 11 -3 32 12 32 4 0 6 -9 3 -21z
m-3933 1 c0 -5 -2 -10 -4 -10 -3 0 -8 5 -11 10 -3 6 -1 10 4 10 6 0 11 -4 11
-10z m-807 -36 c18 -10 26 -19 19 -21 -11 -4 -102 42 -102 52 0 6 41 -10 83
-31z m877 6 c0 -5 -4 -10 -10 -10 -5 0 -10 5 -10 10 0 6 5 10 10 10 6 0 10 -4
10 -10z m2809 -26 c2 -2 -13 -11 -32 -20 -30 -14 -40 -15 -66 -4 -39 16 -39
23 1 41 28 14 35 14 62 1 17 -8 33 -16 35 -18z m-3632 20 c-3 -3 -12 -4 -19
-1 -8 3 -5 6 6 6 11 1 17 -2 13 -5z m853 -14 c0 -5 -2 -10 -4 -10 -3 0 -8 5
-11 10 -3 6 -1 10 4 10 6 0 11 -4 11 -10z m-930 -10 c8 -5 11 -12 8 -15 -4 -4
-17 0 -30 9 -24 17 -5 23 22 6z m-107 -43 c15 -6 27 -15 27 -19 0 -12 -5 -10
-65 19 -58 29 -78 53 -22 27 17 -8 44 -20 60 -27z m18 22 c23 -11 38 -23 35
-26 -7 -8 -86 29 -86 40 0 11 7 9 51 -14z m1056 15 c-3 -3 -12 -4 -19 -1 -8 3
-5 6 6 6 11 1 17 -2 13 -5z m-1142 -36 c36 -18 65 -36 65 -40 0 -14 -13 -9
-85 32 -84 48 -71 53 20 8z m153 14 c2 -7 -2 -10 -12 -6 -9 3 -16 11 -16 16 0
13 23 5 28 -10z m1017 8 c3 -5 1 -10 -4 -10 -6 0 -11 5 -11 10 0 6 2 10 4 10
3 0 8 -4 11 -10z m-1185 -50 c30 -16 47 -29 38 -30 -14 0 -100 41 -117 56 -17
15 34 -2 79 -26z m4189 1 c-6 -17 -17 -35 -25 -42 -13 -10 -13 -8 -4 15 6 18
6 25 0 21 -6 -3 -10 -2 -10 2 0 5 10 13 23 19 12 7 23 12 24 13 1 0 -3 -12 -8
-28z m-4174 -42 c5 -6 4 -9 -3 -9 -17 0 -109 47 -117 59 -6 11 105 -35 120
-50z m3179 36 c41 -17 40 -27 -3 -44 -25 -11 -35 -10 -67 7 l-38 19 30 16 c36
20 34 20 78 2z m-3244 -77 c0 -4 -34 9 -75 29 -41 21 -75 41 -75 45 0 4 34 -9
75 -29 41 -21 75 -41 75 -45z m-25 55 c30 -15 55 -31 55 -35 0 -13 -13 -9 -75
27 -71 41 -59 46 20 8z m3585 -27 l85 -44 -35 -17 c-34 -16 -36 -16 -103 14
-38 17 -77 37 -89 45 -20 14 -20 15 8 30 16 8 34 15 39 15 6 0 48 -20 95 -43z
m-3645 -9 c33 -16 55 -32 48 -34 -12 -4 -70 22 -126 58 -27 18 -28 20 -7 13
14 -3 52 -20 85 -37z m4248 23 c4 -16 -3 -25 -31 -39 l-37 -19 0 24 c0 17 9
28 30 39 17 8 31 15 31 15 1 0 4 -9 7 -20z m-4300 -32 c45 -22 78 -43 72 -44
-5 -2 -48 16 -95 41 -47 24 -79 45 -72 45 7 0 49 -19 95 -42z m713 11 c-21
-11 -43 -18 -48 -17 -13 5 50 37 72 38 8 0 -3 -9 -24 -21z m-667 -64 c2 -3 2
-7 -1 -10 -7 -7 -158 67 -158 77 0 7 147 -56 159 -67z m3456 58 c19 -9 35 -19
35 -23 0 -3 -16 -12 -35 -18 -29 -11 -39 -10 -65 3 -16 8 -30 18 -30 20 0 3
49 33 57 35 1 0 18 -8 38 -17z m662 -24 c-46 -23 -58 -34 -54 -49 3 -12 -3
-21 -20 -29 -22 -10 -24 -9 -18 10 6 18 4 21 -9 16 -53 -22 -40 -12 44 32 52
27 100 50 105 50 6 0 -16 -14 -48 -30z m-4207 -24 c28 -14 50 -30 50 -36 0 -8
-103 41 -119 57 -13 13 27 1 69 -21z m4259 11 c-10 -9 -89 -46 -89 -41 0 6 72
44 84 45 5 0 7 -2 5 -4z m-4242 -62 c-6 -7 -97 38 -97 48 0 5 23 -3 51 -18 28
-14 49 -27 46 -30z m3653 37 l43 -19 -33 -17 c-34 -18 -62 -15 -94 8 -19 14
-19 15 10 30 16 9 30 16 30 17 1 0 21 -9 44 -19z m-3300 -7 c-23 -14 -23 -14
-2 -9 45 13 20 -11 -53 -49 -42 -21 -91 -49 -111 -62 -19 -13 -39 -24 -45 -24
-5 0 -34 -14 -65 -31 -30 -17 -57 -29 -60 -26 -6 5 53 40 184 107 60 31 80 46
70 52 -9 7 -8 8 5 4 21 -7 60 11 52 24 -6 9 22 29 40 29 6 0 -1 -6 -15 -15z
m4950 -66 c0 -11 -83 27 -88 41 -2 7 15 2 42 -11 25 -12 46 -25 46 -30z
m-5340 32 c8 -5 11 -12 8 -15 -4 -4 -17 0 -30 9 -24 17 -5 23 22 6z m-139 -31
c35 -18 59 -34 52 -36 -10 -4 -123 54 -123 63 0 7 4 5 71 -27z m94 19 c14 -6
25 -15 25 -20 0 -12 -6 -10 -42 12 -36 22 -25 27 17 8z m-37 -14 c20 -9 32
-18 25 -21 -6 -2 -29 5 -50 16 -46 24 -28 28 25 5z m4192 6 c-8 -5 -19 -10
-25 -10 -5 0 -3 5 5 10 8 5 20 10 25 10 6 0 3 -5 -5 -10z m874 -19 c17 -11 33
-18 37 -15 9 5 23 -15 16 -22 -6 -7 -83 32 -92 46 -10 16 7 12 39 -9z m236 15
c0 -2 -7 -7 -16 -10 -8 -3 -12 -2 -9 4 6 10 25 14 25 6z m-5060 -28 c0 -6 -3
-8 -6 -5 -4 4 -20 -3 -36 -14 -16 -12 -32 -19 -35 -16 -5 6 56 47 70 47 4 0 7
-5 7 -12z m1330 -17 c0 -9 -95 -65 -212 -126 -33 -17 -54 -33 -48 -39 5 -5 20
0 37 12 64 45 125 74 136 63 7 -7 -1 -15 -26 -27 -19 -9 -33 -22 -31 -28 2 -6
-42 -35 -99 -65 l-103 -54 -63 33 -64 32 31 18 c59 36 107 56 124 53 9 -2 20
1 24 8 4 8 3 9 -4 5 -7 -4 -12 -5 -12 -2 0 3 10 10 21 17 15 7 19 8 15 0 -5
-7 -1 -9 8 -5 9 3 13 10 10 15 -3 5 3 6 12 2 13 -5 15 -3 9 7 -5 9 -4 11 4 6
6 -4 23 0 37 9 14 9 33 14 42 11 9 -3 44 10 77 29 64 36 75 40 75 26z m258 -7
c12 -4 22 -14 22 -23 0 -9 -3 -12 -8 -6 -4 6 -14 11 -22 13 -8 2 -21 7 -30 12
-13 8 -13 9 0 10 8 0 25 -3 38 -6z m-1678 -19 c0 -7 -61 -37 -66 -32 -3 2 10
12 28 20 37 19 38 19 38 12z m1641 -16 c21 -18 21 -20 4 -14 -11 4 -28 10 -37
12 -10 3 -15 9 -12 14 8 14 20 11 45 -12z m3594 -5 c22 -18 24 -23 10 -18 -35
11 -65 27 -65 36 0 15 25 7 55 -18z m-3643 -8 c10 -7 15 -16 12 -19 -9 -8 -54
15 -48 24 7 12 16 11 36 -5z m182 1 c16 -12 14 -15 -22 -31 -34 -15 -42 -16
-61 -5 -43 28 -17 36 44 14 19 -6 19 -6 3 8 -31 25 3 38 36 14z m2661 3 c-3
-5 -11 -10 -16 -10 -6 0 -7 5 -4 10 3 6 11 10 16 10 6 0 7 -4 4 -10z m-4562
-56 c48 -25 87 -49 87 -54 0 -6 -2 -10 -5 -10 -14 0 -215 106 -215 113 0 12
35 -1 133 -49z m1042 36 c3 -5 1 -10 -4 -10 -6 0 -11 5 -11 10 0 6 2 10 4 10
3 0 8 -4 11 -10z m3484 6 c-12 -10 -265 -136 -274 -136 -12 1 255 139 269 140
5 0 7 -2 5 -4z m-2849 -16 c0 -5 -6 -10 -14 -10 -8 0 -18 5 -21 10 -3 6 3 10
14 10 12 0 21 -4 21 -10z m116 -6 c36 -17 45 -34 19 -34 -25 0 -76 30 -70 40
8 13 11 13 51 -6z m-92 -41 c41 -21 47 -27 33 -34 -17 -10 -89 21 -132 56 -19
15 -19 16 15 9 19 -3 57 -18 84 -31z m55 16 c26 -16 31 -23 21 -29 -15 -9 -90
24 -90 40 0 16 33 11 69 -11z m-1474 -9 c-3 -5 -12 -10 -18 -10 -7 0 -6 4 3
10 19 12 23 12 15 0z m1365 -25 c53 -27 62 -35 46 -41 -24 -9 -152 56 -133 68
16 10 14 11 87 -27z m3275 25 c3 -5 1 -10 -4 -10 -6 0 -11 5 -11 10 0 6 2 10
4 10 3 0 8 -4 11 -10z m-2920 -12 c14 -6 24 -16 22 -21 -1 -5 -89 -56 -195
-113 -192 -104 -237 -119 -261 -90 -10 12 -8 18 11 30 52 33 374 205 385 206
7 0 24 -5 38 -12z m-459 -13 c4 -8 15 -15 25 -15 22 0 89 -31 89 -41 0 -18
-30 -15 -66 7 -21 13 -52 29 -67 35 -22 9 -26 14 -15 20 19 13 28 11 34 -6z
m3189 5 c3 -5 13 -7 23 -4 14 5 15 4 2 -5 -13 -10 -13 -12 0 -20 25 -16 3 -24
-27 -9 -30 14 -44 48 -19 48 8 0 17 -4 21 -10z m-500 -10 c3 -5 1 -10 -4 -10
-6 0 -11 5 -11 10 0 6 2 10 4 10 3 0 8 -4 11 -10z m-2721 -32 c-3 -4 -14 -3
-25 2 -11 6 -17 15 -14 20 4 6 14 5 25 -2 10 -7 16 -16 14 -20z m3301 7 c0
-28 -29 -25 -33 3 -3 19 0 23 15 20 10 -2 18 -12 18 -23z m-545 5 c0 -5 -2
-10 -4 -10 -3 0 -8 5 -11 10 -3 6 -1 10 4 10 6 0 11 -4 11 -10z m624 4 c20 -8
21 -34 1 -34 -8 0 -15 2 -15 4 0 2 -3 11 -6 20 -7 18 -4 19 20 10z m-4654 -61
c90 -48 107 -59 98 -68 -7 -7 -222 104 -227 117 -6 16 37 0 129 -49z m1234 32
c20 -8 36 -17 36 -19 0 -7 -74 15 -84 25 -15 14 7 11 48 -6z m656 0 c17 -9 30
-17 30 -19 0 -4 -258 -145 -348 -190 -33 -17 -66 -26 -85 -24 -69 7 -42 31
160 141 109 59 201 107 206 107 4 0 21 -7 37 -15z m-538 -11 c43 -22 22 -39
-25 -19 -38 16 -49 35 -22 35 9 0 30 -7 47 -16z m2743 6 c3 -5 1 -10 -4 -10
-6 0 -11 5 -11 10 0 6 2 10 4 10 3 0 8 -4 11 -10z m-2931 -12 c-5 -8 -2 -9 10
-5 10 4 38 -4 68 -19 37 -19 53 -22 58 -14 4 7 16 10 26 8 15 -3 10 -8 -20
-23 l-39 -19 -63 33 c-62 32 -80 51 -48 51 9 0 12 -5 8 -12z m2966 -8 c0 -5
-2 -10 -4 -10 -3 0 -8 5 -11 10 -3 6 -1 10 4 10 6 0 11 -4 11 -10z m-2995 -21
c-3 -4 -12 -6 -20 -3 -8 4 -13 10 -10 15 3 4 12 6 20 3 8 -4 13 -10 10 -15z
m3025 11 c0 -5 -5 -10 -11 -10 -5 0 -7 5 -4 10 3 6 8 10 11 10 2 0 4 -4 4 -10z
m595 -10 c3 -5 -1 -10 -9 -10 -9 0 -16 5 -16 10 0 6 4 10 9 10 6 0 13 -4 16
-10z m-3505 -47 c2 -2 -2 -8 -10 -13 -9 -5 -28 -1 -54 12 -52 26 -53 27 -36
38 12 7 79 -17 100 -37z m762 31 c40 -21 50 -13 -193 -144 -164 -88 -195 -102
-217 -94 -42 15 -36 31 24 66 98 56 339 186 347 187 4 1 22 -6 39 -15z m-894
-9 c2 -1 -4 -5 -12 -8 -8 -3 -22 1 -33 9 -17 13 -16 14 12 8 17 -4 31 -8 33
-9z m3112 1 c0 -3 -4 -8 -10 -11 -5 -3 -10 -1 -10 4 0 6 5 11 10 11 6 0 10 -2
10 -4z m263 -6 c7 -6 21 -17 32 -26 15 -10 10 -10 -17 3 -21 9 -38 20 -38 25
0 11 8 10 23 -2z m-233 -10 c0 -5 -5 -10 -11 -10 -5 0 -7 5 -4 10 3 6 8 10 11
10 2 0 4 -4 4 -10z m389 -4 c10 -12 8 -13 -8 -9 -12 3 -21 9 -21 14 0 14 16
11 29 -5z m-3534 -22 c44 -21 53 -29 44 -40 -9 -12 -21 -9 -71 18 -41 22 -55
34 -46 39 17 11 9 13 73 -17z m76 5 c20 -10 17 -29 -4 -29 -21 0 -40 17 -33
29 9 14 12 14 37 0z m3777 -38 c3 -8 -1 -12 -9 -9 -7 2 -15 10 -17 17 -3 8 1
12 9 9 7 -2 15 -10 17 -17z m-4267 -7 c29 -14 30 -17 15 -33 -20 -22 -20 -26
0 -45 22 -22 105 -21 134 2 26 21 19 47 -18 60 -24 9 -22 10 18 9 53 -1 70
-11 70 -42 0 -82 -232 -111 -291 -37 -24 32 -24 34 7 71 30 36 27 35 65 15z
m1799 6 c0 -5 -5 -10 -11 -10 -5 0 -7 5 -4 10 3 6 8 10 11 10 2 0 4 -4 4 -10z
m2370 0 c0 -5 -4 -10 -10 -10 -5 0 -10 5 -10 10 0 6 5 10 10 10 6 0 10 -4 10
-10z m-3617 -32 c-19 -32 -11 -46 17 -28 11 7 11 10 2 10 -7 0 -10 5 -7 10 3
6 11 10 16 10 6 0 8 -4 5 -9 -3 -5 1 -12 10 -15 9 -4 12 -11 7 -18 -9 -16 -13
-38 -6 -38 2 0 14 5 25 11 16 9 19 8 13 -2 -6 -9 -2 -11 13 -7 12 4 20 3 17
-2 -3 -4 -14 -10 -25 -13 -11 -3 -18 -1 -14 4 7 12 -3 11 -28 -2 -15 -8 -19
-8 -14 0 10 15 0 14 -36 -5 -16 -9 -27 -11 -24 -5 10 15 0 14 -36 -5 -16 -9
-27 -11 -24 -5 4 5 -7 11 -26 13 -40 4 -51 28 -11 27 25 0 26 -1 8 -10 -17 -8
-16 -9 7 -4 15 3 28 0 30 -6 3 -9 9 -9 25 0 12 6 30 8 40 5 10 -3 7 2 -7 10
-29 18 -44 20 -35 6 9 -14 -5 -12 -35 5 -17 10 -20 14 -9 15 9 0 22 7 29 15
14 17 35 21 25 5 -3 -5 -1 -10 5 -10 6 0 8 -4 5 -10 -3 -5 -2 -10 4 -10 15 0
21 14 11 30 -6 9 -3 18 8 27 22 16 25 16 15 1z m-1883 -8 c8 -5 11 -12 7 -16
-4 -4 -15 0 -24 9 -18 18 -8 23 17 7z m1440 -11 c-14 -4 -20 -8 -15 -8 6 -1 3
-6 -7 -11 -9 -6 -24 -7 -33 -4 -13 5 -11 10 12 24 15 9 37 14 48 11 18 -4 18
-6 -5 -12z m2753 -16 c10 -3 16 -12 13 -19 -3 -7 0 -16 5 -20 22 -13 -10 -26
-48 -20 -32 6 -38 11 -40 34 -1 30 14 45 37 36 8 -4 23 -9 33 -11z m1507 -44
c0 -6 -4 -7 -10 -4 -5 3 -10 11 -10 16 0 6 5 7 10 4 6 -3 10 -11 10 -16z
m-3951 -28 c11 -7 4 -12 -25 -20 -21 -6 -43 -11 -48 -11 -4 0 -26 -14 -47 -31
-44 -35 -69 -33 -69 6 0 37 51 65 120 65 30 0 61 -4 69 -9z m191 4 c0 -2 -10
-9 -22 -15 -22 -11 -22 -10 -4 4 21 17 26 19 26 11z m220 0 c0 -2 -10 -9 -22
-15 -22 -11 -22 -10 -4 4 21 17 26 19 26 11z m-285 -15 c-3 -5 -12 -10 -18
-10 -7 0 -6 4 3 10 19 12 23 12 15 0z m191 -15 c-13 -10 -15 -15 -6 -15 7 0
11 -3 7 -6 -3 -3 -11 -3 -18 2 -9 5 -7 11 6 21 11 7 21 13 24 13 3 0 -3 -7
-13 -15z m79 -5 c-3 -5 -1 -10 5 -10 6 0 9 -4 6 -9 -4 -5 -1 -11 6 -13 7 -3 5
-7 -6 -11 -10 -4 -15 -3 -11 3 8 13 -1 13 -28 -1 -19 -9 -18 -7 3 10 27 22 21
28 -11 11 -10 -6 -19 -8 -19 -6 0 5 49 34 58 36 2 0 0 -4 -3 -10z m1115 0 c0
-5 -5 -10 -11 -10 -5 0 -7 5 -4 10 3 6 8 10 11 10 2 0 4 -4 4 -10z m-1500 -19
c0 -11 -40 -32 -50 -26 -4 3 -10 0 -12 -5 -2 -8 -11 -8 -28 -2 l-25 10 34 15
c35 15 81 20 81 8z m280 -6 c7 -8 15 -13 19 -11 3 2 11 -2 18 -9 9 -9 4 -16
-23 -28 -41 -20 -46 -14 -6 7 24 14 25 15 6 16 -12 0 -24 7 -28 15 -3 9 -12
12 -23 9 -15 -5 -16 -4 -3 5 20 14 25 14 40 -4z m1190 5 c0 -5 -4 -10 -10 -10
-5 0 -10 5 -10 10 0 6 5 10 10 10 6 0 10 -4 10 -10z m-1212 -41 c2 -9 1 -10
-5 -3 -12 15 -43 25 -43 14 0 -6 8 -10 18 -11 11 0 12 -2 4 -6 -18 -7 -47 18
-31 28 16 10 52 -4 57 -22z m186 20 c-4 -8 1 -9 17 -4 13 4 21 4 17 0 -5 -5
-22 -9 -39 -10 -29 -2 -30 -1 -14 12 23 16 28 17 19 2z m991 1 c-3 -5 -10 -10
-16 -10 -5 0 -9 5 -9 10 0 6 7 10 16 10 8 0 12 -4 9 -10z m-35 -16 c0 -8 -5
-12 -10 -9 -6 4 -8 11 -5 16 9 14 15 11 15 -7z m-1054 -13 c-4 -5 -1 -11 6
-13 7 -3 5 -7 -6 -11 -10 -4 -15 -3 -11 3 8 13 2 13 -30 -2 -17 -8 -24 -17
-20 -28 19 -59 -90 -103 -187 -77 -26 7 -27 8 -11 27 10 11 25 20 34 20 9 0
22 7 29 15 7 8 17 15 22 15 5 0 21 9 35 20 19 15 30 17 44 9 14 -7 28 -5 56
10 44 23 46 24 39 12z m74 -11 c-8 -5 -19 -10 -25 -10 -5 0 -3 5 5 10 8 5 20
10 25 10 6 0 3 -5 -5 -10z m-257 -9 c14 -2 7 -21 -8 -21 -8 0 -15 -4 -15 -10
0 -15 -46 -23 -67 -12 -16 9 -15 11 9 23 15 6 26 15 23 18 -3 6 30 7 58 2z
m206 -14 c-2 -1 -13 -9 -24 -17 -19 -14 -19 -14 -6 3 7 9 18 17 24 17 6 0 8
-1 6 -3z m1631 -12 c8 -3 20 -16 27 -30 10 -24 9 -25 -18 -25 -26 0 -89 45
-89 64 0 6 48 1 80 -9z m-50 -39 c0 -3 -4 -8 -10 -11 -5 -3 -10 -1 -10 4 0 6
5 11 10 11 6 0 10 -2 10 -4z m1715 -86 c3 -5 2 -10 -4 -10 -5 0 -13 5 -16 10
-3 6 -2 10 4 10 5 0 13 -4 16 -10z m-2417 -94 c-2 -1 -10 -7 -19 -14 -13 -10
-18 -10 -22 0 -3 8 5 14 20 14 13 1 23 1 21 0z m2119 -61 l28 -24 -30 -1 c-35
0 -49 8 -58 33 -10 26 26 22 60 -8z m-1950 -32 c2 -5 -6 -21 -17 -36 -19 -24
-36 -28 -80 -18 -3 0 -6 9 -7 20 -3 33 94 65 104 34z m1514 -163 c20 -11 26
-40 8 -40 -20 0 -49 21 -49 35 0 18 14 19 41 5z m897 -38 c2 -7 -6 -12 -17
-12 -21 0 -27 11 -14 24 9 9 26 2 31 -12z m-2872 -182 c23 0 41 -16 30 -27 -8
-8 -76 29 -76 41 0 6 5 5 12 -2 7 -7 22 -12 34 -12z"/>
<path d="M2623 3890 c0 -47 2 -66 4 -42 2 23 2 61 0 85 -2 23 -4 4 -4 -43z"/>
<path d="M3177 3840 c3 -11 9 -17 15 -14 5 3 4 12 -3 20 -16 19 -18 18 -12 -6z"/>
<path d="M3139 3804 c17 -13 25 -14 34 -5 9 9 8 11 -4 6 -10 -4 -20 -2 -24 4
-3 6 -11 11 -18 11 -6 0 -1 -7 12 -16z"/>
<path d="M3126 3765 c4 -8 12 -15 20 -15 20 0 17 7 -6 20 -16 9 -18 8 -14 -5z"/>
<path d="M3026 3755 c-3 -8 -1 -15 4 -15 6 0 10 7 10 15 0 8 -2 15 -4 15 -2 0
-6 -7 -10 -15z"/>
<path d="M2660 3609 c0 -5 5 -7 10 -4 6 3 10 8 10 11 0 2 -4 4 -10 4 -5 0 -10
-5 -10 -11z"/>
<path d="M2695 3611 c3 -5 -7 -14 -22 -20 l-28 -11 30 6 c38 7 51 19 30 28 -9
3 -14 2 -10 -3z"/>
<path d="M2730 3616 c0 -2 7 -7 16 -10 8 -3 12 -2 9 4 -6 10 -25 14 -25 6z"/>
<path d="M2771 3604 c0 -11 3 -14 6 -6 3 7 2 16 -1 19 -3 4 -6 -2 -5 -13z"/>
<path d="M3675 3210 c3 -5 11 -10 16 -10 6 0 7 5 4 10 -3 6 -11 10 -16 10 -6
0 -7 -4 -4 -10z"/>
<path d="M4020 2100 c14 -4 44 -18 67 -29 63 -32 66 -24 3 9 -30 16 -64 29
-75 29 -16 -1 -15 -2 5 -9z"/>
<path d="M3965 2090 c-3 -6 1 -7 9 -4 18 7 21 14 7 14 -6 0 -13 -4 -16 -10z"/>
<path d="M3915 2066 c-11 -6 -40 -22 -63 -35 -24 -12 -42 -25 -39 -27 3 -3 19
2 36 11 18 9 37 13 43 9 6 -4 8 -3 5 3 -4 6 8 20 26 32 33 22 27 28 -8 7z"/>
<path d="M4273 1978 c67 -35 97 -57 97 -69 0 -10 -5 -21 -10 -24 -6 -4 -8 -16
-4 -28 4 -12 7 -47 5 -78 -1 -40 2 -61 13 -72 9 -9 16 -29 16 -47 0 -23 -6
-33 -26 -42 l-25 -12 23 -13 c21 -11 13 -19 -15 -14 -5 1 -6 -3 -2 -8 3 -6 23
-2 50 11 31 15 41 25 32 31 -8 5 -5 6 8 3 12 -3 32 3 50 15 17 12 22 18 11 15
-13 -5 -17 -2 -12 9 3 9 0 15 -8 15 -20 0 -26 35 -19 121 l6 78 -42 17 c-23 9
-40 18 -38 21 4 4 51 -16 173 -73 28 -13 55 -24 60 -24 5 1 -89 50 -209 110
-226 114 -304 148 -134 58z m134 -104 c-3 -3 -12 -4 -19 -1 -8 3 -5 6 6 6 11
1 17 -2 13 -5z m-7 -56 c0 -16 -3 -19 -11 -11 -6 6 -8 16 -5 22 11 17 16 13
16 -11z m0 -98 c0 -5 6 -10 13 -10 8 0 14 -6 14 -13 0 -8 -6 -14 -14 -14 -7 0
-13 6 -13 14 0 7 -4 13 -10 13 -5 0 -10 5 -10 10 0 6 5 10 10 10 6 0 10 -4 10
-10z m3 -114 c9 5 9 4 1 -5 -6 -6 -19 -9 -28 -5 -14 5 -15 9 -4 15 7 5 14 4
16 -1 2 -6 9 -7 15 -4z"/>
<path d="M3770 1990 c-8 -5 -10 -10 -5 -10 6 0 17 5 25 10 8 5 11 10 5 10 -5
0 -17 -5 -25 -10z"/>
<path d="M3725 1970 c-3 -6 1 -7 9 -4 18 7 21 14 7 14 -6 0 -13 -4 -16 -10z"/>
<path d="M4630 1805 c0 -2 14 -12 31 -21 23 -11 30 -21 26 -35 -6 -23 2 -24
28 -5 18 13 15 15 -33 40 -29 14 -52 24 -52 21z"/>
<path d="M2371 1634 c0 -11 3 -14 6 -6 3 7 2 16 -1 19 -3 4 -6 -2 -5 -13z"/>
<path d="M2275 1525 c-24 -18 -12 -20 15 -2 17 10 22 9 30 -3 7 -12 12 -12 22
-2 6 6 10 12 8 13 -44 8 -59 7 -75 -6z"/>
<path d="M2345 1487 c-4 -10 -5 -21 -1 -24 10 -10 18 4 13 24 -4 17 -4 17 -12
0z"/>
<path d="M2791 1486 c-21 -12 -22 -14 -5 -20 10 -4 15 -4 11 0 -4 5 3 14 15
21 13 7 19 12 13 12 -5 0 -21 -6 -34 -13z"/>
<path d="M2422 1483 c-18 -7 -4 -23 19 -23 12 0 19 5 17 12 -5 14 -18 18 -36
11z"/>
<path d="M4230 1042 c-8 -10 -41 -29 -72 -41 -32 -13 -58 -28 -58 -33 0 -6 -7
-7 -16 -4 -8 3 -12 2 -9 -4 3 -5 -5 -12 -19 -16 -13 -3 -35 -17 -48 -31 l-23
-25 45 21 c25 13 84 42 131 66 64 32 90 40 98 32 8 -8 11 -8 11 1 0 7 -4 12
-9 12 -5 0 -11 9 -13 20 -3 19 -4 19 -18 2z"/>
<path d="M4380 1006 c0 -9 7 -16 16 -16 17 0 14 22 -4 28 -7 2 -12 -3 -12 -12z"/>
<path d="M4288 993 c7 -3 16 -2 19 1 4 3 -2 6 -13 5 -11 0 -14 -3 -6 -6z"/>
<path d="M4350 990 c0 -5 5 -10 10 -10 6 0 10 5 10 10 0 6 -4 10 -10 10 -5 0
-10 -4 -10 -10z"/>
<path d="M4316 975 c-3 -9 0 -15 9 -15 8 0 15 7 15 15 0 8 -4 15 -9 15 -5 0
-11 -7 -15 -15z"/>
<path d="M4285 961 c-3 -5 -1 -12 5 -16 5 -3 10 1 10 9 0 18 -6 21 -15 7z"/>
<path d="M4250 940 c0 -5 5 -10 10 -10 6 0 10 5 10 10 0 6 -4 10 -10 10 -5 0
-10 -4 -10 -10z"/>
<path d="M4215 920 c4 -6 11 -8 16 -5 14 9 11 15 -7 15 -8 0 -12 -5 -9 -10z"/>
<path d="M4345 890 c-3 -5 -1 -10 4 -10 6 0 11 5 11 10 0 6 -2 10 -4 10 -3 0
-8 -4 -11 -10z"/>
<path d="M3800 850 c-8 -5 -12 -12 -9 -15 4 -3 12 1 19 10 14 17 11 19 -10 5z"/>
<path d="M7095 1970 c3 -5 8 -10 11 -10 2 0 4 5 4 10 0 6 -5 10 -11 10 -5 0
-7 -4 -4 -10z"/>
<path d="M7015 1960 c3 -5 11 -10 16 -10 6 0 7 5 4 10 -3 6 -11 10 -16 10 -6
0 -7 -4 -4 -10z"/>
<path d="M6890 1880 c0 -5 5 -10 10 -10 6 0 10 5 10 10 0 6 -4 10 -10 10 -5 0
-10 -4 -10 -10z"/>
<path d="M6438 1593 c6 -2 18 -2 25 0 6 3 1 5 -13 5 -14 0 -19 -2 -12 -5z"/>
<path d="M6431 1534 c0 -11 3 -14 6 -6 3 7 2 16 -1 19 -3 4 -6 -2 -5 -13z"/>
<path d="M5415 2291 c-3 -5 -1 -12 5 -16 5 -3 10 1 10 9 0 18 -6 21 -15 7z"/>
<path d="M5565 2240 c-4 -6 -3 -16 3 -22 13 -13 23 4 13 21 -7 10 -10 10 -16
1z"/>
<path d="M5630 2156 c0 -8 5 -18 10 -21 6 -3 10 3 10 14 0 12 -4 21 -10 21 -5
0 -10 -6 -10 -14z"/>
<path d="M2837 1124 c6 -15 23 -19 23 -5 0 5 -7 11 -14 14 -10 4 -13 1 -9 -9z"/>
<path d="M3218 1084 c-31 -16 -38 -27 -11 -17 11 4 14 3 9 -5 -9 -14 3 -15 24
-2 13 9 13 10 0 10 -11 1 -10 4 4 15 25 19 9 19 -26 -1z"/>
<path d="M3135 1080 c-3 -5 -2 -10 4 -10 5 0 13 5 16 10 3 6 2 10 -4 10 -5 0
-13 -4 -16 -10z"/>
<path d="M2325 590 c-3 -5 -1 -10 4 -10 6 0 11 5 11 10 0 6 -2 10 -4 10 -3 0
-8 -4 -11 -10z"/>
</g>
</svg>
