<?xml version="1.0" standalone="no"?>
<!DOCTYPE svg PUBLIC "-//W3C//DTD SVG 20010904//EN"
 "http://www.w3.org/TR/2001/REC-SVG-20010904/DTD/svg10.dtd">
<svg version="1.0" xmlns="http://www.w3.org/2000/svg"
 width="695.000000pt" height="500.000000pt" viewBox="0 0 695.000000 500.000000"
 preserveAspectRatio="xMidYMid meet">

<g transform="translate(0.000000,500.000000) scale(0.100000,-0.100000)"
fill="#000000" stroke="none">
<path d="M0 2500 l0 -2500 3475 0 3475 0 0 2500 0 2500 -3454 0 c-2738 0
-3455 -3 -3459 -13 -4 -9 -6 -9 -6 1 -1 6 -8 12 -16 12 -13 0 -15 -284 -15
-2500z m6450 2460 c0 -5 -4 -10 -10 -10 -5 0 -10 5 -10 10 0 6 5 10 10 10 6 0
10 -4 10 -10z m-6405 -10 c3 -5 2 -10 -4 -10 -5 0 -13 5 -16 10 -3 6 -2 10 4
10 5 0 13 -4 16 -10z m0 -40 c-3 -5 -10 -10 -16 -10 -5 0 -9 5 -9 10 0 6 7 10
16 10 8 0 12 -4 9 -10z m495 -20 c0 -5 -4 -10 -10 -10 -5 0 -10 5 -10 10 0 6
5 10 10 10 6 0 10 -4 10 -10z m6277 -12 c-3 -8 -6 -5 -6 6 -1 11 2 17 5 13 3
-3 4 -12 1 -19z m-6627 -28 c0 -5 -4 -10 -10 -10 -5 0 -10 5 -10 10 0 6 5 10
10 10 6 0 10 -4 10 -10z m6630 -6 c0 -8 -5 -12 -10 -9 -6 4 -8 11 -5 16 9 14
15 11 15 -7z m-540 -14 c0 -5 -4 -10 -10 -10 -5 0 -10 5 -10 10 0 6 5 10 10
10 6 0 10 -4 10 -10z m-6090 -15 c0 -8 -4 -15 -10 -15 -5 0 -10 7 -10 15 0 8
5 15 10 15 6 0 10 -7 10 -15z m6110 -19 c0 -3 -4 -8 -10 -11 -5 -3 -10 -1 -10
4 0 6 5 11 10 11 6 0 10 -2 10 -4z m390 0 c0 -3 -4 -8 -10 -11 -5 -3 -10 -1
-10 4 0 6 5 11 10 11 6 0 10 -2 10 -4z m140 -30 c0 -16 -18 -31 -27 -22 -8 8
5 36 17 36 5 0 10 -6 10 -14z m-140 -5 c0 -6 -4 -13 -10 -16 -5 -3 -10 1 -10
9 0 9 5 16 10 16 6 0 10 -4 10 -9z m-6500 -32 c0 -11 -4 -17 -10 -14 -5 3 -10
13 -10 21 0 8 5 14 10 14 6 0 10 -9 10 -21z m130 1 c0 -5 -4 -10 -10 -10 -5 0
-10 5 -10 10 0 6 5 10 10 10 6 0 10 -4 10 -10z m6240 -20 c0 -5 -5 -10 -11
-10 -5 0 -7 5 -4 10 3 6 8 10 11 10 2 0 4 -4 4 -10z m126 -47 c-5 -12 -10 -13
-18 -5 -8 8 -8 15 3 28 15 18 25 4 15 -23z m-126 7 c0 -5 -4 -10 -10 -10 -5 0
-10 5 -10 10 0 6 5 10 10 10 6 0 10 -4 10 -10z m-6240 -26 c0 -8 -4 -12 -10
-9 -5 3 -10 10 -10 16 0 5 5 9 10 9 6 0 10 -7 10 -16z m6120 -54 c0 -5 -2 -10
-4 -10 -3 0 -8 5 -11 10 -3 6 -1 10 4 10 6 0 11 -4 11 -10z m-6290 -133 l0
-58 -32 17 c-18 9 -50 28 -71 41 -35 22 -37 25 -37 79 l0 55 70 -38 70 -38 0
-58z m410 113 c0 -5 -5 -10 -11 -10 -5 0 -7 5 -4 10 3 6 8 10 11 10 2 0 4 -4
4 -10z m5770 -50 c0 -5 -4 -10 -10 -10 -5 0 -10 5 -10 10 0 6 5 10 10 10 6 0
10 -4 10 -10z m110 -6 c0 -8 -5 -12 -10 -9 -6 4 -8 11 -5 16 9 14 15 11 15 -7z
m-5875 -22 c0 -18 -20 -15 -23 4 -3 10 1 15 10 12 7 -3 13 -10 13 -16z m-242
-11 c28 -15 33 -27 18 -50 -13 -21 -61 15 -61 46 0 14 3 23 8 21 4 -2 19 -10
35 -17z m6445 -53 c-3 -45 -7 -54 -31 -68 -34 -18 -43 -8 -41 47 2 25 9 43 24
55 40 32 51 24 48 -34z m-131 -33 c0 -64 -3 -77 -18 -86 -25 -13 -26 8 -1 28
16 14 16 14 0 9 -10 -3 -18 0 -18 6 0 6 8 17 18 25 16 14 16 14 0 9 -10 -3
-18 0 -18 6 0 6 8 17 18 25 16 14 16 14 0 9 -12 -3 -18 0 -18 9 0 11 21 31 36
35 1 0 1 -34 1 -75z m-307 50 c0 -8 -4 -15 -10 -15 -5 0 -10 7 -10 15 0 8 5
15 10 15 6 0 10 -7 10 -15z m-5660 -21 c0 -8 -4 -12 -10 -9 -5 3 -10 10 -10
16 0 5 5 9 10 9 6 0 10 -7 10 -16z m-360 -82 l0 -33 -47 27 c-57 33 -69 42
-61 50 3 3 20 -2 37 -11 42 -21 39 -12 -4 14 -56 33 -40 43 20 13 50 -24 55
-30 55 -60z m6256 63 c-21 -16 -32 -13 -21 4 3 6 14 11 23 11 15 -1 15 -2 -2
-15z m-5436 -5 c0 -5 -2 -10 -4 -10 -3 0 -8 5 -11 10 -3 6 -1 10 4 10 6 0 11
-4 11 -10z m-675 -21 c12 -19 -5 -23 -22 -6 -16 16 -16 17 -1 17 9 0 20 -5 23
-11z m6125 -3 c0 -15 -29 -30 -39 -20 -3 3 3 12 13 20 24 17 26 17 26 0z
m-117 -18 c-6 -25 -30 -48 -49 -48 -21 0 -9 41 16 55 34 20 39 18 33 -7z
m-5943 -21 c0 -5 -7 -6 -16 -3 -9 3 -18 6 -20 6 -2 0 -4 7 -4 15 0 13 3 13 20
3 11 -7 20 -17 20 -21z m-65 2 c12 -19 -5 -23 -22 -6 -16 16 -16 17 -1 17 9 0
20 -5 23 -11z m6125 -3 c0 -15 -29 -30 -39 -20 -3 3 3 12 13 20 24 17 26 17
26 0z m-6060 -37 c0 -6 -7 -8 -16 -5 -9 3 -18 6 -20 6 -2 0 -4 7 -4 15 0 13 4
14 20 5 11 -6 20 -16 20 -21z m5610 21 c0 -5 -5 -10 -11 -10 -5 0 -7 5 -4 10
3 6 8 10 11 10 2 0 4 -4 4 -10z m-5675 -21 c12 -19 -5 -23 -22 -6 -16 16 -16
17 -1 17 9 0 20 -5 23 -11z m6125 -3 c0 -8 -7 -16 -15 -20 -15 -5 -21 14 -8
27 11 12 23 8 23 -7z m-6550 -21 c0 -8 -4 -15 -10 -15 -5 0 -10 7 -10 15 0 8
5 15 10 15 6 0 10 -7 10 -15z m474 9 c9 -3 16 -13 16 -21 0 -10 -6 -13 -16 -9
-9 3 -18 6 -20 6 -2 0 -4 7 -4 15 0 17 2 18 24 9z m-46 -33 c3 -8 -1 -12 -9
-9 -7 2 -15 10 -17 17 -3 8 1 12 9 9 7 -2 15 -10 17 -17z m154 -5 c22 -16 20
-89 -3 -94 -28 -5 -45 36 -40 96 1 16 21 15 43 -2z m-382 -6 c0 -5 -5 -10 -11
-10 -5 0 -7 5 -4 10 3 6 8 10 11 10 2 0 4 -4 4 -10z m274 4 c16 -6 23 -34 8
-34 -10 0 -32 22 -32 32 0 10 3 10 24 2z m5926 -22 c0 -23 -7 -31 -37 -42 -21
-8 -41 -16 -45 -18 -5 -2 -8 0 -8 5 0 5 15 17 33 27 29 15 20 15 -18 0 -30
-12 -14 12 23 32 49 29 52 29 52 -4z m-128 -36 c2 -19 2 -39 0 -45 -2 -7 -44
-32 -93 -56 l-89 -45 0 39 c0 33 5 43 31 62 35 25 131 79 140 79 4 0 9 -15 11
-34z m478 8 c0 -14 -12 -19 -23 -8 -9 9 4 35 14 28 5 -3 9 -12 9 -20z m-6550
6 c0 -5 -4 -10 -10 -10 -5 0 -10 5 -10 10 0 6 5 10 10 10 6 0 10 -4 10 -10z
m4 -35 c3 -9 0 -15 -9 -15 -8 0 -15 7 -15 15 0 8 4 15 9 15 5 0 11 -7 15 -15z
m-104 -5 c0 -5 -4 -10 -10 -10 -5 0 -10 5 -10 10 0 6 5 10 10 10 6 0 10 -4 10
-10z m6520 0 c0 -5 -7 -10 -16 -10 -8 0 -12 5 -9 10 3 6 10 10 16 10 5 0 9 -4
9 -10z m-6590 -10 c0 -5 -4 -10 -10 -10 -5 0 -10 5 -10 10 0 6 5 10 10 10 6 0
10 -4 10 -10z m100 -10 c0 -5 -4 -10 -10 -10 -5 0 -10 5 -10 10 0 6 5 10 10
10 6 0 10 -4 10 -10z m6650 0 c0 -5 -4 -10 -10 -10 -5 0 -10 5 -10 10 0 6 5
10 10 10 6 0 10 -4 10 -10z m-6578 -15 c0 -5 -5 -11 -11 -13 -6 -2 -11 4 -11
13 0 9 5 15 11 13 6 -2 11 -8 11 -13z m6548 5 c0 -5 -4 -10 -10 -10 -5 0 -10
5 -10 10 0 6 5 10 10 10 6 0 10 -4 10 -10z m-6420 -15 c0 -8 -4 -15 -10 -15
-5 0 -10 7 -10 15 0 8 5 15 10 15 6 0 10 -7 10 -15z m6290 5 c0 -5 -4 -10 -9
-10 -6 0 -13 5 -16 10 -3 6 1 10 9 10 9 0 16 -4 16 -10z m-5 -29 c3 -5 1 -12
-5 -16 -5 -3 -10 1 -10 9 0 18 6 21 15 7z m-6605 -11 c0 -5 -4 -10 -10 -10 -5
0 -10 5 -10 10 0 6 5 10 10 10 6 0 10 -4 10 -10z m1110 0 c0 -5 -2 -10 -4 -10
-3 0 -8 5 -11 10 -3 6 -1 10 4 10 6 0 11 -4 11 -10z m4620 -31 c0 -5 -4 -9
-10 -9 -5 0 -10 7 -10 16 0 8 5 12 10 9 6 -3 10 -10 10 -16z m710 0 c0 -5 -4
-9 -10 -9 -5 0 -10 7 -10 16 0 8 5 12 10 9 6 -3 10 -10 10 -16z m340 -13 c0
-3 -4 -8 -10 -11 -5 -3 -10 -1 -10 4 0 6 5 11 10 11 6 0 10 -2 10 -4z m-6190
-52 c0 -8 -5 -12 -10 -9 -6 4 -8 11 -5 16 9 14 15 11 15 -7z m5925 6 c3 -5 1
-10 -4 -10 -6 0 -11 5 -11 10 0 6 2 10 4 10 3 0 8 -4 11 -10z m-5195 -30 c0
-5 -4 -10 -10 -10 -5 0 -10 5 -10 10 0 6 5 10 10 10 6 0 10 -4 10 -10z m-242
-32 c7 -7 12 -27 12 -46 0 -27 -3 -33 -16 -28 -9 3 -18 6 -20 6 -2 0 -4 18 -4
40 0 41 7 49 28 28z m5102 2 c0 -5 -4 -10 -10 -10 -5 0 -10 5 -10 10 0 6 5 10
10 10 6 0 10 -4 10 -10z m-4990 -32 c0 -26 -24 -18 -28 10 -3 16 1 20 12 16 9
-3 16 -15 16 -26z m190 22 c0 -5 -4 -10 -10 -10 -5 0 -10 5 -10 10 0 6 5 10
10 10 6 0 10 -4 10 -10z m5410 -5 c0 -8 -7 -15 -15 -15 -16 0 -20 12 -8 23 11
12 23 8 23 -8z m-6640 -21 c0 -16 -16 -19 -25 -4 -8 13 4 32 16 25 5 -4 9 -13
9 -21z m5550 12 c0 -3 -4 -8 -10 -11 -5 -3 -10 -1 -10 4 0 6 5 11 10 11 6 0
10 -2 10 -4z m68 -34 c-2 -32 -15 -52 -34 -52 -10 0 -13 10 -10 37 7 56 47 70
44 15z m-108 8 c0 -5 -5 -10 -11 -10 -5 0 -7 5 -4 10 3 6 8 10 11 10 2 0 4 -4
4 -10z m40 -4 c0 -3 -4 -8 -10 -11 -5 -3 -10 -1 -10 4 0 6 5 11 10 11 6 0 10
-2 10 -4z m700 -6 c0 -5 -5 -10 -11 -10 -5 0 -7 5 -4 10 3 6 8 10 11 10 2 0 4
-4 4 -10z m256 -1 c10 -17 -13 -36 -27 -22 -12 12 -4 33 11 33 5 0 12 -5 16
-11z m-5511 -11 c14 -6 25 -15 25 -19 0 -4 3 -14 6 -23 4 -10 1 -16 -7 -16
-19 1 -68 39 -50 40 11 0 11 3 1 15 -15 18 -9 19 25 3z m-865 -13 c0 -8 -4
-15 -10 -15 -5 0 -10 7 -10 15 0 8 5 15 10 15 6 0 10 -7 10 -15z m5320 1 c0
-8 -7 -16 -15 -20 -10 -4 -15 1 -15 14 0 11 7 20 15 20 8 0 15 -6 15 -14z
m100 -6 c0 -5 -4 -10 -10 -10 -5 0 -10 5 -10 10 0 6 5 10 10 10 6 0 10 -4 10
-10z m-4415 -20 c3 -5 1 -10 -4 -10 -6 0 -11 5 -11 10 0 6 2 10 4 10 3 0 8 -4
11 -10z m4380 0 c-3 -5 -11 -10 -16 -10 -6 0 -7 5 -4 10 3 6 11 10 16 10 6 0
7 -4 4 -10z m35 -10 c0 -5 -7 -10 -15 -10 -8 0 -15 -4 -15 -10 0 -5 -8 -10
-17 -10 -15 0 -13 4 7 20 28 22 40 25 40 10z m-4440 -4 c0 -3 -4 -8 -10 -11
-5 -3 -10 -1 -10 4 0 6 5 11 10 11 6 0 10 -2 10 -4z m25 -16 c3 -5 1 -10 -4
-10 -6 0 -11 5 -11 10 0 6 2 10 4 10 3 0 8 -4 11 -10z m63 -44 c3 -33 1 -38
-13 -32 -9 3 -19 6 -21 6 -2 0 -4 16 -4 36 0 28 3 35 18 32 12 -2 18 -15 20
-42z m4230 -11 c-2 -1 -13 -6 -25 -9 -16 -5 -21 -3 -19 10 1 9 11 23 22 31 17
13 19 12 22 -7 2 -12 2 -23 0 -25z m823 22 c-13 -13 -26 -3 -16 12 3 6 11 8
17 5 6 -4 6 -10 -1 -17z m-5874 -2 c7 -20 -2 -29 -21 -22 -9 4 -13 13 -10 22
8 19 23 19 31 0z m758 5 c3 -5 1 -10 -4 -10 -6 0 -11 5 -11 10 0 6 2 10 4 10
3 0 8 -4 11 -10z m4225 -24 c0 -35 3 -33 -97 -73 -25 -10 -15 53 10 66 12 6
33 18 47 26 36 21 40 19 40 -19z m-5520 10 c0 -3 -4 -8 -10 -11 -5 -3 -10 -1
-10 4 0 6 5 11 10 11 6 0 10 -2 10 -4z m6303 -32 c-4 -10 -9 -12 -15 -6 -12
12 -1 35 12 27 5 -3 6 -13 3 -21z m480 -14 c-4 -4 -20 -10 -36 -14 l-27 -6 32
31 c27 26 34 28 36 14 2 -9 0 -21 -5 -25z m-6677 14 c49 -14 54 -18 54 -45 0
-16 -5 -29 -11 -29 -26 0 -109 36 -109 47 0 9 7 9 31 1 16 -6 33 -8 36 -5 3 3
-10 10 -28 14 -18 5 -34 14 -37 21 -5 15 -1 15 64 -4z m534 -9 c0 -8 -4 -15
-10 -15 -5 0 -10 7 -10 15 0 8 5 15 10 15 6 0 10 -7 10 -15z m6010 -34 c0 -23
-5 -30 -26 -35 -30 -8 -31 -8 -36 18 -4 25 29 47 42 26 8 -13 10 -12 10 3 0 9
2 17 5 17 3 0 5 -13 5 -29z m-6380 -12 c0 -5 -9 -9 -20 -9 -19 0 -26 11 -14
23 8 8 34 -3 34 -14z m44 -5 c24 -9 20 -33 -4 -27 -11 3 -20 12 -20 19 0 16 2
16 24 8z m-314 -24 c0 -5 -4 -10 -10 -10 -5 0 -10 5 -10 10 0 6 5 10 10 10 6
0 10 -4 10 -10z m6790 -40 c0 -36 -12 -50 -41 -50 -17 0 -10 78 8 89 25 14 33
5 33 -39z m-6520 25 c0 -19 -11 -19 -36 0 -18 14 -18 14 9 15 17 0 27 -5 27
-15z m-160 -9 c40 -12 45 -17 47 -45 2 -22 -1 -31 -10 -29 -6 2 -33 10 -59 17
-27 7 -48 19 -48 26 0 10 8 11 36 3 50 -13 53 -4 4 11 -22 6 -40 16 -40 21 0
13 16 12 70 -4z m204 8 c24 -9 20 -33 -4 -27 -11 3 -20 12 -20 19 0 16 2 16
24 8z m203 -20 c3 -8 1 -20 -4 -25 -14 -14 -40 -1 -46 22 -4 15 0 19 19 19 14
0 27 -7 31 -16z m783 -5 c0 -11 -4 -18 -10 -14 -5 3 -7 12 -3 20 7 21 13 19
13 -6z m400 0 c0 -5 -4 -9 -10 -9 -5 0 -10 7 -10 16 0 8 5 12 10 9 6 -3 10
-10 10 -16z m4750 6 c0 -8 -9 -15 -20 -15 -22 0 -27 15 -7 23 21 9 27 7 27 -8z
m-5080 1 c0 -3 -4 -8 -10 -11 -5 -3 -10 -1 -10 4 0 6 5 11 10 11 6 0 10 -2 10
-4z m4190 -16 c0 -11 -4 -20 -10 -20 -5 0 -10 9 -10 20 0 11 5 20 10 20 6 0
10 -9 10 -20z m-5290 -5 c0 -19 -11 -19 -36 0 -18 14 -18 14 9 15 17 0 27 -5
27 -15z m1357 -17 c-3 -7 -5 -2 -5 12 0 14 2 19 5 13 2 -7 2 -19 0 -25z
m-1313 16 c24 -9 20 -33 -4 -27 -11 3 -20 12 -20 19 0 16 2 16 24 8z m4926
-19 c0 -14 -4 -25 -10 -25 -5 0 -10 11 -10 25 0 14 5 25 10 25 6 0 10 -11 10
-25z m1150 15 c0 -5 -7 -10 -16 -10 -8 0 -12 5 -9 10 3 6 10 10 16 10 5 0 9
-4 9 -10z m-2337 -17 c-6 -16 -5 -16 11 -4 13 11 45 14 130 12 61 -1 128 -6
147 -10 19 -4 45 -4 57 0 12 5 29 6 37 3 13 -5 13 -8 0 -21 -8 -8 -15 -20 -15
-27 0 -7 -8 -20 -19 -30 -11 -10 -16 -25 -14 -41 4 -21 -3 -28 -56 -54 -39
-20 -61 -37 -61 -49 0 -9 -16 -26 -38 -37 -22 -12 -38 -29 -40 -41 -2 -12 -14
-26 -28 -32 -13 -7 -29 -22 -35 -34 -5 -13 -24 -31 -40 -41 -17 -9 -28 -21
-25 -25 3 -5 -6 -14 -19 -20 -14 -7 -25 -17 -25 -23 0 -6 -10 -19 -22 -28 -17
-15 -21 -27 -19 -69 1 -28 -3 -53 -8 -56 -7 -5 -988 -8 -1048 -4 -7 1 -13 11
-14 22 -2 84 -6 95 -52 141 -26 26 -47 50 -47 55 0 5 -9 12 -21 15 -11 4 -24
18 -30 32 -5 14 -22 30 -38 36 -20 7 -31 20 -35 38 -4 20 -14 30 -39 38 -27 9
-36 19 -41 41 -3 17 -11 30 -18 30 -7 0 -32 10 -55 22 -36 19 -43 28 -41 50 1
15 -6 36 -17 47 -23 26 -15 35 30 35 19 0 35 4 35 8 0 10 113 9 215 -3 44 -5
87 -9 95 -10 8 0 96 -8 195 -17 242 -22 279 -21 505 17 145 25 233 34 344 37
82 2 151 6 154 9 10 9 11 5 5 -12z m1079 -5 c-7 -7 -12 -8 -12 -2 0 14 12 26
19 19 2 -3 -1 -11 -7 -17z m1318 12 c0 -13 -28 -25 -38 -16 -3 4 0 11 8 16 20
13 30 12 30 0z m-5812 -22 c-2 -17 -9 -22 -23 -20 -30 5 -43 21 -25 32 28 18
52 12 48 -12z m1036 16 c16 -6 23 -44 8 -44 -12 0 -32 23 -32 37 0 15 2 15 24
7z m4926 -4 c0 -5 -4 -10 -10 -10 -5 0 -10 5 -10 10 0 6 5 10 10 10 6 0 10 -4
10 -10z m-6335 -11 c10 -15 2 -19 -23 -12 -12 3 -19 9 -16 14 7 12 31 11 39
-2z m449 1 c26 -9 35 -34 16 -45 -11 -7 -80 21 -80 33 0 23 24 28 64 12z
m1036 0 c13 -9 13 -10 0 -10 -12 0 -12 -2 -2 -9 8 -5 12 -16 10 -24 -5 -24
-26 -7 -32 26 -5 29 0 32 24 17z m4550 -10 c0 -11 1 -23 3 -26 2 -5 -68 -33
-84 -34 -4 0 -6 11 -6 24 0 18 8 28 36 39 49 20 51 20 51 -3z m90 5 c0 -8 -7
-15 -16 -15 -14 0 -14 3 -4 15 7 8 14 15 16 15 2 0 4 -7 4 -15z m-6060 -22 c0
-10 -6 -13 -16 -9 -9 3 -18 6 -20 6 -2 0 -4 6 -4 14 0 9 7 12 20 9 11 -3 20
-12 20 -20z m629 3 c16 -10 15 -133 -1 -138 -7 -2 -26 -2 -43 1 -28 6 -30 9
-33 55 -5 77 3 96 37 92 15 -2 33 -6 40 -10z m5491 4 c0 -13 -28 -25 -38 -16
-3 4 0 11 8 16 20 13 30 12 30 0z m-5390 -87 c0 -56 -2 -64 -17 -61 -14 2 -19
15 -21 52 -2 28 -1 60 3 74 5 19 8 22 20 12 10 -9 15 -33 15 -77z m748 64 c6
-28 -5 -47 -23 -41 -9 4 -15 18 -15 36 0 23 4 29 17 26 10 -2 19 -11 21 -21z
m3272 -1 c0 -8 5 -18 12 -22 7 -4 8 -3 4 4 -3 6 3 16 14 22 17 9 20 8 20 -8 0
-12 -18 -26 -57 -44 -32 -14 -61 -23 -65 -21 -19 10 -5 43 25 61 39 25 47 26
47 8z m1310 5 c0 -12 -20 -25 -27 -18 -7 7 6 27 18 27 5 0 9 -4 9 -9z m-5270
-11 c0 -5 -4 -10 -10 -10 -5 0 -10 5 -10 10 0 6 5 10 10 10 6 0 10 -4 10 -10z
m820 -80 c0 -71 -13 -108 -23 -68 -9 30 -9 122 -1 143 12 31 24 -6 24 -75z
m242 -198 c1 -155 -1 -284 -5 -288 -4 -4 -7 125 -7 286 0 161 2 291 5 288 3
-2 6 -131 7 -286z m2723 274 c16 -16 15 0 15 -333 0 -165 -3 -253 -10 -253
-10 0 -13 47 -12 190 0 41 1 109 1 150 1 101 -7 231 -14 238 -7 7 -7 22 1 22
3 0 12 -6 19 -14z m-3334 -44 c2 -94 -3 -114 -26 -105 -11 4 -15 23 -15 77 0
65 2 72 20 73 17 2 20 -5 21 -45z m3109 -59 c0 -53 -3 -94 -6 -90 -9 9 -10
196 -1 190 4 -2 7 -47 7 -100z m1060 92 c0 -8 -4 -15 -10 -15 -5 0 -10 7 -10
15 0 8 5 15 10 15 6 0 10 -7 10 -15z m710 5 c0 -12 -28 -25 -36 -17 -9 9 6 27
22 27 8 0 14 -5 14 -10z m-5812 -33 c5 -45 -4 -60 -28 -47 -14 8 -20 21 -20
46 0 31 3 35 23 32 16 -2 23 -11 25 -31z m132 -2 c0 -19 -4 -35 -10 -35 -5 0
-10 16 -10 35 0 19 5 35 10 35 6 0 10 -16 10 -35z m416 8 c-10 -10 -19 5 -10
18 6 11 8 11 12 0 2 -7 1 -15 -2 -18z m1171 5 c-3 -8 -6 -5 -6 6 -1 11 2 17 5
13 3 -3 4 -12 1 -19z m2921 -46 c2 -50 0 -64 -13 -68 -23 -9 -28 1 -29 54 -2
101 37 114 42 14z m682 16 c0 -17 -7 -31 -20 -38 -19 -10 -20 -8 -20 34 0 26
5 46 13 49 16 5 27 -12 27 -45z m-4331 -28 c0 -19 -3 -41 -8 -48 -12 -20 -24
51 -15 91 6 28 8 30 15 12 4 -11 8 -36 8 -55z m4231 23 c0 -37 -3 -43 -24 -49
-35 -9 -46 2 -46 45 0 46 5 52 42 49 26 -2 28 -5 28 -45z m320 37 c-20 -13
-33 -13 -25 0 3 6 14 10 23 10 15 0 15 -2 2 -10z m214 1 c3 -5 -1 -12 -10 -15
-20 -8 -29 -1 -19 13 8 13 22 14 29 2z m-4420 -74 c-4 -13 0 -20 15 -24 12 -3
21 -12 21 -19 0 -19 -19 -18 -26 1 -4 8 -10 12 -15 9 -5 -3 -9 21 -8 53 1 51
2 54 10 28 5 -16 6 -38 3 -48z m101 63 c3 -5 1 -10 -4 -10 -6 0 -11 5 -11 10
0 6 2 10 4 10 3 0 8 -4 11 -10z m2885 -41 c0 -31 -4 -48 -10 -44 -11 7 -13 54
-4 79 10 27 14 18 14 -35z m370 -4 c0 -30 -4 -55 -10 -55 -5 0 -10 25 -10 55
0 30 5 55 10 55 6 0 10 -25 10 -55z m966 -1 c-6 -7 -29 -15 -50 -19 -35 -6
-38 -5 -27 8 9 12 9 16 0 19 -19 6 0 28 24 28 12 0 29 5 37 10 11 7 16 4 21
-13 3 -12 1 -27 -5 -33z m-5586 11 c33 -17 40 -45 13 -45 -49 1 -83 26 -67 51
7 13 21 11 54 -6z m631 4 c25 -13 14 -32 -14 -23 -28 8 -30 11 -22 23 8 14 11
14 36 0z m69 -19 c0 -23 -26 -38 -41 -23 -14 14 0 43 22 43 12 0 19 -7 19 -20z
m4780 10 c0 -5 -4 -10 -10 -10 -5 0 -10 5 -10 10 0 6 5 10 10 10 6 0 10 -4 10
-10z m-3983 -32 c-3 -7 -5 -2 -5 12 0 14 2 19 5 13 2 -7 2 -19 0 -25z m3333
18 c0 -8 -8 -15 -17 -15 -10 1 -28 -2 -40 -6 -13 -4 -23 -3 -23 2 0 6 15 15
33 21 45 14 47 14 47 -2z m-3736 -44 c-3 -4 -9 -1 -11 6 -3 6 -11 12 -19 12
-14 0 -19 12 -8 23 3 3 15 -4 26 -15 11 -11 16 -23 12 -26z m558 8 c-6 -41
-12 -38 -12 6 0 19 4 33 8 30 5 -3 7 -19 4 -36z m2148 20 c0 -11 -4 -20 -9
-20 -6 0 -9 9 -8 20 1 11 5 20 9 20 4 0 8 -9 8 -20z m197 -2 c-3 -8 -6 -5 -6
6 -1 11 2 17 5 13 3 -3 4 -12 1 -19z m395 -10 c-9 -9 -12 -7 -12 12 0 19 3 21
12 12 9 -9 9 -15 0 -24z m-3029 -8 c18 -22 23 -70 7 -70 -5 0 -10 7 -10 15 0
9 -6 12 -15 9 -12 -5 -15 2 -15 30 0 41 8 45 33 16z m217 -10 c0 -5 -4 -12
-10 -15 -5 -3 -10 2 -10 12 0 15 -2 16 -10 3 -11 -18 -23 -8 -14 13 5 13 10
14 25 6 10 -5 19 -14 19 -19z m2550 20 c0 -5 -4 -10 -10 -10 -5 0 -10 5 -10
10 0 6 5 10 10 10 6 0 10 -4 10 -10z m-210 -22 c0 -16 -3 -19 -11 -11 -6 6 -8
16 -5 22 11 17 16 13 16 -11z m-3512 -15 c4 -27 -15 -30 -44 -8 -14 11 -15 14
-4 15 13 0 13 1 0 11 -12 7 -8 9 15 7 22 -2 31 -9 33 -25z m4612 3 c0 -8 -5
-18 -11 -22 -14 -8 -33 11 -25 25 10 16 36 13 36 -3z m-4520 -16 c0 -5 -4 -10
-10 -10 -5 0 -10 5 -10 10 0 6 5 10 10 10 6 0 10 -4 10 -10z m3580 -10 c0 -17
-32 -40 -56 -40 -11 0 -2 22 16 40 26 26 40 25 40 0z m40 5 c0 -8 -4 -15 -10
-15 -5 0 -10 7 -10 15 0 8 5 15 10 15 6 0 10 -7 10 -15z m-2473 -293 c-1 -53
-3 -7 -3 103 0 110 2 154 3 97 2 -57 2 -147 0 -200z m-1047 267 c0 -11 -4 -17
-10 -14 -5 3 -10 13 -10 21 0 8 5 14 10 14 6 0 10 -9 10 -21z m630 -184 c0
-130 -4 -205 -10 -205 -5 0 -10 19 -11 43 0 23 -1 85 -1 137 -2 157 1 230 12
230 6 0 10 -75 10 -205z m-730 185 c0 -5 -4 -10 -10 -10 -5 0 -10 5 -10 10 0
6 5 10 10 10 6 0 10 -4 10 -10z m-93 -38 c3 -25 3 -25 -34 -11 -22 8 -24 12
-13 19 11 7 12 10 2 10 -7 0 -11 4 -7 10 10 16 48 -5 52 -28z m4673 13 c0 -14
-4 -25 -10 -25 -5 0 -10 11 -10 25 0 14 5 25 10 25 6 0 10 -11 10 -25z m-5700
6 c0 -6 -4 -13 -10 -16 -5 -3 -10 1 -10 9 0 9 5 16 10 16 6 0 10 -4 10 -9z
m1290 -7 c0 -8 -5 -12 -10 -9 -6 4 -8 11 -5 16 9 14 15 11 15 -7z m38 -2 c2
-7 -3 -12 -12 -12 -9 0 -16 7 -16 16 0 17 22 14 28 -4z m5392 3 c0 -8 -4 -15
-10 -15 -5 0 -10 7 -10 15 0 8 5 15 10 15 6 0 10 -7 10 -15z m-6673 -17 c-3
-8 -6 -5 -6 6 -1 11 2 17 5 13 3 -3 4 -12 1 -19z m1073 12 c0 -5 -4 -10 -10
-10 -5 0 -10 5 -10 10 0 6 5 10 10 10 6 0 10 -4 10 -10z m3469 -161 c1 -94 -2
-168 -6 -166 -5 3 -7 76 -7 164 2 172 2 173 8 173 3 0 5 -77 5 -171z m546 162
c3 -5 1 -12 -5 -16 -5 -3 -10 1 -10 9 0 18 6 21 15 7z m315 -11 c0 -11 -4 -20
-9 -20 -5 0 -16 -3 -25 -6 -11 -4 -16 0 -16 14 0 18 11 26 43 31 4 0 7 -8 7
-19z m80 -10 c0 -5 -5 -10 -11 -10 -5 0 -7 5 -4 10 3 6 8 10 11 10 2 0 4 -4 4
-10z m1080 6 c0 -3 -4 -8 -10 -11 -5 -3 -10 -1 -10 4 0 6 5 11 10 11 6 0 10
-2 10 -4z m-6460 -16 c0 -5 -2 -10 -4 -10 -3 0 -8 5 -11 10 -3 6 -1 10 4 10 6
0 11 -4 11 -10z m54 -11 c-3 -5 -10 -7 -15 -3 -5 3 -7 10 -3 15 3 5 10 7 15 3
5 -3 7 -10 3 -15z m6336 11 c0 -5 -5 -10 -11 -10 -5 0 -7 5 -4 10 3 6 8 10 11
10 2 0 4 -4 4 -10z m-5173 -37 c-3 -10 -5 -4 -5 12 0 17 2 24 5 18 2 -7 2 -21
0 -30z m323 27 c0 -5 -4 -10 -10 -10 -5 0 -10 5 -10 10 0 6 5 10 10 10 6 0 10
-4 10 -10z m445 0 c3 -5 1 -10 -4 -10 -6 0 -11 5 -11 10 0 6 2 10 4 10 3 0 8
-4 11 -10z m-845 -31 c0 -20 -4 -29 -12 -26 -12 4 -18 34 -11 50 10 18 23 4
23 -24z m4240 21 c0 -5 -4 -10 -10 -10 -5 0 -10 5 -10 10 0 6 5 10 10 10 6 0
10 -4 10 -10z m930 0 c0 -5 -4 -10 -10 -10 -5 0 -10 5 -10 10 0 6 5 10 10 10
6 0 10 -4 10 -10z m260 0 c0 -5 -5 -10 -11 -10 -5 0 -7 5 -4 10 3 6 8 10 11
10 2 0 4 -4 4 -10z m-6690 -10 c0 -5 -4 -10 -10 -10 -5 0 -10 5 -10 10 0 6 5
10 10 10 6 0 10 -4 10 -10z m2167 -12 c-3 -8 -6 -5 -6 6 -1 11 2 17 5 13 3 -3
4 -12 1 -19z m2303 3 c0 -23 -30 -37 -42 -19 -5 8 -1 18 9 26 23 17 33 15 33
-7z m1000 9 c0 -5 -4 -10 -10 -10 -5 0 -10 5 -10 10 0 6 5 10 10 10 6 0 10 -4
10 -10z m-5160 -10 c0 -5 -2 -10 -4 -10 -3 0 -8 5 -11 10 -3 6 -1 10 4 10 6 0
11 -4 11 -10z m4190 0 c0 -5 -2 -10 -4 -10 -3 0 -8 5 -11 10 -3 6 -1 10 4 10
6 0 11 -4 11 -10z m920 -10 c0 -15 -7 -20 -25 -20 -41 0 -30 37 13 39 6 1 12
-8 12 -19z m880 0 c0 -5 -4 -10 -10 -10 -5 0 -10 5 -10 10 0 6 5 10 10 10 6 0
10 -4 10 -10z m280 6 c0 -3 -4 -8 -10 -11 -5 -3 -10 -1 -10 4 0 6 5 11 10 11
6 0 10 -2 10 -4z m-6430 -10 c0 -3 -4 -8 -10 -11 -5 -3 -10 -1 -10 4 0 6 5 11
10 11 6 0 10 -2 10 -4z m1148 -7 c-2 -6 -8 -10 -13 -10 -5 0 -11 4 -13 10 -2
6 4 11 13 11 9 0 15 -5 13 -11z m199 -11 c-3 -8 -6 -5 -6 6 -1 11 2 17 5 13 3
-3 4 -12 1 -19z m5013 12 c0 -5 -4 -10 -10 -10 -5 0 -10 5 -10 10 0 6 5 10 10
10 6 0 10 -4 10 -10z m-5980 -20 c0 -5 -5 -10 -11 -10 -5 0 -7 5 -4 10 3 6 8
10 11 10 2 0 4 -4 4 -10z m997 -5 c0 -8 -4 -15 -9 -15 -4 0 -8 7 -8 15 0 8 4
15 8 15 5 0 9 -7 9 -15z m2850 -22 c-3 -10 -5 -4 -5 12 0 17 2 24 5 18 2 -7 2
-21 0 -30z m1753 17 c0 -5 -2 -10 -4 -10 -3 0 -8 5 -11 10 -3 6 -1 10 4 10 6
0 11 -4 11 -10z m-1810 -40 c0 -13 -7 -20 -20 -20 -25 0 -27 27 -2 33 9 3 18
5 20 6 1 0 2 -8 2 -19z m-2794 -15 c1 -8 -2 -15 -7 -15 -5 0 -9 10 -9 22 0 23
12 17 16 -7z m3444 11 c0 -8 -6 -16 -14 -19 -12 -5 -14 6 -7 31 3 9 21 -1 21
-12z m-5085 -16 c3 -5 1 -10 -4 -10 -6 0 -11 5 -11 10 0 6 2 10 4 10 3 0 8 -4
11 -10z m1815 -36 c0 -8 -4 -14 -10 -14 -5 0 -10 9 -10 21 0 11 5 17 10 14 6
-3 10 -13 10 -21z m4970 16 c0 -5 -2 -10 -4 -10 -3 0 -8 5 -11 10 -3 6 -1 10
4 10 6 0 11 -4 11 -10z m-1700 -20 c0 -11 -7 -20 -15 -20 -27 0 -18 30 13 39
1 1 2 -8 2 -19z m-771 -16 c-6 -8 -15 -14 -20 -14 -14 0 -11 28 4 33 20 7 29
-4 16 -19z m-87 -49 c0 -5 -5 -11 -11 -13 -6 -2 -11 4 -11 13 0 9 5 15 11 13
6 -2 11 -8 11 -13z m-4222 -25 c0 -5 -5 -10 -11 -10 -5 0 -7 5 -4 10 3 6 8 10
11 10 2 0 4 -4 4 -10z m4787 -12 c-3 -8 -6 -5 -6 6 -1 11 2 17 5 13 3 -3 4
-12 1 -19z m-637 -8 c0 -5 -4 -10 -10 -10 -5 0 -10 5 -10 10 0 6 5 10 10 10 6
0 10 -4 10 -10z m-4150 -20 c0 -5 -5 -10 -11 -10 -5 0 -7 5 -4 10 3 6 8 10 11
10 2 0 4 -4 4 -10z m6790 -14 c0 -3 -4 -8 -10 -11 -5 -3 -10 -1 -10 4 0 6 5
11 10 11 6 0 10 -2 10 -4z m-6515 -16 c3 -5 1 -10 -4 -10 -6 0 -11 5 -11 10 0
6 2 10 4 10 3 0 8 -4 11 -10z m6375 0 c0 -5 -4 -10 -10 -10 -5 0 -10 5 -10 10
0 6 5 10 10 10 6 0 10 -4 10 -10z m-6650 -15 c0 -8 -4 -15 -10 -15 -5 0 -10 7
-10 15 0 8 5 15 10 15 6 0 10 -7 10 -15z m6785 -4 c3 -5 1 -12 -5 -16 -5 -3
-10 1 -10 9 0 18 6 21 15 7z m-6635 -5 c0 -3 -4 -8 -10 -11 -5 -3 -10 -1 -10
4 0 6 5 11 10 11 6 0 10 -2 10 -4z m130 -16 c0 -5 -4 -10 -10 -10 -5 0 -10 5
-10 10 0 6 5 10 10 10 6 0 10 -4 10 -10z m6370 0 c0 -5 -4 -10 -10 -10 -5 0
-10 5 -10 10 0 6 5 10 10 10 6 0 10 -4 10 -10z m-465 -10 c3 -5 1 -10 -4 -10
-6 0 -11 5 -11 10 0 6 2 10 4 10 3 0 8 -4 11 -10z m0 -30 c3 -5 1 -10 -4 -10
-6 0 -11 5 -11 10 0 6 2 10 4 10 3 0 8 -4 11 -10z m-6185 -20 c0 -5 -5 -10
-11 -10 -5 0 -7 5 -4 10 3 6 8 10 11 10 2 0 4 -4 4 -10z m145 -20 c-5 -8 -11
-8 -17 -2 -6 6 -7 16 -3 22 5 8 11 8 17 2 6 -6 7 -16 3 -22z m6510 0 c0 -7 -6
-15 -12 -17 -8 -3 -13 4 -13 17 0 13 5 20 13 18 6 -3 12 -11 12 -18z m-6375
-5 c0 -8 -4 -15 -10 -15 -5 0 -10 7 -10 15 0 8 5 15 10 15 6 0 10 -7 10 -15z
m240 -15 c0 -11 -4 -20 -10 -20 -5 0 -10 9 -10 20 0 11 5 20 10 20 6 0 10 -9
10 -20z m5877 -2 c-3 -8 -6 -5 -6 6 -1 11 2 17 5 13 3 -3 4 -12 1 -19z m-3482
2 c3 -5 -1 -10 -9 -10 -9 0 -16 5 -16 10 0 6 4 10 9 10 6 0 13 -4 16 -10z
m305 0 c0 -5 -11 -10 -25 -10 -14 0 -25 5 -25 10 0 6 11 10 25 10 14 0 25 -4
25 -10z m305 0 c4 -6 -7 -10 -24 -10 -17 0 -31 5 -31 10 0 6 11 10 24 10 14 0
28 -4 31 -10z m305 0 c0 -5 -14 -10 -31 -10 -17 0 -28 4 -24 10 3 6 17 10 31
10 13 0 24 -4 24 -10z m2465 1 c3 -5 1 -12 -5 -16 -5 -3 -10 1 -10 9 0 18 6
21 15 7z m-5665 -11 c0 -5 -4 -10 -10 -10 -5 0 -10 5 -10 10 0 6 5 10 10 10 6
0 10 -4 10 -10z m480 -40 c0 -5 -4 -10 -10 -10 -5 0 -10 5 -10 10 0 6 5 10 10
10 6 0 10 -4 10 -10z m4620 -5 c0 -8 -4 -15 -10 -15 -5 0 -10 7 -10 15 0 8 5
15 10 15 6 0 10 -7 10 -15z m-4415 -4 c3 -5 1 -12 -5 -16 -5 -3 -10 1 -10 9 0
18 6 21 15 7z m455 -41 c0 -5 -5 -10 -11 -10 -5 0 -7 5 -4 10 3 6 8 10 11 10
2 0 4 -4 4 -10z m1620 0 c0 -5 -5 -10 -11 -10 -5 0 -7 5 -4 10 3 6 8 10 11 10
2 0 4 -4 4 -10z m3348 -92 l-3 -53 -102 -3 -103 -3 0 50 0 50 48 4 c26 2 73 4
105 5 l58 2 -3 -52z m-6688 32 c0 -5 -4 -10 -10 -10 -5 0 -10 5 -10 10 0 6 5
10 10 10 6 0 10 -4 10 -10z m30 0 c0 -5 -4 -10 -10 -10 -5 0 -10 5 -10 10 0 6
5 10 10 10 6 0 10 -4 10 -10z m40 0 c0 -5 -4 -10 -10 -10 -5 0 -10 5 -10 10 0
6 5 10 10 10 6 0 10 -4 10 -10z m40 0 c0 -5 -4 -10 -10 -10 -5 0 -10 5 -10 10
0 6 5 10 10 10 6 0 10 -4 10 -10z m30 0 c0 -5 -4 -10 -10 -10 -5 0 -10 5 -10
10 0 6 5 10 10 10 6 0 10 -4 10 -10z m418 1 c8 -5 12 -23 10 -47 l-3 -39 -100
0 -100 0 -3 48 -3 47 93 0 c51 0 99 -4 106 -9z m5637 -11 c3 -5 1 -10 -4 -10
-6 0 -11 5 -11 10 0 6 2 10 4 10 3 0 8 -4 11 -10z m85 0 c0 -5 -5 -10 -11 -10
-5 0 -7 5 -4 10 3 6 8 10 11 10 2 0 4 -4 4 -10z m-606 -24 c9 -37 -3 -59 -28
-52 -11 3 -24 6 -28 6 -10 0 -10 54 -1 63 16 17 51 6 57 -17z m-4354 -16 c0
-31 -1 -32 -70 -32 -16 0 -34 1 -40 1 -5 1 -10 15 -10 31 l0 30 60 0 60 0 0
-30z m435 -5 c0 -16 -8 -21 -42 -23 -40 -3 -43 -2 -43 23 0 25 3 26 43 23 34
-2 42 -7 42 -23z m3382 5 c1 -11 -2 -22 -8 -25 -5 -4 -9 5 -9 19 0 30 15 35
17 6z m-3097 -10 c0 -16 -7 -20 -30 -20 -23 0 -30 4 -30 20 0 16 7 20 30 20
23 0 30 -4 30 -20z m200 -6 c0 -8 -10 -14 -25 -14 -23 0 -34 18 -19 32 10 10
44 -4 44 -18z m148 -1 c2 -8 -5 -13 -17 -13 -12 0 -21 6 -21 16 0 18 31 15 38
-3z m-2393 -3 c3 -5 1 -10 -4 -10 -6 0 -11 5 -11 10 0 6 2 10 4 10 3 0 8 -4
11 -10z m35 0 c0 -5 -5 -10 -11 -10 -5 0 -7 5 -4 10 3 6 8 10 11 10 2 0 4 -4
4 -10z m40 0 c0 -5 -4 -10 -10 -10 -5 0 -10 5 -10 10 0 6 5 10 10 10 6 0 10
-4 10 -10z m40 0 c0 -5 -4 -10 -10 -10 -5 0 -10 5 -10 10 0 6 5 10 10 10 6 0
10 -4 10 -10z m30 0 c0 -5 -4 -10 -10 -10 -5 0 -10 5 -10 10 0 6 5 10 10 10 6
0 10 -4 10 -10z m115 0 c3 -5 1 -10 -4 -10 -6 0 -11 5 -11 10 0 6 2 10 4 10 3
0 8 -4 11 -10z m785 -6 c0 -2 -7 -4 -15 -4 -8 0 -15 4 -15 10 0 5 7 7 15 4 8
-4 15 -8 15 -10z m1460 6 c0 -5 -7 -10 -15 -10 -8 0 -15 5 -15 10 0 6 7 10 15
10 8 0 15 -4 15 -10z m95 0 c-3 -5 -10 -10 -16 -10 -5 0 -9 5 -9 10 0 6 7 10
16 10 8 0 12 -4 9 -10z m75 0 c0 -5 -4 -10 -10 -10 -5 0 -10 5 -10 10 0 6 5
10 10 10 6 0 10 -4 10 -10z m60 0 c0 -5 -4 -10 -10 -10 -5 0 -10 5 -10 10 0 6
5 10 10 10 6 0 10 -4 10 -10z m297 -13 c18 -13 6 -27 -22 -27 -18 0 -23 4 -19
15 5 11 -2 15 -27 16 l-34 1 30 7 c32 8 52 4 72 -12z m300 1 c18 -15 6 -28
-24 -28 -21 0 -24 2 -13 15 11 13 8 15 -19 15 -18 0 -30 4 -27 9 7 11 66 3 83
-11z m305 -1 c10 -16 0 -27 -24 -27 -14 0 -18 5 -14 15 4 11 -2 15 -27 15 -20
0 -27 3 -19 8 16 11 75 3 84 -11z m281 14 c4 -1 7 -10 7 -21 0 -13 -6 -20 -17
-19 -11 0 -13 3 -5 6 21 8 2 23 -31 23 -24 0 -28 3 -17 10 8 5 24 7 35 5 11
-2 23 -4 28 -4z m2282 -1 c3 -5 1 -10 -4 -10 -6 0 -11 5 -11 10 0 6 2 10 4 10
3 0 8 -4 11 -10z m55 0 c0 -5 -5 -10 -11 -10 -5 0 -7 5 -4 10 3 6 8 10 11 10
2 0 4 -4 4 -10z m-5580 -10 c0 -5 -6 -10 -12 -10 -8 0 -9 -3 -3 -8 6 -4 11
-19 12 -34 1 -26 -2 -28 -34 -28 -26 0 -34 4 -30 14 3 7 0 19 -6 26 -9 10 -9
14 0 17 7 2 9 11 6 19 -4 10 4 14 31 14 20 0 36 -4 36 -10z m690 0 c-13 -8
-12 -10 3 -10 9 0 17 -4 17 -10 0 -5 -8 -11 -17 -11 -17 -1 -17 -2 0 -6 19 -5
14 -23 -7 -23 -16 0 -27 35 -19 56 3 8 13 14 22 14 14 0 14 -2 1 -10z m437
-16 c-3 -3 -12 -4 -19 -1 -8 3 -5 6 6 6 11 1 17 -2 13 -5z m-544 -49 c7 -16
-8 -29 -23 -20 -15 9 -12 35 4 35 8 0 16 -7 19 -15z m537 -25 c0 -22 -4 -40
-8 -40 -5 0 -8 12 -6 28 1 15 2 33 3 40 2 30 11 8 11 -28z m3880 20 c0 -13 -7
-20 -20 -20 -19 0 -27 20 -13 33 13 14 33 6 33 -13z m-3602 -17 c1 -22 0 -24
-8 -13 -12 18 -13 40 -2 40 4 0 9 -12 10 -27z m-1608 -9 c0 -22 -4 -25 -27
-22 -20 2 -29 9 -31 26 -3 19 1 22 27 22 27 0 31 -4 31 -26z m906 17 c-19 -7
-19 -8 0 -15 19 -8 19 -8 -1 -16 l-20 -9 20 -1 c20 -1 20 -1 1 -15 -20 -15
-20 -15 0 -15 18 -1 18 -1 1 -11 -23 -13 -28 -9 -29 27 -1 57 1 64 25 63 20 0
20 -1 3 -8z m5227 -25 c-3 -37 -4 -37 -41 -30 -24 5 -32 12 -32 29 0 30 9 36
45 33 26 -3 30 -7 28 -32z m-6033 9 c0 -8 -7 -15 -16 -15 -14 0 -14 3 -4 15 7
8 14 15 16 15 2 0 4 -7 4 -15z m590 5 c0 -5 -4 -10 -10 -10 -5 0 -10 5 -10 10
0 6 5 10 10 10 6 0 10 -4 10 -10z m247 -22 c-3 -7 -5 -2 -5 12 0 14 2 19 5 13
2 -7 2 -19 0 -25z m4133 28 c0 -3 -4 -8 -10 -11 -5 -3 -10 -1 -10 4 0 6 5 11
10 11 6 0 10 -2 10 -4z m30 -6 c0 -5 -4 -10 -10 -10 -5 0 -10 5 -10 10 0 6 5
10 10 10 6 0 10 -4 10 -10z m-4893 -67 l-2 -68 -33 -3 -32 -3 1 70 2 71 33 0
34 0 -3 -67z m1093 36 c0 -10 -4 -19 -10 -19 -5 0 -10 12 -10 26 0 14 4 23 10
19 6 -3 10 -15 10 -26z m-1050 -14 c0 -19 -4 -35 -10 -35 -5 0 -10 16 -10 35
0 19 5 35 10 35 6 0 10 -16 10 -35z m440 15 c0 -5 -4 -10 -10 -10 -5 0 -10 5
-10 10 0 6 5 10 10 10 6 0 10 -4 10 -10z m3880 -5 c0 -8 -8 -15 -17 -14 -13 0
-14 2 -4 6 11 5 11 7 0 14 -11 7 -10 9 4 9 9 0 17 -7 17 -15z m530 5 c0 -5 -2
-10 -4 -10 -3 0 -8 5 -11 10 -3 6 -1 10 4 10 6 0 11 -4 11 -10z m770 0 c0 -5
-7 -10 -16 -10 -8 0 -12 5 -9 10 3 6 10 10 16 10 5 0 9 -4 9 -10z m60 -6 c0
-9 -7 -14 -17 -12 -25 5 -28 28 -4 28 12 0 21 -6 21 -16z m-6186 -3 c3 -5 -1
-12 -10 -15 -22 -9 -24 -8 -24 9 0 16 25 21 34 6z m66 0 c0 -5 -9 -11 -20 -14
-13 -3 -20 0 -20 9 0 8 9 14 20 14 11 0 20 -4 20 -9z m1048 -16 c-2 -14 -7
-26 -13 -26 -5 0 -11 12 -13 26 -2 18 1 25 13 25 12 0 15 -7 13 -25z m269 10
c0 -8 -4 -15 -9 -15 -4 0 -8 7 -8 15 0 8 4 15 8 15 5 0 9 -7 9 -15z m-1167
-14 c0 -6 -4 -13 -10 -16 -5 -3 -10 1 -10 9 0 9 5 16 10 16 6 0 10 -4 10 -9z
m70 -1 c0 -5 -4 -10 -10 -10 -5 0 -10 5 -10 10 0 6 5 10 10 10 6 0 10 -4 10
-10z m660 0 c0 -5 -4 -10 -10 -10 -5 0 -10 5 -10 10 0 6 5 10 10 10 6 0 10 -4
10 -10z m4327 -10 c1 -13 -4 -20 -17 -20 -24 0 -37 20 -13 21 16 0 16 1 -2 9
-18 8 -18 9 5 9 19 1 26 -4 27 -19z m-4419 -15 c0 -20 -6 -25 -24 -25 -41 0
-30 46 12 49 6 1 12 -10 12 -24z m1812 15 c0 -5 -7 -10 -15 -10 -8 0 -15 5
-15 10 0 6 7 10 15 10 8 0 15 -4 15 -10z m300 0 c0 -5 -11 -10 -25 -10 -14 0
-25 5 -25 10 0 6 11 10 25 10 14 0 25 -4 25 -10z m305 0 c4 -6 -7 -10 -24 -10
-17 0 -31 5 -31 10 0 6 11 10 24 10 14 0 28 -4 31 -10z m305 0 c0 -5 -14 -10
-31 -10 -17 0 -28 4 -24 10 3 6 17 10 31 10 13 0 24 -4 24 -10z m2555 0 c3 -5
-3 -10 -15 -10 -12 0 -18 5 -15 10 3 6 10 10 15 10 5 0 12 -4 15 -10z m55 -6
c0 -9 -7 -14 -17 -12 -25 5 -28 28 -4 28 12 0 21 -6 21 -16z m150 6 c0 -5 -4
-10 -10 -10 -5 0 -10 5 -10 10 0 6 5 10 10 10 6 0 10 -4 10 -10z m81 -3 c-1
-12 -15 -9 -19 4 -3 6 1 10 8 8 6 -3 11 -8 11 -12z m-6413 -15 c2 -7 -6 -12
-17 -12 -21 0 -27 11 -14 24 9 9 26 2 31 -12z m62 9 c0 -5 -7 -12 -16 -15 -22
-9 -24 -8 -24 9 0 8 9 15 20 15 11 0 20 -4 20 -9z m302 -3 c9 -27 -5 -68 -23
-68 -15 0 -19 7 -19 33 0 19 3 37 7 40 10 11 31 8 35 -5z m-158 -29 c-3 -5
-10 -7 -15 -3 -5 3 -7 10 -3 15 3 5 10 7 15 3 5 -3 7 -10 3 -15z m76 11 c0 -5
-4 -10 -10 -10 -5 0 -10 5 -10 10 0 6 5 10 10 10 6 0 10 -4 10 -10z m5747 -14
c-3 -7 0 -19 6 -25 12 -12 3 -14 -48 -11 -47 3 -55 20 -9 21 33 2 35 3 9 6
-52 8 -53 23 -1 23 37 0 47 -3 43 -14z m93 4 c0 -5 -7 -10 -16 -10 -8 0 -12 5
-9 10 3 6 10 10 16 10 5 0 9 -4 9 -10z m60 -5 c0 -17 -2 -18 -24 -9 -23 9 -20
24 4 24 11 0 20 -7 20 -15z m150 0 c0 -8 -4 -15 -10 -15 -5 0 -10 7 -10 15 0
8 5 15 10 15 6 0 10 -7 10 -15z m85 -15 c-5 -8 -11 -8 -17 -2 -6 6 -7 16 -3
22 5 8 11 8 17 2 6 -6 7 -16 3 -22z m-6415 -1 c0 -5 -9 -9 -20 -9 -22 0 -27
16 -7 23 15 5 27 -1 27 -14z m58 9 c-7 -19 -38 -22 -38 -4 0 10 9 16 21 16 12
0 19 -5 17 -12z m6422 -24 c0 -19 -4 -33 -8 -30 -8 5 -4 66 4 66 2 0 4 -16 4
-36z m-6593 -14 c0 -29 -2 -30 -43 -30 -23 0 -50 -3 -60 -7 -12 -4 -15 -2 -12
8 2 8 22 17 44 20 l39 6 -42 2 c-79 2 -46 25 43 30 28 1 31 -2 31 -29z m320 4
c-9 -9 -28 6 -21 18 4 6 10 6 17 -1 6 -6 8 -13 4 -17z m73 16 c0 -5 -4 -10
-10 -10 -5 0 -10 5 -10 10 0 6 5 10 10 10 6 0 10 -4 10 -10z m-550 -10 c0 -5
-4 -10 -10 -10 -5 0 -10 5 -10 10 0 6 5 10 10 10 6 0 10 -4 10 -10z m6395 0
c3 -5 -3 -10 -14 -10 -12 0 -21 5 -21 10 0 6 6 10 14 10 8 0 18 -4 21 -10z
m55 -6 c0 -9 -7 -14 -17 -12 -25 5 -28 28 -4 28 12 0 21 -6 21 -16z m-6122 -6
c-7 -19 -38 -22 -38 -4 0 10 9 16 21 16 12 0 19 -5 17 -12z m6272 2 c0 -5 -4
-10 -10 -10 -5 0 -10 5 -10 10 0 6 5 10 10 10 6 0 10 -4 10 -10z m81 -13 c-13
-13 -26 -3 -16 12 3 6 11 8 17 5 6 -4 6 -10 -1 -17z m-6411 3 c0 -5 -9 -10
-20 -10 -11 0 -20 5 -20 10 0 6 9 10 20 10 11 0 20 -4 20 -10z m3890 -40 c0
-5 -4 -10 -10 -10 -5 0 -10 5 -10 10 0 6 5 10 10 10 6 0 10 -4 10 -10z m-1040
-20 c0 -5 -5 -10 -11 -10 -5 0 -7 5 -4 10 3 6 8 10 11 10 2 0 4 -4 4 -10z
m1115 -10 c3 -5 -1 -10 -9 -10 -9 0 -16 5 -16 10 0 6 4 10 9 10 6 0 13 -4 16
-10z m90 -40 c3 -5 -1 -10 -9 -10 -9 0 -16 5 -16 10 0 6 4 10 9 10 6 0 13 -4
16 -10z m113 -48 c2 -7 -3 -12 -12 -12 -9 0 -16 7 -16 16 0 17 22 14 28 -4z
m-2498 -158 c0 -96 -3 -125 -12 -122 -14 5 -24 192 -13 236 13 54 25 2 25
-114z m2984 69 c7 -61 -2 -173 -14 -173 -4 0 -10 14 -14 31 -8 42 -8 184 1
192 15 15 21 4 27 -50z m-2946 -58 c0 -33 -4 -71 -8 -85 -5 -16 -8 16 -8 85 0
69 3 101 8 85 4 -14 8 -52 8 -85z m2610 81 c3 -13 -1 -17 -14 -14 -11 2 -20
11 -22 22 -3 13 1 17 14 14 11 -2 20 -11 22 -22z m-2301 -18 c-3 -7 -5 -2 -5
12 0 14 2 19 5 13 2 -7 2 -19 0 -25z m1426 17 c237 0 249 -1 263 -20 13 -17
16 -18 24 -5 7 10 10 11 10 2 0 -7 11 -18 25 -24 14 -6 25 -17 25 -25 0 -8 14
-19 31 -25 16 -6 28 -12 25 -15 -9 -10 -71 -10 -89 -1 -26 13 -33 3 -13 -18
11 -10 14 -24 10 -38 -9 -30 -11 -30 -29 -12 -19 18 -106 21 -220 6 -38 -5
-74 -6 -79 -3 -5 4 -89 8 -185 11 -241 6 -291 6 -484 1 -152 -4 -167 -2 -167
13 0 9 5 20 10 23 20 12 10 26 -11 15 -11 -6 -25 -9 -32 -7 -7 2 -22 0 -34 -4
-17 -6 -23 -5 -23 5 0 8 9 16 21 19 11 3 23 14 26 25 3 11 12 23 21 26 10 3
33 16 52 28 34 22 42 23 287 23 138 0 255 4 259 7 4 4 12 4 18 0 6 -4 123 -7
259 -7z m1247 -82 c0 -67 -3 -93 -10 -83 -18 27 -12 180 7 180 2 0 3 -44 3
-97z m-2770 2 c0 -33 -5 -67 -10 -75 -7 -10 -10 13 -10 75 0 62 3 85 10 75 5
-8 10 -42 10 -75z m520 48 c0 -20 -3 -24 -11 -16 -7 7 -9 19 -6 27 10 24 17
19 17 -11z m1472 -15 c-13 -13 -24 5 -16 27 7 16 8 16 17 0 6 -11 6 -20 -1
-27z m438 32 c0 -5 -4 -10 -10 -10 -5 0 -10 5 -10 10 0 6 5 10 10 10 6 0 10
-4 10 -10z m60 -71 c0 -51 -4 -78 -10 -74 -5 3 -10 40 -10 81 0 43 4 74 10 74
6 0 10 -34 10 -81z m-4030 61 c0 -5 -4 -10 -10 -10 -5 0 -10 5 -10 10 0 6 5
10 10 10 6 0 10 -4 10 -10z m1571 -14 c-5 -6 -11 -32 -14 -56 -3 -39 -4 -36
-5 17 -2 52 0 61 13 57 10 -4 12 -10 6 -18z m148 -56 c0 -19 -4 -42 -9 -50 -7
-10 -9 8 -9 60 1 53 3 68 9 50 4 -14 8 -41 9 -60z m2141 14 c0 -41 -4 -63 -10
-59 -18 11 -12 125 7 125 2 0 3 -30 3 -66z m199 -6 c-1 -59 -3 -67 -9 -40 -7
31 -3 112 6 112 2 0 4 -33 3 -72z m1541 62 c0 -5 -2 -10 -4 -10 -3 0 -8 5 -11
10 -3 6 -1 10 4 10 6 0 11 -4 11 -10z m-3751 -57 c0 -48 -2 -54 -11 -36 -9 20
-4 93 7 93 3 0 5 -26 4 -57z m68 25 c-3 -8 -6 -5 -6 6 -1 11 2 17 5 13 3 -3 4
-12 1 -19z m1750 0 c-3 -8 -6 -5 -6 6 -1 11 2 17 5 13 3 -3 4 -12 1 -19z m62
-25 c-1 -41 -2 -44 -8 -18 -7 28 -4 65 5 65 2 0 3 -21 3 -47z m148 -30 c-2
-16 -4 -3 -4 27 0 30 2 43 4 28 2 -16 2 -40 0 -55z m1893 62 c0 -8 -4 -15 -10
-15 -5 0 -10 7 -10 15 0 8 5 15 10 15 6 0 10 -7 10 -15z m-5980 -3 c0 -13 -12
-22 -22 -16 -10 6 -1 24 13 24 5 0 9 -4 9 -8z m300 -2 c0 -5 -7 -10 -16 -10
-8 0 -12 5 -9 10 3 6 10 10 16 10 5 0 9 -4 9 -10z m3500 -10 c0 -11 -4 -20 -9
-20 -6 0 -9 9 -8 20 1 11 5 20 9 20 4 0 8 -9 8 -20z m528 14 c15 -4 22 -14 22
-29 0 -20 -3 -22 -27 -16 -18 5 -29 15 -31 29 -4 23 0 25 36 16z m1392 -4 c0
-5 -4 -10 -10 -10 -5 0 -10 5 -10 10 0 6 5 10 10 10 6 0 10 -4 10 -10z m390
-16 c0 -8 -5 -12 -10 -9 -6 4 -8 11 -5 16 9 14 15 11 15 -7z m-6253 -20 c-9
-9 -28 6 -21 18 4 6 10 6 17 -1 6 -6 8 -13 4 -17z m1793 1 c0 -14 -4 -25 -10
-25 -5 0 -10 11 -10 25 0 14 5 25 10 25 6 0 10 -11 10 -25z m3165 16 c3 -5 1
-12 -5 -16 -5 -3 -10 1 -10 9 0 18 6 21 15 7z m172 -23 c-3 -8 -6 -5 -6 6 -1
11 2 17 5 13 3 -3 4 -12 1 -19z m-4922 3 c3 -5 1 -12 -5 -16 -5 -3 -10 1 -10
9 0 18 6 21 15 7z m1195 5 c0 -3 -4 -8 -10 -11 -5 -3 -10 -1 -10 4 0 6 5 11
10 11 6 0 10 -2 10 -4z m897 -18 c-3 -8 -6 -5 -6 6 -1 11 2 17 5 13 3 -3 4
-12 1 -19z m2233 1 c0 -5 -4 -9 -10 -9 -5 0 -10 7 -10 16 0 8 5 12 10 9 6 -3
10 -10 10 -16z m1865 11 c3 -5 1 -10 -4 -10 -6 0 -11 5 -11 10 0 6 2 10 4 10
3 0 8 -4 11 -10z m-6605 -19 c0 -6 -4 -13 -10 -16 -5 -3 -10 1 -10 9 0 9 5 16
10 16 6 0 10 -4 10 -9z m6720 -1 c0 -5 -4 -10 -10 -10 -5 0 -10 5 -10 10 0 6
5 10 10 10 6 0 10 -4 10 -10z m-4800 -4 c0 -3 -4 -8 -10 -11 -5 -3 -10 -1 -10
4 0 6 5 11 10 11 6 0 10 -2 10 -4z m4616 -33 c-10 -10 -19 5 -10 18 6 11 8 11
12 0 2 -7 1 -15 -2 -18z m-6356 7 c0 -5 -4 -10 -10 -10 -5 0 -10 5 -10 10 0 6
5 10 10 10 6 0 10 -4 10 -10z m6430 -10 c0 -5 -4 -10 -10 -10 -5 0 -10 5 -10
10 0 6 5 10 10 10 6 0 10 -4 10 -10z m17 -12 c-3 -8 -6 -5 -6 6 -1 11 2 17 5
13 3 -3 4 -12 1 -19z m-6602 3 c3 -5 1 -12 -5 -16 -5 -3 -10 1 -10 9 0 18 6
21 15 7z m4958 -8 c8 -5 10 -53 2 -53 -3 0 -21 6 -40 14 -26 11 -32 19 -28 35
4 17 10 20 32 15 14 -4 29 -9 34 -11z m1737 -3 c0 -5 -5 -10 -11 -10 -5 0 -7
5 -4 10 3 6 8 10 11 10 2 0 4 -4 4 -10z m-5010 -34 c0 -14 -4 -28 -10 -31 -6
-4 -10 7 -10 24 0 17 5 31 10 31 6 0 10 -11 10 -24z m3330 -22 c0 -8 -4 -14
-10 -14 -5 0 -10 2 -10 4 0 2 -3 12 -6 20 -5 12 -2 15 10 10 9 -3 16 -12 16
-20z m470 6 c0 -5 -2 -10 -4 -10 -3 0 -8 5 -11 10 -3 6 -1 10 4 10 6 0 11 -4
11 -10z m-360 -30 c0 -16 -4 -30 -10 -30 -5 0 -10 14 -10 30 0 17 5 30 10 30
6 0 10 -13 10 -30z m-4050 0 c0 -5 -4 -10 -10 -10 -5 0 -10 5 -10 10 0 6 5 10
10 10 6 0 10 -4 10 -10z m498 -2 c-3 -14 -18 -28 -30 -28 -13 0 -9 28 5 33 21
9 27 7 25 -5z m-1538 -48 c0 -5 -2 -10 -4 -10 -3 0 -8 5 -11 10 -3 6 -1 10 4
10 6 0 11 -4 11 -10z m5323 -26 c44 -15 47 -18 47 -50 0 -19 -3 -34 -6 -34 -3
0 -28 10 -55 21 -42 19 -49 25 -49 50 0 34 2 34 63 13z m-5468 -4 c3 -5 1 -10
-4 -10 -6 0 -11 5 -11 10 0 6 2 10 4 10 3 0 8 -4 11 -10z m5603 -26 c-10 -10
-28 6 -28 24 0 15 1 15 17 -1 9 -9 14 -19 11 -23z m-4250 -40 c-4 -37 -32 -40
-32 -4 0 14 4 31 8 39 13 20 28 -2 24 -35z m-160 19 c-5 -25 -28 -28 -28 -4 0
12 6 21 16 21 9 0 14 -7 12 -17z m4512 -3 c0 -5 -4 -10 -10 -10 -5 0 -10 5
-10 10 0 6 5 10 10 10 6 0 10 -4 10 -10z m-5420 -4 c0 -3 -4 -8 -10 -11 -5 -3
-10 -1 -10 4 0 6 5 11 10 11 6 0 10 -2 10 -4z m450 -21 c0 -8 -4 -15 -10 -15
-5 0 -10 7 -10 15 0 8 5 15 10 15 6 0 10 -7 10 -15z m4834 9 c16 -6 23 -44 8
-44 -5 0 -17 7 -28 16 -18 14 -18 15 6 9 l25 -6 -25 15 c-25 15 -16 21 14 10z
m833 -16 c-3 -8 -6 -5 -6 6 -1 11 2 17 5 13 3 -3 4 -12 1 -19z m253 12 c0 -5
-4 -10 -10 -10 -5 0 -10 5 -10 10 0 6 5 10 10 10 6 0 10 -4 10 -10z m-950 -10
c0 -5 -4 -10 -10 -10 -5 0 -10 5 -10 10 0 6 5 10 10 10 6 0 10 -4 10 -10z
m-5555 -10 c3 -5 1 -10 -4 -10 -6 0 -11 5 -11 10 0 6 2 10 4 10 3 0 8 -4 11
-10z m6045 0 c0 -5 -2 -10 -4 -10 -3 0 -8 5 -11 10 -3 6 -1 10 4 10 6 0 11 -4
11 -10z m-5910 -4 c0 -3 -4 -8 -10 -11 -5 -3 -10 -1 -10 4 0 6 5 11 10 11 6 0
10 -2 10 -4z m5420 -16 c0 -5 -4 -10 -10 -10 -5 0 -10 5 -10 10 0 6 5 10 10
10 6 0 10 -4 10 -10z m67 -33 c2 -31 -1 -37 -17 -37 -21 0 -22 3 -22 45 0 36
0 37 20 33 12 -2 18 -14 19 -41z m883 33 c0 -5 -2 -10 -4 -10 -3 0 -8 5 -11
10 -3 6 -1 10 4 10 6 0 11 -4 11 -10z m-5560 -40 c0 -22 -2 -40 -4 -40 -2 0
-11 -3 -20 -6 -13 -5 -16 2 -16 34 0 36 8 49 33 51 4 1 7 -17 7 -39z m68 -11
c-7 -5 -22 -9 -33 -9 -15 0 -17 2 -6 9 11 7 11 9 0 13 -9 3 -2 10 16 19 28 13
30 13 33 -5 2 -10 -2 -23 -10 -27z m-1158 31 c0 -5 -4 -10 -10 -10 -5 0 -10 5
-10 10 0 6 5 10 10 10 6 0 10 -4 10 -10z m280 1 c0 -6 -4 -13 -10 -16 -5 -3
-10 1 -10 9 0 9 5 16 10 16 6 0 10 -4 10 -9z m236 -18 c-10 -10 -19 5 -10 18
6 11 8 11 12 0 2 -7 1 -15 -2 -18z m5184 7 c0 -5 -4 -10 -10 -10 -5 0 -10 5
-10 10 0 6 5 10 10 10 6 0 10 -4 10 -10z m710 -16 c0 -16 -16 -19 -25 -4 -8
13 4 32 16 25 5 -4 9 -13 9 -21z m240 6 c0 -5 -4 -10 -10 -10 -5 0 -10 5 -10
10 0 6 5 10 10 10 6 0 10 -4 10 -10z m-6650 -20 c0 -5 -4 -10 -10 -10 -5 0
-10 5 -10 10 0 6 5 10 10 10 6 0 10 -4 10 -10z m150 1 c0 -6 -4 -13 -10 -16
-5 -3 -10 1 -10 9 0 9 5 16 10 16 6 0 10 -4 10 -9z m6635 -10 c3 -5 1 -12 -5
-16 -5 -3 -10 1 -10 9 0 18 6 21 15 7z m-5015 -11 c0 -5 -2 -10 -4 -10 -3 0
-8 5 -11 10 -3 6 -1 10 4 10 6 0 11 -4 11 -10z m-1487 -15 c7 -16 -8 -29 -23
-20 -10 6 -2 35 10 35 4 0 10 -7 13 -15z m-283 -11 c0 -8 -4 -12 -10 -9 -5 3
-10 10 -10 16 0 5 5 9 10 9 6 0 10 -7 10 -16z m6650 -9 c0 -8 -4 -15 -10 -15
-5 0 -10 7 -10 15 0 8 5 15 10 15 6 0 10 -7 10 -15z m-458 -57 c69 -25 80 -36
76 -80 -4 -41 -19 -41 -117 3 -70 31 -71 32 -71 71 0 37 1 38 28 32 15 -3 53
-15 84 -26z m-1112 -5 c0 -20 -23 -11 -26 9 -1 11 3 15 12 11 8 -3 14 -12 14
-20z m-5075 -23 c-5 -8 -11 -8 -17 -2 -6 6 -7 16 -3 22 5 8 11 8 17 2 6 -6 7
-16 3 -22z m6389 14 c9 -3 13 -11 9 -17 -4 -6 0 -8 10 -4 19 7 21 -1 8 -22
-13 -20 -48 -4 -54 24 -4 26 0 29 27 19z m-5914 -24 c0 -13 -28 -25 -38 -16
-3 4 0 11 8 16 20 13 30 12 30 0z m1330 -10 c0 -11 -4 -20 -10 -20 -5 0 -10 9
-10 20 0 11 5 20 10 20 6 0 10 -9 10 -20z m3270 -10 c0 -11 -2 -20 -5 -20 -2
0 -9 9 -15 20 -9 16 -8 20 5 20 8 0 15 -9 15 -20z m-4496 -8 c-1 -6 -2 -26 -2
-42 -2 -22 -9 -33 -24 -39 -29 -11 -29 -11 -33 33 -2 23 3 42 12 52 18 17 48
15 47 -4z m-164 -1 c0 -5 -7 -11 -15 -15 -15 -5 -20 5 -8 17 9 10 23 9 23 -2z
m60 -11 c0 -5 -9 -14 -20 -20 -16 -8 -20 -8 -20 4 0 13 13 23 33 25 4 1 7 -3
7 -9z m-179 -27 c-6 -22 -14 -29 -39 -31 -27 -3 -31 -1 -26 15 9 24 33 43 55
43 14 0 16 -5 10 -27z m1335 12 c-4 -24 -16 -30 -16 -7 0 12 4 22 9 22 5 0 8
-7 7 -15z m4902 -3 c2 -7 -2 -10 -12 -6 -9 3 -16 11 -16 16 0 13 23 5 28 -10z
m-148 -53 l0 -29 -45 22 c-25 12 -45 26 -45 30 0 5 9 4 21 -2 11 -6 25 -10 31
-8 6 2 -3 10 -20 17 -49 20 -38 32 13 14 39 -13 45 -18 45 -44z m205 48 c11
-9 14 -16 7 -21 -15 -9 -42 4 -42 20 0 18 11 18 35 1z m-6175 -6 c0 -5 -7 -11
-15 -15 -9 -3 -15 0 -15 9 0 8 7 15 15 15 8 0 15 -4 15 -9z m58 -30 c0 -18 -5
-32 -15 -35 -24 -10 -29 2 -7 19 17 13 17 14 2 15 -21 0 -24 16 -5 23 22 9 24
7 25 -22z m6062 3 c0 -9 -5 -14 -12 -12 -18 6 -21 28 -4 28 9 0 16 -7 16 -16z
m-6131 -24 c-22 -14 -34 2 -13 17 13 10 20 10 23 2 2 -6 -3 -15 -10 -19z m971
16 c0 -3 -4 -8 -10 -11 -5 -3 -10 -1 -10 4 0 6 5 11 10 11 6 0 10 -2 10 -4z
m253 -11 c4 -8 2 -17 -3 -20 -6 -4 -10 3 -10 14 0 25 6 27 13 6z m3897 -1 c0
-8 -4 -12 -10 -9 -5 3 -10 10 -10 16 0 5 5 9 10 9 6 0 10 -7 10 -16z m1073 1
c-4 -15 -36 -12 -41 3 -3 9 3 13 19 10 13 -1 23 -7 22 -13z m-65 -24 c3 -8 -1
-12 -9 -9 -7 2 -15 10 -17 17 -3 8 1 12 9 9 7 -2 15 -10 17 -17z m-5218 -1 c0
-5 -4 -10 -10 -10 -5 0 -10 5 -10 10 0 6 5 10 10 10 6 0 10 -4 10 -10z m-900
-10 c0 -5 -9 -10 -21 -10 -11 0 -17 5 -14 10 3 6 13 10 21 10 8 0 14 -4 14
-10z m6178 -8 c3 -9 -2 -13 -14 -10 -9 1 -19 9 -22 16 -3 9 2 13 14 10 9 -1
19 -9 22 -16z m112 -2 c24 -13 27 -110 3 -110 -38 0 -53 20 -53 70 0 53 10 61
50 40z m-175 -11 c12 -19 -5 -23 -22 -6 -16 16 -16 17 -1 17 9 0 20 -5 23 -11z
m-6267 -28 c1 -26 -4 -31 -48 -45 -57 -19 -60 -19 -60 -7 0 5 16 15 35 22 19
7 35 16 35 20 0 5 -16 1 -35 -7 -51 -21 -44 3 8 26 57 25 64 25 65 -9z m-158
-35 l0 -53 -52 -21 c-29 -11 -61 -23 -71 -27 -16 -7 -18 -2 -15 51 l3 58 55
22 c79 33 80 32 80 -30z m6488 36 c3 -9 -2 -13 -14 -10 -9 1 -19 9 -22 16 -3
9 2 13 14 10 9 -1 19 -9 22 -16z m-5418 -12 c0 -5 -5 -10 -11 -10 -5 0 -7 5
-4 10 3 6 8 10 11 10 2 0 4 -4 4 -10z m230 6 c0 -3 -4 -8 -10 -11 -5 -3 -10
-1 -10 4 0 6 5 11 10 11 6 0 10 -2 10 -4z m37 -28 c-3 -7 -5 -2 -5 12 0 14 2
19 5 13 2 -7 2 -19 0 -25z m4283 7 c0 -8 -4 -15 -10 -15 -5 0 -10 7 -10 15 0
8 5 15 10 15 6 0 10 -7 10 -15z m-225 -9 c22 -16 29 -46 10 -46 -14 0 -29 16
-38 43 -8 20 2 22 28 3z m-4395 -16 c0 -5 -4 -10 -10 -10 -5 0 -10 5 -10 10 0
6 5 10 10 10 6 0 10 -4 10 -10z m5070 0 c0 -5 -4 -10 -10 -10 -5 0 -10 5 -10
10 0 6 5 10 10 10 6 0 10 -4 10 -10z m-4880 -25 c0 -8 -4 -15 -10 -15 -5 0
-10 7 -10 15 0 8 5 15 10 15 6 0 10 -7 10 -15z m70 -35 c0 -16 -4 -30 -9 -30
-14 0 -20 37 -8 49 16 16 17 14 17 -19z m-783 -2 c-3 -8 -6 -5 -6 6 -1 11 2
17 5 13 3 -3 4 -12 1 -19z m4918 8 c18 -13 30 -46 17 -46 -13 1 -38 25 -45 43
-8 20 2 22 28 3z m100 -16 c3 -5 1 -10 -4 -10 -6 0 -11 5 -11 10 0 6 2 10 4
10 3 0 8 -4 11 -10z m115 -36 c0 -18 -14 -18 -30 1 -16 19 -3 40 16 24 8 -6
14 -18 14 -25z m-4520 16 c0 -5 -5 -10 -11 -10 -5 0 -7 5 -4 10 3 6 8 10 11
10 2 0 4 -4 4 -10z m4405 -10 c3 -5 1 -10 -4 -10 -6 0 -11 5 -11 10 0 6 2 10
4 10 3 0 8 -4 11 -10z m665 0 c0 -5 -5 -10 -11 -10 -5 0 -7 5 -4 10 3 6 8 10
11 10 2 0 4 -4 4 -10z m-5070 -20 c0 -5 -5 -10 -11 -10 -5 0 -7 5 -4 10 3 6 8
10 11 10 2 0 4 -4 4 -10z m5130 6 c0 -3 -4 -8 -10 -11 -5 -3 -10 -1 -10 4 0 6
5 11 10 11 6 0 10 -2 10 -4z m110 -11 c0 -8 -4 -15 -10 -15 -5 0 -10 7 -10 15
0 8 5 15 10 15 6 0 10 -7 10 -15z m-835 -5 c3 -5 1 -10 -4 -10 -6 0 -11 5 -11
10 0 6 2 10 4 10 3 0 8 -4 11 -10z m-4435 -10 c0 -5 -5 -10 -11 -10 -5 0 -7 5
-4 10 3 6 8 10 11 10 2 0 4 -4 4 -10z m-60 -20 c0 -10 -9 -24 -19 -30 -28 -14
-36 -12 -21 5 11 13 10 15 -6 9 -16 -5 -15 -2 5 15 29 26 41 27 41 1z m90 10
c0 -5 -5 -10 -11 -10 -5 0 -7 5 -4 10 3 6 8 10 11 10 2 0 4 -4 4 -10z m-880
-35 c0 -8 -4 -15 -10 -15 -5 0 -10 7 -10 15 0 8 5 15 10 15 6 0 10 -7 10 -15z
m880 5 c0 -5 -4 -10 -10 -10 -5 0 -10 5 -10 10 0 6 5 10 10 10 6 0 10 -4 10
-10z m-30 -20 c0 -5 -4 -10 -10 -10 -5 0 -10 5 -10 10 0 6 5 10 10 10 6 0 10
-4 10 -10z m4920 -6 c0 -8 -5 -12 -10 -9 -6 4 -8 11 -5 16 9 14 15 11 15 -7z
m-310 -19 c0 -14 -4 -25 -10 -25 -5 0 -10 11 -10 25 0 14 5 25 10 25 6 0 10
-11 10 -25z m-4670 -8 c0 -20 -32 -47 -55 -47 -8 0 8 34 23 53 21 24 32 21 32
-6z m-685 3 c3 -5 1 -10 -4 -10 -6 0 -11 5 -11 10 0 6 2 10 4 10 3 0 8 -4 11
-10z m6180 -20 c3 -5 1 -10 -4 -10 -6 0 -11 5 -11 10 0 6 2 10 4 10 3 0 8 -4
11 -10z m-6415 -10 c0 -5 -2 -10 -4 -10 -3 0 -8 5 -11 10 -3 6 -1 10 4 10 6 0
11 -4 11 -10z m6330 6 c0 -3 -4 -8 -10 -11 -5 -3 -10 -1 -10 4 0 6 5 11 10 11
6 0 10 -2 10 -4z m220 -11 c0 -8 -4 -15 -10 -15 -5 0 -10 7 -10 15 0 8 5 15
10 15 6 0 10 -7 10 -15z m-6550 -31 c0 -8 -5 -12 -10 -9 -6 4 -8 11 -5 16 9
14 15 11 15 -7z m436 -11 c-10 -10 -19 5 -10 18 6 11 8 11 12 0 2 -7 1 -15 -2
-18z m5668 -8 c3 -9 0 -15 -9 -15 -8 0 -15 7 -15 15 0 8 4 15 9 15 5 0 11 -7
15 -15z m446 -15 c0 -5 -4 -10 -10 -10 -5 0 -10 5 -10 10 0 6 5 10 10 10 6 0
10 -4 10 -10z m-6750 -15 c0 -8 -4 -15 -10 -15 -5 0 -10 7 -10 15 0 8 5 15 10
15 6 0 10 -7 10 -15z m130 -5 c0 -5 -4 -10 -10 -10 -5 0 -10 5 -10 10 0 6 5
10 10 10 6 0 10 -4 10 -10z m405 -10 c0 -7 -6 -15 -12 -17 -8 -3 -13 4 -13 17
0 13 5 20 13 18 6 -3 12 -11 12 -18z m6245 10 c0 -5 -4 -10 -10 -10 -5 0 -10
5 -10 10 0 6 5 10 10 10 6 0 10 -4 10 -10z m-6680 -10 c0 -5 -4 -10 -10 -10
-5 0 -10 5 -10 10 0 6 5 10 10 10 6 0 10 -4 10 -10z m6313 -33 c-3 -5 -10 -4
-15 1 -6 6 -7 16 -3 22 6 9 9 9 16 -1 4 -7 5 -17 2 -22z m-5673 6 c-1 -18 -53
-63 -72 -63 -20 0 -4 32 25 50 34 21 47 25 47 13z m30 -38 c0 -19 -4 -35 -10
-35 -11 0 -14 53 -3 63 11 12 13 8 13 -28z m-740 -15 c0 -5 -2 -10 -4 -10 -3
0 -8 5 -11 10 -3 6 -1 10 4 10 6 0 11 -4 11 -10z m6230 -30 c33 -17 40 -25 40
-51 0 -33 -2 -33 -58 9 -36 28 -37 40 0 22 18 -9 16 -6 -7 14 -36 31 -28 33
25 6z m-5640 -15 c-7 -9 -15 -13 -18 -10 -3 2 1 11 8 20 7 9 15 13 18 10 3 -2
-1 -11 -8 -20z m-330 -19 c-14 -14 -24 0 -16 21 6 15 8 15 16 3 6 -9 5 -19 0
-24z m6372 -28 c-16 -16 -37 4 -28 28 6 16 8 16 23 1 13 -13 15 -19 5 -29z
m-6137 0 c-8 -25 -32 -48 -51 -48 -21 0 -9 41 16 55 35 20 42 18 35 -7z m215
13 c0 -10 -62 -61 -73 -61 -17 0 -4 30 21 49 29 22 52 27 52 12z m-100 -49 c0
-29 -31 -68 -43 -55 -14 13 -7 62 11 72 27 16 32 13 32 -17z m5620 6 c32 -18
40 -29 40 -51 0 -31 -3 -30 -58 11 -36 28 -36 40 0 22 22 -11 22 -10 4 4 -11
9 -23 16 -28 16 -4 0 -8 5 -8 10 0 14 6 13 50 -12z m128 4 c2 -7 -2 -10 -12
-6 -9 3 -16 11 -16 16 0 13 23 5 28 -10z m-6228 -12 c0 -21 -15 -27 -25 -10
-7 12 2 30 16 30 5 0 9 -9 9 -20z m6290 -23 c0 -5 -7 -6 -16 -3 -9 3 -18 6
-20 6 -2 0 -4 7 -4 15 0 13 3 13 20 3 11 -7 20 -17 20 -21z m-60 -4 c0 -13 -3
-13 -15 -3 -8 7 -15 16 -15 21 0 5 7 6 15 3 8 -4 15 -13 15 -21z m410 1 c0 -8
-7 -14 -15 -14 -15 0 -21 21 -9 33 10 9 24 -2 24 -19z m-350 -35 c0 -6 -7 -8
-16 -5 -9 3 -18 6 -20 6 -2 0 -4 7 -4 15 0 13 4 14 20 5 11 -6 20 -16 20 -21z
m-60 -5 c0 -14 -3 -14 -15 -4 -8 7 -15 14 -15 16 0 2 7 4 15 4 8 0 15 -7 15
-16z m60 -35 c0 -6 -7 -8 -16 -5 -9 3 -18 6 -20 6 -2 0 -4 7 -4 15 0 13 4 14
20 5 11 -6 20 -16 20 -21z m198 -23 c2 -10 0 -22 -5 -27 -13 -13 -63 35 -63
61 0 22 0 22 32 3 18 -11 34 -27 36 -37z m-6320 -11 c0 -44 -4 -58 -19 -66
-25 -13 -26 8 -1 28 16 14 16 14 0 9 -10 -3 -18 0 -18 6 0 6 8 17 18 25 16 14
16 14 0 9 -10 -3 -18 0 -18 6 0 8 26 35 36 38 1 0 2 -25 2 -55z m6068 28 c-8
-8 -36 5 -36 17 0 7 6 7 21 0 11 -7 18 -14 15 -17z m44 -18 c7 -9 11 -18 8
-20 -9 -10 -38 7 -38 21 0 18 14 18 30 -1z m-6176 -27 c9 -33 8 -36 -13 -47
-16 -9 -18 -6 -16 27 3 43 2 42 14 42 5 0 11 -10 15 -22z m-104 -70 c-1 -29
-7 -37 -57 -66 -85 -49 -86 -31 -2 31 14 11 9 9 -14 -4 -21 -12 -41 -18 -45
-14 -4 3 0 10 8 15 8 5 33 22 55 38 22 17 43 31 48 31 4 1 7 -14 7 -31z m6435
22 c3 -5 1 -10 -4 -10 -6 0 -11 5 -11 10 0 6 2 10 4 10 3 0 8 -4 11 -10z m193
-17 c4 -30 -10 -29 -45 2 l-28 25 35 -2 c28 -2 36 -8 38 -25z m-6518 -3 c0 -5
-9 -14 -20 -20 -22 -12 -27 -1 -8 18 14 14 28 16 28 2z m60 2 c0 -4 -5 -13
-12 -20 -7 -7 -16 -12 -20 -12 -13 0 -9 28 5 33 19 8 27 8 27 -1z m-60 -41 c0
-13 -29 -35 -37 -28 -7 8 15 37 28 37 5 0 9 -4 9 -9z m6501 -31 c23 -13 28
-90 6 -90 -23 0 -44 33 -45 68 -1 34 7 38 39 22z m-6613 -42 c-2 -24 -11 -36
-36 -50 -18 -10 -44 -25 -57 -34 -15 -10 -25 -12 -25 -5 0 6 18 23 40 37 48
32 54 44 6 15 -36 -23 -49 -26 -44 -11 4 11 99 80 111 80 5 0 7 -14 5 -32z
m6092 22 c0 -5 -4 -10 -10 -10 -5 0 -10 5 -10 10 0 6 5 10 10 10 6 0 10 -4 10
-10z m115 -90 c3 -5 1 -10 -4 -10 -6 0 -11 5 -11 10 0 6 2 10 4 10 3 0 8 -4
11 -10z m50 -29 c3 -5 1 -12 -5 -16 -5 -3 -10 1 -10 9 0 18 6 21 15 7z m-6415
-31 c0 -5 -2 -10 -4 -10 -3 0 -8 5 -11 10 -3 6 -1 10 4 10 6 0 11 -4 11 -10z
m440 -20 c0 -5 -4 -10 -10 -10 -5 0 -10 5 -10 10 0 6 5 10 10 10 6 0 10 -4 10
-10z"/>
<path d="M3310 3441 c0 -5 -3 -16 -6 -25 -5 -14 13 -16 164 -16 l170 0 0 25
c0 25 -2 25 -79 25 -64 0 -79 -3 -79 -15 0 -8 -4 -15 -10 -15 -5 0 -7 7 -4 15
5 13 -7 15 -75 15 -45 0 -81 -4 -81 -9z m110 -11 c0 -5 -5 -10 -11 -10 -5 0
-7 5 -4 10 3 6 8 10 11 10 2 0 4 -4 4 -10z"/>
</g>
</svg>
