<?xml version="1.0" standalone="no"?>
<!DOCTYPE svg PUBLIC "-//W3C//DTD SVG 20010904//EN"
 "http://www.w3.org/TR/2001/REC-SVG-20010904/DTD/svg10.dtd">
<svg version="1.0" xmlns="http://www.w3.org/2000/svg"
 width="300.000000pt" height="122.000000pt" viewBox="0 0 300.000000 122.000000"
 preserveAspectRatio="xMidYMid meet">

<g transform="translate(0.000000,122.000000) scale(0.100000,-0.100000)"
fill="#000000" stroke="none">
<path d="M1313 1003 c-12 -26 -18 -64 -18 -121 0 -45 -1 -82 -2 -82 -2 0 -13
19 -25 43 -16 31 -23 37 -26 24 -6 -30 28 -123 60 -161 27 -33 34 -36 84 -36
l54 0 0 39 c0 107 149 159 267 91 63 -36 67 -42 42 -63 -11 -10 -19 -12 -19
-5 0 6 -3 9 -6 5 -8 -8 6 -67 16 -67 4 0 18 25 30 55 56 139 -41 278 -195 279
-56 1 -68 -3 -120 -37 -35 -24 -62 -50 -68 -68 -6 -16 -14 -29 -18 -29 -15 0
-34 68 -33 118 0 28 -1 52 -3 52 -1 0 -11 -17 -20 -37z"/>
<path d="M175 739 c-161 -40 -230 -252 -122 -376 49 -56 106 -76 208 -76 113
1 140 14 155 73 15 61 -3 64 -61 11 -49 -45 -79 -56 -132 -48 -72 12 -113 77
-113 179 0 86 16 136 55 175 25 25 42 33 69 33 49 0 95 -21 130 -59 30 -31 56
-41 56 -20 0 28 -25 91 -39 99 -26 13 -163 20 -206 9z"/>
<path d="M808 723 c-43 -18 -47 -28 -18 -43 20 -11 21 -20 20 -198 0 -103 0
-191 0 -197 0 -5 10 1 21 14 19 24 21 24 55 8 48 -23 119 -22 160 3 36 23 74
91 74 133 0 41 -24 91 -55 115 -36 29 -108 30 -152 2 l-33 -20 0 100 c0 112 0
112 -72 83z m185 -203 c73 -57 41 -203 -43 -203 -51 0 -65 23 -68 116 -4 79
-3 84 20 94 35 17 63 15 91 -7z"/>
<path d="M1254 691 c11 -11 23 -21 28 -21 14 0 -1 19 -25 31 -22 12 -22 12 -3
-10z"/>
<path d="M1524 571 c-17 -16 -38 -31 -45 -34 -11 -4 -9 -9 6 -22 17 -13 21
-30 24 -100 3 -83 2 -85 -23 -96 -14 -7 -26 -16 -26 -20 0 -4 43 -7 95 -8 96
0 123 11 63 27 l-33 8 -3 86 c-3 96 9 120 47 96 38 -23 79 23 51 57 -18 21
-50 18 -77 -7 l-23 -21 0 31 c0 40 -15 40 -56 3z"/>
<path d="M2421 573 c-19 -12 -42 -23 -52 -23 -25 0 -24 -17 1 -25 26 -8 32
-34 28 -125 l-3 -75 -31 -3 c-53 -5 -64 16 -64 124 0 114 -13 134 -85 134 -73
0 -139 -39 -158 -92 -17 -47 58 -20 78 29 29 68 99 49 93 -25 -3 -31 -8 -36
-62 -58 -33 -13 -70 -34 -83 -46 -29 -27 -31 -73 -4 -88 31 -16 93 -12 128 9
31 19 31 19 49 0 15 -17 30 -19 136 -17 82 2 118 6 118 14 0 6 -9 14 -20 17
-18 5 -20 14 -20 101 l0 96 36 17 c32 16 38 16 62 2 26 -14 27 -18 30 -117 3
-97 2 -102 -18 -102 -11 0 -20 -6 -20 -13 0 -10 23 -14 86 -15 65 -1 85 1 82
11 -3 6 -14 13 -26 15 -21 3 -22 9 -22 97 0 89 1 95 26 114 15 12 37 21 50 21
40 0 54 -35 54 -136 0 -85 -2 -92 -21 -97 -42 -11 -7 -25 60 -23 71 1 102 12
63 23 -25 6 -25 4 -22 99 2 79 -16 136 -48 153 -33 18 -104 13 -140 -9 -32
-20 -33 -20 -53 -1 -11 10 -33 21 -49 24 -30 7 -96 -8 -105 -23 -10 -17 -25
-11 -25 9 0 29 -11 30 -49 4z m-191 -178 c0 -54 -48 -93 -78 -63 -19 19 -14
38 19 69 42 39 59 38 59 -6z"/>
<path d="M1219 557 c-48 -32 -71 -81 -66 -139 8 -91 85 -150 176 -133 42 7
101 44 101 63 0 15 -5 15 -58 -3 -58 -20 -106 -2 -127 49 -27 65 -27 66 89 66
l105 0 -10 33 c-5 17 -22 44 -39 60 -40 36 -120 38 -171 4z m107 -5 c11 -7 34
-45 34 -56 0 -3 -29 -6 -65 -6 -57 0 -64 2 -58 18 16 44 58 65 89 44z"/>
<path d="M1773 560 c-43 -26 -67 -74 -66 -132 1 -55 21 -91 66 -118 110 -67
247 -1 247 118 0 57 -24 107 -65 132 -44 27 -138 28 -182 0z m136 -19 c37 -37
41 -154 7 -206 -21 -32 -74 -35 -102 -4 -28 31 -28 177 0 208 24 26 70 27 95
2z"/>
<path d="M440 560 c0 -5 5 -10 11 -10 9 0 116 -215 134 -269 4 -15 1 -37 -11
-63 -15 -32 -21 -38 -38 -33 -38 12 -58 10 -70 -7 -15 -24 3 -52 36 -56 44 -5
74 34 136 183 33 77 67 161 77 188 10 26 23 47 30 47 7 0 18 7 25 15 11 13 4
15 -53 15 -68 0 -97 -15 -52 -26 14 -3 25 -12 25 -20 0 -26 -53 -155 -61 -147
-4 4 -24 42 -43 85 -33 72 -33 76 -15 81 10 3 19 10 19 16 0 7 -27 11 -75 11
-43 0 -75 -4 -75 -10z"/>
<path d="M2950 535 c0 -6 7 -12 15 -12 8 0 15 6 15 12 0 6 -7 12 -15 12 -8 0
-15 -6 -15 -12z"/>
<path d="M1212 180 c-48 -20 -52 -107 -6 -137 30 -19 93 -12 111 14 14 18 17
81 5 100 -8 13 -56 33 -75 32 -7 0 -22 -4 -35 -9z m73 -26 c10 -11 15 -29 13
-53 -2 -29 -8 -37 -31 -45 -35 -13 -60 10 -60 55 0 50 45 75 78 43z"/>
<path d="M1745 183 c-35 -9 -45 -24 -45 -73 0 -32 5 -52 17 -61 23 -20 98 -18
119 3 20 20 21 95 2 114 -16 15 -65 24 -93 17z m56 -23 c22 -12 27 -78 7 -98
-15 -15 -51 -15 -66 0 -19 19 -15 85 6 97 22 13 29 13 53 1z"/>
<path d="M1007 173 c-4 -3 -7 -19 -7 -34 0 -31 11 -36 80 -41 24 -2 36 -8 38
-21 3 -14 -5 -17 -52 -17 -32 0 -56 -4 -56 -10 0 -7 25 -10 68 -8 61 3 67 5
70 26 5 37 -15 52 -69 52 -42 0 -49 3 -49 20 0 18 7 20 55 20 30 0 55 5 55 10
0 11 -123 14 -133 3z"/>
<path d="M1360 110 c0 -56 3 -70 15 -70 9 0 15 9 15 25 0 23 4 25 43 25 61 0
83 22 66 68 -7 20 -15 22 -74 22 l-65 0 0 -70z m108 28 c-2 -19 -10 -24 -40
-26 -35 -3 -38 -1 -38 22 0 24 4 26 41 26 36 0 40 -2 37 -22z"/>
<path d="M1540 110 c0 -50 4 -70 13 -70 7 0 13 12 12 28 0 24 4 27 38 30 35 3
37 2 37 -27 0 -17 5 -31 10 -31 6 0 10 30 10 70 0 40 -4 70 -10 70 -5 0 -10
-14 -10 -31 0 -29 -2 -30 -37 -27 -34 3 -38 6 -38 31 1 15 -5 27 -12 27 -9 0
-13 -20 -13 -70z"/>
<path d="M1884 166 c-3 -8 -4 -25 -2 -38 3 -20 10 -24 58 -28 42 -4 56 -9 58
-23 3 -14 -5 -17 -52 -17 -30 0 -58 -4 -61 -10 -4 -6 20 -10 64 -10 68 0 71 1
77 27 9 35 -16 53 -73 53 -36 0 -43 3 -43 20 0 18 7 20 55 20 30 0 55 5 55 10
0 17 -130 13 -136 -4z"/>
</g>
</svg>
