<?xml version="1.0" standalone="no"?>
<!DOCTYPE svg PUBLIC "-//W3C//DTD SVG 20010904//EN"
 "http://www.w3.org/TR/2001/REC-SVG-20010904/DTD/svg10.dtd">
<svg version="1.0" xmlns="http://www.w3.org/2000/svg"
 width="311.000000pt" height="162.000000pt" viewBox="0 0 311.000000 162.000000"
 preserveAspectRatio="xMidYMid meet">

<g transform="translate(0.000000,162.000000) scale(0.100000,-0.100000)"
fill="#000000" stroke="none">
<path d="M1590 1110 c-42 -10 -75 -46 -91 -99 -19 -65 -9 -75 66 -68 71 7 138
36 155 68 33 62 -42 119 -130 99z"/>
<path d="M2995 1090 c-26 -28 -15 -31 12 -3 12 13 19 23 14 23 -4 0 -16 -9
-26 -20z"/>
<path d="M2518 1071 c-72 -19 -102 -32 -114 -48 -16 -24 -13 -26 24 -23 l22 1
0 -216 0 -215 -25 -10 c-14 -5 -25 -14 -25 -19 0 -5 -3 -16 -6 -25 -5 -14 12
-16 148 -16 l155 0 11 25 c15 34 15 35 -6 35 -29 0 -42 21 -42 69 l1 46 72
-78 c82 -88 102 -97 218 -97 62 0 81 4 103 21 35 27 33 35 -11 44 -29 5 -57
26 -125 93 -48 47 -88 91 -88 97 0 17 119 145 134 145 13 0 46 31 46 43 0 4
-52 7 -115 7 l-115 0 -57 -70 -58 -71 -3 146 c-3 170 11 158 -144 116z"/>
<path d="M46 1069 c-23 -33 -20 -47 12 -51 l27 -3 3 -195 c1 -107 0 -205 -3
-217 -3 -13 -16 -25 -31 -29 -24 -6 -59 -56 -47 -68 4 -3 104 -6 223 -6 247 0
299 9 353 64 34 34 103 165 113 215 11 56 -95 248 -158 286 -30 18 -54 20
-254 23 l-222 4 -16 -23z m326 -66 c25 -29 118 -198 117 -214 0 -7 -28 -59
-62 -114 -60 -96 -64 -100 -97 -100 l-35 0 -3 210 c-1 115 0 215 2 222 8 19
60 16 78 -4z"/>
<path d="M946 1058 c-25 -35 -19 -47 22 -50 l37 -3 3 -204 c3 -215 0 -231 -43
-231 -25 0 -39 -14 -49 -47 l-7 -23 258 0 c188 0 262 3 271 12 8 8 12 48 12
116 l0 105 -32 -7 c-44 -9 -55 -20 -68 -76 -15 -62 -37 -82 -87 -78 l-38 3 0
215 0 214 25 6 c13 3 33 20 43 38 l19 32 -176 0 c-169 0 -175 -1 -190 -22z"/>
<path d="M3022 1050 c0 -19 2 -27 5 -17 2 9 2 25 0 35 -3 9 -5 1 -5 -18z"/>
<path d="M3099 1042 c-3 -20 -2 -29 4 -23 5 5 7 19 5 32 -3 20 -5 19 -9 -9z"/>
<path d="M3052 1051 c-11 -6 -10 -10 0 -19 11 -8 14 -7 14 9 0 10 0 19 -1 19
0 0 -6 -4 -13 -9z"/>
<path d="M3045 990 l-30 -8 27 -1 c15 0 30 4 33 9 3 6 5 9 3 9 -2 -1 -16 -5
-33 -9z"/>
<path d="M1977 974 c-15 -8 -60 -21 -99 -29 -39 -7 -75 -19 -79 -27 -15 -22
-10 -38 11 -38 19 0 20 -7 20 -150 0 -132 -2 -153 -20 -182 -11 -18 -20 -37
-20 -41 0 -4 62 -6 137 -5 135 3 138 3 150 28 11 23 10 26 -10 30 -21 6 -22
11 -25 136 -3 144 4 162 53 150 l25 -6 0 -146 c0 -141 1 -146 25 -169 22 -23
32 -25 119 -25 l94 0 10 29 c9 27 8 30 -11 33 -21 3 -22 7 -27 186 l-5 184
-29 25 c-26 22 -36 25 -77 20 -26 -3 -74 -17 -108 -31 -33 -14 -65 -26 -71
-26 -5 0 -10 16 -10 35 0 39 -10 42 -53 19z"/>
<path d="M1680 933 c-19 -8 -66 -22 -105 -30 -49 -10 -75 -21 -87 -36 -16 -21
-16 -22 5 -26 12 -1 25 -8 29 -15 9 -13 10 -212 2 -243 -4 -13 -13 -23 -20
-23 -12 0 -34 -37 -34 -56 0 -2 65 -4 143 -4 l144 0 12 26 c6 15 10 27 9 28
-44 18 -43 14 -46 210 -1 102 -6 186 -10 185 -4 0 -23 -7 -42 -16z"/>
<path d="M768 833 c-22 -28 -48 -71 -48 -83 0 -6 38 -10 100 -10 l100 0 30 47
c17 26 30 51 30 55 0 4 -44 8 -98 8 -82 0 -101 -3 -114 -17z"/>
</g>
</svg>
