<?xml version="1.0" standalone="no"?>
<!DOCTYPE svg PUBLIC "-//W3C//DTD SVG 20010904//EN"
 "http://www.w3.org/TR/2001/REC-SVG-20010904/DTD/svg10.dtd">
<svg version="1.0" xmlns="http://www.w3.org/2000/svg"
 width="355.000000pt" height="142.000000pt" viewBox="0 0 355.000000 142.000000"
 preserveAspectRatio="xMidYMid meet">

<g transform="translate(0.000000,142.000000) scale(0.100000,-0.100000)"
fill="#000000" stroke="none">
<path d="M0 1370 l0 -50 345 0 345 0 0 50 0 50 -345 0 -345 0 0 -50z"/>
<path d="M790 1371 l0 -51 493 0 c547 1 525 -3 387 64 l-65 31 -407 3 -408 3
0 -50z"/>
<path d="M1980 1370 l0 -50 290 0 c210 0 290 3 290 11 0 7 -5 29 -12 50 l-11
39 -279 0 -278 0 0 -50z"/>
<path d="M2980 1395 c-5 -14 -13 -37 -16 -50 l-6 -25 296 0 296 0 0 50 0 50
-280 0 -280 0 -10 -25z"/>
<path d="M0 1185 l0 -45 345 0 345 0 0 45 0 45 -345 0 -345 0 0 -45z"/>
<path d="M790 1185 l0 -45 545 0 c344 0 545 4 545 10 0 5 -8 25 -17 45 l-17
35 -528 0 -528 0 0 -45z"/>
<path d="M1980 1185 l0 -45 326 0 c307 0 326 1 319 18 -4 9 -12 29 -17 45
l-10 27 -309 0 -309 0 0 -45z"/>
<path d="M2907 1185 l-16 -45 330 0 329 0 0 45 0 45 -314 0 -314 0 -15 -45z"/>
<path d="M200 995 l0 -45 145 0 145 0 0 45 0 45 -145 0 -145 0 0 -45z"/>
<path d="M990 995 l0 -45 145 0 145 0 0 45 0 45 -145 0 -145 0 0 -45z"/>
<path d="M1580 995 l0 -45 155 0 c154 0 155 0 155 23 0 12 3 32 6 45 l6 22
-161 0 -161 0 0 -45z"/>
<path d="M2170 995 l0 -45 260 0 c143 0 260 3 260 6 0 4 -5 24 -12 45 l-11 39
-249 0 -248 0 0 -45z"/>
<path d="M2842 1001 c-7 -21 -12 -41 -12 -45 0 -3 117 -6 260 -6 l260 0 0 45
0 45 -248 0 -249 0 -11 -39z"/>
<path d="M200 805 l0 -45 145 0 145 0 0 45 0 45 -145 0 -145 0 0 -45z"/>
<path d="M990 805 l0 -45 389 0 389 0 36 40 c20 22 36 42 36 45 0 3 -191 5
-425 5 l-425 0 0 -45z"/>
<path d="M2170 805 l0 -45 144 0 145 0 3 43 4 42 12 -30 c7 -16 15 -36 17 -42
3 -10 66 -13 268 -13 l264 0 14 43 14 42 3 -42 3 -43 145 0 144 0 0 45 0 45
-279 0 -279 0 -12 -35 c-14 -44 -24 -44 -36 -2 l-10 32 -282 3 -282 2 0 -45z"/>
<path d="M200 615 l0 -45 145 0 145 0 0 45 0 45 -145 0 -145 0 0 -45z"/>
<path d="M990 615 l0 -45 425 0 c472 0 444 -5 381 63 l-25 27 -391 0 -390 0 0
-45z"/>
<path d="M2170 615 l0 -45 145 0 145 0 0 45 0 45 -145 0 -145 0 0 -45z"/>
<path d="M2540 654 c0 -4 5 -24 12 -45 l11 -39 196 0 197 0 16 45 17 45 -224
0 c-124 0 -225 -3 -225 -6z"/>
<path d="M3060 615 l0 -45 145 0 145 0 0 45 0 45 -145 0 -145 0 0 -45z"/>
<path d="M200 425 l0 -45 145 0 145 0 0 45 0 45 -145 0 -145 0 0 -45z"/>
<path d="M990 425 l0 -45 145 0 145 0 0 45 0 45 -145 0 -145 0 0 -45z"/>
<path d="M1580 425 l0 -45 161 0 161 0 -6 23 c-3 12 -6 32 -6 45 0 22 -1 22
-155 22 l-155 0 0 -45z"/>
<path d="M2170 425 l0 -45 145 0 145 0 0 45 0 45 -145 0 -145 0 0 -45z"/>
<path d="M2617 425 l15 -45 128 0 128 0 16 40 c9 22 16 43 16 45 0 3 -72 5
-159 5 l-160 0 16 -45z"/>
<path d="M3060 425 l0 -45 145 0 145 0 0 45 0 45 -145 0 -145 0 0 -45z"/>
<path d="M1333 282 l-543 -2 0 -45 0 -45 528 0 529 0 18 39 c9 22 16 43 14 48
-2 4 -248 7 -546 5z"/>
<path d="M1980 238 l0 -48 240 0 240 0 0 48 0 47 -240 0 -240 0 0 -47z"/>
<path d="M2675 263 c17 -70 20 -73 85 -73 60 0 61 1 76 35 24 59 23 60 -76 60
-89 0 -91 -1 -85 -22z"/>
<path d="M3060 238 l0 -48 245 0 245 0 0 45 0 44 -245 3 -245 3 0 -47z"/>
<path d="M0 235 l0 -45 343 2 342 3 3 43 3 42 -345 0 -346 0 0 -45z"/>
<path d="M0 55 l0 -45 345 0 345 0 0 45 0 45 -345 0 -345 0 0 -45z"/>
<path d="M790 55 l0 -45 405 0 c380 0 407 1 458 20 29 11 68 31 87 45 l34 25
-492 0 -492 0 0 -45z"/>
<path d="M1980 55 l0 -45 240 0 240 0 0 45 0 45 -240 0 -240 0 0 -45z"/>
<path d="M2741 73 c5 -16 12 -35 15 -43 4 -10 10 -4 19 20 19 49 18 50 -15 50
-28 0 -29 -1 -19 -27z"/>
<path d="M3060 55 l0 -45 245 0 245 0 0 45 0 45 -245 0 -245 0 0 -45z"/>
</g>
</svg>
