<?xml version="1.0" standalone="no"?>
<!DOCTYPE svg PUBLIC "-//W3C//DTD SVG 20010904//EN"
 "http://www.w3.org/TR/2001/REC-SVG-20010904/DTD/svg10.dtd">
<svg version="1.0" xmlns="http://www.w3.org/2000/svg"
 width="2000.000000pt" height="667.000000pt" viewBox="0 0 2000.000000 667.000000"
 preserveAspectRatio="xMidYMid meet">

<g transform="translate(0.000000,667.000000) scale(0.100000,-0.100000)"
fill="#000000" stroke="none">
<path d="M3460 4137 l0 -2517 -22 0 c-98 0 -665 173 -983 300 -621 247 -1119
559 -1467 919 -461 476 -550 949 -249 1323 206 256 594 441 1120 533 80 14
148 28 151 32 21 24 213 298 217 310 6 15 -32 14 -307 -8 -706 -57 -1284 -260
-1609 -564 -103 -98 -170 -189 -227 -309 -169 -357 -78 -771 263 -1196 471
-589 1398 -1135 2483 -1465 155 -47 536 -146 605 -157 20 -3 20 -13 25 -662
l5 -659 642 570 642 570 308 6 c401 8 637 32 933 92 782 159 1278 515 1376
989 20 93 19 272 -1 370 -40 191 -146 405 -304 611 -72 94 -305 328 -432 435
-389 326 -982 660 -1540 869 l-86 33 -130 176 c-370 503 -861 1170 -1112 1512
-156 212 -287 389 -292 395 -5 5 -9 -1048 -9 -2508z m2019 -99 c842 -448 1341
-1011 1341 -1513 0 -492 -458 -855 -1265 -1004 -131 -24 -384 -54 -421 -49
-23 3 16 41 317 308 189 168 482 428 652 578 169 150 307 277 307 282 0 9 -98
144 -797 1092 -145 197 -263 360 -263 363 0 10 16 3 129 -57z"/>
<path d="M19527 3523 c-4 -3 -7 -15 -7 -25 0 -14 8 -18 35 -18 l35 0 0 -95 c0
-95 0 -95 25 -95 25 0 25 0 25 95 l0 95 35 0 c31 0 35 3 35 25 0 25 -1 25 -88
25 -49 0 -92 -3 -95 -7z"/>
<path d="M19757 3524 c-4 -4 -7 -58 -7 -121 0 -106 1 -113 20 -113 18 0 20 7
20 81 0 44 4 78 8 75 4 -3 19 -39 32 -81 20 -64 27 -75 44 -73 15 2 26 23 47
83 l27 80 1 -82 c1 -82 1 -83 26 -83 l26 0 -3 118 -3 117 -31 3 c-32 3 -32 2
-59 -78 -15 -45 -30 -78 -34 -75 -3 4 -17 39 -31 78 -21 62 -29 72 -50 75 -14
2 -29 0 -33 -4z"/>
<path d="M8753 3214 c-55 -20 -108 -80 -127 -145 -22 -74 -23 -423 -1 -496 20
-66 65 -107 135 -122 29 -6 152 -11 283 -11 168 0 236 -3 245 -12 7 -7 12 -41
12 -84 0 -56 -3 -73 -16 -78 -9 -3 -141 -6 -294 -6 -222 0 -286 3 -320 15 -24
8 -45 13 -48 11 -4 -5 14 -148 25 -194 l5 -23 462 3 463 3 48 30 c35 21 56 45
74 80 26 49 26 51 26 295 0 272 -2 284 -68 334 -59 46 -129 56 -372 56 -159 0
-224 3 -233 12 -7 7 -12 39 -12 75 0 53 3 64 21 73 14 8 110 10 302 8 239 -3
288 -6 320 -20 37 -17 37 -17 32 5 -2 12 -9 51 -15 87 -6 36 -13 77 -16 93
l-6 27 -441 -1 c-364 0 -449 -3 -484 -15z"/>
<path d="M10535 3189 c21 -58 21 -1024 1 -1081 l-14 -38 253 0 252 0 -13 52
c-11 41 -14 160 -14 528 0 435 4 511 25 563 7 16 -9 17 -248 17 l-256 0 14
-41z"/>
<path d="M11816 3208 c21 -66 24 -130 24 -563 0 -431 -4 -506 -25 -558 -7 -16
20 -17 506 -15 l513 3 17 100 c10 54 16 101 14 103 -2 3 -24 -1 -49 -7 -27 -7
-141 -11 -290 -11 l-246 0 0 156 0 155 233 -4 c127 -2 244 -8 260 -12 l27 -7
0 122 c0 122 0 122 -22 116 -57 -17 -186 -26 -333 -24 l-160 3 0 135 0 135
245 0 c172 0 255 -4 279 -13 19 -6 36 -11 37 -9 2 2 -5 50 -14 107 l-18 105
-503 3 -502 2 7 -22z"/>
<path d="M13570 3226 c0 -2 7 -20 15 -39 22 -54 22 -1038 0 -1081 -8 -15 -15
-30 -15 -32 0 -2 59 -4 130 -4 72 0 130 2 130 3 0 2 -7 18 -15 34 -13 26 -15
92 -13 449 l3 419 133 -390 c74 -214 143 -418 155 -452 l22 -63 155 0 155 0
93 268 c143 410 212 605 222 627 5 12 9 -146 9 -395 0 -337 -3 -423 -14 -455
-8 -22 -15 -41 -15 -42 0 -2 114 -3 254 -3 l254 0 -17 43 c-14 37 -16 102 -16
532 1 426 3 496 17 538 l16 47 -296 -2 -295 -3 -116 -322 c-64 -177 -118 -324
-121 -326 -3 -3 -55 142 -116 321 l-111 327 -301 3 c-166 1 -302 1 -302 -2z"/>
<path d="M16168 3216 c-64 -17 -113 -57 -146 -119 l-27 -52 -3 -373 c-2 -316
-1 -382 13 -428 18 -63 61 -116 119 -147 40 -22 50 -22 470 -25 483 -3 496 -2
566 68 70 70 74 93 78 470 4 422 -5 482 -92 558 -67 59 -97 62 -535 61 -285 0
-409 -4 -443 -13z m607 -201 l25 -24 0 -346 c0 -332 -1 -346 -20 -365 -18 -18
-33 -20 -168 -20 -139 0 -150 1 -168 21 -18 20 -19 41 -19 371 l0 350 24 19
c20 17 40 19 163 19 134 0 140 -1 163 -25z"/>
<path d="M18011 3193 c18 -35 19 -66 19 -543 0 -476 -1 -508 -19 -543 l-19
-37 134 0 135 0 -18 33 c-16 29 -18 70 -21 397 -2 201 -2 403 0 450 l3 85 243
-482 242 -483 290 0 290 0 0 548 c1 455 3 551 15 572 8 14 14 28 15 33 0 4
-58 7 -130 7 -71 0 -130 -2 -130 -5 0 -4 8 -20 18 -38 15 -29 17 -75 20 -466
3 -346 1 -432 -9 -429 -7 2 -117 213 -243 469 l-231 464 -311 3 -312 2 19 -37z"/>
</g>
</svg>
